<svg width="1920" height="515" viewBox="0 0 1920 515" fill="none" xmlns="http://www.w3.org/2000/svg">
<g clip-path="url(#clip0_1007_1888)">
<rect width="1920" height="515" fill="#FFCA0A"/>
<path d="M1518.55 450.38C1426.31 456.727 1331.28 454.081 1137.12 447.441C1028.1 443.712 808.872 449.89 699.451 450.38C619.675 450.737 555 418.006 555 378.067V129.002C555 89.0656 619.812 54.3391 699.451 56.6889C773.408 58.8701 882.19 67.5074 995.592 62.2186C1130.46 55.929 1386.46 50.5854 1518.55 56.6889C1597.99 60.3593 1663 89.0656 1663 129.002V378.067C1663 418.003 1597.58 444.942 1518.55 450.38Z" fill="#DEEBE9"/>
<path d="M1670.69 584.955C1454.66 595.554 1232.1 591.136 777.361 580.047C522.016 573.819 8.58354 584.136 -247.687 584.955C-434.527 585.551 -586 530.89 -586 464.192V48.2537C-586 -18.4404 -434.207 -76.4338 -247.687 -72.5095C-74.4754 -68.8669 180.299 -54.4426 445.891 -63.2749C761.768 -73.7786 1361.32 -82.7023 1670.69 -72.5095C1856.74 -66.3799 2009 -18.4404 2009 48.2537V464.192C2009 530.886 1855.79 575.874 1670.69 584.955Z" fill="#DEEBE9"/>
<path d="M2696.15 509.02C2600.8 516.802 2502.55 513.558 2301.82 505.416C2189.1 500.843 1962.46 508.418 1849.34 509.02C1766.86 509.458 1700 469.324 1700 420.353V114.964C1700 65.9956 1767.01 23.4157 1849.34 26.297C1925.8 28.9715 2038.26 39.5621 2155.5 33.0772C2294.94 25.3652 2559.59 18.8132 2696.15 26.297C2778.28 30.7975 2845.49 65.9956 2845.49 114.964V420.353C2845.49 469.321 2777.86 502.353 2696.15 509.02Z" fill="#DEEBE9"/>
<path d="M922.902 191H954.983V183.9H931.12V144.062H922.902V191ZM990.431 175.946C991.68 165.756 985.106 156.092 974.39 156.092C964.267 156.092 957.956 164.376 957.956 174.039C957.956 184.492 963.938 191.92 974.588 191.92C982.016 191.92 988.327 187.779 989.971 180.35H982.871C981.556 184.097 978.926 186.004 974.588 186.004C968.342 186.004 965.45 181.271 965.45 175.946H990.431ZM965.45 171.015C965.647 165.953 969.197 162.009 974.39 162.009C979.452 162.009 982.674 166.282 982.936 171.015H965.45ZM992.71 162.601H998.363V182.651C998.495 188.305 999.941 191.329 1007.76 191.329C1009.41 191.329 1010.99 191.066 1012.63 190.934V185.149C1011.58 185.412 1010.52 185.412 1009.47 185.412C1006.12 185.412 1005.86 183.834 1005.86 180.745V162.601H1012.63V157.013H1005.86V146.823H998.363V157.013H992.71V162.601ZM1066.16 157.013H1058.67V176.735C1058.67 181.994 1056.56 186.004 1050.32 186.004C1046.24 186.004 1043.81 183.834 1043.81 177.852V157.013H1036.32V178.575C1036.32 187.45 1040.13 191.92 1049 191.92C1052.75 191.92 1056.83 189.685 1058.67 186.267H1058.8V191H1066.16V157.013ZM1072.22 180.087C1072.36 188.107 1078.73 191.92 1087.28 191.92C1094.31 191.92 1102.46 188.962 1102.46 180.876C1102.46 174.171 1096.94 172.199 1091.49 170.95C1085.96 169.7 1080.44 169.175 1080.44 165.493C1080.44 162.535 1084.45 162.009 1086.62 162.009C1089.91 162.009 1092.87 162.995 1093.52 166.545H1101.35C1100.43 158.985 1094.12 156.092 1087.15 156.092C1080.97 156.092 1072.95 158.393 1072.95 165.822C1072.95 172.724 1078.34 174.697 1083.86 175.88C1089.32 177.129 1094.77 177.589 1094.97 181.534C1095.17 185.412 1090.24 186.004 1087.41 186.004C1083.4 186.004 1080.11 184.426 1079.72 180.087H1072.22ZM1126.45 191H1133.95V170.95C1133.95 165.953 1137.17 162.009 1142.16 162.009C1146.57 162.009 1148.67 164.31 1148.8 169.635V191H1156.3V167.663C1156.3 160.037 1151.63 156.092 1144.27 156.092C1139.8 156.092 1135.92 158.393 1134.08 161.483H1133.95V144.062H1126.45V191ZM1195.03 175.946C1196.28 165.756 1189.71 156.092 1178.99 156.092C1168.87 156.092 1162.56 164.376 1162.56 174.039C1162.56 184.492 1168.54 191.92 1179.19 191.92C1186.62 191.92 1192.93 187.779 1194.57 180.35H1187.47C1186.16 184.097 1183.53 186.004 1179.19 186.004C1172.94 186.004 1170.05 181.271 1170.05 175.946H1195.03ZM1170.05 171.015C1170.25 165.953 1173.8 162.009 1178.99 162.009C1184.05 162.009 1187.27 166.282 1187.54 171.015H1170.05ZM1200.93 191H1208.42V144.062H1200.93V191ZM1242.95 174.039C1242.95 179.956 1240.38 186.004 1233.55 186.004C1227.5 186.004 1224.01 180.876 1224.01 174.039C1224.01 166.808 1227.24 162.009 1233.55 162.009C1239.73 162.009 1242.95 167.86 1242.95 174.039ZM1216.78 203.556H1224.28V186.595H1224.41C1226.78 190.343 1231.44 191.92 1235.78 191.92C1245.84 191.92 1250.44 183.309 1250.44 174.171C1250.44 164.244 1245.25 156.092 1234.53 156.092C1230.19 156.092 1226.12 157.736 1224.01 161.615H1223.88V157.013H1216.78V203.556ZM1284.21 190.869L1283.35 193.498C1282.43 196.391 1281.58 198.231 1278.09 198.231C1276.91 198.231 1275.73 197.968 1274.54 197.771V204.082C1276.25 204.345 1277.96 204.477 1279.74 204.477C1287.56 204.477 1289.34 198.954 1291.77 192.841L1304.98 157.013H1297.16L1288.55 182.388H1288.42L1279.54 157.013H1271.32L1284.21 190.869ZM1324.74 186.004C1318.03 186.004 1315.08 179.89 1315.08 173.974C1315.08 168.123 1318.03 162.009 1324.74 162.009C1331.45 162.009 1334.4 168.123 1334.4 173.974C1334.4 179.89 1331.45 186.004 1324.74 186.004ZM1324.74 191.92C1335.65 191.92 1341.9 184.426 1341.9 173.974C1341.9 163.587 1335.65 156.092 1324.74 156.092C1313.83 156.092 1307.58 163.587 1307.58 173.974C1307.58 184.426 1313.83 191.92 1324.74 191.92ZM1377.97 157.013H1370.48V176.735C1370.48 181.994 1368.38 186.004 1362.13 186.004C1358.06 186.004 1355.62 183.834 1355.62 177.852V157.013H1348.13V178.575C1348.13 187.45 1351.94 191.92 1360.82 191.92C1364.56 191.92 1368.64 189.685 1370.48 186.267H1370.61V191H1377.97V157.013ZM1404.17 191H1411.67V170.818C1411.67 165.164 1415.22 162.009 1419.1 162.009C1423.63 162.009 1425.08 164.507 1425.08 169.175V191H1432.57V171.081C1432.57 165.362 1434.74 162.009 1439.8 162.009C1445.66 162.009 1445.98 165.756 1445.98 171.147V191H1453.48V167.531C1453.48 159.248 1449.27 156.092 1442.11 156.092C1437.17 156.092 1433.95 158.262 1431.46 161.746C1429.94 157.867 1426.07 156.092 1421.92 156.092C1416.53 156.092 1413.71 158.393 1411.47 161.746H1411.27V157.013H1404.17V191ZM1482.35 179.561C1482.35 184.295 1477.22 186.004 1473.93 186.004C1471.3 186.004 1467.03 185.018 1467.03 181.665C1467.03 177.721 1469.92 176.537 1473.14 176.011C1476.43 175.42 1480.04 175.486 1482.35 173.974V179.561ZM1489.84 165.953C1489.84 158.788 1482.87 156.092 1476.23 156.092C1468.74 156.092 1461.31 158.656 1460.78 167.4H1468.28C1468.61 163.718 1471.56 162.009 1475.77 162.009C1478.8 162.009 1482.81 162.732 1482.81 166.611C1482.81 171.015 1478.01 170.424 1472.62 171.41C1466.31 172.133 1459.53 173.513 1459.53 181.994C1459.53 188.633 1465.06 191.92 1471.17 191.92C1475.18 191.92 1479.98 190.671 1482.94 187.779C1483.53 190.869 1485.7 191.92 1488.72 191.92C1489.97 191.92 1492.34 191.46 1493.46 191.066V185.872C1492.67 186.004 1492.08 186.004 1491.61 186.004C1490.23 186.004 1489.84 185.281 1489.84 183.44V165.953ZM1498.1 191H1505.6V178.838L1510.07 174.499L1520.45 191H1529.59L1515.32 169.503L1528.34 157.013H1519.14L1505.6 170.752V144.062H1498.1V191ZM1564.04 175.946C1565.29 165.756 1558.72 156.092 1548 156.092C1537.88 156.092 1531.57 164.376 1531.57 174.039C1531.57 184.492 1537.55 191.92 1548.2 191.92C1555.63 191.92 1561.94 187.779 1563.58 180.35H1556.48C1555.17 184.097 1552.54 186.004 1548.2 186.004C1541.96 186.004 1539.06 181.271 1539.06 175.946H1564.04ZM1539.06 171.015C1539.26 165.953 1542.81 162.009 1548 162.009C1553.07 162.009 1556.29 166.282 1556.55 171.015H1539.06ZM973.648 269.869L972.793 272.498C971.873 275.391 971.018 277.231 967.534 277.231C966.351 277.231 965.168 276.968 963.984 276.771V283.082C965.694 283.345 967.403 283.477 969.178 283.477C977.001 283.477 978.776 277.954 981.208 271.841L994.422 236.013H986.599L977.987 261.388H977.855L968.98 236.013H960.763L973.648 269.869ZM1014.18 265.004C1007.47 265.004 1004.52 258.89 1004.52 252.974C1004.52 247.123 1007.47 241.009 1014.18 241.009C1020.89 241.009 1023.84 247.123 1023.84 252.974C1023.84 258.89 1020.89 265.004 1014.18 265.004ZM1014.18 270.92C1025.09 270.92 1031.34 263.426 1031.34 252.974C1031.34 242.587 1025.09 235.092 1014.18 235.092C1003.27 235.092 997.022 242.587 997.022 252.974C997.022 263.426 1003.27 270.92 1014.18 270.92ZM1067.41 236.013H1059.92V255.735C1059.92 260.994 1057.82 265.004 1051.57 265.004C1047.49 265.004 1045.06 262.834 1045.06 256.852V236.013H1037.57V257.575C1037.57 266.45 1041.38 270.92 1050.26 270.92C1054 270.92 1058.08 268.685 1059.92 265.267H1060.05V270H1067.41V236.013ZM1075.32 270H1082.81V253.828C1082.81 246.334 1086.89 242.192 1092.01 242.192C1093.07 242.192 1094.18 242.389 1095.24 242.521V235.29C1094.58 235.224 1094.12 235.092 1092.41 235.092C1087.81 235.092 1083.34 238.971 1082.48 242.587H1082.35V236.013H1075.32V270ZM1143.09 253.039C1143.09 258.956 1140.52 265.004 1133.69 265.004C1127.64 265.004 1124.15 259.876 1124.15 253.039C1124.15 245.808 1127.37 241.009 1133.69 241.009C1139.87 241.009 1143.09 246.86 1143.09 253.039ZM1116.92 270H1124.02V265.333H1124.15C1126.39 269.803 1131.32 270.92 1135.92 270.92C1145.98 270.92 1150.58 262.309 1150.58 253.171C1150.58 243.244 1145.39 235.092 1134.67 235.092C1130.86 235.092 1126.59 237.13 1124.55 240.417H1124.42V223.062H1116.92V270ZM1187.74 254.946C1188.99 244.756 1182.42 235.092 1171.7 235.092C1161.58 235.092 1155.27 243.376 1155.27 253.039C1155.27 263.492 1161.25 270.92 1171.9 270.92C1179.33 270.92 1185.64 266.779 1187.28 259.35H1180.18C1178.87 263.097 1176.24 265.004 1171.9 265.004C1165.66 265.004 1162.76 260.271 1162.76 254.946H1187.74ZM1162.76 250.015C1162.96 244.953 1166.51 241.009 1171.7 241.009C1176.77 241.009 1179.99 245.282 1180.25 250.015H1162.76ZM1191.6 259.087C1191.73 267.107 1198.11 270.92 1206.66 270.92C1213.69 270.92 1221.84 267.962 1221.84 259.876C1221.84 253.171 1216.32 251.199 1210.86 249.95C1205.34 248.7 1199.82 248.175 1199.82 244.493C1199.82 241.535 1203.83 241.009 1206 241.009C1209.29 241.009 1212.24 241.995 1212.9 245.545H1220.72C1219.8 237.985 1213.49 235.092 1206.52 235.092C1200.34 235.092 1192.32 237.393 1192.32 244.822C1192.32 251.724 1197.72 253.697 1203.24 254.88C1208.69 256.129 1214.15 256.589 1214.35 260.534C1214.54 264.412 1209.61 265.004 1206.79 265.004C1202.78 265.004 1199.49 263.426 1199.1 259.087H1191.6ZM1224.11 241.601H1229.77V261.651C1229.9 267.305 1231.34 270.329 1239.17 270.329C1240.81 270.329 1242.39 270.066 1244.03 269.934V264.149C1242.98 264.412 1241.93 264.412 1240.88 264.412C1237.52 264.412 1237.26 262.834 1237.26 259.745V241.601H1244.03V236.013H1237.26V225.823H1229.77V236.013H1224.11V241.601ZM1275.15 270H1283.04L1289.28 244.756H1289.41L1295.72 270H1303.42L1314.07 236.013H1306.44L1299.54 261.388H1299.41L1293.29 236.013H1285.73L1279.36 261.388H1279.22L1272.58 236.013H1264.63L1275.15 270ZM1334.47 265.004C1327.76 265.004 1324.8 258.89 1324.8 252.974C1324.8 247.123 1327.76 241.009 1334.47 241.009C1341.17 241.009 1344.13 247.123 1344.13 252.974C1344.13 258.89 1341.17 265.004 1334.47 265.004ZM1334.47 270.92C1345.38 270.92 1351.62 263.426 1351.62 252.974C1351.62 242.587 1345.38 235.092 1334.47 235.092C1323.55 235.092 1317.31 242.587 1317.31 252.974C1317.31 263.426 1323.55 270.92 1334.47 270.92ZM1357.85 270H1365.35V253.828C1365.35 246.334 1369.42 242.192 1374.55 242.192C1375.6 242.192 1376.72 242.389 1377.77 242.521V235.29C1377.12 235.224 1376.66 235.092 1374.95 235.092C1370.35 235.092 1365.87 238.971 1365.02 242.587H1364.89V236.013H1357.85V270ZM1381.16 270H1388.66V257.838L1393.13 253.499L1403.51 270H1412.65L1398.39 248.503L1411.4 236.013H1402.2L1388.66 249.752V223.062H1381.16V270ZM1443.71 269.869L1442.86 272.498C1441.93 275.391 1441.08 277.231 1437.6 277.231C1436.41 277.231 1435.23 276.968 1434.05 276.771V283.082C1435.76 283.345 1437.46 283.477 1439.24 283.477C1447.06 283.477 1448.84 277.954 1451.27 271.841L1464.48 236.013H1456.66L1448.05 261.388H1447.92L1439.04 236.013H1430.82L1443.71 269.869ZM1499.49 254.946C1500.74 244.756 1494.17 235.092 1483.45 235.092C1473.33 235.092 1467.02 243.376 1467.02 253.039C1467.02 263.492 1473 270.92 1483.65 270.92C1491.08 270.92 1497.39 266.779 1499.03 259.35H1491.93C1490.62 263.097 1487.99 265.004 1483.65 265.004C1477.4 265.004 1474.51 260.271 1474.51 254.946H1499.49ZM1474.51 250.015C1474.71 244.953 1478.26 241.009 1483.45 241.009C1488.51 241.009 1491.74 245.282 1492 250.015H1474.51ZM1501.77 241.601H1507.43V261.651C1507.56 267.305 1509 270.329 1516.83 270.329C1518.47 270.329 1520.05 270.066 1521.69 269.934V264.149C1520.64 264.412 1519.59 264.412 1518.54 264.412C1515.18 264.412 1514.92 262.834 1514.92 259.745V241.601H1521.69V236.013H1514.92V225.823H1507.43V236.013H1501.77V241.601ZM1527.67 270H1536.81V261.125H1527.67V270Z" fill="#2C2C2C"/>
<path d="M994.451 327.752H998.826V316.657H1010.13V313.087H998.826V306.542H1011.71V302.762H994.451V327.752ZM1022.93 325.092C1019.36 325.092 1017.79 321.837 1017.79 318.687C1017.79 315.572 1019.36 312.317 1022.93 312.317C1026.5 312.317 1028.08 315.572 1028.08 318.687C1028.08 321.837 1026.5 325.092 1022.93 325.092ZM1022.93 328.242C1028.74 328.242 1032.07 324.252 1032.07 318.687C1032.07 313.157 1028.74 309.167 1022.93 309.167C1017.12 309.167 1013.8 313.157 1013.8 318.687C1013.8 324.252 1017.12 328.242 1022.93 328.242ZM1035.39 327.752H1039.38V319.142C1039.38 315.152 1041.55 312.947 1044.28 312.947C1044.84 312.947 1045.43 313.052 1045.99 313.122V309.272C1045.64 309.237 1045.4 309.167 1044.49 309.167C1042.04 309.167 1039.66 311.232 1039.2 313.157H1039.13V309.657H1035.39V327.752ZM1057.43 327.752H1061.42V317.007C1061.42 313.997 1063.31 312.317 1065.38 312.317C1067.79 312.317 1068.56 313.647 1068.56 316.132V327.752H1072.55V317.147C1072.55 314.102 1073.71 312.317 1076.4 312.317C1079.52 312.317 1079.69 314.312 1079.69 317.182V327.752H1083.68V315.257C1083.68 310.847 1081.44 309.167 1077.63 309.167C1075 309.167 1073.29 310.322 1071.96 312.177C1071.15 310.112 1069.09 309.167 1066.88 309.167C1064.01 309.167 1062.51 310.392 1061.32 312.177H1061.21V309.657H1057.43V327.752ZM1096.18 325.092C1092.61 325.092 1091.04 321.837 1091.04 318.687C1091.04 315.572 1092.61 312.317 1096.18 312.317C1099.75 312.317 1101.33 315.572 1101.33 318.687C1101.33 321.837 1099.75 325.092 1096.18 325.092ZM1096.18 328.242C1101.99 328.242 1105.32 324.252 1105.32 318.687C1105.32 313.157 1101.99 309.167 1096.18 309.167C1090.37 309.167 1087.05 313.157 1087.05 318.687C1087.05 324.252 1090.37 328.242 1096.18 328.242ZM1108.63 327.752H1112.62V319.142C1112.62 315.152 1114.79 312.947 1117.52 312.947C1118.08 312.947 1118.68 313.052 1119.24 313.122V309.272C1118.89 309.237 1118.64 309.167 1117.73 309.167C1115.28 309.167 1112.9 311.232 1112.45 313.157H1112.38V309.657H1108.63V327.752ZM1136.74 319.737C1137.4 314.312 1133.9 309.167 1128.2 309.167C1122.81 309.167 1119.45 313.577 1119.45 318.722C1119.45 324.287 1122.63 328.242 1128.3 328.242C1132.26 328.242 1135.62 326.037 1136.49 322.082H1132.71C1132.01 324.077 1130.61 325.092 1128.3 325.092C1124.98 325.092 1123.44 322.572 1123.44 319.737H1136.74ZM1123.44 317.112C1123.54 314.417 1125.43 312.317 1128.2 312.317C1130.89 312.317 1132.61 314.592 1132.75 317.112H1123.44ZM1165.72 315.712C1165.33 311.267 1161.76 309.167 1157.56 309.167C1151.61 309.167 1148.64 313.437 1148.64 318.897C1148.64 324.217 1151.75 328.242 1157.42 328.242C1162.08 328.242 1164.98 325.652 1165.72 320.962H1161.73C1161.34 323.552 1159.73 325.092 1157.42 325.092C1153.96 325.092 1152.63 321.907 1152.63 318.897C1152.63 313.402 1155.53 312.317 1157.6 312.317C1159.8 312.317 1161.41 313.507 1161.73 315.712H1165.72ZM1184.85 309.657H1180.86V320.157C1180.86 322.957 1179.74 325.092 1176.41 325.092C1174.24 325.092 1172.95 323.937 1172.95 320.752V309.657H1168.96V321.137C1168.96 325.862 1170.99 328.242 1175.71 328.242C1177.71 328.242 1179.88 327.052 1180.86 325.232H1180.93V327.752H1184.85V309.657ZM1188.08 321.942C1188.15 326.212 1191.54 328.242 1196.09 328.242C1199.84 328.242 1204.18 326.667 1204.18 322.362C1204.18 318.792 1201.24 317.742 1198.33 317.077C1195.39 316.412 1192.45 316.132 1192.45 314.172C1192.45 312.597 1194.59 312.317 1195.74 312.317C1197.49 312.317 1199.07 312.842 1199.42 314.732H1203.58C1203.09 310.707 1199.73 309.167 1196.02 309.167C1192.73 309.167 1188.46 310.392 1188.46 314.347C1188.46 318.022 1191.33 319.072 1194.27 319.702C1197.18 320.367 1200.08 320.612 1200.19 322.712C1200.29 324.777 1197.67 325.092 1196.16 325.092C1194.03 325.092 1192.28 324.252 1192.07 321.942H1188.08ZM1205.39 312.632H1208.4V323.307C1208.47 326.317 1209.24 327.927 1213.4 327.927C1214.28 327.927 1215.12 327.787 1215.99 327.717V324.637C1215.43 324.777 1214.87 324.777 1214.31 324.777C1212.53 324.777 1212.39 323.937 1212.39 322.292V312.632H1215.99V309.657H1212.39V304.232H1208.4V309.657H1205.39V312.632ZM1227.16 325.092C1223.59 325.092 1222.01 321.837 1222.01 318.687C1222.01 315.572 1223.59 312.317 1227.16 312.317C1230.73 312.317 1232.3 315.572 1232.3 318.687C1232.3 321.837 1230.73 325.092 1227.16 325.092ZM1227.16 328.242C1232.97 328.242 1236.29 324.252 1236.29 318.687C1236.29 313.157 1232.97 309.167 1227.16 309.167C1221.35 309.167 1218.02 313.157 1218.02 318.687C1218.02 324.252 1221.35 328.242 1227.16 328.242ZM1239.61 327.752H1243.6V317.007C1243.6 313.997 1245.49 312.317 1247.55 312.317C1249.97 312.317 1250.74 313.647 1250.74 316.132V327.752H1254.73V317.147C1254.73 314.102 1255.88 312.317 1258.58 312.317C1261.69 312.317 1261.87 314.312 1261.87 317.182V327.752H1265.86V315.257C1265.86 310.847 1263.62 309.167 1259.8 309.167C1257.18 309.167 1255.46 310.322 1254.13 312.177C1253.33 310.112 1251.26 309.167 1249.06 309.167C1246.19 309.167 1244.68 310.392 1243.49 312.177H1243.39V309.657H1239.61V327.752ZM1270.17 327.752H1274.16V309.657H1270.17V327.752ZM1270.17 306.542H1274.16V302.762H1270.17V306.542ZM1277.88 312.807H1287.19L1277.18 324.952V327.752H1293.1V324.602H1282.22L1292.58 312.457V309.657H1277.88V312.807ZM1312.42 319.737C1313.09 314.312 1309.59 309.167 1303.88 309.167C1298.49 309.167 1295.13 313.577 1295.13 318.722C1295.13 324.287 1298.32 328.242 1303.99 328.242C1307.94 328.242 1311.3 326.037 1312.18 322.082H1308.4C1307.7 324.077 1306.3 325.092 1303.99 325.092C1300.66 325.092 1299.12 322.572 1299.12 319.737H1312.42ZM1299.12 317.112C1299.23 314.417 1301.12 312.317 1303.88 312.317C1306.58 312.317 1308.29 314.592 1308.43 317.112H1299.12ZM1318.57 318.897C1318.57 315.642 1319.9 312.317 1323.64 312.317C1326.72 312.317 1328.65 314.697 1328.65 318.687C1328.65 321.837 1327.14 325.092 1323.57 325.092C1320.11 325.092 1318.57 322.012 1318.57 318.897ZM1332.5 302.762H1328.51V312.002H1328.44C1327.21 310.007 1324.69 309.167 1322.42 309.167C1318.46 309.167 1314.58 312.037 1314.58 318.582C1314.58 324.007 1317.34 328.242 1323.05 328.242C1325.32 328.242 1327.6 327.367 1328.65 325.302H1328.72V327.752H1332.5V302.762ZM1360.63 318.722C1360.63 321.872 1359.26 325.092 1355.62 325.092C1352.4 325.092 1350.55 322.362 1350.55 318.722C1350.55 314.872 1352.26 312.317 1355.62 312.317C1358.91 312.317 1360.63 315.432 1360.63 318.722ZM1346.7 334.437H1350.69V325.407H1350.76C1352.02 327.402 1354.5 328.242 1356.81 328.242C1362.17 328.242 1364.62 323.657 1364.62 318.792C1364.62 313.507 1361.85 309.167 1356.15 309.167C1353.84 309.167 1351.67 310.042 1350.55 312.107H1350.48V309.657H1346.7V334.437ZM1367.99 327.752H1371.98V319.142C1371.98 315.152 1374.15 312.947 1376.88 312.947C1377.44 312.947 1378.03 313.052 1378.59 313.122V309.272C1378.24 309.237 1378 309.167 1377.09 309.167C1374.64 309.167 1372.26 311.232 1371.8 313.157H1371.73V309.657H1367.99V327.752ZM1387.97 325.092C1384.4 325.092 1382.83 321.837 1382.83 318.687C1382.83 315.572 1384.4 312.317 1387.97 312.317C1391.54 312.317 1393.12 315.572 1393.12 318.687C1393.12 321.837 1391.54 325.092 1387.97 325.092ZM1387.97 328.242C1393.78 328.242 1397.11 324.252 1397.11 318.687C1397.11 313.157 1393.78 309.167 1387.97 309.167C1382.16 309.167 1378.84 313.157 1378.84 318.687C1378.84 324.252 1382.16 328.242 1387.97 328.242ZM1400.53 329.117C1400.53 330.902 1400.39 331.777 1398.92 331.777C1398.53 331.777 1398.08 331.707 1397.55 331.637V334.787C1398.08 334.857 1398.57 334.927 1399.34 334.927C1403.08 334.927 1404.52 332.897 1404.52 329.292V309.657H1400.53V329.117ZM1400.53 306.542H1404.52V302.762H1400.53V306.542ZM1425.28 319.737C1425.95 314.312 1422.45 309.167 1416.74 309.167C1411.35 309.167 1407.99 313.577 1407.99 318.722C1407.99 324.287 1411.18 328.242 1416.85 328.242C1420.8 328.242 1424.16 326.037 1425.04 322.082H1421.26C1420.56 324.077 1419.16 325.092 1416.85 325.092C1413.52 325.092 1411.98 322.572 1411.98 319.737H1425.28ZM1411.98 317.112C1412.09 314.417 1413.98 312.317 1416.74 312.317C1419.44 312.317 1421.15 314.592 1421.29 317.112H1411.98ZM1444.52 315.712C1444.13 311.267 1440.56 309.167 1436.36 309.167C1430.41 309.167 1427.44 313.437 1427.44 318.897C1427.44 324.217 1430.55 328.242 1436.22 328.242C1440.88 328.242 1443.78 325.652 1444.52 320.962H1440.53C1440.14 323.552 1438.53 325.092 1436.22 325.092C1432.76 325.092 1431.43 321.907 1431.43 318.897C1431.43 313.402 1434.33 312.317 1436.4 312.317C1438.6 312.317 1440.21 313.507 1440.53 315.712H1444.52ZM1445.94 312.632H1448.95V323.307C1449.02 326.317 1449.79 327.927 1453.96 327.927C1454.83 327.927 1455.67 327.787 1456.55 327.717V324.637C1455.99 324.777 1455.43 324.777 1454.87 324.777C1453.08 324.777 1452.94 323.937 1452.94 322.292V312.632H1456.55V309.657H1452.94V304.232H1448.95V309.657H1445.94V312.632ZM1458.44 321.942C1458.51 326.212 1461.9 328.242 1466.45 328.242C1470.2 328.242 1474.54 326.667 1474.54 322.362C1474.54 318.792 1471.6 317.742 1468.69 317.077C1465.75 316.412 1462.81 316.132 1462.81 314.172C1462.81 312.597 1464.95 312.317 1466.1 312.317C1467.85 312.317 1469.43 312.842 1469.78 314.732H1473.94C1473.45 310.707 1470.09 309.167 1466.38 309.167C1463.09 309.167 1458.82 310.392 1458.82 314.347C1458.82 318.022 1461.69 319.072 1464.63 319.702C1467.54 320.367 1470.44 320.612 1470.55 322.712C1470.65 324.777 1468.03 325.092 1466.52 325.092C1464.39 325.092 1462.64 324.252 1462.43 321.942H1458.44ZM1477.88 327.752H1480.3C1480.33 329.257 1479.56 330.762 1478.02 331.147V333.282C1480.79 332.722 1482.71 330.622 1482.75 327.752V323.027H1477.88V327.752ZM1013.04 360.722C1013.04 363.872 1011.67 367.092 1008.03 367.092C1004.81 367.092 1002.96 364.362 1002.96 360.722C1002.96 356.872 1004.67 354.317 1008.03 354.317C1011.32 354.317 1013.04 357.432 1013.04 360.722ZM999.106 376.437H1003.1V367.407H1003.17C1004.43 369.402 1006.91 370.242 1009.22 370.242C1014.58 370.242 1017.03 365.657 1017.03 360.792C1017.03 355.507 1014.26 351.167 1008.56 351.167C1006.25 351.167 1004.08 352.042 1002.96 354.107H1002.89V351.657H999.106V376.437ZM1020.5 369.752H1024.49V344.762H1020.5V369.752ZM1045.25 361.737C1045.92 356.312 1042.42 351.167 1036.71 351.167C1031.32 351.167 1027.96 355.577 1027.96 360.722C1027.96 366.287 1031.15 370.242 1036.82 370.242C1040.77 370.242 1044.13 368.037 1045.01 364.082H1041.23C1040.53 366.077 1039.13 367.092 1036.82 367.092C1033.49 367.092 1031.95 364.572 1031.95 361.737H1045.25ZM1031.95 359.112C1032.06 356.417 1033.95 354.317 1036.71 354.317C1039.41 354.317 1041.12 356.592 1041.26 359.112H1031.95ZM1059.45 363.662C1059.45 366.182 1056.72 367.092 1054.97 367.092C1053.57 367.092 1051.3 366.567 1051.3 364.782C1051.3 362.682 1052.84 362.052 1054.55 361.772C1056.3 361.457 1058.23 361.492 1059.45 360.687V363.662ZM1063.44 356.417C1063.44 352.602 1059.73 351.167 1056.2 351.167C1052.21 351.167 1048.25 352.532 1047.97 357.187H1051.96C1052.14 355.227 1053.71 354.317 1055.95 354.317C1057.56 354.317 1059.7 354.702 1059.7 356.767C1059.7 359.112 1057.14 358.797 1054.27 359.322C1050.91 359.707 1047.31 360.442 1047.31 364.957C1047.31 368.492 1050.25 370.242 1053.5 370.242C1055.64 370.242 1058.19 369.577 1059.77 368.037C1060.08 369.682 1061.24 370.242 1062.85 370.242C1063.51 370.242 1064.77 369.997 1065.37 369.787V367.022C1064.95 367.092 1064.63 367.092 1064.39 367.092C1063.65 367.092 1063.44 366.707 1063.44 365.727V356.417ZM1066.76 363.942C1066.83 368.212 1070.22 370.242 1074.77 370.242C1078.52 370.242 1082.86 368.667 1082.86 364.362C1082.86 360.792 1079.92 359.742 1077.01 359.077C1074.07 358.412 1071.13 358.132 1071.13 356.172C1071.13 354.597 1073.27 354.317 1074.42 354.317C1076.17 354.317 1077.75 354.842 1078.1 356.732H1082.26C1081.77 352.707 1078.41 351.167 1074.7 351.167C1071.41 351.167 1067.14 352.392 1067.14 356.347C1067.14 360.022 1070.01 361.072 1072.95 361.702C1075.86 362.367 1078.76 362.612 1078.87 364.712C1078.97 366.777 1076.35 367.092 1074.84 367.092C1072.71 367.092 1070.96 366.252 1070.75 363.942H1066.76ZM1102.3 361.737C1102.97 356.312 1099.47 351.167 1093.76 351.167C1088.37 351.167 1085.01 355.577 1085.01 360.722C1085.01 366.287 1088.2 370.242 1093.87 370.242C1097.82 370.242 1101.18 368.037 1102.06 364.082H1098.28C1097.58 366.077 1096.18 367.092 1093.87 367.092C1090.54 367.092 1089 364.572 1089 361.737H1102.3ZM1089 359.112C1089.11 356.417 1091 354.317 1093.76 354.317C1096.46 354.317 1098.17 356.592 1098.31 359.112H1089ZM1126.21 369.752H1130.2V351.657H1126.21V369.752ZM1113.29 354.632H1116.27V369.752H1120.26V354.632H1123.65V351.657H1120.26V349.802C1120.26 348.297 1121.13 347.912 1122.22 347.912C1123.02 347.912 1123.55 347.982 1124.07 348.122V345.007C1123.44 344.832 1122.53 344.762 1121.27 344.762C1118.68 344.762 1116.27 345.532 1116.27 350.152V351.657H1113.29V354.632ZM1126.21 348.542H1130.2V344.762H1126.21V348.542ZM1134.63 369.752H1138.62V344.762H1134.63V369.752ZM1143.07 369.752H1147.06V344.762H1143.07V369.752ZM1161.25 369.752H1165.24V351.657H1161.25V369.752ZM1161.25 348.542H1165.24V344.762H1161.25V348.542ZM1169.59 369.752H1173.58V359.077C1173.58 356.417 1175.3 354.317 1177.96 354.317C1180.3 354.317 1181.42 355.542 1181.49 358.377V369.752H1185.48V357.327C1185.48 353.267 1183 351.167 1179.08 351.167C1176.7 351.167 1174.63 352.392 1173.44 354.387L1173.37 354.317V351.657H1169.59V369.752ZM1197.61 354.632H1200.62V365.307C1200.69 368.317 1201.46 369.927 1205.63 369.927C1206.5 369.927 1207.34 369.787 1208.22 369.717V366.637C1207.66 366.777 1207.1 366.777 1206.54 366.777C1204.75 366.777 1204.61 365.937 1204.61 364.292V354.632H1208.22V351.657H1204.61V346.232H1200.62V351.657H1197.61V354.632ZM1211.09 369.752H1215.08V359.077C1215.08 356.417 1216.79 354.317 1219.45 354.317C1221.8 354.317 1222.92 355.542 1222.99 358.377V369.752H1226.98V357.327C1226.98 353.267 1224.49 351.167 1220.57 351.167C1218.19 351.167 1216.13 352.392 1215.15 354.037H1215.08V344.762H1211.09V369.752ZM1247.6 361.737C1248.26 356.312 1244.76 351.167 1239.06 351.167C1233.67 351.167 1230.31 355.577 1230.31 360.722C1230.31 366.287 1233.49 370.242 1239.16 370.242C1243.12 370.242 1246.48 368.037 1247.35 364.082H1243.57C1242.87 366.077 1241.47 367.092 1239.16 367.092C1235.84 367.092 1234.3 364.572 1234.3 361.737H1247.6ZM1234.3 359.112C1234.4 356.417 1236.29 354.317 1239.06 354.317C1241.75 354.317 1243.47 356.592 1243.61 359.112H1234.3ZM1263.49 360.897C1263.49 357.642 1264.82 354.317 1268.56 354.317C1271.64 354.317 1273.57 356.697 1273.57 360.687C1273.57 363.837 1272.06 367.092 1268.49 367.092C1265.03 367.092 1263.49 364.012 1263.49 360.897ZM1277.42 344.762H1273.43V354.002H1273.36C1272.13 352.007 1269.61 351.167 1267.34 351.167C1263.38 351.167 1259.5 354.037 1259.5 360.582C1259.5 366.007 1262.26 370.242 1267.97 370.242C1270.24 370.242 1272.52 369.367 1273.57 367.302H1273.64V369.752H1277.42V344.762ZM1298.18 361.737C1298.85 356.312 1295.35 351.167 1289.64 351.167C1284.25 351.167 1280.89 355.577 1280.89 360.722C1280.89 366.287 1284.08 370.242 1289.75 370.242C1293.7 370.242 1297.06 368.037 1297.94 364.082H1294.16C1293.46 366.077 1292.06 367.092 1289.75 367.092C1286.42 367.092 1284.88 364.572 1284.88 361.737H1298.18ZM1284.88 359.112C1284.99 356.417 1286.88 354.317 1289.64 354.317C1292.34 354.317 1294.05 356.592 1294.19 359.112H1284.88ZM1299.4 354.632H1302.41V365.307C1302.48 368.317 1303.25 369.927 1307.41 369.927C1308.29 369.927 1309.13 369.787 1310 369.717V366.637C1309.44 366.777 1308.88 366.777 1308.32 366.777C1306.54 366.777 1306.4 365.937 1306.4 364.292V354.632H1310V351.657H1306.4V346.232H1302.41V351.657H1299.4V354.632ZM1324.04 363.662C1324.04 366.182 1321.31 367.092 1319.56 367.092C1318.16 367.092 1315.88 366.567 1315.88 364.782C1315.88 362.682 1317.42 362.052 1319.14 361.772C1320.89 361.457 1322.81 361.492 1324.04 360.687V363.662ZM1328.03 356.417C1328.03 352.602 1324.32 351.167 1320.78 351.167C1316.79 351.167 1312.84 352.532 1312.56 357.187H1316.55C1316.72 355.227 1318.3 354.317 1320.54 354.317C1322.15 354.317 1324.28 354.702 1324.28 356.767C1324.28 359.112 1321.73 358.797 1318.86 359.322C1315.5 359.707 1311.89 360.442 1311.89 364.957C1311.89 368.492 1314.83 370.242 1318.09 370.242C1320.22 370.242 1322.78 369.577 1324.35 368.037C1324.67 369.682 1325.82 370.242 1327.43 370.242C1328.1 370.242 1329.36 369.997 1329.95 369.787V367.022C1329.53 367.092 1329.22 367.092 1328.97 367.092C1328.24 367.092 1328.03 366.707 1328.03 365.727V356.417ZM1332.43 369.752H1336.42V351.657H1332.43V369.752ZM1332.43 348.542H1336.42V344.762H1332.43V348.542ZM1340.87 369.752H1344.86V344.762H1340.87V369.752ZM1348.23 363.942C1348.3 368.212 1351.69 370.242 1356.24 370.242C1359.99 370.242 1364.33 368.667 1364.33 364.362C1364.33 360.792 1361.39 359.742 1358.48 359.077C1355.54 358.412 1352.6 358.132 1352.6 356.172C1352.6 354.597 1354.74 354.317 1355.89 354.317C1357.64 354.317 1359.22 354.842 1359.57 356.732H1363.73C1363.24 352.707 1359.88 351.167 1356.17 351.167C1352.88 351.167 1348.61 352.392 1348.61 356.347C1348.61 360.022 1351.48 361.072 1354.42 361.702C1357.33 362.367 1360.23 362.612 1360.34 364.712C1360.44 366.777 1357.82 367.092 1356.31 367.092C1354.18 367.092 1352.43 366.252 1352.22 363.942H1348.23ZM1391.13 360.722C1391.13 363.872 1389.77 367.092 1386.13 367.092C1382.91 367.092 1381.05 364.362 1381.05 360.722C1381.05 356.872 1382.77 354.317 1386.13 354.317C1389.42 354.317 1391.13 357.432 1391.13 360.722ZM1377.2 369.752H1380.98V367.267H1381.05C1382.24 369.647 1384.87 370.242 1387.32 370.242C1392.67 370.242 1395.12 365.657 1395.12 360.792C1395.12 355.507 1392.36 351.167 1386.65 351.167C1384.62 351.167 1382.35 352.252 1381.26 354.002H1381.19V344.762H1377.2V369.752ZM1414.91 361.737C1415.57 356.312 1412.07 351.167 1406.37 351.167C1400.98 351.167 1397.62 355.577 1397.62 360.722C1397.62 366.287 1400.8 370.242 1406.47 370.242C1410.43 370.242 1413.79 368.037 1414.66 364.082H1410.88C1410.18 366.077 1408.78 367.092 1406.47 367.092C1403.15 367.092 1401.61 364.572 1401.61 361.737H1414.91ZM1401.61 359.112C1401.71 356.417 1403.6 354.317 1406.37 354.317C1409.06 354.317 1410.78 356.592 1410.92 359.112H1401.61ZM1418.05 369.752H1422.04V344.762H1418.05V369.752ZM1434.68 367.092C1431.11 367.092 1429.53 363.837 1429.53 360.687C1429.53 357.572 1431.11 354.317 1434.68 354.317C1438.25 354.317 1439.82 357.572 1439.82 360.687C1439.82 363.837 1438.25 367.092 1434.68 367.092ZM1434.68 370.242C1440.49 370.242 1443.81 366.252 1443.81 360.687C1443.81 355.157 1440.49 351.167 1434.68 351.167C1428.87 351.167 1425.54 355.157 1425.54 360.687C1425.54 366.252 1428.87 370.242 1434.68 370.242ZM1451.09 369.752H1455.29L1458.61 356.312H1458.68L1462.04 369.752H1466.14L1471.81 351.657H1467.75L1464.07 365.167H1464L1460.75 351.657H1456.72L1453.33 365.167H1453.26L1449.72 351.657H1445.49L1451.09 369.752ZM1472.77 369.752H1477.64V365.027H1472.77V369.752Z" fill="#2C2C2C"/>
<g clip-path="url(#clip1_1007_1888)">
<path d="M864 451.154C864 473.161 730.804 491 566.5 491C402.196 491 269 473.161 269 451.154C269 429.147 315.692 418.286 567.625 414.443C836.409 410.344 864 429.147 864 451.154Z" fill="#BED5DC"/>
<path d="M666.62 181.291C666.62 181.291 663.049 188.751 666.989 193.882C666.989 193.882 662.586 191.55 662.07 190.307C661.554 189.065 660.812 184.215 660.812 184.215L666.62 181.291Z" fill="#74A1BD"/>
<path d="M491.628 462.685L739.325 414.307L703.436 414.304L461.398 460.375L491.628 462.685Z" fill="#9EC0CC"/>
<path d="M637.804 415.76L433.158 461.889L417.718 448.685L609.614 414.304L637.804 415.76Z" fill="#9EC0CC"/>
<path d="M718.357 395.203C718.357 395.203 718.56 402.964 724.001 405.151C729.443 407.342 745.216 409.315 739.325 414.304C735.943 417.167 720.008 415.317 715.508 415.317C711.008 415.317 706.785 417.209 703.44 414.304C699.762 411.107 703.44 395.199 703.44 395.199C703.44 395.199 707.324 397.15 710.815 397.063C715.847 396.937 718.36 395.199 718.36 395.199L718.357 395.203Z" fill="#B4CDD7"/>
<path d="M707.35 147.006C707.35 147.006 711.96 209.574 717.661 272.517C721.778 317.956 719.944 363.196 721.213 385.328C721.665 393.245 723.692 400.198 716.001 402.459L711.867 403.676C703.546 406.122 702.275 398.011 700.677 389.573L665.824 247.459L655.919 199.962L707.354 147.009L707.35 147.006Z" fill="#B4CDD7"/>
<path d="M625.872 395.203C625.872 395.203 625.669 402.964 620.227 405.151C614.786 407.342 599.013 409.315 604.904 414.304C608.286 417.167 624.221 415.317 628.721 415.317C633.221 415.317 637.444 417.209 640.789 414.304C644.467 411.107 640.789 395.199 640.789 395.199C640.789 395.199 636.905 397.15 633.414 397.063C628.381 396.937 625.869 395.199 625.869 395.199L625.872 395.203Z" fill="#B4CDD7"/>
<path d="M669.648 233.279L645.306 388.554C644.184 396.717 645.209 403.906 637.002 405.423L633.424 406.086C624.977 407.649 624.787 398.736 624.87 390.253L621.745 207.623C621.852 205.478 655.32 191.09 657.317 190.243C676.594 182.038 669.645 233.282 669.645 233.282L669.648 233.279Z" fill="#B4CDD7"/>
<path d="M707.384 126.918C713.761 124.097 672.338 91.6985 671.196 91.4461C659.9 88.9453 651.779 93.5944 648.148 95.0115C620.733 105.707 623.596 111.961 623.136 139.093C622.697 165.13 621.749 211.851 621.835 212.922C671.782 191.191 709.121 214.559 709.121 214.559C705.736 170.63 708.176 128.846 707.38 126.921L707.384 126.918Z" fill="#B4CDD7"/>
<path d="M671.259 53.2145C670.61 51.9204 669.855 50.7201 669.016 49.6136C668.097 48.1513 660.985 32.6995 643.259 41.8489C634.765 46.2327 632.036 59.3616 636.419 63.6937H636.416C636.416 63.6937 638.227 65.8419 639.272 71.494C640.673 79.0646 649.283 78.8446 651.629 76.3664C652.631 76.897 653.663 77.3305 654.708 77.6637L653.397 87.5088C652.967 90.7117 650.454 92.4394 645.825 93.7173C645.812 93.7206 647.625 94.6556 647.609 94.6588C652.585 98.9941 657.663 99.9615 664.02 99.185C673.646 98.0041 671.189 91.4429 671.189 91.4429C665.748 90.4011 664.107 88.2335 663.614 85.985L663.015 83.2188L662.719 81.847L661.93 78.2267C663.132 78.0229 664.31 77.6637 665.438 77.1332C673.396 73.3834 675.999 62.6746 671.253 53.2113L671.259 53.2145Z" fill="#B4CDD7"/>
<path d="M652.398 92.8406C652.398 92.8406 570.374 114.459 572.468 157.928C573.945 188.58 624.518 198.991 624.518 198.991L625.566 182.07C625.566 182.07 605.653 161.025 607.75 156.531C609.847 152.037 640.237 138.995 640.237 138.995L652.395 92.8406H652.398Z" fill="#B4CDD7"/>
<path d="M671.192 91.4462C671.192 91.4462 763.83 114.459 761.733 157.928C760.256 188.58 709.683 198.991 709.683 198.991L708.635 182.07C708.635 182.07 728.548 161.025 726.451 156.531C724.354 152.037 693.964 138.995 693.964 138.995L671.192 91.4462V91.4462Z" fill="#B4CDD7"/>
<path d="M655.107 92.4395C655.107 92.4395 538.979 101.799 511.774 138.423C484.569 175.047 523.709 221.544 473.689 230.483C423.669 239.419 364.829 267.673 351.859 298.713C351.859 298.713 359.215 308.788 386.237 308.318C413.262 307.849 403.41 320.554 420.707 327.132C438.007 333.709 450.821 324.149 460.443 331.364C470.065 338.578 480.519 343.593 489.006 344.062C497.492 344.531 512.513 319.134 541.898 310.671C571.283 302.204 607.194 264.59 596.094 218.73C584.995 172.869 647.289 121.602 647.289 121.602L655.107 92.4427V92.4395Z" fill="#B4CDD7"/>
<path d="M665.448 47.0643C665.448 47.0643 672.414 39.7072 667.468 32.7836C662.519 25.8601 646.76 17.0115 627.147 28.6586C607.534 40.3057 601.35 44.2139 574.494 38.0572C547.639 31.9036 529.111 62.7555 542.59 77.1008C556.073 91.4494 522.824 87.5897 519.925 105.947C517.026 124.304 543.166 130.393 565.705 119.558C588.243 108.726 595.815 77.5538 613.012 85.2603C630.209 92.9668 652.109 88.6315 658.559 74.2894C665.009 59.9505 665.448 47.061 665.448 47.061V47.0643Z" fill="#B4CDD7"/>
<path d="M718.883 196.487C718.883 196.487 723.825 209.221 712.423 211.615C701.024 214.009 703.12 196.487 703.12 196.487L714.999 192.404L718.883 196.487Z" fill="#B4CDD7"/>
<path d="M615.358 191.414C615.358 191.414 614.48 208.577 621.888 213.197C629.297 217.814 641.026 213.838 641.026 213.838L628.175 188.544L615.358 191.414Z" fill="#B4CDD7"/>
<path d="M478.358 441.311C478.358 441.311 478.578 449.81 484.538 452.205C490.499 454.6 507.769 456.764 501.315 462.227C497.612 465.359 480.162 463.335 475.234 463.335C470.306 463.335 465.684 465.407 462.021 462.227C457.995 458.728 462.021 441.311 462.021 441.311C462.021 441.311 466.272 443.449 470.095 443.353C475.607 443.213 478.358 441.311 478.358 441.311V441.311Z" fill="#2F1A31"/>
<path d="M553.324 126.278C553.324 126.278 565.505 127.277 570.276 122.691C575.042 118.106 577.542 108.774 573.961 111.007C570.379 113.246 566.623 117.321 566.623 117.321C566.623 117.321 574.225 108.246 571.254 107.452C568.283 106.653 561.748 114.607 561.748 114.607C561.748 114.607 569.903 103.115 566.847 103.237C563.79 103.359 557.655 112.133 557.655 112.133C557.655 112.133 564.8 101.147 561.25 101.37C557.7 101.592 555.407 110.484 552.435 109.69C549.464 108.891 539.788 108.521 537.93 114.192L553.32 126.269L553.324 126.278Z" fill="#F7B686"/>
<path d="M515.125 226.737C515.125 226.737 520.866 244.428 509.093 312.663C500.597 361.924 493.461 411.063 488.537 434.863C486.778 443.375 479.355 449.601 470.562 449.941L465.836 450.124C456.326 450.491 448.606 442.611 449.302 433.244L461.24 272.246L464.185 219.254L515.125 226.737V226.737Z" fill="#79A39B"/>
<path d="M418.468 233.814C419.954 239.983 443.66 246.457 472.034 239.917C500.409 233.377 522.549 226.423 521.063 220.254C519.578 214.085 495.027 211.031 466.653 217.571C438.279 224.111 416.987 227.644 418.473 233.814H418.468Z" fill="#2F1A31"/>
<path d="M409.909 441.307C409.909 441.307 410.129 449.806 416.089 452.201C422.049 454.596 439.32 456.76 432.866 462.222C429.163 465.355 411.713 463.331 406.785 463.331C401.857 463.331 397.234 465.403 393.572 462.222C389.546 458.723 393.572 441.307 393.572 441.307C393.572 441.307 397.822 443.445 401.646 443.349C407.158 443.209 409.909 441.307 409.909 441.307Z" fill="#2F1A31"/>
<path d="M515.126 226.737L461.981 321.123L420.654 439.317C417.876 447.921 409.847 453.815 400.7 453.968L396.714 454.033C387.303 454.19 380.104 445.792 381.823 436.656L422.176 237.779C422.701 235.484 431.758 232.461 434.074 231.907C456.447 226.545 516.346 218.238 515.126 226.741V226.737Z" fill="#79A39B"/>
<path d="M456.981 337.104L455.909 336.825L470.54 283.502C471.079 281.927 471.59 280.247 472.129 278.502C474.862 269.589 478.269 258.503 486.671 255.061L487.106 256.06C479.184 259.297 475.863 270.117 473.193 278.808C472.654 280.561 472.133 282.25 471.604 283.807L456.981 337.1V337.104Z" fill="#020202"/>
<path d="M480.158 52.8418C480.158 52.8418 480.571 39.1861 468.044 39.0028C455.518 38.8196 459.117 47.6456 457.066 50.1412C455.015 52.6368 461.317 58.9847 467.371 59.3992C473.426 59.8137 480.158 52.8418 480.158 52.8418V52.8418Z" fill="#2F1A31"/>
<path d="M514.049 147.551C521.028 144.462 529.677 158.083 529.677 158.083C529.798 158.179 517.069 101.379 476.707 106.789C472.39 107.369 453.162 111.064 449.19 112.617C419.173 124.327 422.306 131.177 421.803 160.884C421.323 189.395 418.361 231.501 418.455 232.67C473.144 208.875 521.055 220.258 521.055 220.258C521.454 178.082 514.915 149.662 514.049 147.555V147.551Z" fill="#FF7EB2"/>
<path d="M453.844 110.235C458.638 115.61 464.019 117.338 471.034 117.338C481.657 117.338 476.707 106.789 476.707 106.789C474.099 106.728 472.672 105.454 472.452 102.945L472.192 99.8604L472.066 98.3334L471.644 93.4514L471.272 89.0667L469.741 71.0786L464.845 89.3939L464.01 92.5046L461.138 103.237C460.217 106.658 457.444 109.31 453.898 110.222C453.88 110.222 453.862 110.235 453.844 110.235V110.235Z" fill="#F7B686"/>
<path d="M464.01 92.5004C464.01 92.5004 467.143 97.8143 472.066 98.3292L471.644 93.4471C468.574 92.8581 464.005 92.5004 464.005 92.5004H464.01Z" fill="#2F1A31"/>
<path d="M446.043 75.1056C446.043 75.1056 447.709 77.6796 448.045 83.9578C448.543 93.146 459.71 93.3859 461.415 90.1574C461.626 89.756 456.214 75.6247 456.214 75.6247L452.399 74.8481L446.043 75.1056Z" fill="#2F1A31"/>
<path d="M475.772 93.5533C484.923 90.4799 489.203 79.156 485.33 68.2607C481.458 57.3654 470.9 51.0245 461.749 54.098C452.598 57.1714 448.318 68.4953 452.191 79.3906C456.063 90.2859 466.621 96.6268 475.772 93.5533Z" fill="#F7B686"/>
<path d="M470.033 56.4848C469.786 57.2439 475.957 66.5499 457.277 75.3891C438.598 84.2282 442.332 57.5319 456.559 52.2834C477.102 44.7051 484.857 57.2003 484.556 62.7106C484.256 68.2209 470.033 56.4848 470.033 56.4848Z" fill="#2F1A31"/>
<path d="M458.296 71.4451C458.296 71.4451 453.157 82.1777 458.831 89.564C458.831 89.564 452.493 86.209 451.753 84.4202C451.012 82.6314 449.939 75.6552 449.939 75.6552L458.296 71.4451V71.4451Z" fill="#2F1A31"/>
<path d="M455.419 81.5147C457.906 82.6272 460.599 81.9422 461.433 79.9833C462.268 78.0244 460.926 75.5288 458.44 74.4163C455.953 73.3038 453.26 73.9887 452.426 75.9477C451.591 77.9066 452.933 80.4021 455.419 81.5147Z" fill="#F7B686"/>
<path d="M470.437 73.4738C470.536 73.4084 470.608 73.2993 470.612 73.1728C470.625 72.959 470.455 72.7801 470.235 72.7671C470.105 72.7583 467.12 72.3351 465.711 75.424C465.621 75.6204 465.706 75.8472 465.904 75.9345C466.106 76.0217 466.299 75.917 466.434 75.7469C467.776 74.0541 470.082 73.5305 470.19 73.5349C470.28 73.5349 470.365 73.5131 470.432 73.4695L470.437 73.4738Z" fill="#060633"/>
<path d="M468.852 78.4605C469.126 79.3375 469.889 79.8916 470.549 79.6996C471.209 79.5076 471.523 78.6351 471.245 77.7581C470.971 76.8812 470.208 76.3271 469.548 76.5191C468.888 76.711 468.574 77.5836 468.852 78.4605Z" fill="#060633"/>
<path d="M484.588 70.9477C484.705 70.9259 484.812 70.8474 484.871 70.7339C484.965 70.542 484.884 70.3151 484.682 70.2235C484.566 70.1711 481.976 68.679 479.458 71.0219C479.301 71.1702 479.288 71.4102 479.436 71.5672C479.584 71.7243 479.808 71.6938 480.001 71.5891C481.909 70.5158 484.242 70.8779 484.341 70.9215C484.422 70.9564 484.512 70.9652 484.593 70.9521L484.588 70.9477Z" fill="#060633"/>
<path d="M481.154 74.9747C481.06 75.8909 481.545 76.6805 482.231 76.746C482.918 76.8114 483.551 76.1177 483.641 75.2059C483.731 74.2941 483.25 73.5 482.564 73.4389C481.877 73.3779 481.244 74.0672 481.154 74.979V74.9747Z" fill="#060633"/>
<g opacity="0.3">
<path d="M470.106 86.4035C473.745 85.5529 475.658 80.6718 474.379 75.5013C473.1 70.3308 469.113 66.8288 465.474 67.6794C461.835 68.53 459.922 73.4111 461.2 78.5816C462.479 83.7521 466.466 87.2541 470.106 86.4035Z" fill="white"/>
</g>
<g opacity="0.3">
<path d="M487.757 83.1728C490.833 82.1679 491.932 77.3224 490.213 72.3502C488.493 67.3781 484.606 64.162 481.531 65.167C478.455 66.172 477.356 71.0174 479.075 75.9896C480.795 80.9618 484.682 84.1778 487.757 83.1728Z" fill="white"/>
</g>
<path d="M461.075 79.368C461.165 79.621 461.259 79.8741 461.367 80.114C462.349 82.4874 463.934 84.4638 465.81 85.5894C466.555 86.0388 467.345 86.3529 468.166 86.5056C468.956 86.654 469.719 86.6452 470.446 86.4838C470.644 86.4402 470.841 86.3835 471.03 86.3224C471.667 86.1042 472.277 85.7683 472.834 85.3189C474.207 84.202 475.15 82.4962 475.554 80.4456C475.724 79.6036 475.805 78.6961 475.791 77.7537C475.773 76.7764 475.652 75.8122 475.428 74.8786C475.343 74.4772 475.235 74.0933 475.105 73.7093C474.001 70.315 471.676 67.5359 468.947 66.5499C468.61 66.4234 468.26 66.3317 467.91 66.2619C466.2 65.9434 464.585 66.3536 463.243 67.453C461.542 68.836 460.5 71.1178 460.312 73.8315C460.28 74.2242 460.276 74.6125 460.285 75.0182C460.285 75.2538 460.303 75.4937 460.321 75.7337C460.366 76.423 460.469 77.1036 460.612 77.7668C460.734 78.3165 460.891 78.8532 461.07 79.3723L461.075 79.368ZM473.817 83.1811C473.426 83.8268 472.955 84.3896 472.412 84.8259C471.932 85.2186 471.415 85.5109 470.863 85.6985C470.056 85.969 469.189 86.0344 468.292 85.8686C467.443 85.7116 466.627 85.3669 465.873 84.8608C464.015 83.6523 462.502 81.545 461.663 79.0582V79.0495C461.537 78.6699 461.42 78.2816 461.322 77.8846C461.232 77.5094 461.151 77.1298 461.097 76.7459C461.007 76.17 460.954 75.5941 460.945 75.0007C460.936 74.4598 460.958 73.9275 461.025 73.417C461.052 73.1247 461.093 72.8455 461.156 72.5663C461.156 72.5488 461.16 72.5357 461.169 72.5139C461.174 72.4834 461.182 72.4572 461.187 72.4267C461.295 71.8769 461.443 71.3665 461.627 70.8822C462.089 69.6693 462.785 68.6528 463.669 67.9373C464.311 67.4137 465.02 67.0647 465.778 66.9076C466.42 66.768 467.089 66.7593 467.785 66.8902C468.049 66.9425 468.305 66.9993 468.561 67.0952C471.2 67.9547 473.449 70.651 474.499 73.9668C474.625 74.3507 474.732 74.7477 474.818 75.1535C475.002 75.9998 475.109 76.8768 475.127 77.7624C475.145 78.6481 475.069 79.5163 474.898 80.3191C474.687 81.3749 474.319 82.3347 473.83 83.1506C473.817 83.1637 473.812 83.1724 473.808 83.1811H473.817Z" fill="#74A1BD"/>
<path d="M479.094 76.0261C479.188 76.2923 479.287 76.5497 479.39 76.8071C479.494 77.0645 479.615 77.3132 479.732 77.5575C479.808 77.7233 479.889 77.8934 479.974 78.0505C479.983 78.0723 479.996 78.0941 480.005 78.116C480.077 78.2512 480.144 78.3821 480.225 78.5173C480.234 78.5217 480.239 78.5304 480.239 78.5348C479.628 77.3306 479.157 75.9651 478.892 74.5253C478.847 74.5079 478.762 74.4904 478.641 74.4686C478.704 74.7391 478.771 74.9965 478.847 75.2626C478.924 75.5201 479.004 75.7775 479.09 76.0218L479.094 76.0261ZM479.094 76.0261C479.188 76.2923 479.287 76.5497 479.39 76.8071C479.494 77.0645 479.615 77.3132 479.732 77.5575C479.808 77.7233 479.889 77.8934 479.974 78.0505C479.983 78.0723 479.996 78.0941 480.005 78.116C480.077 78.2512 480.144 78.3821 480.225 78.5173C480.234 78.5217 480.239 78.5304 480.239 78.5348C479.628 77.3306 479.157 75.9651 478.892 74.5253C478.847 74.5079 478.762 74.4904 478.641 74.4686C478.704 74.7391 478.771 74.9965 478.847 75.2626C478.924 75.5201 479.004 75.7775 479.09 76.0218L479.094 76.0261ZM479.094 76.0261C479.188 76.2923 479.287 76.5497 479.39 76.8071C479.494 77.0645 479.615 77.3132 479.732 77.5575C479.808 77.7233 479.889 77.8934 479.974 78.0505C479.983 78.0723 479.996 78.0941 480.005 78.116C480.077 78.2512 480.144 78.3821 480.225 78.5173C480.234 78.5217 480.239 78.5304 480.239 78.5348C479.628 77.3306 479.157 75.9651 478.892 74.5253C478.847 74.5079 478.762 74.4904 478.641 74.4686C478.704 74.7391 478.771 74.9965 478.847 75.2626C478.924 75.5201 479.004 75.7775 479.09 76.0218L479.094 76.0261ZM479.094 76.0261C479.188 76.2923 479.287 76.5497 479.39 76.8071C479.494 77.0645 479.615 77.3132 479.732 77.5575C479.808 77.7233 479.889 77.8934 479.974 78.0505C479.983 78.0723 479.996 78.0941 480.005 78.116C480.077 78.2512 480.144 78.3821 480.225 78.5173C480.234 78.5217 480.239 78.5304 480.239 78.5348C479.628 77.3306 479.157 75.9651 478.892 74.5253C478.847 74.5079 478.762 74.4904 478.641 74.4686C478.704 74.7391 478.771 74.9965 478.847 75.2626C478.924 75.5201 479.004 75.7775 479.09 76.0218L479.094 76.0261ZM479.094 76.0261C479.188 76.2923 479.287 76.5497 479.39 76.8071C479.494 77.0645 479.615 77.3132 479.732 77.5575C479.808 77.7233 479.889 77.8934 479.974 78.0505C479.983 78.0723 479.996 78.0941 480.005 78.116C480.077 78.2512 480.144 78.3821 480.225 78.5173C480.234 78.5217 480.239 78.5304 480.239 78.5348C479.628 77.3306 479.157 75.9651 478.892 74.5253C478.847 74.5079 478.762 74.4904 478.641 74.4686C478.704 74.7391 478.771 74.9965 478.847 75.2626C478.924 75.5201 479.004 75.7775 479.09 76.0218L479.094 76.0261ZM479.094 76.0261C479.188 76.2923 479.287 76.5497 479.39 76.8071C479.494 77.0645 479.615 77.3132 479.732 77.5575C479.808 77.7233 479.889 77.8934 479.974 78.0505C479.983 78.0723 479.996 78.0941 480.005 78.116C480.077 78.2512 480.144 78.3821 480.225 78.5173C480.234 78.5217 480.239 78.5304 480.239 78.5348C479.628 77.3306 479.157 75.9651 478.892 74.5253C478.847 74.5079 478.762 74.4904 478.641 74.4686C478.704 74.7391 478.771 74.9965 478.847 75.2626C478.924 75.5201 479.004 75.7775 479.09 76.0218L479.094 76.0261ZM479.094 76.0261C479.188 76.2923 479.287 76.5497 479.39 76.8071C479.494 77.0645 479.615 77.3132 479.732 77.5575C479.808 77.7233 479.889 77.8934 479.974 78.0505C479.983 78.0723 479.996 78.0941 480.005 78.116C480.077 78.2512 480.144 78.3821 480.225 78.5173C480.234 78.5217 480.239 78.5304 480.239 78.5348C479.628 77.3306 479.157 75.9651 478.892 74.5253C478.847 74.5079 478.762 74.4904 478.641 74.4686C478.704 74.7391 478.771 74.9965 478.847 75.2626C478.924 75.5201 479.004 75.7775 479.09 76.0218L479.094 76.0261ZM479.094 76.0261C479.188 76.2923 479.287 76.5497 479.39 76.8071C479.494 77.0645 479.615 77.3132 479.732 77.5575C479.808 77.7233 479.889 77.8934 479.974 78.0505C479.983 78.0723 479.996 78.0941 480.005 78.116C480.077 78.2512 480.144 78.3821 480.225 78.5173C480.234 78.5217 480.239 78.5304 480.239 78.5348C479.628 77.3306 479.157 75.9651 478.892 74.5253C478.847 74.5079 478.762 74.4904 478.641 74.4686C478.704 74.7391 478.771 74.9965 478.847 75.2626C478.924 75.5201 479.004 75.7775 479.09 76.0218L479.094 76.0261ZM478.856 76.9293C479.471 78.6875 480.378 80.2538 481.459 81.4492H481.468V81.4536C482.555 82.6621 483.834 83.4779 485.176 83.7397C485.261 83.7571 485.346 83.7702 485.427 83.779C485.436 83.7833 485.445 83.7789 485.454 83.7877C486.136 83.8837 486.805 83.8269 487.429 83.6219C487.963 83.4474 488.465 83.1681 488.923 82.7799C490.732 81.2747 491.715 78.3821 491.558 75.0358C491.298 69.5866 488.071 64.5736 484.377 63.8538C484.3 63.8407 484.215 63.8232 484.143 63.8145H484.134C483.816 63.7665 483.52 63.7534 483.214 63.7665C482.788 63.7927 482.384 63.8799 481.989 64.0239C481.504 64.1984 481.051 64.4689 480.62 64.818C478.816 66.3188 477.829 69.2157 477.995 72.562C478.008 72.7802 478.022 72.9983 478.039 73.2121C478.075 73.6135 478.129 74.0149 478.206 74.4119C478.345 75.2845 478.569 76.1309 478.852 76.9336L478.856 76.9293ZM480.243 78.5348C479.633 77.3306 479.162 75.9651 478.897 74.5253C478.82 74.1065 478.762 73.6833 478.717 73.2644C478.695 73.0201 478.681 72.7714 478.663 72.5271C478.587 70.9478 478.771 69.4906 479.184 68.2472C479.583 67.0561 480.194 66.0657 480.975 65.3808C481.002 65.3502 481.033 65.324 481.065 65.2979C481.455 64.9707 481.886 64.7307 482.344 64.5824C482.743 64.4515 483.165 64.3904 483.596 64.4078C483.811 64.4122 484.027 64.434 484.247 64.4776C487.662 65.1408 490.647 69.892 490.903 75.0707C490.903 75.0925 490.903 75.1143 490.903 75.1405C490.903 75.1405 490.904 75.1449 490.907 75.1536C490.907 75.1536 490.907 75.1754 490.907 75.1841C490.907 75.1928 490.907 75.2016 490.907 75.2059C491.028 78.3079 490.126 80.9387 488.497 82.2999C487.676 82.9893 486.702 83.286 485.674 83.1725C485.553 83.1682 485.436 83.1463 485.315 83.1202C485.212 83.0983 485.113 83.0809 485.01 83.046C484.987 83.046 484.951 83.0329 484.92 83.0198C484.92 83.0198 484.911 83.0198 484.911 83.0155C484.902 83.0155 484.902 83.0111 484.893 83.0067C484.085 82.7842 483.309 82.3218 482.586 81.6717C481.724 80.9082 480.957 79.8873 480.328 78.7006C480.302 78.6482 480.275 78.5871 480.239 78.5391L480.243 78.5348ZM479.094 76.0261C479.188 76.2923 479.287 76.5497 479.39 76.8071C479.494 77.0645 479.615 77.3132 479.732 77.5575C479.808 77.7233 479.889 77.8934 479.974 78.0505C479.983 78.0723 479.996 78.0941 480.005 78.116C480.077 78.2512 480.144 78.3821 480.225 78.5173C480.234 78.5217 480.239 78.5304 480.239 78.5348C479.628 77.3306 479.157 75.9651 478.892 74.5253C478.847 74.5079 478.762 74.4904 478.641 74.4686C478.704 74.7391 478.771 74.9965 478.847 75.2626C478.924 75.5201 479.004 75.7775 479.09 76.0218L479.094 76.0261ZM479.094 76.0261C479.188 76.2923 479.287 76.5497 479.39 76.8071C479.494 77.0645 479.615 77.3132 479.732 77.5575C479.808 77.7233 479.889 77.8934 479.974 78.0505C479.983 78.0723 479.996 78.0941 480.005 78.116C480.077 78.2512 480.144 78.3821 480.225 78.5173C480.234 78.5217 480.239 78.5304 480.239 78.5348C479.628 77.3306 479.157 75.9651 478.892 74.5253C478.847 74.5079 478.762 74.4904 478.641 74.4686C478.704 74.7391 478.771 74.9965 478.847 75.2626C478.924 75.5201 479.004 75.7775 479.09 76.0218L479.094 76.0261ZM479.094 76.0261C479.188 76.2923 479.287 76.5497 479.39 76.8071C479.494 77.0645 479.615 77.3132 479.732 77.5575C479.808 77.7233 479.889 77.8934 479.974 78.0505C479.983 78.0723 479.996 78.0941 480.005 78.116C480.077 78.2512 480.144 78.3821 480.225 78.5173C480.234 78.5217 480.239 78.5304 480.239 78.5348C479.628 77.3306 479.157 75.9651 478.892 74.5253C478.847 74.5079 478.762 74.4904 478.641 74.4686C478.704 74.7391 478.771 74.9965 478.847 75.2626C478.924 75.5201 479.004 75.7775 479.09 76.0218L479.094 76.0261ZM479.094 76.0261C479.188 76.2923 479.287 76.5497 479.39 76.8071C479.494 77.0645 479.615 77.3132 479.732 77.5575C479.808 77.7233 479.889 77.8934 479.974 78.0505C479.983 78.0723 479.996 78.0941 480.005 78.116C480.077 78.2512 480.144 78.3821 480.225 78.5173C480.234 78.5217 480.239 78.5304 480.239 78.5348C479.628 77.3306 479.157 75.9651 478.892 74.5253C478.847 74.5079 478.762 74.4904 478.641 74.4686C478.704 74.7391 478.771 74.9965 478.847 75.2626C478.924 75.5201 479.004 75.7775 479.09 76.0218L479.094 76.0261ZM479.094 76.0261C479.188 76.2923 479.287 76.5497 479.39 76.8071C479.494 77.0645 479.615 77.3132 479.732 77.5575C479.808 77.7233 479.889 77.8934 479.974 78.0505C479.983 78.0723 479.996 78.0941 480.005 78.116C480.077 78.2512 480.144 78.3821 480.225 78.5173C480.234 78.5217 480.239 78.5304 480.239 78.5348C479.628 77.3306 479.157 75.9651 478.892 74.5253C478.847 74.5079 478.762 74.4904 478.641 74.4686C478.704 74.7391 478.771 74.9965 478.847 75.2626C478.924 75.5201 479.004 75.7775 479.09 76.0218L479.094 76.0261ZM479.094 76.0261C479.188 76.2923 479.287 76.5497 479.39 76.8071C479.494 77.0645 479.615 77.3132 479.732 77.5575C479.808 77.7233 479.889 77.8934 479.974 78.0505C479.983 78.0723 479.996 78.0941 480.005 78.116C480.077 78.2512 480.144 78.3821 480.225 78.5173C480.234 78.5217 480.239 78.5304 480.239 78.5348C479.628 77.3306 479.157 75.9651 478.892 74.5253C478.847 74.5079 478.762 74.4904 478.641 74.4686C478.704 74.7391 478.771 74.9965 478.847 75.2626C478.924 75.5201 479.004 75.7775 479.09 76.0218L479.094 76.0261ZM479.094 76.0261C479.188 76.2923 479.287 76.5497 479.39 76.8071C479.494 77.0645 479.615 77.3132 479.732 77.5575C479.808 77.7233 479.889 77.8934 479.974 78.0505C479.983 78.0723 479.996 78.0941 480.005 78.116C480.077 78.2512 480.144 78.3821 480.225 78.5173C480.234 78.5217 480.239 78.5304 480.239 78.5348C479.628 77.3306 479.157 75.9651 478.892 74.5253C478.847 74.5079 478.762 74.4904 478.641 74.4686C478.704 74.7391 478.771 74.9965 478.847 75.2626C478.924 75.5201 479.004 75.7775 479.09 76.0218L479.094 76.0261Z" fill="#74A1BD"/>
<path d="M479.342 74.5384C479.517 74.4816 479.66 74.3508 479.728 74.1719C479.84 73.8621 479.674 73.5218 479.351 73.4127C479.247 73.3778 476.792 72.5838 473.866 74.3202C473.574 74.4947 473.485 74.8612 473.664 75.1404C473.844 75.4197 474.225 75.5069 474.512 75.3368C476.941 73.8927 478.92 74.534 478.938 74.5427C479.072 74.5864 479.216 74.5864 479.342 74.5427V74.5384Z" fill="#2F1A31"/>
<path d="M453.234 57.3837C453.234 57.3837 447.17 45.0542 435.914 50.3856C424.657 55.7171 429.303 61.3364 431.367 65.1059C432.907 67.9156 439.325 71.1092 444.917 68.8231C450.509 66.537 453.234 57.3837 453.234 57.3837V57.3837Z" fill="#2F1A31"/>
<path d="M455.087 99.7339C455.016 99.747 454.939 99.7382 454.867 99.7077C454.674 99.6248 454.585 99.4067 454.67 99.2191C454.746 99.0533 456.568 95.1398 460.918 92.5002C461.097 92.3912 461.335 92.4435 461.447 92.6181C461.559 92.7926 461.505 93.0194 461.326 93.1285C457.174 95.6459 455.393 99.4765 455.375 99.5157C455.321 99.6335 455.213 99.7121 455.087 99.7339V99.7339Z" fill="#2F1A31"/>
<path d="M453.844 110.235L446.663 111.588C446.663 111.588 445.388 115.192 448.907 116.33C452.421 117.473 453.126 117.473 454.257 120.1C455.388 122.726 459.764 122.84 461.303 121.928C462.843 121.016 465.54 124.441 468.04 124.441C470.54 124.441 472.012 120.174 471.038 117.338C471.038 117.338 461.658 115.789 453.849 110.235H453.844Z" fill="white"/>
<path d="M476.707 106.784C476.707 106.784 481.124 117.085 471.034 117.334C471.034 117.334 476.335 122.456 480.042 120.401C483.749 118.346 480.199 116.518 481.779 115.148C483.359 113.778 485.091 112.788 483.516 111.191C481.936 109.594 482.928 106.422 482.928 106.422C482.928 106.422 480.419 104.097 476.707 106.784V106.784Z" fill="white"/>
<path d="M480.23 132.373C480.23 131.526 480.939 130.841 481.814 130.841C482.69 130.841 483.399 131.526 483.399 132.373C483.399 133.219 482.69 133.904 481.814 133.904C480.939 133.904 480.23 133.219 480.23 132.373Z" fill="#2F1A31"/>
<path d="M486.89 181.503C486.89 180.656 487.599 179.971 488.474 179.971C489.35 179.971 490.059 180.656 490.059 181.503C490.059 182.349 489.35 183.034 488.474 183.034C487.599 183.034 486.89 182.349 486.89 181.503Z" fill="#2F1A31"/>
<path d="M486.89 159.243C486.89 158.397 487.599 157.712 488.474 157.712C489.35 157.712 490.059 158.397 490.059 159.243C490.059 160.09 489.35 160.775 488.474 160.775C487.599 160.775 486.89 160.09 486.89 159.243Z" fill="#2F1A31"/>
<path d="M407.333 269.96L407.023 254.912C406.938 252.862 405.326 251.095 403.185 250.75L390.83 248.752C388.864 248.438 386.929 249.349 386.005 251.038L378.15 266.605L374.753 264.99L382.639 249.358C384.367 246.221 387.894 244.515 391.453 245.126L403.809 247.124C407.714 247.753 410.658 250.986 410.811 254.807L411.121 269.89L407.337 269.964L407.333 269.96Z" fill="#C16752"/>
<path d="M416.992 317.205L358.946 313.2C354.858 312.916 351.765 309.505 352.026 305.556L354.669 265.571C354.947 261.382 358.861 258.311 363.17 258.895L432.732 268.402C437.516 269.057 440.406 273.851 438.625 278.188L424.465 312.672C423.266 315.595 420.241 317.428 416.992 317.205V317.205Z" fill="#E28569"/>
<path d="M394.789 291.495L394.667 291.438L353.969 273.891L354.323 273.105L394.896 290.6L436.273 283.306L436.425 284.148L394.789 291.495Z" fill="#C16752"/>
<path d="M394.91 294.728C393.595 294.514 392.697 293.301 392.917 292.031L393.303 289.802C393.523 288.532 394.78 287.669 396.099 287.882C397.414 288.096 398.312 289.309 398.092 290.579L397.706 292.808C397.486 294.078 396.229 294.941 394.91 294.728Z" fill="#C16752"/>
<path d="M414.304 246.309C413.393 244.598 412.378 241.762 411.369 239.053C410.556 236.867 409.739 234.764 408.976 233.403C408.236 232.077 392.765 231.907 392.765 231.907C392.765 231.907 390.238 235.951 388.147 242.766C387.967 243.128 387.819 243.538 387.711 244.014C386.971 247.321 385.292 251.88 387.375 253.629C389.646 255.54 391.055 252.251 391.625 250.445C391.235 252.098 390.777 255.279 392.446 257.076C394.206 258.97 396.221 253.795 397.096 251.164C397.105 251.164 397.11 251.164 397.119 251.169C396.495 253.533 395.633 258.11 397.855 259.354C400.48 260.824 402.504 253.787 403.043 252.177C403.106 252.177 403.173 252.185 403.236 252.19C404.766 262.207 408.878 257.146 409.807 249.437C411.31 251.042 414.721 253.917 415.821 253.171C417.1 252.307 415.013 247.648 414.299 246.309H414.304Z" fill="#F7B686"/>
<path d="M447.376 112.792C447.376 112.792 406.242 124.31 395.825 176.834C390.947 201.441 388.375 219.193 389.879 229.027C390.309 231.833 392.576 234.049 395.471 234.542L405.318 236.226C408.769 236.815 412.09 234.69 412.867 231.392C416.897 214.228 429.733 164.557 446.443 149.619L447.376 112.792Z" fill="#FF7EB2"/>
<path d="M536.345 207.758C532.872 207.344 529.528 206.205 526.413 204.36C516.333 198.383 509.569 185.752 504.484 163.41C502.141 153.118 495.31 140.723 495.238 140.596L517.208 128.59C517.558 129.218 526.548 144.362 529.671 158.078C531.435 165.84 532.373 116.854 536.722 112.22C539.388 109.38 557.651 127.325 557.651 127.325C559.374 133.616 560.81 174.509 560.537 181.839C560.344 187.009 559.702 191.171 558.58 194.552C555.609 203.483 549.397 206.253 545.959 207.108C542.701 207.92 539.469 208.134 536.341 207.758H536.345Z" fill="#FF7EB2"/>
<path d="M526.844 182.912C526.826 182.772 525.103 169.121 530.354 158.423L530.78 158.615C525.588 169.199 527.293 182.72 527.311 182.851L526.844 182.912V182.912Z" fill="#2F1A31"/>
<path d="M419.963 205.655L419.51 205.533C424.918 185.748 435.429 164.439 435.537 164.226L435.959 164.431C435.856 164.64 425.358 185.905 419.963 205.655V205.655Z" fill="#2F1A31"/>
<path d="M520.955 199.918L520.484 199.905C521.13 172.533 508.092 134.353 507.962 133.974L508.411 133.83C508.545 134.209 521.606 172.467 520.96 199.918H520.955Z" fill="#2F1A31"/>
<path d="M474.781 87.7273C473.309 87.7273 472.214 87.4873 472.187 87.4786C472.079 87.4524 472.012 87.3477 472.035 87.243C472.057 87.147 472.138 87.0859 472.232 87.0859C472.246 87.0859 472.263 87.0859 472.277 87.0903C472.353 87.1077 479.198 88.5911 481.415 83.9185C481.464 83.8225 481.59 83.7789 481.689 83.8225C481.792 83.8705 481.832 83.9839 481.787 84.0886C480.342 87.1295 477.093 87.7229 474.777 87.7229L474.781 87.7273Z" fill="#020202"/>
<path d="M320.817 435.366C320.817 435.366 312.363 427.268 315.272 422.657C318.181 418.044 323.09 432.564 323.09 432.564C323.09 432.564 320.544 415.394 325.816 415.096C331.088 414.799 325.816 432.564 325.816 432.564C325.816 432.564 327.77 428.423 329.68 428.164C331.591 427.908 331.045 431.677 327.633 435.366H320.814H320.817Z" fill="#BED5DC"/>
<path d="M321.426 435.579C321.027 435.201 311.704 426.165 315.093 420.794C315.632 419.95 316.274 419.555 317.003 419.639C319.479 419.92 322.198 426.006 323.596 429.607C323.134 425.136 322.598 416.268 325.177 413.191C325.756 412.502 326.468 412.127 327.29 412.081C328.113 412.013 328.745 412.314 329.231 412.909C331.544 415.721 329.414 425.401 328.246 429.921C329.121 428.578 330.372 427.077 331.65 426.905C332.25 426.808 332.742 427.045 333.008 427.527C333.741 428.869 332.666 432.24 329.597 435.563L329.148 435.168C332.16 431.907 333.015 428.795 332.473 427.802C332.383 427.637 332.206 427.442 331.734 427.485C330.096 427.708 328.186 431.04 327.587 432.308L327.018 432.101C327.064 431.946 331.551 416.669 328.758 413.269C328.395 412.835 327.956 412.625 327.327 412.664C326.671 412.699 326.122 412.994 325.646 413.557C322.381 417.442 324.491 431.991 324.515 432.137L323.922 432.27C322.824 429.008 319.416 420.496 316.926 420.212C316.467 420.192 316.014 420.444 315.605 421.092C312.467 426.061 321.752 435.052 321.849 435.142L321.42 435.563L321.426 435.579Z" fill="#42428E"/>
<path d="M518.817 417.06C518.817 417.06 510.363 408.962 513.272 404.352C516.181 399.742 521.09 414.258 521.09 414.258C521.09 414.258 518.544 397.089 523.816 396.791C529.087 396.493 523.816 414.258 523.816 414.258C523.816 414.258 525.769 410.117 527.68 409.858C529.59 409.603 529.044 413.372 525.633 417.06H518.813H518.817Z" fill="#BED5DC"/>
<path d="M519.429 417.271C519.03 416.892 509.707 407.856 513.092 402.485C513.631 401.634 514.274 401.214 515.003 401.33C517.482 401.612 520.201 407.697 521.599 411.295C521.133 406.824 520.601 397.959 523.18 394.882C523.759 394.193 524.471 393.818 525.293 393.773C526.116 393.698 526.751 394.005 527.237 394.601C529.55 397.412 527.42 407.092 526.249 411.612C527.127 410.269 528.379 408.768 529.657 408.597C530.259 408.493 530.748 408.736 531.015 409.218C531.747 410.561 530.672 413.932 527.603 417.254L527.154 416.86C530.166 413.595 531.021 410.486 530.479 409.493C530.386 409.331 530.216 409.114 529.74 409.176C528.099 409.399 526.189 412.731 525.59 414L525.021 413.793C525.067 413.637 529.557 398.363 526.761 394.96C526.425 394.552 525.999 394.352 525.46 394.352C525.42 394.352 525.373 394.352 525.33 394.355C524.674 394.39 524.125 394.685 523.649 395.248C520.384 399.14 522.498 413.683 522.521 413.828L521.929 413.961C520.83 410.7 517.422 402.188 514.929 401.903C514.473 401.858 514.017 402.139 513.608 402.783C510.473 407.752 519.759 416.743 519.852 416.834L519.422 417.254L519.429 417.271Z" fill="#42428E"/>
<path d="M358.013 473.387C358.013 473.387 349.56 465.289 352.469 460.679C355.377 456.065 360.287 470.585 360.287 470.585C360.287 470.585 357.74 453.415 363.012 453.118C368.284 452.82 363.012 470.585 363.012 470.585C363.012 470.585 364.966 466.444 366.876 466.185C368.787 465.93 368.241 469.699 364.83 473.387H358.01H358.013Z" fill="#BED5DC"/>
<path d="M358.626 473.594C358.226 473.216 348.901 464.179 352.289 458.815C352.828 457.971 353.473 457.566 354.199 457.66C356.679 457.942 359.394 464.027 360.792 467.625C360.33 463.154 359.794 454.286 362.373 451.209C362.952 450.52 363.665 450.145 364.487 450.099C365.255 450.044 365.941 450.332 366.43 450.928C368.743 453.745 366.613 463.422 365.442 467.942C366.32 466.599 367.572 465.098 368.85 464.927C369.459 464.82 369.942 465.066 370.208 465.548C370.94 466.891 369.865 470.262 366.796 473.581L366.347 473.186C369.359 469.925 370.214 466.819 369.672 465.826C369.579 465.664 369.409 465.473 368.933 465.509C367.292 465.732 365.382 469.065 364.783 470.333L364.214 470.126C364.26 469.971 368.75 454.697 365.954 451.293C365.595 450.85 365.139 450.653 364.523 450.685C363.868 450.72 363.318 451.015 362.842 451.578C359.577 455.463 361.688 470.016 361.711 470.165L361.118 470.297C360.02 467.036 356.615 458.524 354.122 458.239C353.657 458.171 353.211 458.475 352.801 459.119C349.663 464.089 358.952 473.076 359.045 473.167L358.616 473.588L358.626 473.594Z" fill="#42428E"/>
<path d="M668.214 465.215C668.214 465.215 659.76 457.117 662.669 452.506C665.578 447.893 670.487 462.413 670.487 462.413C670.487 462.413 667.941 445.243 673.213 444.945C678.484 444.648 673.213 462.413 673.213 462.413C673.213 462.413 675.166 458.272 677.077 458.013C678.987 457.757 678.441 461.526 675.03 465.215H668.21H668.214Z" fill="#BED5DC"/>
<path d="M668.823 465.425C668.423 465.046 659.101 456.01 662.489 450.64C663.028 449.789 663.697 449.397 664.399 449.485C666.879 449.766 669.598 455.852 670.996 459.453C670.533 454.981 669.997 446.113 672.577 443.037C673.156 442.348 673.868 441.972 674.69 441.927C675.479 441.872 676.145 442.153 676.634 442.755C678.947 445.573 676.814 455.25 675.646 459.77C676.521 458.427 677.772 456.926 679.05 456.754C679.653 456.664 680.145 456.893 680.408 457.376C681.14 458.721 680.065 462.089 676.997 465.409L676.547 465.014C679.559 461.753 680.415 458.647 679.872 457.654C679.786 457.489 679.619 457.295 679.133 457.337C677.496 457.56 675.586 460.892 674.986 462.157L674.417 461.95C674.464 461.795 678.95 446.521 676.158 443.124C675.795 442.681 675.356 442.483 674.727 442.516C674.071 442.551 673.522 442.846 673.046 443.409C669.781 447.294 671.891 461.843 671.915 461.989L671.322 462.122C670.22 458.861 666.816 450.352 664.326 450.064C663.814 449.983 663.411 450.297 663.005 450.944C659.866 455.913 669.152 464.904 669.249 464.995L668.819 465.415L668.823 465.425Z" fill="#42428E"/>
<path d="M802.315 427.42C802.315 427.42 793.861 419.322 796.77 414.711C799.679 410.098 804.588 424.618 804.588 424.618C804.588 424.618 802.042 407.448 807.314 407.151C812.586 406.853 807.314 424.618 807.314 424.618C807.314 424.618 809.268 420.477 811.178 420.218C813.089 419.962 812.543 423.732 809.131 427.42H802.312H802.315Z" fill="#BED5DC"/>
<path d="M802.927 427.63C802.528 427.252 793.202 418.215 796.59 412.845C797.13 412 797.772 411.619 798.501 411.69C800.98 411.971 803.696 418.057 805.094 421.654C804.631 417.183 804.096 408.315 806.675 405.242C807.254 404.553 807.966 404.177 808.788 404.132C808.845 404.129 808.902 404.129 808.955 404.129C809.68 404.129 810.276 404.407 810.729 404.96C813.042 407.772 810.912 417.452 809.744 421.975C810.619 420.629 811.87 419.128 813.152 418.956C813.757 418.849 814.247 419.095 814.51 419.577C815.242 420.92 814.167 424.291 811.098 427.614L810.649 427.219C813.661 423.955 814.516 420.846 813.974 419.852C813.881 419.687 813.714 419.487 813.235 419.535C811.594 419.759 809.684 423.091 809.085 424.359L808.515 424.152C808.562 423.997 813.048 408.72 810.256 405.319C809.893 404.886 809.454 404.672 808.825 404.714C808.169 404.75 807.62 405.044 807.144 405.607C803.879 409.493 805.989 424.042 806.013 424.188L805.42 424.32C804.322 421.059 800.917 412.547 798.424 412.262C797.945 412.217 797.509 412.499 797.103 413.142C793.964 418.115 803.254 427.103 803.347 427.193L802.917 427.614L802.927 427.63Z" fill="#42428E"/>
</g>
</g>
<defs>
<clipPath id="clip0_1007_1888">
<rect width="1920" height="515" fill="white"/>
</clipPath>
<clipPath id="clip1_1007_1888">
<rect width="595" height="468" fill="white" transform="translate(269 23)"/>
</clipPath>
</defs>
</svg>
