<svg width="48" height="48" viewBox="0 0 48 48" fill="none" xmlns="http://www.w3.org/2000/svg">
<path d="M47.1958 23.5894C47.1958 10.5603 36.6317 0 23.5979 0C10.5641 0 0 10.5603 0 23.5894C0 35.3647 8.62455 45.1236 19.9128 46.8944V30.4142H13.926V23.5894H19.9128V18.3933C19.9128 12.4862 23.4298 9.21602 28.8218 9.21602C31.4079 9.21602 34.1103 9.68134 34.1103 9.68134V15.485H31.1363C28.2011 15.485 27.296 17.3075 27.296 19.1688V23.5894H33.8388L32.7914 30.4142H27.296V46.8944C38.5713 45.1236 47.1958 35.3647 47.1958 23.5894Z" fill="white"/>
<path d="M32.7785 30.435L33.8258 23.61H27.2831V19.1893C27.2831 17.328 28.2011 15.5054 31.1234 15.5054H34.0974V9.70166C34.0974 9.70166 31.3949 9.23633 28.8089 9.23633C23.4169 9.23633 19.8998 12.5066 19.8998 18.4138V23.61H13.9131V30.435H19.8998V46.9156C21.1024 47.1095 22.3308 47.2 23.585 47.2C24.8392 47.2 26.0676 47.0966 27.2702 46.9156V30.435H32.7785Z" fill="#E30808"/>
</svg>
