<svg width="28" height="28" viewBox="0 0 28 28" fill="none" xmlns="http://www.w3.org/2000/svg">
<g clip-path="url(#clip0_1007_1673)">
<path d="M0.666667 4.65418H5.39333C5.77333 6.83114 7.84667 8.29358 10.0267 7.90627C11.6867 7.61244 12.9867 6.31027 13.2733 4.65418H27.3333C27.7 4.65418 28 4.35368 28 3.9864C28 3.61912 27.7 3.31862 27.3333 3.31862H13.2733C12.8933 1.13498 10.82 -0.320778 8.64 0.0598567C6.98 0.35368 5.68 1.65585 5.39333 3.31194H0.666667C0.3 3.31194 0 3.61244 0 3.97972C0 4.347 0.3 4.6475 0.666667 4.6475V4.65418ZM9.33333 1.31528C10.8067 1.31528 12 2.51061 12 3.9864C12 5.46219 10.8067 6.65752 9.33333 6.65752C7.86 6.65752 6.66667 5.46219 6.66667 3.9864C6.66667 2.51061 7.86 1.31528 9.33333 1.31528ZM27.3333 13.3353H22.6067C22.2267 11.1584 20.1533 9.69592 17.9733 10.0832C16.3133 10.3771 15.0133 11.6792 14.7267 13.3353H0.666667C0.3 13.3353 0 13.6358 0 14.0031C0 14.3704 0.3 14.6709 0.666667 14.6709H14.7267C15.1067 16.8478 17.18 18.3103 19.36 17.923C21.02 17.6291 22.32 16.327 22.6067 14.6709H27.3333C27.7 14.6709 28 14.3704 28 14.0031C28 13.6358 27.7 13.3353 27.3333 13.3353ZM18.6667 16.6742C17.1933 16.6742 16 15.4789 16 14.0031C16 12.5273 17.1933 11.332 18.6667 11.332C20.14 11.332 21.3333 12.5273 21.3333 14.0031C21.3333 15.4789 20.14 16.6742 18.6667 16.6742ZM27.3333 23.352H13.2733C12.8933 21.175 10.82 19.7126 8.64 20.0999C6.98 20.3937 5.68 21.6959 5.39333 23.352H0.666667C0.3 23.352 0 23.6525 0 24.0198C0 24.3871 0.3 24.6876 0.666667 24.6876H5.39333C5.77333 26.8645 7.84667 28.327 10.0267 27.9397C11.6867 27.6458 12.9867 26.3437 13.2733 24.6876H27.3333C27.7 24.6876 28 24.3871 28 24.0198C28 23.6525 27.7 23.352 27.3333 23.352ZM9.33333 26.6909C7.86 26.6909 6.66667 25.4956 6.66667 24.0198C6.66667 22.544 7.86 21.3487 9.33333 21.3487C10.8067 21.3487 12 22.544 12 24.0198C12 25.4956 10.8067 26.6909 9.33333 26.6909Z" fill="black"/>
</g>
<defs>
<clipPath id="clip0_1007_1673">
<rect width="28" height="28" fill="white"/>
</clipPath>
</defs>
</svg>
