<svg width="48" height="48" viewBox="0 0 48 48" fill="none" xmlns="http://www.w3.org/2000/svg">
<path d="M33.4567 0.686035H14.3807C6.62804 0.686035 0.320801 6.99383 0.320801 14.7472V33.8249C0.320801 41.5782 6.62804 47.886 14.3807 47.886H33.4567C41.2094 47.886 47.5166 41.5782 47.5166 33.8249V14.7472C47.5165 6.99383 41.2093 0.686035 33.4567 0.686035ZM42.7687 33.8249C42.7687 38.9682 38.5996 43.1377 33.4567 43.1377H14.3807C9.23787 43.1377 5.0687 38.9682 5.0687 33.8249V14.7472C5.0687 9.6038 9.23787 5.43435 14.3807 5.43435H33.4567C38.5996 5.43435 42.7687 9.6038 42.7687 14.7472V33.8249Z" fill="white"/>
<path d="M23.9184 12.0989C17.1877 12.0989 11.7119 17.5752 11.7119 24.3063C11.7119 31.0375 17.1877 36.5139 23.9184 36.5139C30.6491 36.5139 36.125 31.0376 36.125 24.3063C36.125 17.5751 30.6491 12.0989 23.9184 12.0989ZM23.9184 31.7657C19.7991 31.7657 16.4598 28.4261 16.4598 24.3064C16.4598 20.1868 19.7992 16.8472 23.9184 16.8472C28.0378 16.8472 31.3771 20.1868 31.3771 24.3064C31.3771 28.426 28.0377 31.7657 23.9184 31.7657Z" fill="white"/>
<path d="M36.1491 15.1154C37.7645 15.1154 39.074 13.8057 39.074 12.1902C39.074 10.5747 37.7645 9.26501 36.1491 9.26501C34.5337 9.26501 33.2241 10.5747 33.2241 12.1902C33.2241 13.8057 34.5337 15.1154 36.1491 15.1154Z" fill="white"/>
</svg>
