<svg width="24" height="24" viewBox="0 0 24 24" fill="none" xmlns="http://www.w3.org/2000/svg">
<g clip-path="url(#clip0_895_18)">
<path d="M23.4693 11.9848C23.4693 18.2833 18.283 23.4696 11.9843 23.4696C5.6863 23.4696 0.499756 18.2833 0.499756 11.9848C0.499756 5.6863 5.6863 0.5 11.9843 0.5C18.283 0.5 23.4693 5.6863 23.4693 11.9848Z" stroke="#EB1A1A"/>
<path d="M12.9752 9.0564V20.3867H10.9941V9.0564H12.9752Z" stroke="#EB1A1A"/>
<path d="M13.347 4.94502C13.347 5.69031 12.7303 6.30698 11.9851 6.30698C11.2397 6.30698 10.623 5.6903 10.623 4.94502C10.623 4.19968 11.2397 3.58301 11.9851 3.58301C12.7303 3.58301 13.347 4.19967 13.347 4.94502Z" stroke="#EB1A1A"/>
</g>
<defs>
<clipPath id="clip0_895_18">
<rect width="24" height="24" fill="white"/>
</clipPath>
</defs>
</svg>
