<svg width="1920" height="515" viewBox="0 0 1920 515" fill="none" xmlns="http://www.w3.org/2000/svg">
<g clip-path="url(#clip0_1007_1730)">
<rect width="1920" height="515" fill="#FFCA0A"/>
<g clip-path="url(#clip1_1007_1730)">
<path d="M1789.02 120.068L1790 404.008C1790.16 449.543 1738.42 480.349 1675.82 486.668C1604.72 493.846 1529.8 490.983 1421.41 486.118C1356.99 483.19 1333.95 480.19 1128.27 485.826C1097.66 486.584 1056.82 487.65 1026.73 487.899C963.919 488.429 912.135 451.507 911.979 405.675L911 121.737C910.843 76.2024 962.063 36.5177 1025.19 39.0775C1083.8 41.4506 1170.04 51.135 1259.88 44.9358C1366.73 37.5622 1569.57 31.0816 1674.28 37.8436C1737.24 41.9106 1788.87 74.5328 1789.02 120.068Z" fill="#DAEBE8"/>
<g opacity="0.5">
<path d="M1233.81 284.105L999.788 485.788C957.366 478.653 924.11 454.162 914.679 423.377L1106.86 254.719L1233.81 284.105Z" fill="white"/>
</g>
<g opacity="0.5">
<path d="M1517.61 280.433L1383 484.341C1303.75 480.639 1200.3 484.078 1103.09 486.451L1427.63 181.557L1517.61 280.433H1517.61Z" fill="white"/>
</g>
<g opacity="0.5">
<path d="M1655.83 395.471C1593.28 492.058 1594.05 490.908 1594.02 490.908C1544.12 491.419 1482.86 488.868 1431.75 486.589L1540.95 353.262L1655.83 395.474V395.471Z" fill="white"/>
</g>
<g opacity="0.4">
<path d="M1102.73 112.941C1102.73 112.941 1111.06 99.9685 1132.15 101.592C1153.24 103.218 1150.73 116.223 1160.77 115.002C1170.81 113.782 1184.87 115.002 1187.88 123.131C1190.89 131.259 1204.45 126.789 1204.95 133.697C1205.46 140.606 1189.39 145.482 1170.81 139.388C1152.24 133.294 1143.2 144.123 1117.09 142.161C1090.98 140.2 1087.75 137.762 1072.3 138.982C1056.84 140.202 1057.21 131.638 1064.24 125.948C1071.27 120.257 1099.72 120.801 1102.74 112.943L1102.73 112.941Z" fill="white"/>
</g>
<g opacity="0.4">
<path d="M1574.76 210.266C1574.76 210.266 1579.02 203.631 1589.8 204.465C1600.59 205.296 1599.3 211.947 1604.43 211.322C1609.57 210.699 1616.76 211.322 1618.3 215.478C1619.84 219.634 1626.77 217.348 1627.03 220.881C1627.28 224.415 1619.07 226.907 1609.57 223.79C1600.07 220.673 1595.45 226.212 1582.1 225.208C1568.75 224.204 1567.09 222.96 1559.19 223.582C1551.29 224.204 1551.48 219.826 1555.07 216.917C1558.67 214.008 1573.22 214.284 1574.76 210.266H1574.76Z" fill="white"/>
</g>
<g opacity="0.8">
<path d="M1330.19 86.5419C1330.19 86.5419 1333.37 81.5928 1341.42 82.2124C1349.46 82.8321 1348.5 87.7947 1352.34 87.3293C1356.17 86.8639 1361.53 87.3293 1362.68 90.4302C1363.83 93.5312 1369 91.8265 1369.19 94.462C1369.39 97.0976 1363.26 98.9592 1356.17 96.6321C1349.08 94.3078 1345.63 98.4397 1335.67 97.6902C1325.71 96.9406 1324.48 96.0125 1318.58 96.4779C1312.69 96.9433 1312.83 93.6746 1315.51 91.5045C1318.19 89.3344 1329.04 89.54 1330.19 86.5419V86.5419Z" fill="white"/>
</g>
<g opacity="0.8">
<path d="M1031.65 159.533C1031.65 159.533 1036.54 151.919 1048.92 152.871C1061.3 153.827 1059.82 161.46 1065.72 160.743C1071.61 160.029 1079.86 160.743 1081.63 165.513C1083.4 170.284 1091.36 167.659 1091.65 171.715C1091.95 175.771 1082.52 178.634 1071.61 175.054C1060.71 171.477 1055.4 177.833 1040.08 176.683C1024.75 175.531 1022.85 174.102 1013.78 174.816C1004.71 175.531 1004.92 170.506 1009.05 167.164C1013.18 163.825 1029.88 164.142 1031.65 159.531L1031.65 159.533Z" fill="white"/>
</g>
<g opacity="0.8">
<path d="M1640 145.774C1640 145.774 1648.68 132.253 1670.66 133.946C1692.64 135.64 1690.02 149.194 1700.48 147.922C1710.95 146.651 1725.6 147.922 1728.74 156.392C1731.88 164.861 1746.01 160.204 1746.53 167.405C1747.06 174.605 1730.31 179.687 1710.95 173.333C1691.59 166.98 1682.17 178.269 1654.96 176.223C1627.75 174.18 1624.38 171.637 1608.28 172.909C1592.17 174.18 1592.56 165.254 1599.88 159.325C1607.2 153.396 1636.86 153.959 1640 145.771V145.774Z" fill="white"/>
</g>
<path d="M1282.39 230.858C1314.1 229.805 1341.25 218.362 1364.14 202.595C1365.02 201.992 1363.71 201.017 1362.83 201.621C1340.26 217.164 1313.7 228.442 1282.4 229.478C1281.21 229.519 1281.2 230.896 1282.4 230.858H1282.39Z" fill="#D96048"/>
<path d="M1328.87 287.801C1328.86 275.475 1344.77 267.761 1354.74 259.332C1362.01 253.187 1368.66 246.66 1375.33 240.155C1376.05 239.449 1374.44 238.762 1373.73 239.46C1363.37 249.556 1352.78 259.194 1340.75 268.205C1333.02 273.995 1327.01 279.304 1327.02 287.798C1327.02 288.686 1328.87 288.686 1328.87 287.798V287.801Z" fill="#D96048"/>
<path d="M1321.91 252.308C1326.72 250.776 1331.28 248.923 1335.6 246.742C1336.58 246.246 1335.66 245.05 1334.67 245.551C1330.34 247.735 1325.79 249.588 1320.98 251.117C1319.88 251.466 1320.83 252.654 1321.91 252.308Z" fill="#D96048"/>
</g>
<g clip-path="url(#clip2_1007_1730)">
<path d="M455.758 324.829C455.758 324.829 414.464 321.308 375.376 351.431C346.032 374.041 382.791 401.507 318.998 407.108C265.367 411.822 231 448.301 231 448.301C231 448.301 231 478.484 273.52 482.296C305.901 485.199 287.408 512.441 318.835 510.045C350.265 507.645 363.329 498.568 370.364 511.759C380.593 530.942 404.426 523.091 404.426 523.091C404.426 523.091 400.595 488.861 438.856 487.095C468.271 485.739 465.517 419.054 464.899 396.037C464.284 373.02 455.755 324.833 455.755 324.833L455.758 324.829Z" fill="#EF8062"/>
<path d="M429.213 498.158C429.213 498.158 424.227 500.811 423.24 507.027C422.457 511.934 423.814 522.543 417.867 519.696C414.453 518.064 410.589 505.082 409.084 501.598C407.578 498.114 404.657 495.49 405.849 491.902C407.165 487.952 421.011 482.911 421.011 482.911C421.011 482.911 420.359 487.639 421.6 490.315C423.385 494.167 429.213 498.162 429.213 498.162V498.158Z" fill="#331832"/>
<path d="M559.396 279.417C555.502 283.315 552.252 285.197 552.252 285.197C552.252 285.197 541.07 279.861 540.992 278.717C540.813 276.075 541.741 270.843 541.621 268.198C541.569 267.054 541.677 263.201 542.907 263.048C543.976 262.914 545.474 266.077 545.992 267.65C550.397 261.446 559.936 254.321 551.761 267.981C551.768 267.985 551.779 267.989 551.787 267.996C552.755 266.692 558.665 258.345 560.111 260.291C561.385 262.008 557.249 268.447 555.681 270.612C555.703 270.627 555.721 270.646 555.744 270.661C557.551 268.596 562.846 262.653 563.498 264.624C564.318 267.098 559.217 273.534 559.217 273.534C559.217 273.534 563.547 267.605 564.866 270.366C565.767 272.252 561.836 276.731 560.145 278.717C559.902 279.004 559.649 279.231 559.396 279.414V279.417Z" fill="#FFB27D"/>
<path d="M462.365 404.458L369.239 527.249C365.599 532.369 346.17 524.678 353.604 513.809L413.548 396.183C414.382 394.796 430.271 403.773 431.873 403.601C440.574 402.674 462.361 404.458 462.361 404.458H462.365Z" fill="#6DA49A"/>
<path d="M465.372 404.902C468.062 405.178 470.995 401.735 472.325 403.944C478.73 414.586 501.315 458.176 485.501 473.043C480.005 478.212 426.511 499.224 426.511 499.224C422.692 500.189 418.671 498.52 416.86 495.222C413.406 488.936 414.162 483.175 420.367 479.151C428.151 474.105 439.151 470.245 453.12 458.772C455.199 457.065 445.105 432.647 440.127 423.309C438.886 420.977 438.953 418.223 440.306 415.95L444.777 408.442C446.424 405.681 445.321 403.355 448.678 403.698L465.368 404.898L465.372 404.902Z" fill="#6DA49A"/>
<path d="M443.961 430.982L443.645 430.818C447.136 424.088 451.883 422.028 451.928 422.009L452.066 422.333C452.017 422.352 447.382 424.375 443.958 430.978L443.961 430.982Z" fill="#331832"/>
<path d="M540.251 273.086C528.304 289.001 502.474 315.737 480.381 327.486C477.933 328.786 477.643 334.249 480.098 338.269C482.401 342.04 489.354 350.037 490.785 349.553C493.214 348.725 526.232 330.884 553.397 287.276C553.397 287.276 552.528 283.423 548.34 279.253C546.593 277.513 540.258 273.09 540.258 273.09L540.251 273.086Z" fill="#366F90"/>
<path d="M494.153 345.785C491.694 323.521 491.392 323.596 491.392 323.596C491.392 323.596 478.317 325.764 472.746 326.01C466.478 326.286 464.623 324.937 461.519 324.859C445.127 324.453 425.859 335.553 423.534 353.491C422.498 361.484 419.707 366.384 415.813 375.025C408.979 390.183 405.648 398.728 405.566 399.402C432.328 419.173 477.802 411.032 477.802 411.032C486.134 385.324 488.199 377.958 490.777 368.791C495.7 351.285 494.358 346.773 494.149 345.785H494.153Z" fill="#366F90"/>
<path d="M472.888 325.783C472.888 325.783 444.002 323.793 427.32 331.685C422.502 333.966 418.601 338.415 415.713 341.396L443.112 348.069L472.888 325.787V325.783Z" fill="#366F90"/>
<path d="M472.888 340.065C471.166 340.065 462.551 332.17 460.733 324.84C460.744 324.84 465.148 324.21 465.916 322.828C467.019 320.842 468.979 314.98 468.979 314.98L469.005 313.643L473.097 301.495L473.678 313.602L473.823 316.557L473.831 316.706L473.98 319.787V319.843L474.032 320.872L474.129 322.947C474.214 324.635 474.751 325.149 476.908 325.615C476.908 325.615 475.373 340.069 472.892 340.069L472.888 340.065Z" fill="#FFB27D"/>
<path d="M473.976 319.784C471.129 318.796 468.957 315.737 468.957 315.737L469.363 315.748L473.827 316.706L473.976 319.787V319.784Z" fill="#331832"/>
<path d="M494.228 347.317L493.188 338.758L493.539 338.717L494.578 347.279L494.228 347.317Z" fill="#331832"/>
<path d="M371.624 409.433C374.639 404.902 377.433 402.465 377.433 402.465C377.433 402.465 389.506 405.666 389.819 406.773C390.542 409.332 390.714 414.635 391.381 417.206C391.671 418.32 392.361 422.121 391.183 422.493C390.162 422.818 388.038 419.989 387.203 418.54C384.167 425.43 376.286 434.153 381.476 419.263C381.469 419.263 381.458 419.255 381.45 419.255C380.768 420.712 376.699 429.976 374.881 428.329C373.275 426.876 376.002 419.807 377.09 417.396C377.068 417.385 377.042 417.37 377.02 417.359C375.675 419.714 371.71 426.507 370.663 424.688C369.347 422.411 373.018 415.171 373.018 415.171C373.018 415.171 369.999 421.774 368.129 419.304C366.855 417.62 369.783 412.507 371.032 410.253C371.211 409.929 371.412 409.66 371.624 409.433Z" fill="#FFB27D"/>
<path d="M391.846 411.773C400.271 393.988 421.615 375.766 438.856 358.067C442.85 353.964 434.947 349.59 437.66 347.518C439.843 345.852 438.949 340.386 435.707 336.887C432.667 333.604 426.653 332.08 425.352 332.818C423.142 334.07 420.251 336.894 415.712 341.399C399.95 357.046 388.612 370.356 375.376 400.535C375.376 400.535 377.466 404.347 382.21 408.091C384.893 410.212 391.846 411.777 391.846 411.777V411.773Z" fill="#366F90"/>
<path d="M411.103 386.137L410.805 385.947C419.528 372.607 432.827 355.153 432.958 354.982L433.241 355.194C433.107 355.373 419.815 372.812 411.103 386.14V386.137Z" fill="#331832"/>
<path d="M427.32 331.685C427.32 331.685 434.538 330.273 436.818 332.136C441.796 336.213 451.272 333.276 451.902 331.566C452.531 329.852 449.957 326.096 446.927 324.829C439.013 321.527 429.593 328.395 427.32 331.685V331.685Z" fill="#EF8062"/>
<path d="M460.729 329.077C460.729 329.077 468.554 337.394 477.747 330.757C477.747 330.757 475.783 354.628 470.175 367.017C470.078 367.23 469.761 367.971 469.627 368.146L460.733 329.081L460.729 329.077Z" fill="#DAEBE8"/>
<path d="M462.984 324.367C462.984 324.367 470.958 347.056 469.627 368.143C469.627 368.143 463.256 353.554 460.834 349.571L463.859 347.298L458.762 343.02C458.762 343.02 455.501 329.122 453.355 325.563C453.355 325.563 459.365 321.796 462.984 324.371V324.367Z" fill="#68A1BF"/>
<path d="M474.848 324.829C474.848 324.829 474.654 345.804 469.627 368.143C469.627 368.143 476.704 353.554 479.126 349.571L476.1 347.298L481.197 343.02C481.197 343.02 482.695 328.507 484.842 324.948C484.842 324.948 478.466 322.258 474.848 324.833V324.829Z" fill="#68A1BF"/>
<path d="M476.145 324.154C476.145 324.154 477.21 325.824 477.691 328.995C478.172 332.166 489.112 324.825 489.112 322.224C489.112 320.596 479.852 319.221 476.145 324.158V324.154Z" fill="#EF8062"/>
<path d="M468.2 368.556C468.2 367.748 468.856 367.092 469.665 367.092C470.473 367.092 471.129 367.748 471.129 368.556C471.129 369.365 470.473 370.021 469.665 370.021C468.856 370.021 468.2 369.365 468.2 368.556Z" fill="#331832"/>
<path d="M463.789 386.043C463.789 385.235 464.444 384.579 465.253 384.579C466.062 384.579 466.717 385.235 466.717 386.043C466.717 386.852 466.062 387.508 465.253 387.508C464.444 387.508 463.789 386.852 463.789 386.043Z" fill="#331832"/>
<path d="M457.293 401.738C457.293 400.93 457.949 400.274 458.758 400.274C459.566 400.274 460.222 400.93 460.222 401.738C460.222 402.547 459.566 403.203 458.758 403.203C457.949 403.203 457.293 402.547 457.293 401.738Z" fill="#331832"/>
<path d="M474.211 289.672C474.211 289.672 472.485 281.269 465.018 282.913C457.551 284.556 460.96 289.445 460.103 291.256C459.246 293.066 463.904 296.066 467.559 295.47C471.215 294.874 474.207 289.668 474.207 289.668L474.211 289.672Z" fill="#331832"/>
<path d="M457.156 308.057C457.156 308.057 458.516 309.395 459.623 313.188C461.243 318.733 467.91 317.313 468.457 315.1C468.524 314.828 463.271 306.95 463.271 306.95L460.893 307.01L457.156 308.057V308.057Z" fill="#331832"/>
<path d="M477.484 315.172C482.476 312.012 483.384 304.492 479.513 298.377C475.641 292.262 468.455 289.867 463.463 293.027C458.472 296.188 457.564 303.707 461.435 309.823C465.307 315.938 472.493 318.333 477.484 315.172Z" fill="#FFB27D"/>
<path d="M468.718 293.316C468.681 293.816 473.689 298.637 463.87 306.656C454.052 314.679 452.416 297.84 460.11 292.638C471.222 285.126 477.627 291.677 478.246 295.086C478.865 298.496 468.722 293.32 468.722 293.32L468.718 293.316Z" fill="#331832"/>
<path d="M463.908 304.104C463.908 304.104 462.402 311.385 466.837 315.1C466.837 315.1 462.589 313.937 461.892 312.95C461.195 311.962 459.552 307.848 459.552 307.848L463.908 304.104V304.104Z" fill="#331832"/>
<path d="M463.65 310.662C465.29 310.993 466.788 310.196 467 308.881C467.213 307.565 466.058 306.231 464.418 305.896C462.778 305.564 461.281 306.362 461.068 307.677C460.856 308.992 462.011 310.326 463.65 310.662Z" fill="#FFB27D"/>
<path d="M471.412 303.642C471.461 303.586 471.487 303.511 471.476 303.433C471.453 303.302 471.327 303.213 471.196 303.239C471.118 303.254 469.285 303.411 468.893 305.497C468.867 305.628 468.949 305.754 469.084 305.78C469.214 305.807 469.315 305.713 469.37 305.59C469.922 304.368 471.219 303.724 471.282 303.712C471.334 303.701 471.383 303.675 471.416 303.638L471.412 303.642Z" fill="#080435"/>
<path d="M471.189 306.909C471.479 307.409 472.008 307.64 472.374 307.427C472.739 307.215 472.798 306.641 472.508 306.142C472.217 305.643 471.688 305.411 471.323 305.624C470.958 305.836 470.898 306.41 471.189 306.909Z" fill="#080435"/>
<path d="M479.45 300.113C479.517 300.083 479.569 300.02 479.588 299.945C479.617 299.815 479.535 299.688 479.401 299.658C479.323 299.643 477.572 299.092 476.413 300.877C476.338 300.989 476.368 301.138 476.476 301.212C476.588 301.287 476.715 301.238 476.815 301.145C477.791 300.221 479.234 300.117 479.297 300.128C479.349 300.139 479.405 300.132 479.45 300.109V300.113Z" fill="#080435"/>
<path d="M477.993 303.056C478.071 303.627 478.47 304.044 478.887 303.988C479.304 303.928 479.58 303.418 479.502 302.848C479.424 302.278 479.025 301.86 478.608 301.916C478.19 301.976 477.915 302.486 477.993 303.056Z" fill="#080435"/>
<g opacity="0.3">
<path d="M466.009 306.351C466.833 309.503 469.441 311.988 471.837 311.903C474.233 311.817 475.511 309.194 474.691 306.041C473.868 302.889 471.26 300.404 468.864 300.489C466.468 300.575 465.19 303.198 466.009 306.351V306.351Z" fill="white"/>
</g>
<g opacity="0.3">
<path d="M476.096 302.341C477.248 305.322 479.904 307.617 482.032 307.465C484.16 307.312 484.953 304.771 483.802 301.79C482.651 298.809 479.994 296.513 477.866 296.666C475.738 296.819 474.945 299.36 476.096 302.341Z" fill="white"/>
</g>
<path d="M466.698 308.557C466.788 308.698 466.881 308.84 466.978 308.97C467.902 310.282 469.132 311.269 470.406 311.694C470.913 311.865 471.427 311.947 471.937 311.921C472.426 311.899 472.88 311.787 473.29 311.586C473.402 311.534 473.51 311.47 473.614 311.407C473.961 311.184 474.274 310.893 474.538 310.539C475.194 309.663 475.507 308.489 475.451 307.182C475.433 306.641 475.347 306.079 475.205 305.505C475.053 304.909 474.844 304.338 474.576 303.798C474.468 303.567 474.348 303.347 474.214 303.127C473.07 301.208 471.285 299.833 469.523 299.617C469.303 299.587 469.083 299.58 468.867 299.587C467.805 299.632 466.903 300.109 466.266 300.97C465.454 302.054 465.167 303.593 465.446 305.277C465.484 305.52 465.539 305.762 465.599 306.004C465.636 306.149 465.677 306.291 465.722 306.436C465.849 306.85 466.009 307.252 466.188 307.64C466.337 307.957 466.508 308.266 466.691 308.557H466.698ZM474.814 309.101C474.676 309.551 474.479 309.958 474.218 310.304C473.991 310.613 473.726 310.863 473.424 311.057C472.984 311.336 472.478 311.497 471.923 311.523C471.397 311.545 470.861 311.452 470.339 311.247C469.061 310.77 467.857 309.693 467 308.292C466.87 308.076 466.747 307.852 466.631 307.625C466.523 307.409 466.423 307.189 466.333 306.958C466.195 306.619 466.084 306.272 465.99 305.915C465.908 305.587 465.841 305.259 465.808 304.935C465.782 304.752 465.767 304.577 465.763 304.394C465.763 304.383 465.763 304.376 465.763 304.361C465.763 304.342 465.763 304.324 465.763 304.305C465.748 303.955 465.763 303.619 465.804 303.299C465.905 302.494 466.173 301.775 466.59 301.212C466.896 300.802 467.268 300.489 467.697 300.288C468.058 300.113 468.453 300.012 468.886 299.997C469.05 299.99 469.214 299.994 469.377 300.012C471.069 300.169 472.794 301.499 473.897 303.377C474.028 303.593 474.147 303.82 474.259 304.055C474.49 304.547 474.68 305.065 474.822 305.605C474.959 306.146 475.038 306.686 475.053 307.2C475.079 307.875 475 308.512 474.825 309.082C474.821 309.089 474.818 309.097 474.818 309.104L474.814 309.101Z" fill="#68A1BF"/>
<path d="M476.92 303.988C477.013 304.137 477.11 304.283 477.21 304.424C477.311 304.566 477.415 304.704 477.523 304.834C477.59 304.927 477.665 305.017 477.739 305.102C477.747 305.113 477.762 305.128 477.769 305.14C477.832 305.214 477.892 305.281 477.959 305.356C477.967 305.356 477.967 305.359 477.97 305.363C477.434 304.715 476.957 303.943 476.592 303.101C476.562 303.101 476.51 303.101 476.435 303.101C476.51 303.258 476.588 303.407 476.674 303.56C476.756 303.709 476.841 303.85 476.927 303.992L476.92 303.988ZM476.92 303.988C477.013 304.137 477.11 304.283 477.21 304.424C477.311 304.566 477.415 304.704 477.523 304.834C477.59 304.927 477.665 305.017 477.739 305.102C477.747 305.113 477.762 305.128 477.769 305.14C477.832 305.214 477.892 305.281 477.959 305.356C477.967 305.356 477.967 305.359 477.97 305.363C477.434 304.715 476.957 303.943 476.592 303.101C476.562 303.101 476.51 303.101 476.435 303.101C476.51 303.258 476.588 303.407 476.674 303.56C476.756 303.709 476.841 303.85 476.927 303.992L476.92 303.988ZM476.92 303.988C477.013 304.137 477.11 304.283 477.21 304.424C477.311 304.566 477.415 304.704 477.523 304.834C477.59 304.927 477.665 305.017 477.739 305.102C477.747 305.113 477.762 305.128 477.769 305.14C477.832 305.214 477.892 305.281 477.959 305.356C477.967 305.356 477.967 305.359 477.97 305.363C477.434 304.715 476.957 303.943 476.592 303.101C476.562 303.101 476.51 303.101 476.435 303.101C476.51 303.258 476.588 303.407 476.674 303.56C476.756 303.709 476.841 303.85 476.927 303.992L476.92 303.988ZM476.92 303.988C477.013 304.137 477.11 304.283 477.21 304.424C477.311 304.566 477.415 304.704 477.523 304.834C477.59 304.927 477.665 305.017 477.739 305.102C477.747 305.113 477.762 305.128 477.769 305.14C477.832 305.214 477.892 305.281 477.959 305.356C477.967 305.356 477.967 305.359 477.97 305.363C477.434 304.715 476.957 303.943 476.592 303.101C476.562 303.101 476.51 303.101 476.435 303.101C476.51 303.258 476.588 303.407 476.674 303.56C476.756 303.709 476.841 303.85 476.927 303.992L476.92 303.988ZM476.92 303.988C477.013 304.137 477.11 304.283 477.21 304.424C477.311 304.566 477.415 304.704 477.523 304.834C477.59 304.927 477.665 305.017 477.739 305.102C477.747 305.113 477.762 305.128 477.769 305.14C477.832 305.214 477.892 305.281 477.959 305.356C477.967 305.356 477.967 305.359 477.97 305.363C477.434 304.715 476.957 303.943 476.592 303.101C476.562 303.101 476.51 303.101 476.435 303.101C476.51 303.258 476.588 303.407 476.674 303.56C476.756 303.709 476.841 303.85 476.927 303.992L476.92 303.988ZM476.92 303.988C477.013 304.137 477.11 304.283 477.21 304.424C477.311 304.566 477.415 304.704 477.523 304.834C477.59 304.927 477.665 305.017 477.739 305.102C477.747 305.113 477.762 305.128 477.769 305.14C477.832 305.214 477.892 305.281 477.959 305.356C477.967 305.356 477.967 305.359 477.97 305.363C477.434 304.715 476.957 303.943 476.592 303.101C476.562 303.101 476.51 303.101 476.435 303.101C476.51 303.258 476.588 303.407 476.674 303.56C476.756 303.709 476.841 303.85 476.927 303.992L476.92 303.988ZM476.92 303.988C477.013 304.137 477.11 304.283 477.21 304.424C477.311 304.566 477.415 304.704 477.523 304.834C477.59 304.927 477.665 305.017 477.739 305.102C477.747 305.113 477.762 305.128 477.769 305.14C477.832 305.214 477.892 305.281 477.959 305.356C477.967 305.356 477.967 305.359 477.97 305.363C477.434 304.715 476.957 303.943 476.592 303.101C476.562 303.101 476.51 303.101 476.435 303.101C476.51 303.258 476.588 303.407 476.674 303.56C476.756 303.709 476.841 303.85 476.927 303.992L476.92 303.988ZM476.92 303.988C477.013 304.137 477.11 304.283 477.21 304.424C477.311 304.566 477.415 304.704 477.523 304.834C477.59 304.927 477.665 305.017 477.739 305.102C477.747 305.113 477.762 305.128 477.769 305.14C477.832 305.214 477.892 305.281 477.959 305.356C477.967 305.356 477.967 305.359 477.97 305.363C477.434 304.715 476.957 303.943 476.592 303.101C476.562 303.101 476.51 303.101 476.435 303.101C476.51 303.258 476.588 303.407 476.674 303.56C476.756 303.709 476.841 303.85 476.927 303.992L476.92 303.988ZM476.908 304.573C477.527 305.561 478.291 306.392 479.107 306.969H479.111C479.93 307.554 480.806 307.875 481.644 307.849C481.697 307.849 481.749 307.841 481.801 307.837C481.808 307.837 481.812 307.837 481.816 307.837C482.237 307.8 482.624 307.67 482.967 307.457C483.258 307.275 483.519 307.032 483.735 306.734C484.592 305.561 484.76 303.653 484.182 301.633C483.239 298.339 480.601 295.731 478.306 295.805C478.257 295.805 478.205 295.805 478.16 295.817H478.157C477.959 295.835 477.78 295.865 477.601 295.917C477.352 295.992 477.124 296.103 476.912 296.245C476.648 296.42 476.42 296.647 476.212 296.923C475.358 298.093 475.187 300.005 475.768 302.024C475.805 302.155 475.846 302.285 475.887 302.416C475.966 302.654 476.059 302.893 476.159 303.124C476.368 303.638 476.625 304.122 476.908 304.573V304.573ZM477.963 305.359C477.426 304.711 476.949 303.94 476.584 303.098C476.48 302.852 476.383 302.602 476.294 302.352C476.245 302.207 476.2 302.058 476.156 301.909C475.884 300.955 475.783 300.038 475.846 299.222C475.91 298.436 476.133 297.747 476.498 297.221C476.51 297.199 476.525 297.177 476.539 297.158C476.726 296.905 476.946 296.696 477.195 296.539C477.411 296.405 477.654 296.308 477.914 296.256C478.045 296.23 478.172 296.211 478.309 296.208C480.433 296.133 482.893 298.619 483.791 301.749C483.791 301.764 483.798 301.775 483.802 301.79C483.802 301.79 483.803 301.792 483.806 301.797C483.806 301.797 483.806 301.812 483.813 301.816C483.813 301.819 483.813 301.827 483.813 301.831C484.331 303.709 484.174 305.441 483.403 306.503C483.016 307.04 482.479 307.357 481.853 307.431C481.779 307.446 481.708 307.446 481.633 307.45C481.57 307.45 481.507 307.454 481.443 307.446C481.428 307.446 481.406 307.446 481.387 307.446C481.387 307.446 481.384 307.446 481.38 307.446C481.376 307.446 481.372 307.446 481.369 307.446C480.858 307.424 480.329 307.249 479.807 306.954C479.185 306.608 478.581 306.09 478.037 305.456C478.015 305.426 477.989 305.397 477.963 305.371V305.359ZM476.92 303.988C477.013 304.137 477.11 304.283 477.21 304.424C477.311 304.566 477.415 304.704 477.523 304.834C477.59 304.927 477.665 305.017 477.739 305.102C477.747 305.113 477.762 305.128 477.769 305.14C477.832 305.214 477.892 305.281 477.959 305.356C477.967 305.356 477.967 305.359 477.97 305.363C477.434 304.715 476.957 303.943 476.592 303.101C476.562 303.101 476.51 303.101 476.435 303.101C476.51 303.258 476.588 303.407 476.674 303.56C476.756 303.709 476.841 303.85 476.927 303.992L476.92 303.988ZM476.92 303.988C477.013 304.137 477.11 304.283 477.21 304.424C477.311 304.566 477.415 304.704 477.523 304.834C477.59 304.927 477.665 305.017 477.739 305.102C477.747 305.113 477.762 305.128 477.769 305.14C477.832 305.214 477.892 305.281 477.959 305.356C477.967 305.356 477.967 305.359 477.97 305.363C477.434 304.715 476.957 303.943 476.592 303.101C476.562 303.101 476.51 303.101 476.435 303.101C476.51 303.258 476.588 303.407 476.674 303.56C476.756 303.709 476.841 303.85 476.927 303.992L476.92 303.988ZM476.92 303.988C477.013 304.137 477.11 304.283 477.21 304.424C477.311 304.566 477.415 304.704 477.523 304.834C477.59 304.927 477.665 305.017 477.739 305.102C477.747 305.113 477.762 305.128 477.769 305.14C477.832 305.214 477.892 305.281 477.959 305.356C477.967 305.356 477.967 305.359 477.97 305.363C477.434 304.715 476.957 303.943 476.592 303.101C476.562 303.101 476.51 303.101 476.435 303.101C476.51 303.258 476.588 303.407 476.674 303.56C476.756 303.709 476.841 303.85 476.927 303.992L476.92 303.988ZM476.92 303.988C477.013 304.137 477.11 304.283 477.21 304.424C477.311 304.566 477.415 304.704 477.523 304.834C477.59 304.927 477.665 305.017 477.739 305.102C477.747 305.113 477.762 305.128 477.769 305.14C477.832 305.214 477.892 305.281 477.959 305.356C477.967 305.356 477.967 305.359 477.97 305.363C477.434 304.715 476.957 303.943 476.592 303.101C476.562 303.101 476.51 303.101 476.435 303.101C476.51 303.258 476.588 303.407 476.674 303.56C476.756 303.709 476.841 303.85 476.927 303.992L476.92 303.988ZM476.92 303.988C477.013 304.137 477.11 304.283 477.21 304.424C477.311 304.566 477.415 304.704 477.523 304.834C477.59 304.927 477.665 305.017 477.739 305.102C477.747 305.113 477.762 305.128 477.769 305.14C477.832 305.214 477.892 305.281 477.959 305.356C477.967 305.356 477.967 305.359 477.97 305.363C477.434 304.715 476.957 303.943 476.592 303.101C476.562 303.101 476.51 303.101 476.435 303.101C476.51 303.258 476.588 303.407 476.674 303.56C476.756 303.709 476.841 303.85 476.927 303.992L476.92 303.988ZM476.92 303.988C477.013 304.137 477.11 304.283 477.21 304.424C477.311 304.566 477.415 304.704 477.523 304.834C477.59 304.927 477.665 305.017 477.739 305.102C477.747 305.113 477.762 305.128 477.769 305.14C477.832 305.214 477.892 305.281 477.959 305.356C477.967 305.356 477.967 305.359 477.97 305.363C477.434 304.715 476.957 303.943 476.592 303.101C476.562 303.101 476.51 303.101 476.435 303.101C476.51 303.258 476.588 303.407 476.674 303.56C476.756 303.709 476.841 303.85 476.927 303.992L476.92 303.988ZM476.92 303.988C477.013 304.137 477.11 304.283 477.21 304.424C477.311 304.566 477.415 304.704 477.523 304.834C477.59 304.927 477.665 305.017 477.739 305.102C477.747 305.113 477.762 305.128 477.769 305.14C477.832 305.214 477.892 305.281 477.959 305.356C477.967 305.356 477.967 305.359 477.97 305.363C477.434 304.715 476.957 303.943 476.592 303.101C476.562 303.101 476.51 303.101 476.435 303.101C476.51 303.258 476.588 303.407 476.674 303.56C476.756 303.709 476.841 303.85 476.927 303.992L476.92 303.988Z" fill="#68A1BF"/>
<path d="M476.852 303.045C476.949 302.986 477.016 302.885 477.028 302.766C477.05 302.561 476.901 302.375 476.692 302.356C476.625 302.349 475.053 302.207 473.566 303.679C473.417 303.824 473.417 304.063 473.566 304.208C473.711 304.353 473.95 304.353 474.099 304.208C475.332 302.986 476.599 303.101 476.614 303.101C476.7 303.109 476.785 303.09 476.852 303.045Z" fill="#331832"/>
<path d="M458.87 296.223C458.87 296.223 453.489 289.538 447.572 294.374C441.655 299.211 445.224 301.995 446.994 304.007C448.313 305.508 452.587 306.559 455.579 304.379C458.572 302.196 458.87 296.223 458.87 296.223Z" fill="#331832"/>
<path d="M475.243 310.729C475.243 310.729 478.72 310.01 479.592 308.281C479.592 308.281 480.236 310.975 478.392 311.679C476.547 312.38 475.243 310.729 475.243 310.729V310.729Z" fill="white"/>
<path d="M256.446 462.588C267.118 454.994 279.076 449.851 292.293 449.065C300.993 448.547 309.683 450.634 318.343 449.408C331.478 447.552 341.356 439.645 348.022 428.534C348.652 427.483 347.012 426.529 346.382 427.576C332.051 451.461 312.571 445.134 289.494 447.452C276.814 448.726 265.788 453.615 255.489 460.948C254.501 461.652 255.448 463.299 256.446 462.588V462.588Z" fill="#D96048"/>
<path d="M357.185 453.566C340.425 470.413 317.728 474.907 295.184 478.737C293.981 478.942 294.491 480.772 295.687 480.567C318.589 476.673 341.58 471.941 358.526 454.908C359.391 454.04 358.046 452.698 357.185 453.566V453.566Z" fill="#D96048"/>
</g>
<g clip-path="url(#clip3_1007_1730)">
<path d="M220.182 113.154C220.182 113.154 156.803 102.415 90.796 157.646C41.2478 199.108 103.315 249.464 -4.40439 259.738C-94.9669 268.376 -153 335.269 -153 335.269C-153 335.269 -153 390.612 -81.2005 397.601C-26.523 402.925 -57.7504 452.874 -4.67952 448.479C48.3914 444.083 70.4559 427.433 82.3357 451.621C99.6052 486.799 139.853 472.395 139.853 472.395C139.853 472.395 133.387 409.631 197.994 406.392C247.665 403.901 243.013 281.638 241.976 239.429C240.939 197.225 220.186 113.154 220.186 113.154H220.182Z" fill="#FE0000"/>
<path d="M181.707 426.686C181.707 426.686 173.291 431.551 171.621 442.946C170.304 451.946 172.589 471.392 162.546 466.174C156.783 463.181 150.259 439.377 147.719 432.986C145.174 426.595 140.241 421.789 142.26 415.205C144.481 407.961 167.862 398.716 167.862 398.716C167.862 398.716 166.762 407.385 168.855 412.293C171.871 419.361 181.712 426.686 181.712 426.686H181.707Z" fill="#331832"/>
<path d="M80.4342 480.023C80.4342 480.023 71.5661 489.802 75.0249 498.108C78.4837 506.415 87.4107 523.833 76.2826 523.385C69.8957 523.129 55.1958 504.105 50.5185 499.341C45.8413 494.577 39.5575 492.299 38.9974 485.385C38.3833 477.783 58.1633 463.214 58.1633 463.214C58.1633 463.214 60.2415 469.589 63.9558 473.184C69.311 478.364 80.4293 480.023 80.4293 480.023H80.4342Z" fill="#331832"/>
<path d="M401.538 25.6046C394.959 32.7532 389.476 36.1995 389.476 36.1995C389.476 36.1995 370.595 26.4155 370.463 24.3189C370.163 19.4749 371.73 9.87757 371.524 5.03357C371.435 2.93165 371.622 -4.13163 373.695 -4.40904C375.498 -4.65444 378.029 1.14449 378.903 4.03062C386.342 -7.34852 402.447 -20.4135 388.641 4.63879C388.656 4.64413 388.67 4.6548 388.685 4.66547C390.321 2.27014 400.3 -13.0301 402.741 -9.4611C404.893 -6.30823 397.907 5.4977 395.259 9.46679C395.293 9.4988 395.328 9.52547 395.362 9.55748C398.413 5.76977 407.355 -5.12391 408.455 -1.50691C409.836 3.02768 401.228 14.8283 401.228 14.8283C401.228 14.8283 408.539 3.95594 410.769 9.024C412.292 12.481 405.65 20.6966 402.795 24.3349C402.383 24.8577 401.96 25.2738 401.528 25.6153L401.538 25.6046Z" fill="#FFB27D"/>
<path d="M237.687 254.879L80.4343 480.023C74.2832 489.407 41.4787 475.313 54.0315 455.377L155.255 239.696C156.665 237.151 183.491 253.614 186.203 253.299C200.893 251.603 237.687 254.873 237.687 254.873V254.879Z" fill="#764678"/>
<path d="M242.767 255.695C247.312 256.196 252.264 249.891 254.509 253.94C265.328 273.454 303.458 353.375 276.76 380.641C267.48 390.121 177.148 428.649 177.148 428.649C170.697 430.42 163.912 427.353 160.852 421.309C155.02 409.78 156.297 399.217 166.772 391.844C179.914 382.594 198.49 375.515 222.078 354.479C225.586 351.353 208.543 306.578 200.141 289.453C198.043 285.18 198.156 280.128 200.446 275.956L207.997 262.187C210.778 257.125 208.916 252.862 214.581 253.492L242.767 255.695V255.695Z" fill="#764678"/>
<path d="M206.617 303.505L206.086 303.201C211.972 290.872 219.995 287.085 220.078 287.042L220.314 287.645C220.236 287.677 212.404 291.39 206.621 303.5L206.617 303.505Z" fill="#331832"/>
<path d="M369.21 13.996C349.032 43.1774 305.423 92.1989 268.114 113.741C263.977 116.131 263.485 126.139 267.632 133.512C271.523 140.431 283.265 155.086 285.678 154.195C289.78 152.68 345.539 119.967 391.407 40.0085C391.407 40.0085 389.938 32.9452 382.868 25.2951C379.915 22.0995 369.22 13.996 369.22 13.996H369.21Z" fill="#6DA49A"/>
<path d="M291.367 147.291C287.215 106.47 286.709 106.603 286.709 106.603C286.709 106.603 264.63 110.577 255.221 111.031C244.639 111.538 241.504 109.062 236.262 108.924C208.582 108.182 176.042 128.534 172.122 161.423C170.373 176.078 165.661 185.062 159.087 200.906C147.552 228.701 141.921 244.369 141.784 245.607C186.974 281.862 263.765 266.93 263.765 266.93C277.836 219.791 281.32 206.284 285.673 189.479C293.985 157.38 291.721 149.105 291.367 147.297V147.291Z" fill="#6DA49A"/>
<path d="M255.457 110.62C255.457 110.62 206.68 106.976 178.509 121.439C170.373 125.616 163.784 133.778 158.906 139.241L205.172 151.474L255.452 110.615L255.457 110.62Z" fill="#6DA49A"/>
<path d="M255.457 136.809C252.554 136.809 238.006 122.33 234.931 108.892C234.95 108.892 242.389 107.734 243.681 105.205C245.543 101.562 248.854 90.8173 248.854 90.8173L248.899 88.3633L255.806 66.0905L256.784 88.2886L257.03 93.7087L257.044 93.9808L257.295 99.6304L257.305 99.7371L257.388 101.62L257.555 105.429C257.698 108.524 258.607 109.468 262.247 110.321C262.247 110.321 259.658 136.825 255.462 136.825L255.457 136.809Z" fill="#FFB27D"/>
<path d="M291.495 150.108L289.736 134.413L290.33 134.333L292.089 150.023L291.495 150.108Z" fill="#331832"/>
<path d="M84.4578 263.996C89.5478 255.684 94.2692 251.219 94.2692 251.219C94.2692 251.219 114.658 257.082 115.184 259.12C116.403 263.814 116.692 273.534 117.822 278.245C118.309 280.288 119.473 287.255 117.493 287.938C115.769 288.536 112.182 283.35 110.772 280.688C105.643 293.321 92.3384 309.315 101.103 282.017C101.089 282.017 101.074 282.006 101.059 282.001C99.9094 284.673 93.036 301.659 89.9654 298.635C87.2534 295.967 91.8569 283.009 93.6944 278.592C93.6551 278.57 93.6158 278.544 93.5716 278.522C91.3017 282.838 84.6052 295.295 82.8365 291.966C80.6158 287.789 86.8112 274.516 86.8112 274.516C86.8112 274.516 81.7114 286.621 78.5573 282.097C76.4053 279.008 81.3528 269.635 83.4605 265.5C83.7651 264.903 84.0992 264.412 84.4578 263.996V263.996Z" fill="#FFB27D"/>
<path d="M118.609 268.285C132.837 235.673 168.879 202.261 197.989 169.804C204.735 162.282 191.386 154.259 195.97 150.46C199.655 147.403 198.146 137.385 192.673 130.972C187.539 124.955 177.379 122.159 175.183 123.509C171.449 125.803 166.565 130.983 158.906 139.241C132.287 167.932 113.145 192.339 90.791 247.671C90.791 247.671 94.3186 254.66 102.332 261.526C106.862 265.409 118.609 268.28 118.609 268.28V268.285Z" fill="#6DA49A"/>
<path d="M151.124 221.291L150.623 220.933C165.357 196.478 187.81 164.475 188.031 164.155L188.502 164.555C188.276 164.87 165.838 196.857 151.119 221.296L151.124 221.291Z" fill="#331832"/>
<path d="M178.514 121.439C178.514 121.439 190.703 118.846 194.55 122.266C202.961 129.74 218.958 124.357 220.019 121.22C221.085 118.078 216.737 111.186 211.623 108.87C198.254 102.815 182.356 115.411 178.514 121.439Z" fill="#EF8062"/>
<path d="M260.96 109.633C260.96 109.633 262.763 112.695 263.574 118.505C264.384 124.315 282.857 110.86 282.862 106.085C282.862 103.103 267.229 100.575 260.965 109.628L260.96 109.633Z" fill="#EF8062"/>
<path d="M250.024 191.741C251.391 191.741 252.5 190.537 252.5 189.052C252.5 187.567 251.391 186.364 250.024 186.364C248.656 186.364 247.547 187.567 247.547 189.052C247.547 190.537 248.656 191.741 250.024 191.741Z" fill="#331832"/>
<path d="M240.094 221.109C240.094 219.626 241.205 218.421 242.57 218.421C243.936 218.421 245.047 219.626 245.047 221.109C245.047 222.592 243.936 223.798 242.57 223.798C241.205 223.798 240.094 222.592 240.094 221.109Z" fill="#331832"/>
<path d="M229.128 249.885C229.128 248.402 230.239 247.196 231.605 247.196C232.97 247.196 234.081 248.402 234.081 249.885C234.081 251.368 232.97 252.574 231.605 252.574C230.239 252.574 229.128 251.368 229.128 249.885Z" fill="#331832"/>
<path d="M268.9 53.9805C268.9 53.9805 271.504 58.7552 271.951 65.6051C272.398 72.455 262.12 58.4244 262.12 58.4244L268.9 53.9805V53.9805Z" fill="#5C305D"/>
<path d="M265.301 96.7444C274.506 92.282 277.974 78.9526 273.048 66.9725C268.122 54.9923 256.667 48.898 247.462 53.3605C238.258 57.8229 234.789 71.1523 239.715 83.1325C244.641 95.1126 256.097 101.207 265.301 96.7444Z" fill="#FFB27D"/>
<path d="M237.446 76.4399L245.705 72.887C247.523 72.1081 248.948 70.5023 249.513 68.4804C250.485 65.0075 252.185 62.8575 260.208 60.7503C270.364 58.0829 275.306 49.6005 274.908 43.5989C274.5 37.4745 268.325 35.1272 264.001 39.4324C259.678 43.7322 260.071 36.3115 255.025 37.0744C245.602 38.5095 245.877 46.5597 238.389 48.5869C228.568 51.2437 213.215 64.5487 226.333 80.4891L237.446 76.4346V76.4399Z" fill="#331832"/>
<path d="M257.059 73.8045C257.133 73.7139 257.172 73.5912 257.148 73.4631C257.108 73.2497 256.917 73.1057 256.715 73.1484C256.597 73.175 253.807 73.4738 253.266 76.9254C253.232 77.1441 253.36 77.3522 253.561 77.3895C253.763 77.4322 253.915 77.2722 253.993 77.0695C254.799 75.0369 256.755 73.9539 256.853 73.9326C256.936 73.9166 257.005 73.8686 257.054 73.8099L257.059 73.8045Z" fill="#080435"/>
<path d="M256.804 79.2035C257.261 80.0197 258.076 80.3931 258.622 80.0357C259.167 79.6783 259.246 78.7287 258.794 77.9124C258.337 77.0962 257.521 76.7281 256.976 77.0802C256.426 77.4377 256.352 78.3873 256.804 79.2035Z" fill="#080435"/>
<path d="M269.941 68.6352C270.02 68.5925 270.074 68.5071 270.083 68.3844C270.098 68.1817 269.975 67.9683 269.808 67.9096C269.71 67.8723 267.45 66.7893 266.291 69.4674C266.217 69.6381 266.276 69.8728 266.423 70.0062C266.571 70.1396 266.723 70.0756 266.831 69.9422C267.897 68.6032 269.671 68.6192 269.749 68.6458C269.818 68.6725 269.882 68.6672 269.936 68.6352H269.941Z" fill="#080435"/>
<path d="M267.725 73.5645C267.858 74.5034 268.482 75.1863 269.116 75.0796C269.749 74.9729 270.157 74.1247 270.025 73.1857C269.892 72.2468 269.268 71.564 268.634 71.6707C268 71.7773 267.593 72.6256 267.725 73.5645Z" fill="#080435"/>
<path d="M226.333 80.4891C226.333 80.4891 235.791 92.3537 244.389 90.8067C244.389 90.8067 234.921 82.4577 247.454 71.7667C247.454 71.7667 233.835 73.5432 226.333 80.4838V80.4891Z" fill="#5C305D"/>
<path d="M240.06 84.4368C242.163 85.1143 244.324 84.0207 244.884 81.9935C245.445 79.9662 244.202 77.779 242.099 77.1014C239.996 76.4239 237.834 77.5175 237.274 79.5448C236.709 81.572 237.957 83.7593 240.06 84.4368Z" fill="#FFB27D"/>
<path d="M247.459 71.772C247.459 71.772 249.331 83.5833 252.062 85.0877C254.799 86.5921 269.342 83.1512 275.286 78.3338C277.33 85.6639 274.22 93.6341 267.799 96.915C265.676 97.9979 263.367 98.7075 260.965 98.9795C256.062 99.529 250.972 98.8355 247.822 94.7544C246.864 93.5114 246.275 84.2501 246.275 84.2501C246.275 84.2501 245.567 78.926 242.099 77.1015C242.099 77.1015 244.486 73.0257 247.459 71.772V71.772Z" fill="#5C305D"/>
<path d="M261.643 39.0269C259.81 39.0269 259.167 37.2825 259.162 37.2665L259.623 37.0744C259.653 37.1544 260.405 39.0696 262.679 38.3014L262.832 38.8082C262.39 38.9683 261.996 39.0269 261.643 39.0269V39.0269Z" fill="#331832"/>
<path d="M262.262 56.8453L262.129 56.6106C262.233 56.5465 272.029 49.862 270.914 43.8017C270.6 42.0892 270.054 41.0596 269.234 40.6488C267.912 39.9926 266.109 41.0596 264.512 42.0092C264.267 42.1532 264.031 42.2973 263.8 42.4253L263.687 42.1906C263.913 42.0519 264.149 41.9185 264.394 41.7745C266.04 40.7929 267.912 39.6779 269.342 40.4034C270.236 40.8569 270.83 41.9558 271.165 43.7483C272.309 49.9954 262.68 56.5679 262.267 56.8453H262.262Z" fill="white"/>
<path d="M234.774 51.9959L234.734 51.7345C245.573 50.0594 248.948 42.2012 248.977 42.1212L249.203 42.2333C249.169 42.3133 245.749 50.3101 234.769 52.0013L234.774 51.9959Z" fill="white"/>
<path d="M264.694 88.8968C261.889 88.8968 259.702 87.6645 259.663 87.6431C259.462 87.5258 259.383 87.2537 259.491 87.0349C259.594 86.8162 259.85 86.7469 260.051 86.8482C260.302 86.9976 266.242 90.3319 270.845 85.1251C271.002 84.949 271.268 84.933 271.435 85.1198C271.602 85.2905 271.607 85.5785 271.449 85.7599C269.278 88.2033 266.811 88.9021 264.694 88.9021V88.8968Z" fill="#FFB27D"/>
<path d="M250.706 118.03C250.706 118.03 259.55 116.776 261.451 119.364C263.347 121.951 260.159 131.607 256.15 131.778C252.141 131.949 246.505 119.727 250.706 118.03V118.03Z" fill="#764678"/>
<path d="M251.281 129.223C245.99 141.247 221.385 187.169 151.398 195.662C146.903 196.206 142.594 197.892 138.865 200.65L124.033 211.613C121.355 213.593 121.262 217.823 123.851 219.952L139.13 232.537C144.363 236.847 150.907 238.912 157.446 238.218C180.071 235.817 242.889 209.069 261.309 127.75C262.095 124.277 258.842 126.267 255.526 126.305C253.708 126.326 252.062 127.457 251.286 129.223H251.281Z" fill="#331832"/>
<path d="M256.007 116.59C256.007 116.59 245.675 110.385 244.186 105.808C242.693 101.231 229.825 108.801 229.575 111.724C229.324 114.648 247.316 134.424 248.967 132.653C250.617 130.882 258.262 119.828 256.007 116.59V116.59Z" fill="#7BB6AB"/>
<path d="M256.007 116.59C256.007 116.59 258.326 112.498 257.908 109.969C257.908 109.969 257.712 107.777 259.363 108.23C261.014 108.684 269.051 117.209 269.528 119.449C270.004 121.69 268.619 131.522 265.563 131.698C262.507 131.879 257.044 120.036 256.371 118.836C255.698 117.635 256.007 116.585 256.007 116.585V116.59Z" fill="#7BB6AB"/>
<path d="M256.464 132.029C256.346 132.029 256.229 132.023 256.116 132.002C253.625 131.586 251.851 128.79 251.777 128.673L252.111 128.428C252.131 128.454 253.86 131.18 256.179 131.565C256.273 131.586 256.371 131.591 256.469 131.591C258.685 131.591 261.112 127.67 261.137 127.628L261.471 127.873C261.363 128.049 258.896 132.029 256.464 132.029V132.029Z" fill="#331832"/>
<path d="M-130.498 378.907C-115.759 358.022 -96.6275 344.461 -72.6665 340.049C-60.1087 337.733 -47.3446 339.419 -34.9342 335.946C-0.92104 326.434 21.0649 294.431 58.5418 294.041C60.1533 294.025 60.1582 291.305 58.5418 291.321C40.2308 291.513 26.2187 297.322 10.5018 307.176C0.719927 313.305 -8.47733 320.667 -18.667 326.024C-33.7157 333.93 -47.8555 333.647 -64.0588 335.861C-92.7462 339.782 -114.904 352.388 -132.66 377.542C-133.638 378.929 -131.466 380.284 -130.498 378.913V378.907Z" fill="#D96048"/>
<path d="M-40.5254 431.813C-24.7594 412.751 2.04134 418.764 18.3576 400.78C26.6214 391.668 30.1146 378.923 37.4154 368.99C51.3636 350.009 71.9984 344.023 92.8151 338.566C94.3824 338.155 93.7191 335.535 92.1518 335.946C65.5525 342.924 42.9524 351.092 28.7684 378.006C15.852 402.519 4.32592 407.31 -18.2398 414.933C-28.0561 418.252 -35.2832 421.426 -42.2941 429.898C-43.3701 431.194 -41.6014 433.125 -40.5254 431.818V431.813Z" fill="#D96048"/>
<path d="M186.036 113.677C187.269 117.683 189.809 120.457 193.489 121.834C195.017 122.405 195.67 119.78 194.152 119.214C191.337 118.158 189.391 116.019 188.448 112.957C187.937 111.308 185.52 112.012 186.036 113.677Z" fill="#D96048"/>
</g>
<g clip-path="url(#clip4_1007_1730)">
<path d="M816.448 165.269C816.448 165.269 719.844 185.742 651.494 281.427C600.188 353.257 630.148 395.674 502.383 479.082C493.19 485.081 513.647 556.837 589.978 552.664C667.322 548.438 569.237 597.64 636.092 631.867C662.295 645.285 694.988 573.511 722.382 664.023C737.39 713.609 766.34 574.184 766.34 574.184C766.34 574.184 718.317 437.504 804.357 407.066C870.501 383.664 903.741 373.452 886.443 321.371C869.154 269.295 816.441 165.271 816.441 165.271L816.448 165.269Z" fill="#FF7EB2"/>
<path d="M1021.45 -9.84369C1015.26 1.7379 1009.15 8.26608 1009.15 8.26608C1009.15 8.26608 979.969 3.81264 979 1.25881C976.772 -4.64443 975.275 -17.2237 973.172 -23.1651C972.262 -25.7436 969.855 -34.6064 972.55 -35.7989C974.893 -36.8412 980.493 -30.6618 982.761 -27.429C988.523 -44.6246 1005.35 -67.4597 996.141 -30.6527C996.163 -30.6521 996.187 -30.6449 996.211 -30.6376C997.518 -34.286 1005.23 -57.3975 1009.88 -53.956C1013.97 -50.9135 1008.98 -33.3718 1006.9 -27.3519C1006.95 -27.3262 1007.01 -27.3071 1007.07 -27.2813C1009.76 -33.2402 1017.74 -50.4464 1020.59 -46.3968C1024.16 -41.3203 1016.98 -23.1224 1016.98 -23.1224C1016.98 -23.1224 1022.76 -39.6354 1027.68 -34.2426C1031.04 -30.5649 1025.16 -17.6299 1022.67 -11.9372C1022.31 -11.1182 1021.9 -10.4278 1021.44 -9.82639L1021.45 -9.84369Z" fill="#FFB27D"/>
<path d="M886.487 342.337L758.879 686.684C754.104 700.871 704.495 696.747 713.942 666.816L769.445 357.144C770.391 353.402 812.818 362.917 816.362 361.416C835.563 353.302 886.485 342.33 886.485 342.33L886.487 342.337Z" fill="#68A1BF"/>
<path d="M893.649 341.278C899.977 340.051 904.289 330.176 908.846 334.295C930.804 354.148 1012.39 437.981 986.599 482.811C977.634 498.397 870.145 583.247 870.145 583.247C862.099 588.087 851.781 587.045 845.372 580.777C833.155 568.82 830.904 555.158 842.274 541.705C856.541 524.826 878.963 508.426 902.899 472.618C906.46 467.296 866.585 418.564 848.791 400.695C844.349 396.237 842.6 389.906 844.121 383.781L849.135 363.566C850.978 356.134 846.865 351.59 854.753 350.058L893.649 341.278V341.278Z" fill="#68A1BF"/>
<path d="M862.827 415.528L861.996 415.367C865.303 397.625 874.714 389.64 874.811 389.553L875.357 390.207C875.263 390.278 866.075 398.094 862.832 415.52L862.827 415.528Z" fill="#331832"/>
<path d="M805.614 113.775C805.614 113.775 796.24 137.272 757.774 132.992C719.314 128.709 668.683 161.057 689.904 180.655C707.642 197.048 636.455 199.505 635.752 244.327C634.978 293.532 682.138 319.094 749.612 289.364C817.092 259.632 846.13 139.45 846.13 139.45L805.612 113.768L805.614 113.775Z" fill="#331832"/>
<path d="M973.415 -11.0684C957.15 33.4797 916.713 112.285 874.435 154.333C869.748 158.997 872.852 171.647 881.228 179.124C889.089 186.14 910.464 199.571 913.387 197.476C918.357 193.915 981.343 130.43 1013.19 12.2171C1013.19 12.2171 1008.54 4.03111 996.115 -2.59552C990.924 -5.36373 973.428 -11.0724 973.428 -11.0724L973.415 -11.0684Z" fill="#0089EE"/>
<path d="M918.478 186.561C897.502 137.478 896.869 137.85 896.869 137.85C896.869 137.85 868.546 151.819 856.011 156.229C841.909 161.185 836.744 159.387 829.612 161.357C791.95 171.749 755.667 210.367 762.755 252.882C765.91 271.827 762.929 284.928 760.017 307.325C754.902 346.615 753.197 368.407 753.47 370.005C828.151 396.634 926.237 346.671 926.237 346.671C927.493 282.281 927.112 264.054 926.664 241.371C925.806 198.042 919.632 188.675 918.473 186.57L918.478 186.561Z" fill="#0089EE"/>
<path d="M856.174 155.622C856.174 155.622 788.928 171.026 756.327 200.532C746.912 209.054 741.087 221.901 736.555 230.69L803.644 226.996L856.166 155.617L856.174 155.622Z" fill="#0089EE"/>
<path d="M866.034 188.199C862.113 189.386 837.015 177.321 827.802 161.862C827.828 161.854 837.438 157.373 838.231 153.7C839.374 148.406 839.801 133.687 839.801 133.687L838.937 130.616L839.881 100.086L849.558 127.3L851.931 133.942L852.053 134.275L854.519 141.2L854.572 141.329L855.394 143.637L857.053 148.307C858.411 152.098 859.994 152.901 865.232 152.475C865.232 152.475 871.713 186.502 866.047 188.217L866.034 188.199Z" fill="#FFB27D"/>
<path d="M854.508 141.189C847.336 140.896 840.268 135.422 840.268 135.422L841.205 135.167L852.051 134.268L854.516 141.193L854.508 141.189Z" fill="#331832"/>
<path d="M802.974 119.341C802.974 119.341 806.975 122.339 810.659 131.713C816.043 145.434 834.437 139.606 835.617 133.743C835.767 133.017 819.878 114.5 819.878 114.5L813.248 115.427L802.974 119.341V119.341Z" fill="#331832"/>
<path d="M865.693 126.321C876.159 113.587 872.914 93.6199 858.444 81.7237C843.975 69.8275 823.76 70.5067 813.294 83.2408C802.828 95.975 806.073 115.942 820.543 127.838C835.012 139.734 855.227 139.055 865.693 126.321Z" fill="#FFB27D"/>
<path d="M832.948 77.7063C832.919 78.9974 847.647 89.7526 821.49 113.556C795.332 137.359 788.147 94.6413 808.816 78.7655C838.653 55.8482 857.555 70.5847 859.811 79.1383C862.067 87.6919 832.955 77.7043 832.955 77.7043L832.948 77.7063Z" fill="#331832"/>
<path d="M821.196 106.987C821.196 106.987 818.131 126.177 831.087 134.282C831.087 134.282 819.049 132.68 816.951 130.367C814.853 128.053 809.623 118.024 809.623 118.024L821.196 106.987Z" fill="#331832"/>
<path d="M821.502 123.911C826.125 124.229 830.189 121.695 830.579 118.245C830.969 114.794 827.531 111.742 822.908 111.424C818.285 111.106 814.221 113.64 813.831 117.091C813.442 120.541 816.879 123.594 821.502 123.911Z" fill="#FFB27D"/>
<path d="M842.071 103.35C842.204 103.193 842.26 102.995 842.207 102.794C842.122 102.465 841.756 102.286 841.396 102.388C841.183 102.452 836.083 103.452 835.316 108.936C835.269 109.284 835.511 109.58 835.888 109.604C836.257 109.629 836.522 109.354 836.66 109.022C838.009 105.702 841.526 103.631 841.705 103.576C841.851 103.532 841.978 103.45 842.069 103.343L842.071 103.35Z" fill="#080435"/>
<path d="M860.655 91.9297C860.835 91.8317 860.969 91.6534 861.01 91.4527C861.072 91.1079 860.815 90.809 860.45 90.7747C860.236 90.7599 855.259 89.9191 852.298 94.8791C852.11 95.1897 852.209 95.5653 852.531 95.7213C852.854 95.8773 853.209 95.7117 853.46 95.4402C856.048 92.7443 860.049 92.0116 860.227 92.0231C860.375 92.036 860.523 91.9985 860.655 91.9297V91.9297Z" fill="#080435"/>
<path d="M858.372 100.734C858.679 102.177 859.861 103.116 861.014 102.832C862.166 102.549 862.857 101.144 862.557 99.6992C862.257 98.2542 861.069 97.3173 859.916 97.601C858.763 97.8847 858.073 99.2889 858.372 100.734Z" fill="#080435"/>
<path d="M841.331 111.745C841.965 113.074 843.352 113.734 844.419 113.215C845.487 112.697 845.837 111.2 845.201 109.864C844.567 108.534 843.18 107.875 842.113 108.393C841.046 108.912 840.695 110.409 841.331 111.745Z" fill="#080435"/>
<path d="M863.231 108.985C863.231 108.985 866.571 117.269 860.397 121.137C853.724 125.315 848.23 119.487 848.23 119.487C848.23 119.487 858.482 116.124 863.231 108.985Z" fill="white"/>
<path d="M688.681 165.675L687.022 165.938C685.713 157.735 690.241 148.599 699.444 140.859C714.204 128.459 741.091 120.061 767.861 129.251C791.148 137.27 802.139 119.093 802.258 118.913L803.708 119.756C803.595 119.957 791.897 139.29 767.314 130.843C741.17 121.855 714.936 130.041 700.529 142.146C691.793 149.491 687.471 158.065 688.685 165.666L688.681 165.675Z" fill="#331832"/>
<path d="M627.719 262.225L626.087 262.646C621.981 246.713 623.691 232.881 631.181 221.515C645.308 200.085 675.015 194.543 680.805 193.645C686.494 192.793 690.138 190.857 691.611 187.969C693.302 184.632 691.467 181.008 691.443 180.979L692.937 180.194C693.026 180.369 695.205 184.6 693.125 188.714C691.407 192.131 687.352 194.337 681.059 195.321C675.369 196.167 646.309 201.622 632.587 222.452C625.376 233.399 623.732 246.777 627.714 262.233L627.719 262.225Z" fill="#331832"/>
<path d="M823.763 110.441L823.424 110.543L822.987 108.908C822.987 108.908 823.056 108.894 823.168 108.86C824.648 108.413 834.606 105.131 837.785 97.1344C841.185 88.5786 831.536 76.6776 831.434 76.5563L832.74 75.4873C833.164 76.0036 843.119 88.2904 839.356 97.753C835.927 106.361 825.811 109.814 823.774 110.43L823.763 110.441Z" fill="#331832"/>
<path d="M919.702 190.009L911.42 171.21L912.191 170.861L920.475 189.666L919.702 190.009Z" fill="#331832"/>
<path d="M682.98 416.31C686.725 403.89 691.42 396.406 691.42 396.406C691.42 396.406 721.164 395.365 722.641 397.685C726.054 403.027 730.105 415 733.405 420.398C734.831 422.741 739.027 430.932 736.61 432.59C734.506 434.039 727.71 429.054 724.803 426.319C722.632 444.13 710.686 469.464 712.245 431.923C712.225 431.93 712.201 431.922 712.179 431.922C711.633 435.716 708.746 459.656 703.46 457.148C698.793 454.938 700.131 436.937 700.95 430.691C700.889 430.681 700.826 430.664 700.758 430.655C699.317 436.952 694.963 455.185 691.321 451.767C686.75 447.478 690.126 428.433 690.126 428.433C690.126 428.433 687.796 445.575 681.833 441.237C677.764 438.274 680.917 424.592 682.206 418.587C682.393 417.719 682.659 416.972 682.987 416.308L682.98 416.31Z" fill="#FFB27D"/>
<path d="M730.717 407.686C737.655 361.303 773.751 305.008 800.845 252.734C807.123 240.62 786.074 236.095 790.835 229.497C794.661 224.188 788.852 212.341 779.046 206.602C769.846 201.215 755.072 201.89 752.614 204.467C748.435 208.847 743.79 217.287 736.555 230.69C711.407 277.261 694.745 315.446 685.387 393.414C685.387 393.414 692.783 400.666 706.19 405.931C713.77 408.911 730.708 407.682 730.708 407.682L730.717 407.686Z" fill="#0089EE"/>
<path d="M756.927 335.933L756.116 335.693C766.808 299.25 785.084 250.268 785.262 249.779L786.049 250.084C785.863 250.568 767.601 299.524 756.921 335.935L756.927 335.933Z" fill="#331832"/>
<path d="M756.327 200.532C756.327 200.532 771.813 192.325 778.295 195.006C792.469 200.866 812.046 187.631 812.299 183.295C812.551 178.959 804.088 172.154 796.309 171.364C775.975 169.296 759.246 191.463 756.327 200.532Z" fill="#EF8062"/>
<path d="M830.72 171.526C830.72 171.526 854.304 185.099 870.688 163.609C870.688 163.609 882.687 219.409 878.453 251.536C878.381 252.087 878.17 253.998 877.979 254.49L830.726 171.524L830.72 171.526Z" fill="#DAEBE8"/>
<path d="M832.603 159.228C832.603 159.228 866.446 205.475 877.972 254.492C877.972 254.492 853.376 225.614 845.1 218.202L850.43 210.924L835.85 204.68C835.85 204.68 818.824 175.228 811.471 168.594C811.471 168.594 822.578 155.851 832.61 159.226L832.603 159.228Z" fill="#68A1BF"/>
<path d="M859.981 152.093C859.981 152.093 874.016 200.069 877.972 254.492C877.972 254.492 884.038 216.334 886.815 205.576L878.344 202.475L887.015 189.195C887.015 189.195 880.413 155.059 882.852 145.454C882.852 145.454 866.449 143.718 859.979 152.087L859.981 152.093Z" fill="#68A1BF"/>
<path d="M862.483 149.663C862.483 149.663 866.071 152.735 869.353 159.631C872.635 166.526 892.518 142.239 890.727 136.297C889.604 132.587 867.539 135.832 862.488 149.654L862.483 149.663Z" fill="#EF8062"/>
<path d="M879.371 258.756C881.218 258.197 882.262 256.246 881.703 254.399C881.143 252.552 879.193 251.508 877.346 252.067C875.499 252.626 874.455 254.576 875.014 256.423C875.573 258.271 877.524 259.315 879.371 258.756Z" fill="#331832"/>
<path d="M881.374 301.68C883.221 301.121 884.265 299.17 883.706 297.323C883.147 295.476 881.196 294.431 879.35 294.99C877.503 295.549 876.459 297.5 877.018 299.347C877.577 301.194 879.527 302.239 881.374 301.68Z" fill="#331832"/>
<path d="M877.399 341.958C879.245 341.399 880.289 339.449 879.73 337.601C879.171 335.754 877.221 334.71 875.374 335.269C873.527 335.828 872.483 337.778 873.042 339.626C873.601 341.473 875.552 342.517 877.399 341.958Z" fill="#331832"/>
</g>
<path d="M1016.59 154.191C1015.91 147.294 1010.23 143.309 1003.02 143.264C993.434 143.264 987.702 150.877 987.702 160.013C987.702 169.148 993.434 176.761 1003.02 176.761C1010.76 176.761 1016.18 171.477 1016.63 163.819H1011.17C1010.72 168.476 1007.99 172.193 1003.02 172.193C996.166 172.193 993.3 166.148 993.3 160.013C993.3 153.877 996.166 147.832 1003.02 147.832C1007.67 147.832 1010.05 150.519 1010.99 154.191H1016.59ZM1021.01 176H1026.11V162.341C1026.11 158.938 1028.31 156.251 1031.71 156.251C1034.71 156.251 1036.14 157.818 1036.23 161.446V176H1041.34V160.102C1041.34 154.907 1038.16 152.22 1033.14 152.22C1030.1 152.22 1027.45 153.788 1026.2 155.892H1026.11V144.025H1021.01V176ZM1067.72 165.745C1068.58 158.803 1064.1 152.22 1056.8 152.22C1049.9 152.22 1045.6 157.863 1045.6 164.446C1045.6 171.566 1049.68 176.627 1056.93 176.627C1061.99 176.627 1066.29 173.806 1067.41 168.745H1062.57C1061.68 171.298 1059.89 172.597 1056.93 172.597C1052.68 172.597 1050.71 169.372 1050.71 165.745H1067.72ZM1050.71 162.386C1050.84 158.938 1053.26 156.251 1056.8 156.251C1060.25 156.251 1062.44 159.162 1062.62 162.386H1050.71ZM1092.34 160.595C1091.85 154.907 1087.28 152.22 1081.91 152.22C1074.29 152.22 1070.49 157.684 1070.49 164.67C1070.49 171.477 1074.47 176.627 1081.73 176.627C1087.68 176.627 1091.4 173.313 1092.34 167.312H1087.23C1086.74 170.626 1084.68 172.597 1081.73 172.597C1077.29 172.597 1075.59 168.521 1075.59 164.67C1075.59 157.639 1079.31 156.251 1081.95 156.251C1084.77 156.251 1086.83 157.773 1087.23 160.595H1092.34ZM1096.62 176H1101.73V167.715L1104.77 164.759L1111.85 176H1118.07L1108.36 161.356L1117.22 152.847H1110.95L1101.73 162.207V144.025H1096.62V176ZM1143.62 172.597C1139.05 172.597 1137.04 168.432 1137.04 164.401C1137.04 160.416 1139.05 156.251 1143.62 156.251C1148.19 156.251 1150.2 160.416 1150.2 164.401C1150.2 168.432 1148.19 172.597 1143.62 172.597ZM1143.62 176.627C1151.05 176.627 1155.31 171.522 1155.31 164.401C1155.31 157.326 1151.05 152.22 1143.62 152.22C1136.19 152.22 1131.93 157.326 1131.93 164.401C1131.93 171.522 1136.19 176.627 1143.62 176.627ZM1179.88 152.847H1174.78V166.282C1174.78 169.865 1173.35 172.597 1169.09 172.597C1166.32 172.597 1164.66 171.119 1164.66 167.043V152.847H1159.55V167.536C1159.55 173.582 1162.15 176.627 1168.2 176.627C1170.75 176.627 1173.53 175.104 1174.78 172.776H1174.87V176H1179.88V152.847ZM1182.94 156.654H1186.79V170.313C1186.88 174.164 1187.87 176.224 1193.19 176.224C1194.31 176.224 1195.39 176.045 1196.51 175.955V172.014C1195.79 172.193 1195.08 172.193 1194.36 172.193C1192.08 172.193 1191.9 171.119 1191.9 169.014V156.654H1196.51V152.847H1191.9V145.906H1186.79V152.847H1182.94V156.654ZM1223.26 172.597C1218.69 172.597 1216.68 168.432 1216.68 164.401C1216.68 160.416 1218.69 156.251 1223.26 156.251C1227.83 156.251 1229.84 160.416 1229.84 164.401C1229.84 168.432 1227.83 172.597 1223.26 172.597ZM1223.26 176.627C1230.69 176.627 1234.95 171.522 1234.95 164.401C1234.95 157.326 1230.69 152.22 1223.26 152.22C1215.82 152.22 1211.57 157.326 1211.57 164.401C1211.57 171.522 1215.82 176.627 1223.26 176.627ZM1259.52 152.847H1254.42V166.282C1254.42 169.865 1252.98 172.597 1248.73 172.597C1245.95 172.597 1244.3 171.119 1244.3 167.043V152.847H1239.19V167.536C1239.19 173.582 1241.79 176.627 1247.83 176.627C1250.39 176.627 1253.16 175.104 1254.42 172.776H1254.51V176H1259.52V152.847ZM1264.91 176H1270.01V164.983C1270.01 159.878 1272.79 157.057 1276.28 157.057C1277 157.057 1277.76 157.191 1278.48 157.281V152.355C1278.03 152.31 1277.71 152.22 1276.55 152.22C1273.42 152.22 1270.37 154.862 1269.79 157.326H1269.7V152.847H1264.91V176ZM1293.11 176H1298.22V164.983C1298.22 159.878 1301 157.057 1304.49 157.057C1305.21 157.057 1305.97 157.191 1306.68 157.281V152.355C1306.24 152.31 1305.92 152.22 1304.76 152.22C1301.62 152.22 1298.58 154.862 1298 157.326H1297.91V152.847H1293.11V176ZM1329.07 165.745C1329.93 158.803 1325.45 152.22 1318.15 152.22C1311.25 152.22 1306.95 157.863 1306.95 164.446C1306.95 171.566 1311.03 176.627 1318.28 176.627C1323.34 176.627 1327.64 173.806 1328.76 168.745H1323.92C1323.03 171.298 1321.24 172.597 1318.28 172.597C1314.03 172.597 1312.06 169.372 1312.06 165.745H1329.07ZM1312.06 162.386C1312.19 158.938 1314.61 156.251 1318.15 156.251C1321.6 156.251 1323.79 159.162 1323.97 162.386H1312.06ZM1353.69 160.595C1353.2 154.907 1348.63 152.22 1343.26 152.22C1335.64 152.22 1331.84 157.684 1331.84 164.67C1331.84 171.477 1335.82 176.627 1343.08 176.627C1349.03 176.627 1352.75 173.313 1353.69 167.312H1348.58C1348.09 170.626 1346.03 172.597 1343.08 172.597C1338.64 172.597 1336.94 168.521 1336.94 164.67C1336.94 157.639 1340.66 156.251 1343.3 156.251C1346.12 156.251 1348.18 157.773 1348.58 160.595H1353.69ZM1378.84 165.745C1379.69 158.803 1375.22 152.22 1367.92 152.22C1361.02 152.22 1356.72 157.863 1356.72 164.446C1356.72 171.566 1360.8 176.627 1368.05 176.627C1373.11 176.627 1377.41 173.806 1378.53 168.745H1373.69C1372.8 171.298 1371.01 172.597 1368.05 172.597C1363.8 172.597 1361.83 169.372 1361.83 165.745H1378.84ZM1361.83 162.386C1361.96 158.938 1364.38 156.251 1367.92 156.251C1371.36 156.251 1373.56 159.162 1373.74 162.386H1361.83ZM1382.72 176H1387.83V162.341C1387.83 158.938 1390.02 156.251 1393.43 156.251C1396.43 156.251 1397.86 157.818 1397.95 161.446V176H1403.06V160.102C1403.06 154.907 1399.88 152.22 1394.86 152.22C1391.81 152.22 1389.17 153.788 1387.65 156.34L1387.56 156.251V152.847H1382.72V176ZM1406.11 156.654H1409.96V170.313C1410.05 174.164 1411.04 176.224 1416.37 176.224C1417.49 176.224 1418.56 176.045 1419.68 175.955V172.014C1418.96 172.193 1418.25 172.193 1417.53 172.193C1415.25 172.193 1415.07 171.119 1415.07 169.014V156.654H1419.68V152.847H1415.07V145.906H1409.96V152.847H1406.11V156.654ZM1440.88 176H1446.25L1450.5 158.803H1450.59L1454.89 176H1460.13L1467.39 152.847H1462.19L1457.49 170.133H1457.4L1453.24 152.847H1448.09L1443.74 170.133H1443.65L1439.13 152.847H1433.71L1440.88 176ZM1481.28 172.597C1476.72 172.597 1474.7 168.432 1474.7 164.401C1474.7 160.416 1476.72 156.251 1481.28 156.251C1485.85 156.251 1487.87 160.416 1487.87 164.401C1487.87 168.432 1485.85 172.597 1481.28 172.597ZM1481.28 176.627C1488.72 176.627 1492.97 171.522 1492.97 164.401C1492.97 157.326 1488.72 152.22 1481.28 152.22C1473.85 152.22 1469.6 157.326 1469.6 164.401C1469.6 171.522 1473.85 176.627 1481.28 176.627ZM1497.22 176H1502.32V164.983C1502.32 159.878 1505.1 157.057 1508.59 157.057C1509.31 157.057 1510.07 157.191 1510.79 157.281V152.355C1510.34 152.31 1510.03 152.22 1508.86 152.22C1505.73 152.22 1502.68 154.862 1502.1 157.326H1502.01V152.847H1497.22V176ZM1513.1 176H1518.2V167.715L1521.25 164.759L1528.32 176H1534.55L1524.83 161.356L1533.7 152.847H1527.43L1518.2 162.207V144.025H1513.1V176ZM1535.76 168.566C1535.85 174.03 1540.19 176.627 1546.02 176.627C1550.81 176.627 1556.36 174.612 1556.36 169.103C1556.36 164.536 1552.6 163.192 1548.88 162.341C1545.12 161.49 1541.36 161.132 1541.36 158.624C1541.36 156.609 1544.09 156.251 1545.57 156.251C1547.81 156.251 1549.82 156.922 1550.27 159.341H1555.6C1554.97 154.191 1550.67 152.22 1545.93 152.22C1541.72 152.22 1536.25 153.788 1536.25 158.848C1536.25 163.55 1539.93 164.894 1543.69 165.7C1547.4 166.551 1551.12 166.864 1551.26 169.551C1551.39 172.193 1548.03 172.597 1546.11 172.597C1543.37 172.597 1541.13 171.522 1540.87 168.566H1535.76ZM1570.42 156.654H1574.22V176H1579.33V156.654H1583.67V152.847H1579.33V150.474C1579.33 148.548 1580.45 148.055 1581.84 148.055C1582.87 148.055 1583.54 148.145 1584.21 148.324V144.339C1583.4 144.115 1582.24 144.025 1580.63 144.025C1577.31 144.025 1574.22 145.01 1574.22 150.922V152.847H1570.42V156.654ZM1586.83 176H1591.93V164.983C1591.93 159.878 1594.71 157.057 1598.2 157.057C1598.92 157.057 1599.68 157.191 1600.4 157.281V152.355C1599.95 152.31 1599.63 152.22 1598.47 152.22C1595.34 152.22 1592.29 154.862 1591.71 157.326H1591.62V152.847H1586.83V176ZM1612.4 172.597C1607.83 172.597 1605.81 168.432 1605.81 164.401C1605.81 160.416 1607.83 156.251 1612.4 156.251C1616.97 156.251 1618.98 160.416 1618.98 164.401C1618.98 168.432 1616.97 172.597 1612.4 172.597ZM1612.4 176.627C1619.83 176.627 1624.09 171.522 1624.09 164.401C1624.09 157.326 1619.83 152.22 1612.4 152.22C1604.96 152.22 1600.71 157.326 1600.71 164.401C1600.71 171.522 1604.96 176.627 1612.4 176.627ZM1628.33 176H1633.44V162.252C1633.44 158.4 1635.85 156.251 1638.5 156.251C1641.59 156.251 1642.57 157.953 1642.57 161.132V176H1647.68V162.431C1647.68 158.535 1649.15 156.251 1652.6 156.251C1656.59 156.251 1656.81 158.803 1656.81 162.476V176H1661.92V160.013C1661.92 154.37 1659.05 152.22 1654.17 152.22C1650.81 152.22 1648.62 153.698 1646.91 156.072C1645.88 153.429 1643.24 152.22 1640.42 152.22C1636.75 152.22 1634.82 153.788 1633.3 156.072H1633.17V152.847H1628.33V176ZM1690.37 172.597C1685.81 172.597 1683.79 168.432 1683.79 164.401C1683.79 160.416 1685.81 156.251 1690.37 156.251C1694.94 156.251 1696.96 160.416 1696.96 164.401C1696.96 168.432 1694.94 172.597 1690.37 172.597ZM1690.37 176.627C1697.81 176.627 1702.06 171.522 1702.06 164.401C1702.06 157.326 1697.81 152.22 1690.37 152.22C1682.94 152.22 1678.69 157.326 1678.69 164.401C1678.69 171.522 1682.94 176.627 1690.37 176.627ZM1726.64 152.847H1721.53V166.282C1721.53 169.865 1720.1 172.597 1715.85 172.597C1713.07 172.597 1711.41 171.119 1711.41 167.043V152.847H1706.31V167.536C1706.31 173.582 1708.9 176.627 1714.95 176.627C1717.5 176.627 1720.28 175.104 1721.53 172.776H1721.62V176H1726.64V152.847ZM1732.02 176H1737.13V164.983C1737.13 159.878 1739.9 157.057 1743.4 157.057C1744.11 157.057 1744.87 157.191 1745.59 157.281V152.355C1745.14 152.31 1744.83 152.22 1743.66 152.22C1740.53 152.22 1737.48 154.862 1736.9 157.326H1736.81V152.847H1732.02V176ZM987.478 219.342C987.612 227.268 993.524 230.761 1000.82 230.761C1007.18 230.761 1013.54 227.895 1013.54 220.73C1013.54 217.416 1011.53 213.833 1007.32 212.579C1005.66 212.087 998.584 210.251 998.091 210.116C995.807 209.489 994.285 208.236 994.285 205.996C994.285 202.772 997.554 201.832 1000.15 201.832C1004 201.832 1006.78 203.354 1007.05 207.474H1012.65C1012.65 200.802 1007.05 197.264 1000.38 197.264C994.598 197.264 988.687 200.264 988.687 206.668C988.687 209.982 990.299 213.296 995.763 214.774C1000.15 215.983 1003.06 216.565 1005.3 217.416C1006.6 217.909 1007.94 218.894 1007.94 221.357C1007.94 223.775 1006.11 226.193 1001.18 226.193C996.703 226.193 993.076 224.268 993.076 219.342H987.478ZM1038.06 206.847H1032.95V220.282C1032.95 223.865 1031.52 226.597 1027.26 226.597C1024.49 226.597 1022.83 225.119 1022.83 221.043V206.847H1017.73V221.536C1017.73 227.582 1020.32 230.627 1026.37 230.627C1028.92 230.627 1031.7 229.104 1032.95 226.776H1033.04V230H1038.06V206.847ZM1061.4 218.446C1061.4 222.476 1059.65 226.597 1055 226.597C1050.87 226.597 1048.5 223.103 1048.5 218.446C1048.5 213.52 1050.7 210.251 1055 210.251C1059.2 210.251 1061.4 214.236 1061.4 218.446ZM1043.58 238.554H1048.68V227H1048.77C1050.38 229.552 1053.56 230.627 1056.52 230.627C1063.37 230.627 1066.5 224.76 1066.5 218.536C1066.5 211.773 1062.97 206.22 1055.67 206.22C1052.71 206.22 1049.93 207.34 1048.5 209.982H1048.41V206.847H1043.58V238.554ZM1091.82 219.745C1092.67 212.803 1088.19 206.22 1080.89 206.22C1074 206.22 1069.7 211.863 1069.7 218.446C1069.7 225.566 1073.77 230.627 1081.03 230.627C1086.09 230.627 1090.39 227.806 1091.51 222.745H1086.67C1085.78 225.298 1083.98 226.597 1081.03 226.597C1076.77 226.597 1074.8 223.372 1074.8 219.745H1091.82ZM1074.8 216.386C1074.94 212.938 1077.36 210.251 1080.89 210.251C1084.34 210.251 1086.54 213.162 1086.72 216.386H1074.8ZM1095.7 230H1100.81V218.983C1100.81 213.878 1103.58 211.057 1107.08 211.057C1107.79 211.057 1108.55 211.191 1109.27 211.281V206.355C1108.82 206.31 1108.51 206.22 1107.35 206.22C1104.21 206.22 1101.17 208.862 1100.58 211.326H1100.49V206.847H1095.7V230ZM1151.81 208.191C1151.14 201.294 1145.45 197.309 1138.24 197.264C1128.66 197.264 1122.93 204.877 1122.93 214.013C1122.93 223.148 1128.66 230.761 1138.24 230.761C1145.99 230.761 1151.41 225.477 1151.85 217.819H1146.39C1145.94 222.476 1143.21 226.193 1138.24 226.193C1131.39 226.193 1128.52 220.148 1128.52 214.013C1128.52 207.877 1131.39 201.832 1138.24 201.832C1142.9 201.832 1145.27 204.519 1146.21 208.191H1151.81ZM1166.84 226.597C1162.27 226.597 1160.26 222.432 1160.26 218.401C1160.26 214.416 1162.27 210.251 1166.84 210.251C1171.41 210.251 1173.43 214.416 1173.43 218.401C1173.43 222.432 1171.41 226.597 1166.84 226.597ZM1166.84 230.627C1174.28 230.627 1178.53 225.522 1178.53 218.401C1178.53 211.326 1174.28 206.22 1166.84 206.22C1159.41 206.22 1155.15 211.326 1155.15 218.401C1155.15 225.522 1159.41 230.627 1166.84 230.627ZM1182.78 230H1187.88V216.252C1187.88 212.4 1190.3 210.251 1192.94 210.251C1196.03 210.251 1197.02 211.953 1197.02 215.132V230H1202.12V216.431C1202.12 212.535 1203.6 210.251 1207.05 210.251C1211.03 210.251 1211.26 212.803 1211.26 216.476V230H1216.36V214.013C1216.36 208.37 1213.5 206.22 1208.61 206.22C1205.26 206.22 1203.06 207.698 1201.36 210.072C1200.33 207.429 1197.69 206.22 1194.87 206.22C1191.19 206.22 1189.27 207.788 1187.75 210.072H1187.61V206.847H1182.78V230ZM1221.74 230H1226.85V216.252C1226.85 212.4 1229.27 210.251 1231.91 210.251C1235 210.251 1235.98 211.953 1235.98 215.132V230H1241.09V216.431C1241.09 212.535 1242.57 210.251 1246.01 210.251C1250 210.251 1250.22 212.803 1250.22 216.476V230H1255.33V214.013C1255.33 208.37 1252.46 206.22 1247.58 206.22C1244.22 206.22 1242.03 207.698 1240.33 210.072C1239.3 207.429 1236.65 206.22 1233.83 206.22C1230.16 206.22 1228.24 207.788 1226.71 210.072H1226.58V206.847H1221.74V230ZM1281.04 206.847H1275.93V220.282C1275.93 223.865 1274.5 226.597 1270.25 226.597C1267.47 226.597 1265.81 225.119 1265.81 221.043V206.847H1260.71V221.536C1260.71 227.582 1263.31 230.627 1269.35 230.627C1271.9 230.627 1274.68 229.104 1275.93 226.776H1276.02V230H1281.04V206.847ZM1286.42 230H1291.53V216.341C1291.53 212.938 1293.72 210.251 1297.13 210.251C1300.13 210.251 1301.56 211.818 1301.65 215.446V230H1306.75V214.102C1306.75 208.907 1303.57 206.22 1298.56 206.22C1295.51 206.22 1292.87 207.788 1291.35 210.34L1291.26 210.251V206.847H1286.42V230ZM1312.27 230H1317.38V206.847H1312.27V230ZM1312.27 202.862H1317.38V198.025H1312.27V202.862ZM1320.61 210.654H1324.46V224.313C1324.55 228.164 1325.54 230.224 1330.87 230.224C1331.99 230.224 1333.06 230.045 1334.18 229.955V226.014C1333.46 226.193 1332.75 226.193 1332.03 226.193C1329.75 226.193 1329.57 225.119 1329.57 223.014V210.654H1334.18V206.847H1329.57V199.906H1324.46V206.847H1320.61V210.654ZM1344.08 229.91L1343.5 231.702C1342.87 233.672 1342.29 234.926 1339.91 234.926C1339.11 234.926 1338.3 234.747 1337.5 234.613V238.912C1338.66 239.091 1339.82 239.18 1341.03 239.18C1346.36 239.18 1347.57 235.419 1349.23 231.254L1358.23 206.847H1352.9L1347.03 224.133H1346.94L1340.9 206.847H1335.3L1344.08 229.91ZM1357.37 230H1363.59V223.954H1357.37V230ZM1395.07 230H1416.93V225.163H1400.67V198.025H1395.07V230ZM1441.08 219.745C1441.93 212.803 1437.45 206.22 1430.15 206.22C1423.25 206.22 1418.95 211.863 1418.95 218.446C1418.95 225.566 1423.03 230.627 1430.28 230.627C1435.34 230.627 1439.64 227.806 1440.76 222.745H1435.93C1435.03 225.298 1433.24 226.597 1430.28 226.597C1426.03 226.597 1424.06 223.372 1424.06 219.745H1441.08ZM1424.06 216.386C1424.19 212.938 1426.61 210.251 1430.15 210.251C1433.6 210.251 1435.79 213.162 1435.97 216.386H1424.06ZM1442.63 210.654H1446.48V224.313C1446.57 228.164 1447.55 230.224 1452.88 230.224C1454 230.224 1455.08 230.045 1456.2 229.955V226.014C1455.48 226.193 1454.76 226.193 1454.05 226.193C1451.76 226.193 1451.58 225.119 1451.58 223.014V210.654H1456.2V206.847H1451.58V199.906H1446.48V206.847H1442.63V210.654ZM1492.66 206.847H1487.56V220.282C1487.56 223.865 1486.13 226.597 1481.87 226.597C1479.1 226.597 1477.44 225.119 1477.44 221.043V206.847H1472.33V221.536C1472.33 227.582 1474.93 230.627 1480.98 230.627C1483.53 230.627 1486.31 229.104 1487.56 226.776H1487.65V230H1492.66V206.847ZM1496.79 222.566C1496.88 228.03 1501.23 230.627 1507.05 230.627C1511.84 230.627 1517.39 228.612 1517.39 223.103C1517.39 218.536 1513.63 217.192 1509.92 216.341C1506.15 215.49 1502.39 215.132 1502.39 212.624C1502.39 210.609 1505.12 210.251 1506.6 210.251C1508.84 210.251 1510.86 210.922 1511.3 213.341H1516.63C1516.01 208.191 1511.71 206.22 1506.96 206.22C1502.75 206.22 1497.29 207.788 1497.29 212.848C1497.29 217.55 1500.96 218.894 1504.72 219.7C1508.44 220.551 1512.16 220.864 1512.29 223.551C1512.42 226.193 1509.07 226.597 1507.14 226.597C1504.41 226.597 1502.17 225.522 1501.9 222.566H1496.79ZM1533.73 230H1538.84V216.252C1538.84 212.4 1541.26 210.251 1543.9 210.251C1546.99 210.251 1547.98 211.953 1547.98 215.132V230H1553.08V216.431C1553.08 212.535 1554.56 210.251 1558.01 210.251C1561.99 210.251 1562.22 212.803 1562.22 216.476V230H1567.32V214.013C1567.32 208.37 1564.46 206.22 1559.57 206.22C1556.22 206.22 1554.02 207.698 1552.32 210.072C1551.29 207.429 1548.65 206.22 1545.83 206.22C1542.15 206.22 1540.23 207.788 1538.71 210.072H1538.57V206.847H1533.73V230ZM1586.99 222.208C1586.99 225.432 1583.49 226.597 1581.25 226.597C1579.46 226.597 1576.55 225.925 1576.55 223.641C1576.55 220.954 1578.52 220.148 1580.72 219.79C1582.96 219.386 1585.42 219.431 1586.99 218.401V222.208ZM1592.09 212.938C1592.09 208.056 1587.35 206.22 1582.82 206.22C1577.72 206.22 1572.66 207.967 1572.3 213.923H1577.4C1577.63 211.415 1579.64 210.251 1582.51 210.251C1584.57 210.251 1587.3 210.743 1587.3 213.386C1587.3 216.386 1584.03 215.983 1580.36 216.655C1576.06 217.147 1571.45 218.088 1571.45 223.865C1571.45 228.388 1575.21 230.627 1579.37 230.627C1582.11 230.627 1585.37 229.776 1587.39 227.806C1587.79 229.91 1589.27 230.627 1591.33 230.627C1592.18 230.627 1593.79 230.313 1594.56 230.045V226.507C1594.02 226.597 1593.61 226.597 1593.3 226.597C1592.36 226.597 1592.09 226.104 1592.09 224.85V212.938ZM1597.72 230H1602.82V221.715L1605.87 218.759L1612.95 230H1619.17L1609.45 215.356L1618.32 206.847H1612.05L1602.82 216.207V198.025H1597.72V230ZM1642.64 219.745C1643.49 212.803 1639.01 206.22 1631.71 206.22C1624.82 206.22 1620.52 211.863 1620.52 218.446C1620.52 225.566 1624.59 230.627 1631.85 230.627C1636.91 230.627 1641.21 227.806 1642.33 222.745H1637.49C1636.6 225.298 1634.8 226.597 1631.85 226.597C1627.59 226.597 1625.62 223.372 1625.62 219.745H1642.64ZM1625.62 216.386C1625.76 212.938 1628.18 210.251 1631.71 210.251C1635.16 210.251 1637.36 213.162 1637.54 216.386H1625.62ZM1665.21 229.91L1664.63 231.702C1664 233.672 1663.42 234.926 1661.05 234.926C1660.24 234.926 1659.43 234.747 1658.63 234.613V238.912C1659.79 239.091 1660.96 239.18 1662.17 239.18C1667.5 239.18 1668.7 235.419 1670.36 231.254L1679.36 206.847H1674.03L1668.17 224.133H1668.08L1662.03 206.847H1656.43L1665.21 229.91ZM1692.82 226.597C1688.25 226.597 1686.24 222.432 1686.24 218.401C1686.24 214.416 1688.25 210.251 1692.82 210.251C1697.39 210.251 1699.41 214.416 1699.41 218.401C1699.41 222.432 1697.39 226.597 1692.82 226.597ZM1692.82 230.627C1700.26 230.627 1704.51 225.522 1704.51 218.401C1704.51 211.326 1700.26 206.22 1692.82 206.22C1685.39 206.22 1681.13 211.326 1681.13 218.401C1681.13 225.522 1685.39 230.627 1692.82 230.627ZM1729.09 206.847H1723.98V220.282C1723.98 223.865 1722.55 226.597 1718.29 226.597C1715.52 226.597 1713.86 225.119 1713.86 221.043V206.847H1708.76V221.536C1708.76 227.582 1711.35 230.627 1717.4 230.627C1719.95 230.627 1722.73 229.104 1723.98 226.776H1724.07V230H1729.09V206.847ZM1734.47 230H1739.58V218.983C1739.58 213.878 1742.35 211.057 1745.85 211.057C1746.56 211.057 1747.32 211.191 1748.04 211.281V206.355C1747.59 206.31 1747.28 206.22 1746.11 206.22C1742.98 206.22 1739.93 208.862 1739.35 211.326H1739.26V206.847H1734.47V230ZM993.747 284H999.121L1003.38 266.803H1003.47L1007.76 284H1013L1020.26 260.847H1015.06L1010.36 278.133H1010.27L1006.11 260.847H1000.96L996.614 278.133H996.524L992.001 260.847H986.582L993.747 284ZM1034.16 280.597C1029.59 280.597 1027.57 276.432 1027.57 272.401C1027.57 268.416 1029.59 264.251 1034.16 264.251C1038.72 264.251 1040.74 268.416 1040.74 272.401C1040.74 276.432 1038.72 280.597 1034.16 280.597ZM1034.16 284.627C1041.59 284.627 1045.84 279.522 1045.84 272.401C1045.84 265.326 1041.59 260.22 1034.16 260.22C1026.72 260.22 1022.47 265.326 1022.47 272.401C1022.47 279.522 1026.72 284.627 1034.16 284.627ZM1050.09 284H1055.19V272.983C1055.19 267.878 1057.97 265.057 1061.46 265.057C1062.18 265.057 1062.94 265.191 1063.66 265.281V260.355C1063.21 260.31 1062.9 260.22 1061.73 260.22C1058.6 260.22 1055.55 262.862 1054.97 265.326H1054.88V260.847H1050.09V284ZM1065.97 284H1071.07V275.715L1074.12 272.759L1081.19 284H1087.42L1077.7 269.356L1086.57 260.847H1080.3L1071.07 270.207V252.025H1065.97V284ZM1101.14 273.342C1101.27 281.268 1107.19 284.761 1114.49 284.761C1120.85 284.761 1127.2 281.895 1127.2 274.73C1127.2 271.416 1125.19 267.833 1120.98 266.579C1119.32 266.087 1112.25 264.251 1111.75 264.116C1109.47 263.489 1107.95 262.236 1107.95 259.996C1107.95 256.772 1111.22 255.832 1113.81 255.832C1117.67 255.832 1120.44 257.354 1120.71 261.474H1126.31C1126.31 254.802 1120.71 251.264 1114.04 251.264C1108.26 251.264 1102.35 254.264 1102.35 260.668C1102.35 263.982 1103.96 267.296 1109.43 268.774C1113.81 269.983 1116.73 270.565 1118.96 271.416C1120.26 271.909 1121.61 272.894 1121.61 275.357C1121.61 277.775 1119.77 280.193 1114.84 280.193C1110.37 280.193 1106.74 278.268 1106.74 273.342H1101.14ZM1151.72 260.847H1146.61V274.282C1146.61 277.865 1145.18 280.597 1140.93 280.597C1138.15 280.597 1136.49 279.119 1136.49 275.043V260.847H1131.39V275.536C1131.39 281.582 1133.99 284.627 1140.03 284.627C1142.58 284.627 1145.36 283.104 1146.61 280.776H1146.7V284H1151.72V260.847ZM1175.06 272.446C1175.06 276.476 1173.32 280.597 1168.66 280.597C1164.54 280.597 1162.16 277.103 1162.16 272.446C1162.16 267.52 1164.36 264.251 1168.66 264.251C1172.87 264.251 1175.06 268.236 1175.06 272.446ZM1157.24 292.554H1162.34V281H1162.43C1164.05 283.552 1167.22 284.627 1170.18 284.627C1177.03 284.627 1180.17 278.76 1180.17 272.536C1180.17 265.773 1176.63 260.22 1169.33 260.22C1166.37 260.22 1163.6 261.34 1162.16 263.982H1162.07V260.847H1157.24V292.554ZM1205.48 273.745C1206.33 266.803 1201.86 260.22 1194.56 260.22C1187.66 260.22 1183.36 265.863 1183.36 272.446C1183.36 279.566 1187.44 284.627 1194.69 284.627C1199.75 284.627 1204.05 281.806 1205.17 276.745H1200.33C1199.44 279.298 1197.65 280.597 1194.69 280.597C1190.44 280.597 1188.47 277.372 1188.47 273.745H1205.48ZM1188.47 270.386C1188.6 266.938 1191.02 264.251 1194.56 264.251C1198.01 264.251 1200.2 267.162 1200.38 270.386H1188.47ZM1209.37 284H1214.47V272.983C1214.47 267.878 1217.25 265.057 1220.74 265.057C1221.46 265.057 1222.22 265.191 1222.93 265.281V260.355C1222.49 260.31 1222.17 260.22 1221.01 260.22C1217.87 260.22 1214.83 262.862 1214.25 265.326H1214.16V260.847H1209.37V284ZM1235.24 264.654H1239.1V278.313C1239.19 282.164 1240.17 284.224 1245.5 284.224C1246.62 284.224 1247.69 284.045 1248.81 283.955V280.014C1248.1 280.193 1247.38 280.193 1246.66 280.193C1244.38 280.193 1244.2 279.119 1244.2 277.014V264.654H1248.81V260.847H1244.2V253.906H1239.1V260.847H1235.24V264.654ZM1263.1 280.597C1258.53 280.597 1256.52 276.432 1256.52 272.401C1256.52 268.416 1258.53 264.251 1263.1 264.251C1267.67 264.251 1269.68 268.416 1269.68 272.401C1269.68 276.432 1267.67 280.597 1263.1 280.597ZM1263.1 284.627C1270.53 284.627 1274.79 279.522 1274.79 272.401C1274.79 265.326 1270.53 260.22 1263.1 260.22C1255.67 260.22 1251.41 265.326 1251.41 272.401C1251.41 279.522 1255.67 284.627 1263.1 284.627ZM1289.65 280.597C1285.08 280.597 1283.06 276.432 1283.06 272.401C1283.06 268.416 1285.08 264.251 1289.65 264.251C1294.21 264.251 1296.23 268.416 1296.23 272.401C1296.23 276.432 1294.21 280.597 1289.65 280.597ZM1289.65 284.627C1297.08 284.627 1301.33 279.522 1301.33 272.401C1301.33 265.326 1297.08 260.22 1289.65 260.22C1282.21 260.22 1277.96 265.326 1277.96 272.401C1277.96 279.522 1282.21 284.627 1289.65 284.627ZM1306.34 261.25L1307.82 275.088H1310.46L1311.94 261.25V252.025H1306.34V261.25ZM1306.12 284H1312.12V278.402H1306.12V284Z" fill="#2C2C2C"/>
<rect x="1017" y="329" width="228" height="49.6784" rx="24.8392" fill="#E30808"/>
<path d="M1058.19 340.146C1050.91 340.146 1046.56 345.926 1046.56 352.862C1046.56 359.798 1050.91 365.578 1058.19 365.578C1065.47 365.578 1069.82 359.798 1069.82 352.862C1069.82 345.926 1065.47 340.146 1058.19 340.146ZM1058.19 343.614C1063.39 343.614 1065.57 348.204 1065.57 352.862C1065.57 357.52 1063.39 362.11 1058.19 362.11C1052.99 362.11 1050.81 357.52 1050.81 352.862C1050.81 348.204 1052.99 343.614 1058.19 343.614ZM1073.14 365H1077.02V356.636C1077.02 352.76 1079.13 350.618 1081.78 350.618C1082.32 350.618 1082.9 350.72 1083.44 350.788V347.048C1083.1 347.014 1082.87 346.946 1081.98 346.946C1079.6 346.946 1077.29 348.952 1076.85 350.822H1076.78V347.422H1073.14V365ZM1087.52 356.398C1087.52 353.236 1088.82 350.006 1092.45 350.006C1095.45 350.006 1097.32 352.318 1097.32 356.194C1097.32 359.254 1095.85 362.416 1092.39 362.416C1089.02 362.416 1087.52 359.424 1087.52 356.398ZM1101.06 340.724H1097.18V349.7H1097.11C1095.92 347.762 1093.47 346.946 1091.26 346.946C1087.42 346.946 1083.65 349.734 1083.65 356.092C1083.65 361.362 1086.33 365.476 1091.88 365.476C1094.09 365.476 1096.3 364.626 1097.32 362.62H1097.38V365H1101.06V340.724ZM1121.23 357.214C1121.87 351.944 1118.47 346.946 1112.93 346.946C1107.7 346.946 1104.43 351.23 1104.43 356.228C1104.43 361.634 1107.53 365.476 1113.03 365.476C1116.88 365.476 1120.14 363.334 1120.99 359.492H1117.32C1116.64 361.43 1115.28 362.416 1113.03 362.416C1109.8 362.416 1108.31 359.968 1108.31 357.214H1121.23ZM1108.31 354.664C1108.41 352.046 1110.25 350.006 1112.93 350.006C1115.55 350.006 1117.22 352.216 1117.35 354.664H1108.31ZM1124.18 365H1128.05V356.636C1128.05 352.76 1130.16 350.618 1132.81 350.618C1133.36 350.618 1133.93 350.72 1134.48 350.788V347.048C1134.14 347.014 1133.9 346.946 1133.02 346.946C1130.64 346.946 1128.32 348.952 1127.88 350.822H1127.81V347.422H1124.18V365ZM1145.97 365H1150.01V347.15H1150.11L1161.16 365H1165.65V340.724H1161.61V358.608H1161.54L1150.45 340.724H1145.97V365ZM1178.19 362.416C1174.72 362.416 1173.19 359.254 1173.19 356.194C1173.19 353.168 1174.72 350.006 1178.19 350.006C1181.65 350.006 1183.18 353.168 1183.18 356.194C1183.18 359.254 1181.65 362.416 1178.19 362.416ZM1178.19 365.476C1183.83 365.476 1187.06 361.6 1187.06 356.194C1187.06 350.822 1183.83 346.946 1178.19 346.946C1172.54 346.946 1169.31 350.822 1169.31 356.194C1169.31 361.6 1172.54 365.476 1178.19 365.476ZM1194.12 365H1198.2L1201.43 351.944H1201.5L1204.77 365H1208.74L1214.25 347.422H1210.31L1206.74 360.546H1206.67L1203.51 347.422H1199.6L1196.3 360.546H1196.23L1192.8 347.422H1188.68L1194.12 365Z" fill="white"/>
</g>
<defs>
<clipPath id="clip0_1007_1730">
<rect width="1920" height="515" fill="white"/>
</clipPath>
<clipPath id="clip1_1007_1730">
<rect width="879" height="456" fill="white" transform="translate(911 35)"/>
</clipPath>
<clipPath id="clip2_1007_1730">
<rect width="334" height="290.903" fill="white" transform="translate(231 260)"/>
</clipPath>
<clipPath id="clip3_1007_1730">
<rect width="564" height="533.395" fill="white" transform="translate(-153 -10)"/>
</clipPath>
<clipPath id="clip4_1007_1730">
<rect width="656.989" height="693.245" fill="white" transform="translate(392 132.317) rotate(-16.8388)"/>
</clipPath>
</defs>
</svg>
