<svg width="31" height="29" viewBox="0 0 31 29" fill="none" xmlns="http://www.w3.org/2000/svg">
<path d="M23.5585 21.6477C23.2068 21.6477 22.9223 21.3632 22.9223 21.0115C22.9223 20.6599 23.2068 20.3754 23.5585 20.3754C26.7177 20.3754 29.2885 17.8047 29.2885 14.6453C29.2885 11.486 26.7178 8.91531 23.5585 8.91531C23.2415 8.91531 22.8736 8.69242 22.8282 8.37759C22.2515 4.3289 18.7329 1.27455 14.6442 1.27455C10.0806 1.27455 6.3673 4.98783 6.3673 9.55149C6.3673 9.90857 6.39759 10.2872 6.4636 10.7438C6.48954 10.9267 6.43548 11.1117 6.31426 11.2512C6.17362 11.4157 5.90313 11.4871 5.68887 11.4601C3.27288 11.4611 1.27339 13.4606 1.27339 15.9177C1.27339 18.3748 3.27282 20.3743 5.72996 20.3743C6.0816 20.3743 6.36615 20.6588 6.36615 21.0105C6.36615 21.3621 6.0816 21.6466 5.72996 21.6466C2.57069 21.6466 0 19.076 0 15.9166C0 12.9618 2.24723 10.5231 5.12087 10.2191C5.10246 9.98537 5.09275 9.76466 5.09275 9.55041C5.09275 4.28455 9.37622 0 14.6432 0C19.182 0 23.1116 3.25991 23.9966 7.66888C27.7002 7.92965 30.5598 10.9591 30.5598 14.6432C30.562 18.5057 27.4199 21.6477 23.5585 21.6477Z" fill="#010101"/>
<path d="M14.6444 28.015C10.7829 28.015 7.64087 24.873 7.64087 21.0115C7.64087 17.1501 10.7829 14.0081 14.6444 14.0081C18.5058 14.0081 21.6478 17.1501 21.6478 21.0115C21.6478 24.873 18.5069 28.015 14.6444 28.015ZM14.6444 15.2815C11.485 15.2815 8.91433 17.8522 8.91433 21.0115C8.91433 24.1709 11.485 26.7416 14.6444 26.7416C17.8037 26.7416 20.3744 24.1709 20.3744 21.0115C20.3744 17.8522 17.8047 15.2815 14.6444 15.2815Z" fill="#010101"/>
<path d="M14.6442 25.468C14.2926 25.468 14.0081 25.1834 14.0081 24.8318V17.1921C14.0081 16.8405 14.2926 16.5559 14.6442 16.5559C14.9959 16.5559 15.2804 16.8405 15.2804 17.1921V24.8318C15.2815 25.1834 14.997 25.468 14.6442 25.468Z" fill="#010101"/>
<path d="M17.1912 20.3742C17.0278 20.3742 16.8655 20.3125 16.7411 20.1881L14.6443 18.0913L12.5475 20.1881C12.2986 20.437 11.8961 20.437 11.6473 20.1881C11.3985 19.9393 11.3985 19.5368 11.6473 19.288L14.1942 16.7411C14.4431 16.4922 14.8456 16.4922 15.0944 16.7411L17.6413 19.288C17.8901 19.5368 17.8901 19.9393 17.6413 20.1881C17.5168 20.3125 17.3546 20.3742 17.1912 20.3742Z" fill="#010101"/>
</svg>
