<svg width="27" height="27" viewBox="0 0 27 27" fill="none" xmlns="http://www.w3.org/2000/svg">
<path fill-rule="evenodd" clip-rule="evenodd" d="M13.334 2.50013C10.4607 2.50013 7.70506 3.64156 5.67331 5.67331C3.64156 7.70506 2.50013 10.4607 2.50013 13.334C2.50013 16.2074 3.64156 18.963 5.67331 20.9948C7.70506 23.0265 10.4607 24.1679 13.334 24.1679C16.2074 24.1679 18.963 23.0265 20.9948 20.9948C23.0265 18.963 24.1679 16.2074 24.1679 13.334C24.1679 10.4607 23.0265 7.70506 20.9948 5.67331C18.963 3.64156 16.2074 2.50013 13.334 2.50013V2.50013ZM0 13.334C0 9.79763 1.40483 6.40607 3.90545 3.90545C6.40607 1.40483 9.79763 0 13.334 0C16.8704 0 20.262 1.40483 22.7626 3.90545C25.2632 6.40607 26.6681 9.79763 26.6681 13.334C26.6681 16.8704 25.2632 20.262 22.7626 22.7626C20.262 25.2632 16.8704 26.6681 13.334 26.6681C9.79763 26.6681 6.40607 25.2632 3.90545 22.7626C1.40483 20.262 0 16.8704 0 13.334V13.334ZM15.0008 18.3343C15.0008 18.7764 14.8252 19.2003 14.5126 19.5129C14.2 19.8255 13.7761 20.0011 13.334 20.0011C12.892 20.0011 12.468 19.8255 12.1555 19.5129C11.8429 19.2003 11.6673 18.7764 11.6673 18.3343C11.6673 17.8923 11.8429 17.4683 12.1555 17.1557C12.468 16.8432 12.892 16.6675 13.334 16.6675C13.7761 16.6675 14.2 16.8432 14.5126 17.1557C14.8252 17.4683 15.0008 17.8923 15.0008 18.3343V18.3343ZM11.5339 10.1422C11.6689 9.87552 11.8506 9.64384 12.1006 9.47883C12.3423 9.31716 12.719 9.16715 13.334 9.16715C13.8007 9.16715 14.2558 9.31216 14.5641 9.54217C14.7042 9.63989 14.8177 9.77118 14.8939 9.92405C14.9702 10.0769 15.007 10.2465 15.0008 10.4172C15.0008 10.7122 14.9341 10.8572 14.8725 10.9472C14.7466 11.1121 14.5898 11.2508 14.4108 11.3556C14.2841 11.4406 14.1474 11.5223 13.9807 11.6239L13.9691 11.6306C13.7926 11.7348 13.6187 11.8432 13.4474 11.9556C12.9933 12.2423 12.6011 12.6169 12.294 13.0574C12.1144 13.3332 12.0509 13.6688 12.1172 13.9912C12.1836 14.3136 12.3744 14.5968 12.6483 14.7794C12.9221 14.962 13.257 15.0292 13.5801 14.9664C13.9032 14.9036 14.1885 14.7159 14.3741 14.4441C14.4995 14.2794 14.6557 14.1407 14.8341 14.0357C14.9764 13.9434 15.1209 13.8544 15.2675 13.7691L15.2775 13.7624C15.4325 13.6674 15.6175 13.5574 15.7992 13.4374C16.1692 13.189 16.6109 12.8457 16.9526 12.334C17.3092 11.8006 17.5009 11.1639 17.5009 10.4172C17.5009 9.15048 16.9009 8.17043 16.0625 7.54207C15.2694 6.96735 14.3135 6.66079 13.334 6.66702C12.2823 6.66702 11.4089 6.9337 10.7139 7.39706C10.0255 7.85708 9.58051 8.46045 9.29882 9.02548C9.22399 9.1725 9.17899 9.33289 9.16644 9.49739C9.15388 9.66189 9.17401 9.82725 9.22566 9.98394C9.27732 10.1406 9.35948 10.2855 9.46741 10.4103C9.57533 10.5351 9.70689 10.6373 9.8545 10.711C10.0021 10.7847 10.1628 10.8284 10.3274 10.8397C10.492 10.851 10.6572 10.8295 10.8135 10.7767C10.9698 10.7238 11.114 10.6405 11.238 10.5316C11.3619 10.4227 11.4631 10.2904 11.5356 10.1422H11.5339Z" fill="white"/>
</svg>
