<svg width="32" height="29" viewBox="0 0 32 29" fill="none" xmlns="http://www.w3.org/2000/svg">
<path d="M12.8471 27.6561C13.665 27.6561 14.328 26.9931 14.328 26.1752C14.328 25.3574 13.665 24.6943 12.8471 24.6943C12.0292 24.6943 11.3662 25.3574 11.3662 26.1752C11.3662 26.9931 12.0292 27.6561 12.8471 27.6561Z" stroke="white" stroke-width="2" stroke-linecap="round" stroke-linejoin="round"/>
<path d="M24.6948 27.6561C25.5126 27.6561 26.1757 26.9931 26.1757 26.1752C26.1757 25.3574 25.5126 24.6943 24.6948 24.6943C23.8769 24.6943 23.2139 25.3574 23.2139 26.1752C23.2139 26.9931 23.8769 27.6561 24.6948 27.6561Z" stroke="white" stroke-width="2" stroke-linecap="round" stroke-linejoin="round"/>
<path d="M1 1H6.18315C6.18315 1 6.79467 3.70772 7.1865 5.4427C7.96943 8.90946 9.04476 13.6709 9.67564 16.4643C9.98061 17.8146 11.1797 18.7708 12.564 18.7708H25.2804C26.6686 18.7708 27.8705 17.8066 28.1715 16.4515L30.618 5.4427" stroke="white" stroke-width="2" stroke-linecap="round" stroke-linejoin="round"/>
<path d="M30.618 5.44263H7.66406" stroke="white" stroke-width="2" stroke-linecap="round" stroke-linejoin="round"/>
</svg>
