<svg width="817" height="39" viewBox="0 0 817 39" fill="none" xmlns="http://www.w3.org/2000/svg">
<g style="mix-blend-mode:multiply" opacity="0.55">
<path d="M2.57531 38.3853L1.42469 35.6147L1.35865 35.6421C1.28789 35.6715 1.22247 35.7135 1.17663 35.7749C1.02447 35.9788 0.722515 36.5312 1.07648 37.3835C1.18142 37.6362 1.21147 38.0133 1.21449 38.3354C1.21709 38.6187 1.50657 38.8291 1.76827 38.7205L2.57531 38.3853ZM67.6413 12.3691L68.1314 13.7868L67.6413 12.3691ZM84.7829 6.62259L85.2231 8.05654L84.7829 6.62259ZM102.673 3.16187L102.303 4.61554L102.673 3.16187ZM101.278 14.9112L102.671 15.4679L101.278 14.9112ZM100.836 27.7714L101.681 26.5322L100.836 27.7714ZM122.195 27.9637L122.477 29.437L122.195 27.9637ZM210.828 5.44766L211.025 6.93469L210.828 5.44766ZM226.065 6.51578L224.857 7.40542L226.065 6.51578ZM217.63 22.0463L218.938 22.7806L217.63 22.0463ZM224.126 31.5526L224.122 30.0526L224.126 31.5526ZM268.579 23.1144L268.24 21.6531L268.579 23.1144ZM330.887 10.2115L330.636 8.73255L330.887 10.2115ZM347.348 7.64799L347.546 9.13493L347.348 7.64799ZM364.082 6.96439L364.648 5.57559L364.082 6.96439ZM360.442 18.0301L359.07 17.4244L360.442 18.0301ZM365.646 27.0451L365.58 28.5437L365.646 27.0451ZM386.801 24.3107L387.081 25.7843L386.801 24.3107ZM441.491 13.0954L441.774 14.5684L441.491 13.0954ZM507.88 2.73462L507.972 4.23179L507.88 2.73462ZM519.614 3.09779L519.314 4.5675L519.614 3.09779ZM522.437 11.2369L521.06 10.6427L522.437 11.2369ZM517.539 26.3188L518.575 25.2336L517.539 26.3188ZM545.496 23.5203L545.157 22.0591L545.496 23.5203ZM609.913 9.61333L609.656 8.13551L609.913 9.61333ZM676.201 2.02966L676.171 3.52937L676.201 2.02966ZM692.56 7.73344L693.923 7.10682L692.56 7.73344ZM692.968 23.6698L691.828 24.6439L692.968 23.6698ZM717.66 24.5884L717.971 26.056L717.66 24.5884ZM768.609 11.9205L768.3 10.4527L768.609 11.9205ZM794.797 13.2877L795.658 12.0593L794.797 13.2877ZM807.79 24.0544L806.951 25.2983L807.79 24.0544ZM815.307 26.3033L814.693 29.2396L814.763 29.2542C814.838 29.2699 814.915 29.2723 814.988 29.2475C815.228 29.1651 815.79 28.8796 815.979 27.9763C816.035 27.7085 816.223 27.3804 816.402 27.1128C816.56 26.8775 816.44 26.5404 816.163 26.4823L815.307 26.3033ZM2.57531 38.3853C23.7879 29.5756 45.8341 21.4947 68.1314 13.7868L67.1512 10.9514C44.8222 18.6703 22.7139 26.7732 1.42469 35.6147L2.57531 38.3853ZM68.1314 13.7868C73.8203 11.8202 79.4361 9.83309 85.2231 8.05654L84.3427 5.18864C78.4918 6.9848 72.8106 8.99501 67.1512 10.9514L68.1314 13.7868ZM85.2231 8.05654C85.6541 7.92423 89.0554 6.81596 92.8666 5.86464C94.7731 5.38877 96.7496 4.96064 98.4819 4.71466C100.279 4.45947 101.595 4.43552 102.303 4.61554L103.043 1.70821C101.711 1.36921 99.8725 1.48712 98.0602 1.74446C96.1829 2.01102 94.0945 2.4661 92.1401 2.95394C88.2296 3.93003 84.7255 5.07113 84.3427 5.18864L85.2231 8.05654ZM102.303 4.61554C102.63 4.69878 102.766 4.81953 102.837 4.90692C102.918 5.00769 103.009 5.18872 103.051 5.52144C103.14 6.23895 102.954 7.29019 102.53 8.55125C102.12 9.77174 101.548 11.0175 101.032 12.0594C100.775 12.5783 100.538 13.0351 100.342 13.4144C100.167 13.7553 99.9807 14.116 99.8853 14.3546L102.671 15.4679C102.671 15.468 102.672 15.4667 102.673 15.4637C102.674 15.4607 102.676 15.4565 102.678 15.4509C102.683 15.4396 102.69 15.4246 102.699 15.4053C102.717 15.3663 102.741 15.3168 102.772 15.2551C102.833 15.1307 102.912 14.9766 103.009 14.7885C103.2 14.418 103.45 13.9361 103.72 13.3906C104.259 12.3036 104.9 10.9171 105.374 9.50671C105.834 8.13686 106.202 6.55843 106.028 5.15207C105.937 4.42285 105.692 3.66839 105.172 3.02317C104.64 2.36458 103.91 1.92886 103.043 1.70821L102.303 4.61554ZM99.8853 14.3546C99.3141 15.7839 97.9242 18.5008 97.3648 21.0707C97.0752 22.4009 96.9592 23.8562 97.3152 25.2613C97.6823 26.7105 98.5299 28.0142 99.9909 29.0106L101.681 26.5322C100.83 25.9513 100.412 25.2693 100.223 24.5246C100.023 23.7357 100.061 22.7888 100.296 21.7088C100.786 19.4584 101.93 17.3225 102.671 15.4679L99.8853 14.3546ZM99.9909 29.0106C101.484 30.0288 103.358 30.5708 105.297 30.8408C107.251 31.1129 109.381 31.1233 111.473 30.9976C115.652 30.7465 119.855 29.9386 122.477 29.437L121.913 26.4904C119.273 26.9957 115.251 27.7652 111.293 28.003C109.316 28.1218 107.399 28.1046 105.711 27.8695C104.007 27.6323 102.642 27.1877 101.681 26.5322L99.9909 29.0106ZM122.477 29.437C137.858 26.4938 152.195 21.8819 166.542 17.5179C180.916 13.1455 195.331 9.01129 211.025 6.93469L210.631 3.96062C194.674 6.07208 180.056 10.2714 165.669 14.6477C151.254 19.0325 137.1 23.5846 121.913 26.4904L122.477 29.437ZM211.025 6.93469C212.22 6.77649 215.289 6.2353 218.418 6.12858C219.979 6.07535 221.466 6.13561 222.669 6.3804C223.924 6.63565 224.583 7.03336 224.857 7.40542L227.272 5.62614C226.327 4.34256 224.75 3.7421 223.267 3.44059C221.733 3.12862 219.981 3.07353 218.316 3.13033C214.993 3.24367 211.663 3.82405 210.631 3.96062L211.025 6.93469ZM224.857 7.40542C225.207 7.88097 225.312 8.56017 224.908 9.69114C224.498 10.8378 223.652 12.1653 222.556 13.5922C221.469 15.0065 220.23 16.4017 219.087 17.7214C217.993 18.9852 216.911 20.2626 216.322 21.312L218.938 22.7806C219.348 22.0508 220.202 21.0171 221.355 19.685C222.46 18.4089 223.779 16.9236 224.935 15.4199C226.08 13.9287 227.16 12.3007 227.732 10.7016C228.31 9.08671 228.454 7.2298 227.272 5.62614L224.857 7.40542ZM216.322 21.312C215.653 22.504 215.021 23.7919 214.649 25.0619C214.28 26.3194 214.117 27.7241 214.593 29.0484C215.092 30.4367 216.193 31.4651 217.792 32.1166C219.348 32.7504 221.438 33.0591 224.13 33.0526L224.122 30.0526C221.614 30.0587 219.966 29.7627 218.924 29.3382C217.925 28.9313 217.565 28.4476 217.417 28.0336C217.245 27.5554 217.246 26.8676 217.528 25.9056C217.806 24.9562 218.311 23.898 218.938 22.7806L216.322 21.312ZM224.13 33.0526C239.245 33.0159 255.6 27.659 268.917 24.5758L268.24 21.6531C254.518 24.83 238.786 30.017 224.122 30.0526L224.13 33.0526ZM268.917 24.5758C289.483 19.8144 309.998 15.2709 331.137 11.6904L330.636 8.73255C309.405 12.3286 288.819 16.8887 268.24 21.6531L268.917 24.5758ZM331.137 11.6904C336.594 10.7662 342.043 9.86567 347.546 9.13493L347.151 6.16104C341.591 6.89942 336.096 7.80781 330.636 8.73255L331.137 11.6904ZM347.546 9.13493C347.922 9.085 351.306 8.60826 354.974 8.29761C356.81 8.1421 358.69 8.03075 360.282 8.03254C361.079 8.03344 361.782 8.06273 362.359 8.12411C362.959 8.18792 363.329 8.2774 363.515 8.35319L364.648 5.57559C364.072 5.34031 363.371 5.21481 362.676 5.14093C361.958 5.06461 361.143 5.03351 360.286 5.03255C358.57 5.03061 356.595 5.14961 354.721 5.30831C350.968 5.62611 347.51 6.1133 347.151 6.16104L347.546 9.13493ZM363.515 8.35319C363.598 8.38735 363.63 8.41527 363.636 8.42118C363.641 8.42556 363.644 8.42871 363.65 8.44176C363.667 8.47955 363.715 8.62931 363.673 8.97198C363.586 9.68682 363.185 10.6953 362.55 11.8712C361.935 13.0111 361.184 14.1612 360.529 15.1342C360.212 15.6067 359.899 16.0628 359.663 16.4197C359.45 16.7429 359.203 17.1244 359.07 17.4244L361.815 18.6359C361.809 18.6487 361.827 18.6094 361.899 18.4898C361.965 18.382 362.053 18.2446 362.166 18.0745C362.395 17.7273 362.678 17.315 363.019 16.8083C363.681 15.8229 364.502 14.5717 365.19 13.296C365.859 12.0561 366.493 10.6346 366.651 9.33355C366.732 8.66827 366.704 7.91362 366.383 7.20409C366.042 6.45122 365.437 5.89749 364.648 5.57559L363.515 8.35319ZM359.07 17.4244C358.682 18.3028 358.247 19.3662 357.97 20.4702C357.696 21.5635 357.546 22.8183 357.842 24.0398C358.154 25.3231 358.932 26.4537 360.282 27.2534C361.579 28.0215 363.332 28.4452 365.58 28.5437L365.712 25.5465C363.726 25.4596 362.521 25.0929 361.811 24.6723C361.155 24.2834 360.878 23.8271 360.757 23.3321C360.622 22.7753 360.664 22.0605 360.88 21.1996C361.093 20.3494 361.445 19.474 361.815 18.6359L359.07 17.4244ZM365.58 28.5437C368.426 28.6682 372.771 28.1659 376.842 27.5566C380.953 26.9414 384.925 26.1943 387.081 25.7843L386.521 22.8371C384.369 23.2462 380.446 23.9838 376.398 24.5897C372.309 25.2016 368.231 25.6568 365.712 25.5465L365.58 28.5437ZM387.081 25.7843C396.274 24.0364 405.376 22.1107 414.461 20.184C423.55 18.2564 432.621 16.328 441.774 14.5684L441.208 11.6224C432.022 13.3883 422.922 15.3229 413.839 17.2493C404.75 19.1767 395.678 21.096 386.521 22.8371L387.081 25.7843ZM441.774 14.5684C463.186 10.4523 485.715 5.60088 507.972 4.23179L507.788 1.23745C485.287 2.62154 462.514 7.52643 441.208 11.6224L441.774 14.5684ZM507.972 4.23179C511.878 3.99157 515.807 3.85178 519.314 4.5675L519.914 1.62808C515.972 0.82374 511.678 0.998209 507.788 1.23745L507.972 4.23179ZM519.314 4.5675C520.913 4.89378 521.73 5.32742 522.13 5.68453C522.465 5.98277 522.562 6.2695 522.562 6.63368C522.561 7.08121 522.404 7.6543 522.094 8.39151C521.944 8.74836 521.774 9.10946 521.593 9.49017C521.417 9.85944 521.225 10.2586 521.06 10.6427L523.814 11.8311C523.953 11.5098 524.116 11.1695 524.302 10.7792C524.482 10.4003 524.68 9.98179 524.86 9.55304C525.21 8.71902 525.56 7.69692 525.562 6.63785C525.564 5.49543 525.157 4.36416 524.127 3.44555C523.163 2.58582 521.755 2.00377 519.914 1.62808L519.314 4.5675ZM521.06 10.6427C520.761 11.3347 520.12 12.339 519.259 13.6686C518.437 14.9392 517.469 16.4295 516.668 17.9434C515.876 19.441 515.177 21.0896 514.979 22.6873C514.773 24.3399 515.098 26.0626 516.504 27.404L518.575 25.2336C518.043 24.7261 517.831 24.0569 517.956 23.0574C518.087 22.0028 518.584 20.7387 519.32 19.3458C520.048 17.9693 520.941 16.5914 521.778 15.2985C522.576 14.0646 523.392 12.8103 523.814 11.8311L521.06 10.6427ZM516.504 27.404C517.335 28.1969 518.436 28.6569 519.578 28.926C520.732 29.1978 522.044 29.3015 523.417 29.2975C526.161 29.2894 529.349 28.8479 532.416 28.2632C538.478 27.1076 544.588 25.2711 545.836 24.9815L545.157 22.0591C543.526 22.4378 537.92 24.1599 531.854 25.3162C528.858 25.8874 525.88 26.2902 523.408 26.2975C522.172 26.3011 521.113 26.2054 520.266 26.0058C519.407 25.8035 518.875 25.5203 518.575 25.2336L516.504 27.404ZM545.836 24.9815C567.207 20.0212 588.246 14.9035 610.17 11.0912L609.656 8.13551C587.628 11.966 566.484 17.1092 545.157 22.0591L545.836 24.9815ZM610.17 11.0912C631.056 7.45945 654.434 3.09983 676.171 3.52937L676.231 0.529956C654.141 0.0934538 630.443 4.52102 609.656 8.13551L610.17 11.0912ZM676.171 3.52937C680.318 3.61131 683.604 3.72331 686.154 4.41227C688.597 5.0725 690.214 6.22101 691.197 8.36006L693.923 7.10682C692.481 3.97098 690.017 2.34859 686.936 1.51614C683.962 0.71243 680.281 0.609985 676.231 0.529956L676.171 3.52937ZM691.197 8.36006C691.624 9.28726 691.694 10.3026 691.538 11.4892C691.376 12.7198 691.004 13.9544 690.627 15.4031C689.918 18.1334 689.201 21.5685 691.828 24.6439L694.109 22.6957C692.568 20.8907 692.817 18.9028 693.531 16.1577C693.866 14.8686 694.319 13.3523 694.513 11.8802C694.712 10.3641 694.667 8.72483 693.923 7.10682L691.197 8.36006ZM691.828 24.6439C693.293 26.3594 695.392 27.298 697.63 27.7823C699.874 28.2677 702.392 28.327 704.873 28.1745C709.829 27.87 714.951 26.6944 717.971 26.056L717.35 23.1209C714.25 23.7764 709.375 24.8922 704.689 25.1802C702.35 25.324 700.135 25.2548 698.265 24.8501C696.389 24.4442 694.993 23.731 694.109 22.6957L691.828 24.6439ZM717.971 26.056C726.674 24.2157 735.119 21.9499 743.52 19.6982C751.933 17.4433 760.303 15.2024 768.918 13.3883L768.3 10.4527C759.592 12.2862 751.145 14.5487 742.743 16.8005C734.33 19.0556 725.962 21.2999 717.35 23.1209L717.971 26.056ZM768.918 13.3883C779.086 11.2472 786.915 9.59608 793.937 14.5161L795.658 12.0593C787.382 6.25944 778.133 8.38224 768.3 10.4527L768.918 13.3883ZM793.937 14.5161C796.244 16.1329 798.186 17.9246 800.232 19.7933C802.26 21.6456 804.381 23.5664 806.951 25.2983L808.628 22.8104C806.263 21.2172 804.29 19.437 802.255 17.5784C800.239 15.7361 798.152 13.807 795.658 12.0593L793.937 14.5161ZM806.951 25.2983C808.677 26.4611 811.647 28.6019 814.693 29.2396L815.307 26.3033C812.969 25.8137 810.55 24.1059 808.628 22.8104L806.951 25.2983Z" fill="black"/>
</g>
</svg>
