<svg width="50" height="57" viewBox="0 0 50 57" fill="none" xmlns="http://www.w3.org/2000/svg">
<path d="M44.3615 5.55038C43.0537 4.248 37.7609 0.0959852 25.9603 0.0403281C25.9603 0.0403281 12.0488 -0.861316 5.27324 5.86206C1.50446 9.93616 0.176122 15.9137 0.0319607 23.3161C-0.1122 30.7185 -0.287253 44.5882 12.0797 48.3507H12.09L12.0797 54.0945C12.0797 54.0945 11.9973 56.4209 13.4183 56.8885C15.1277 57.4673 16.1368 55.6974 17.7741 53.7939C18.6699 52.7476 19.9056 51.2114 20.8426 50.0426C29.3069 50.8107 35.8045 49.0519 36.5459 48.7959C38.2552 48.1948 47.9243 46.8591 49.4895 32.9893C51.1164 18.6743 48.7069 9.63561 44.3615 5.55038V5.55038ZM45.7928 31.943C44.4644 43.5196 36.6283 44.2543 35.1866 44.7552C34.5688 44.9667 28.8539 46.5028 21.6767 46.0019C21.6767 46.0019 16.3221 52.9813 14.654 54.7958C14.1082 55.3857 13.511 55.3301 13.5213 54.1613C13.5213 53.3932 13.5625 44.6216 13.5625 44.6216C13.5522 44.6216 13.5522 44.6216 13.5625 44.6216C3.07993 41.4826 3.69777 29.6722 3.81104 23.4942C3.92431 17.3163 5.00551 12.2515 8.19765 8.84528C13.9332 3.22391 25.7441 4.05877 25.7441 4.05877C35.7221 4.10329 40.5 7.35367 41.6121 8.44455C45.2882 11.8508 47.1623 19.999 45.7928 31.943V31.943ZM31.4796 22.9488C31.5208 23.9061 30.1925 23.9729 30.1513 23.0156C30.038 20.5667 28.9774 19.3756 26.7944 19.242C25.9089 19.1864 25.9912 17.7504 26.8665 17.8061C29.7394 17.973 31.3355 19.7541 31.4796 22.9488ZM33.57 24.2066C33.673 19.4869 30.9442 15.7913 25.7647 15.3794C24.8894 15.3126 24.9821 13.8767 25.8574 13.9435C31.8297 14.411 35.0116 18.8524 34.8983 24.24C34.888 25.1973 33.5494 25.1528 33.57 24.2066V24.2066ZM38.4097 25.6982C38.42 26.6555 37.0813 26.6667 37.0813 25.7094C37.0195 16.6373 31.4282 11.6949 24.6423 11.6393C23.767 11.6281 23.767 10.2033 24.6423 10.2033C32.2313 10.259 38.3376 15.9249 38.4097 25.6982V25.6982ZM37.2461 36.6182V36.6404C36.134 38.7554 34.054 41.093 31.9121 40.3472L31.8915 40.3138C29.7188 39.657 24.6011 36.8074 21.3678 34.0245C19.6996 32.5997 18.1756 30.9189 17.0018 29.3048C15.9412 27.8689 14.8702 26.1658 13.8302 24.1176C11.6369 19.832 11.1529 17.9174 11.1529 17.9174C10.463 15.602 12.6152 13.3535 14.5819 12.1513H14.6025C15.5499 11.617 16.456 11.7951 17.0635 12.5854C17.0635 12.5854 18.3404 14.2329 18.8862 15.0455C19.401 15.8024 20.0909 17.0157 20.4513 17.6948C21.0795 18.9081 20.6882 20.1437 20.0703 20.6557L18.8347 21.7243C18.2065 22.2698 18.2889 23.2827 18.2889 23.2827C18.2889 23.2827 20.1218 30.7742 26.9695 32.6665C26.9695 32.6665 27.9065 32.7556 28.4111 32.0765L29.3996 30.7408C29.8733 30.0729 31.0163 29.6499 32.1387 30.3289C33.6524 31.2528 35.5779 32.6888 36.8548 33.9911C37.5756 34.6256 37.7404 35.5941 37.2461 36.6182Z" fill="white"/>
</svg>
