<svg width="141" height="141" viewBox="0 0 141 141" fill="none" xmlns="http://www.w3.org/2000/svg">
<circle cx="70.5" cy="70.5" r="70.5" fill="#FE0000"/>
<path fill-rule="evenodd" clip-rule="evenodd" d="M88.6781 113.819V127.454C88.6781 127.861 88.6938 128.261 88.6781 128.668C88.5528 131.049 87.198 132.341 84.8015 132.341C75.9833 132.341 67.165 132.341 58.3467 132.341C57.078 132.341 55.8015 132.372 54.5485 132.247C52.3478 132.028 51.6351 131.198 51.6195 128.997C51.596 124.619 51.6116 120.241 51.6038 115.856C51.6038 115.237 51.6038 114.61 51.6038 113.851C50.8911 113.812 50.3351 113.78 49.7791 113.749C46.2627 113.585 43.6783 111.877 41.8928 108.917C41.1879 107.75 41.0548 106.427 41.0626 105.08C41.0939 99.0258 41.1174 92.9798 41.1174 86.9339C41.1174 71.4354 41.1174 55.929 41.1174 40.4305C41.1174 37.8931 41.1957 35.3557 41.0391 32.8261C40.7415 27.7435 45.7145 24.1253 49.5363 24.0627C52.011 24.0235 54.4936 24.0392 56.9684 24.0313C66.4132 24.0235 75.8658 24 85.3184 24C86.9317 24 88.545 24.0705 90.1583 24.047C94.0427 23.9843 99.0314 27.6338 99 33.0376C98.8512 54.1826 98.9374 75.3355 98.9374 96.4884C98.9374 99.3077 98.8199 102.143 98.9609 104.954C99.2115 109.888 94.5674 113.444 90.824 113.702C90.1974 113.749 89.5709 113.772 88.6703 113.819H88.6781ZM42.5663 68.9136H42.5428C42.5428 72.2577 42.5428 75.6018 42.5428 78.9458C42.5349 87.6544 42.5271 96.3552 42.4879 105.064C42.4801 106.63 42.8169 108.04 43.8193 109.246C45.5031 111.259 47.6176 112.331 50.2881 112.331C61.2992 112.331 72.3103 112.363 83.3214 112.371C85.6238 112.371 87.9341 112.371 90.2366 112.308C94.3638 112.183 97.4886 108.948 97.5042 104.852C97.5121 102.088 97.5042 99.3155 97.5042 96.551V54.3549C97.5042 47.2047 97.4886 40.0624 97.5199 32.9122C97.5199 31.2206 97.1518 29.7013 96.0397 28.4248C94.3246 26.4434 92.1788 25.4488 89.5083 25.4488C78.6147 25.4645 67.7132 25.4332 56.8196 25.4253C54.4545 25.4253 52.0894 25.4097 49.7321 25.4802C45.6127 25.6133 42.5114 28.832 42.5036 32.9436C42.5036 34.3297 42.5584 35.7081 42.5663 37.0943C42.5663 47.7059 42.5663 58.3098 42.5663 68.9215V68.9136ZM53.3032 113.812C53.1779 114.015 53.1231 114.07 53.1231 114.117C53.0918 119.239 53.0605 124.361 53.0291 129.49C53.0291 130.179 53.4207 130.555 54.0472 130.681C54.4388 130.759 54.8461 130.806 55.2455 130.806C61.8083 130.845 68.3711 130.884 74.9417 130.908C75.1531 130.908 75.3646 130.806 75.5447 130.751C75.905 128.292 75.7797 115.033 75.3881 113.804H53.3032V113.812ZM82.5069 130.853C82.875 127.728 82.7262 115.033 82.3346 113.843H76.8996C76.4767 115.542 76.5315 129.584 76.9465 130.853H82.5069V130.853ZM83.7443 130.853C86.7359 130.9 87.2528 130.407 87.2528 127.603C87.2528 123.64 87.245 119.67 87.2371 115.699V113.898H83.7443V130.845V130.853Z" fill="black"/>
<path fill-rule="evenodd" clip-rule="evenodd" d="M42.5662 68.9136C42.5662 58.302 42.5662 47.6981 42.5662 37.0864C42.5662 35.7081 42.5036 34.3219 42.5036 32.9357C42.5036 28.8242 45.6049 25.6054 49.7321 25.4723C52.0972 25.394 54.4623 25.4175 56.8196 25.4175C67.7132 25.4253 78.6146 25.4645 89.5083 25.441C92.1788 25.441 94.3246 26.4278 96.0397 28.417C97.1518 29.6935 97.5277 31.2128 97.5199 32.9044C97.4885 40.0546 97.5042 47.1969 97.5042 54.347V96.5432C97.5042 99.3077 97.5042 102.08 97.5042 104.845C97.4886 108.933 94.3638 112.167 90.2366 112.3C87.9341 112.371 85.6238 112.371 83.3214 112.363C72.3103 112.355 61.2992 112.316 50.2881 112.324C47.6176 112.324 45.4952 111.243 43.8193 109.238C42.809 108.032 42.4801 106.622 42.4879 105.056C42.5271 96.3552 42.5271 87.6466 42.5427 78.938C42.5427 75.5939 42.5427 72.2499 42.5427 68.9058H42.5662V68.9136ZM47.3983 65.5931C47.3983 73.9493 47.4296 82.3055 47.3748 90.6695C47.3591 92.7136 48.1971 94.2094 49.7556 95.3998C51.2827 96.5667 53.0526 96.9739 54.9478 96.9739C64.2282 96.9817 73.5085 97.0131 82.7888 97.0052C84.1123 97.0052 85.4515 96.9817 86.7437 96.7546C90.2836 96.1359 92.2571 93.7003 92.2571 90.1448C92.2571 81.0368 92.2571 71.9288 92.2571 62.8207C92.2571 55.3808 92.2258 47.9487 92.2728 40.5166C92.2884 38.269 91.3173 36.6557 89.5239 35.4575C88.1377 34.5334 86.6106 34.1339 84.9503 34.1339C76.8212 34.1418 68.6921 34.1339 60.563 34.1339C58.4877 34.1339 56.4123 34.1105 54.337 34.1496C50.0297 34.2436 47.3983 36.9376 47.3983 41.2136C47.3983 49.3427 47.3983 57.4718 47.3983 65.6009V65.5931ZM70.7596 108.134C72.9368 108.298 75.3802 106.787 75.3881 103.474C75.3881 101.313 73.0543 99.0806 70.8771 99.0884C68.2144 99.0962 65.9824 101.172 66.0138 103.623C66.0451 106.427 67.862 108.149 70.7596 108.134V108.134ZM71.6368 31.1032C73.6573 31.1032 75.67 31.1423 77.6905 31.0797C78.3405 31.064 79.4683 31.4947 79.4369 30.3513C79.4135 29.435 78.3719 29.7091 77.7297 29.7013C73.6965 29.6778 69.6632 29.6935 65.6222 29.6935C65.2776 29.6935 64.886 29.6152 64.5963 29.7483C64.283 29.8893 64.0559 30.226 63.7974 30.4766C64.048 30.6724 64.2752 30.9622 64.5571 31.0405C64.933 31.1423 65.3559 31.0953 65.7631 31.0953C67.721 31.0953 69.6867 31.0953 71.6446 31.0953L71.6368 31.1032ZM61.4167 31.6122C61.8004 31.1188 62.1998 30.8212 62.2311 30.4845C62.2546 30.2495 61.7221 29.7013 61.5655 29.7483C61.2052 29.8501 60.8136 30.179 60.6727 30.5158C60.6022 30.6959 61.0408 31.0797 61.4167 31.6122V31.6122Z" fill="#757575"/>
<path fill-rule="evenodd" clip-rule="evenodd" d="M53.303 113.819H75.3879C75.7873 115.049 75.9047 128.308 75.5445 130.767C75.3644 130.814 75.1529 130.923 74.9415 130.923C68.3787 130.9 61.808 130.861 55.2452 130.822C54.8458 130.822 54.4386 130.775 54.047 130.696C53.4127 130.563 53.0211 130.187 53.0289 129.506C53.0524 124.384 53.0837 119.262 53.1229 114.133C53.1229 114.086 53.1777 114.031 53.303 113.827V113.819ZM57.5085 126.882C59.1767 127.274 60.7664 127.133 62.3484 126.953C62.5599 126.929 62.8888 126.459 62.8809 126.209C62.8183 124.831 62.7087 123.452 62.505 122.09C62.4659 121.808 61.9882 121.4 61.6906 121.385C60.5472 121.322 59.3959 121.361 58.2447 121.416C57.6495 121.447 57.2971 121.815 57.3206 122.442C57.3754 123.875 57.4381 125.3 57.5085 126.875V126.882Z" fill="#2F62A7"/>
<path fill-rule="evenodd" clip-rule="evenodd" d="M82.5067 130.853H76.9463C76.5312 129.584 76.4764 115.542 76.8993 113.843H82.3344C82.726 115.033 82.8748 127.728 82.5067 130.853V130.853Z" fill="#4E616F"/>
<path fill-rule="evenodd" clip-rule="evenodd" d="M83.7441 130.861V113.913H87.237V115.715C87.237 119.685 87.2448 123.648 87.2527 127.619C87.2527 130.422 86.7436 130.916 83.7441 130.869V130.861Z" fill="#2F62A7"/>
<path fill-rule="evenodd" clip-rule="evenodd" d="M47.3981 65.5931C47.3981 57.464 47.3981 49.3349 47.3981 41.2058C47.3981 36.9298 50.0294 34.2436 54.3368 34.1418C56.4121 34.0948 58.4875 34.1183 60.5628 34.1262C68.6919 34.1262 76.821 34.1418 84.9501 34.1262C86.6104 34.1262 88.1453 34.5256 89.5237 35.4497C91.3249 36.6557 92.2882 38.2612 92.2726 40.5088C92.2256 47.9409 92.2569 55.3809 92.2569 62.813C92.2569 71.921 92.2569 81.029 92.2569 90.1371C92.2569 93.7004 90.2833 96.136 86.7435 96.7468C85.4513 96.974 84.1043 96.9974 82.7886 96.9974C73.5083 96.9974 64.228 96.974 54.9476 96.9661C53.0524 96.9661 51.2903 96.5589 49.7553 95.392C48.2047 94.2016 47.3667 92.7136 47.3746 90.6618C47.4294 82.3056 47.3981 73.9493 47.3981 65.5853V65.5931ZM91.1135 65.554C91.1135 57.2526 91.0665 48.959 91.1448 40.6576C91.1683 38.2377 90.0562 36.6949 87.9887 35.8099C87.0176 35.3949 85.882 35.1913 84.817 35.1834C76.5156 35.1208 68.222 35.1286 59.9206 35.1286C58.0176 35.1286 56.1145 35.1129 54.2193 35.1678C50.656 35.2696 48.471 37.5485 48.4866 41.0805C48.5023 44.7144 48.518 48.3403 48.518 51.9742C48.518 64.763 48.4945 77.5597 48.4945 90.3563C48.4945 92.8937 49.5047 94.4992 51.8777 95.3998C52.8253 95.7601 53.8904 95.948 54.9006 95.9559C63.3117 96.0107 71.7305 96.0028 80.1416 96.0107C81.8723 96.0107 83.6031 96.0342 85.326 95.9637C89.0225 95.8149 91.1213 93.5907 91.1213 89.9334C91.1213 81.8043 91.1213 73.6831 91.1213 65.554H91.1135Z" fill="black"/>
<path fill-rule="evenodd" clip-rule="evenodd" d="M70.7594 108.134C67.8617 108.149 66.037 106.427 66.0135 103.623C65.9822 101.172 68.2142 99.1041 70.8769 99.0884C73.0619 99.0884 75.3956 101.313 75.3878 103.474C75.38 106.787 72.9366 108.298 70.7594 108.134V108.134ZM70.6341 107.131C73.0305 107.131 74.401 105.886 74.4402 103.646C74.4715 101.837 72.5841 100.013 70.7202 100.052C68.8172 100.091 66.8123 101.861 66.8828 103.568C66.9846 105.871 68.4726 107.39 70.6263 107.131H70.6341Z" fill="black"/>
<path fill-rule="evenodd" clip-rule="evenodd" d="M71.6367 31.111C69.6788 31.111 67.7131 31.111 65.7553 31.111C65.3559 31.111 64.933 31.158 64.5492 31.0562C64.2673 30.9779 64.0402 30.6881 63.7896 30.4923C64.0558 30.2417 64.2751 29.8971 64.5884 29.764C64.8781 29.6387 65.2697 29.7092 65.6143 29.7092C69.6475 29.7092 73.6886 29.6935 77.7218 29.717C78.364 29.717 79.4056 29.4507 79.4291 30.367C79.4604 31.5104 78.3326 31.0797 77.6826 31.0953C75.6621 31.1502 73.6494 31.1188 71.6289 31.1188L71.6367 31.111Z" fill="black"/>
<path fill-rule="evenodd" clip-rule="evenodd" d="M61.4087 31.6122C61.0328 31.0797 60.5943 30.6959 60.6647 30.5158C60.8057 30.1791 61.1973 29.8501 61.5575 29.7483C61.7142 29.7013 62.2467 30.2495 62.2232 30.4845C62.1841 30.8212 61.7925 31.1188 61.4087 31.6122V31.6122Z" fill="black"/>
<path fill-rule="evenodd" clip-rule="evenodd" d="M57.5167 126.882C57.4462 125.308 57.3836 123.875 57.3287 122.45C57.3052 121.823 57.6577 121.455 58.2529 121.424C59.4041 121.361 60.5553 121.322 61.6987 121.393C61.9963 121.408 62.474 121.815 62.5132 122.097C62.709 123.46 62.8186 124.838 62.8891 126.217C62.8969 126.467 62.568 126.929 62.3566 126.961C60.7746 127.149 59.1848 127.282 57.5167 126.89V126.882ZM58.2059 122.411C58.3077 123.734 58.3938 124.854 58.4878 126.052H61.8867C61.7692 124.784 61.6674 123.624 61.5499 122.379C61.0095 122.356 60.5632 122.309 60.1168 122.317C59.5529 122.317 58.9969 122.371 58.198 122.411H58.2059Z" fill="black"/>
<path fill-rule="evenodd" clip-rule="evenodd" d="M91.1138 65.554C91.1138 73.6831 91.1138 81.8043 91.1138 89.9334C91.1138 93.5907 89.0228 95.8149 85.3185 95.9637C83.5955 96.0342 81.8648 96.0107 80.134 96.0107C71.7151 96.0107 63.3041 96.0107 54.8931 95.9559C53.8828 95.9559 52.8099 95.7601 51.8701 95.3998C49.4972 94.4992 48.4869 92.8937 48.4869 90.3563C48.4869 77.5597 48.5104 64.7708 48.5104 51.9742C48.5104 48.3403 48.4948 44.7144 48.4791 41.0805C48.4634 37.5485 50.6484 35.2696 54.2117 35.1678C56.1148 35.1129 58.0179 35.1286 59.9131 35.1286C68.2145 35.1286 76.508 35.1286 84.8094 35.1834C85.8745 35.1834 87.0101 35.3949 87.9812 35.8099C90.0487 36.6949 91.1608 38.2377 91.1373 40.6576C91.0668 48.959 91.1059 57.2526 91.1059 65.554H91.1138ZM83.7757 44.3854H78.1996C71.4645 44.3854 64.7294 44.3854 57.9865 44.3854C56.2558 44.3854 56.1148 44.5421 56.0991 46.2493C56.0835 47.9801 56.0835 49.703 56.0991 51.4338C56.107 52.5693 56.1618 53.7127 56.2009 54.8013C58.3781 55.2321 82.413 55.1694 83.7757 54.7308V44.3776V44.3854ZM58.0022 88.14C63.3198 88.5786 80.6196 88.4141 81.8961 87.9364V77.7006C81.2148 77.6615 80.6509 77.6066 80.0949 77.6066C73.4146 77.6066 66.7265 77.6066 60.0462 77.6066C59.7564 77.6066 59.4667 77.6223 59.1847 77.6066C58.3938 77.5832 58.01 77.9982 58.01 78.7579C58.0022 81.8591 58.01 84.9604 58.01 88.14H58.0022Z" fill="#A6DEB7"/>
<path fill-rule="evenodd" clip-rule="evenodd" d="M70.6344 107.131C68.4729 107.382 66.9849 105.87 66.891 103.568C66.8205 101.869 68.8253 100.091 70.7284 100.052C72.5923 100.012 74.4797 101.837 74.4484 103.646C74.4092 105.886 73.0387 107.139 70.6423 107.131H70.6344Z" fill="#565656"/>
<path fill-rule="evenodd" clip-rule="evenodd" d="M58.1978 122.403C58.9966 122.364 59.5526 122.317 60.1165 122.309C60.5629 122.309 61.0093 122.348 61.5496 122.371C61.6593 123.617 61.7689 124.784 61.8864 126.044H58.4875C58.3935 124.838 58.3074 123.719 58.2056 122.403H58.1978Z" fill="#E4CB48"/>
<path fill-rule="evenodd" clip-rule="evenodd" d="M83.7757 44.3854V54.7386C82.4052 55.1772 58.3781 55.2398 56.201 54.8091C56.1696 53.7127 56.1148 52.5771 56.0991 51.4416C56.0835 49.7186 56.0835 47.9879 56.0991 46.2571C56.1148 44.542 56.2636 44.3932 57.9865 44.3932C64.7216 44.3854 71.4567 44.3932 78.1996 44.3932H83.7757V44.3854ZM82.8829 45.4348H57.1486V54.026H82.8829V45.4348V45.4348Z" fill="black"/>
<path fill-rule="evenodd" clip-rule="evenodd" d="M58.002 88.14C58.002 84.9604 58.002 81.8591 58.002 78.7578C58.002 77.9982 58.3857 77.5831 59.1767 77.6066C59.4665 77.6066 59.7562 77.6066 60.0382 77.6066C66.7184 77.6066 73.4065 77.6066 80.0868 77.6066C80.6507 77.6066 81.2067 77.6693 81.888 77.7006V87.9363C80.6037 88.4141 63.3117 88.5864 57.9941 88.14H58.002ZM81.1519 87.2863V78.7892C79.4994 78.3819 60.2026 78.4211 58.9026 78.8126V87.2863H81.1519Z" fill="black"/>
<path fill-rule="evenodd" clip-rule="evenodd" d="M82.8827 45.4348V54.026H57.1484V45.4348H82.8827V45.4348Z" fill="#FFE159"/>
<path fill-rule="evenodd" clip-rule="evenodd" d="M81.1521 87.2785H58.9028V78.8048C60.2029 78.4132 79.4997 78.3819 81.1521 78.7813V87.2785V87.2785Z" fill="#FBA93D"/>
<path d="M65.9979 50.4626C66.1702 50.6898 66.2563 50.9795 66.2563 51.3319C66.2563 51.9506 66.0762 52.3892 65.7238 52.632C65.3714 52.8748 64.9485 53.0001 64.4551 53.0001H62.505C62.3719 53.0001 62.2544 52.9531 62.1683 52.8669C62.0821 52.7808 62.0352 52.6633 62.0352 52.5223V47.9957C62.0352 47.8626 62.0821 47.7451 62.1683 47.6511C62.2544 47.5572 62.3719 47.518 62.505 47.518H64.4786C65.4732 47.518 65.9666 47.9801 65.9666 48.912C65.9666 49.147 65.9117 49.3506 65.8021 49.5307C65.6925 49.7108 65.528 49.8518 65.3244 49.9536C65.5985 50.0632 65.8256 50.2277 65.9979 50.4548V50.4626ZM64.7918 48.5988C64.6822 48.4891 64.5334 48.4343 64.3454 48.4343H63.0533V49.656H64.3689C64.5256 49.656 64.6665 49.6012 64.784 49.4994C64.9015 49.3976 64.9563 49.2566 64.9563 49.0765C64.9563 48.865 64.9015 48.7006 64.7918 48.5909V48.5988ZM65.0346 51.8958C65.1756 51.7627 65.2382 51.5747 65.2382 51.3241C65.2382 51.0187 65.1599 50.8151 64.9955 50.7211C64.831 50.6271 64.6352 50.5801 64.4003 50.5801H63.0454V52.0916H64.4551C64.6979 52.0916 64.8937 52.0289 65.0346 51.8958Z" fill="black"/>
<path d="M71.3862 47.6433C71.4724 47.7294 71.5115 47.8469 71.5115 47.9879V50.8229C71.5115 51.2536 71.4175 51.6373 71.2374 51.9741C71.0573 52.3108 70.7989 52.5693 70.4699 52.7572C70.141 52.9452 69.7651 53.0392 69.3422 53.0392C68.9193 53.0392 68.5434 52.9452 68.2145 52.7572C67.8855 52.5693 67.6271 52.3108 67.4391 51.9741C67.2512 51.6373 67.165 51.2536 67.165 50.8229V47.9879C67.165 47.8547 67.212 47.7372 67.306 47.6511C67.4 47.565 67.5175 47.518 67.6663 47.518C67.7916 47.518 67.9012 47.565 67.9952 47.6511C68.0892 47.7372 68.1361 47.8547 68.1361 47.9879V50.8229C68.1361 51.0735 68.191 51.3006 68.3006 51.4964C68.4102 51.6922 68.559 51.8409 68.7392 51.9506C68.9271 52.0524 69.1229 52.1072 69.3344 52.1072C69.5615 52.1072 69.7729 52.0524 69.9687 51.9506C70.1645 51.8488 70.3211 51.6922 70.4386 51.4964C70.5561 51.3006 70.6187 51.0735 70.6187 50.8229V47.9879C70.6187 47.8469 70.6579 47.7294 70.7362 47.6433C70.8145 47.5571 70.9242 47.5101 71.0573 47.5101C71.1904 47.5101 71.3001 47.5571 71.3862 47.6433V47.6433Z" fill="black"/>
<path d="M76.4841 48.2698L74.8473 50.6114V52.5223C74.8473 52.6555 74.8003 52.7729 74.7142 52.8669C74.6281 52.9609 74.5184 53.0001 74.3931 53.0001C74.2678 53.0001 74.1503 52.9531 74.0642 52.8669C73.978 52.7808 73.9311 52.6633 73.9311 52.5223V50.5018L72.3021 48.3403C72.2081 48.215 72.1611 48.0897 72.1611 47.9722C72.1611 47.8391 72.216 47.7216 72.3256 47.6276C72.4352 47.5337 72.5449 47.4945 72.6702 47.4945C72.819 47.4945 72.9443 47.565 73.0539 47.7138L74.4323 49.6168L75.7245 47.7295C75.8341 47.5728 75.9672 47.4945 76.116 47.4945C76.2413 47.4945 76.351 47.5415 76.445 47.6355C76.5389 47.7295 76.5859 47.8469 76.5859 47.9801C76.5859 48.0819 76.5546 48.1837 76.4998 48.2698H76.4841Z" fill="black"/>
<path d="M66.2802 74.9283C66.3194 72.1403 66.3586 69.3444 66.4056 66.5564C66.429 65.1859 66.4447 63.8232 66.4682 62.4527C66.4839 61.6226 66.6797 61.2545 67.3297 60.7533C67.7917 60.393 68.3008 60.0797 68.8333 59.837C70.8225 58.9129 73.4226 59.0773 74.9106 60.8316C76.3124 62.4762 75.9208 65.0371 73.9551 66.016C72.937 66.5251 71.7466 66.6347 70.6267 66.7052C69.0526 66.807 67.4706 66.8618 65.8887 66.9401C64.8941 66.9871 64.8862 68.5456 65.8887 68.4908C67.5881 68.4046 69.2954 68.3576 70.987 68.2323C72.24 68.1384 73.4931 67.9504 74.6365 67.41C76.9859 66.2901 77.8865 63.5256 76.9076 61.1605C75.9287 58.7954 73.125 57.4719 70.5954 57.7616C69.1779 57.9183 67.8309 58.4821 66.6718 59.3123C66.1863 59.6647 65.6694 60.0484 65.3326 60.5496C64.8784 61.2231 64.9176 62.0063 64.9097 62.7816C64.8471 66.8305 64.7923 70.8794 64.7296 74.9283C64.7139 75.9307 66.2724 75.9307 66.2802 74.9283V74.9283Z" fill="#606060"/>
<path d="M59.9833 63.1888C66.5382 62.8129 73.0932 62.3744 79.6403 61.8731C80.6349 61.7948 80.6428 60.2442 79.6403 60.3225C73.0932 60.8316 66.5382 61.2701 59.9833 61.6382C58.9887 61.693 58.9808 63.2515 59.9833 63.1888V63.1888Z" fill="#606060"/>
<path d="M61.3778 66.7992C68.2225 66.0943 75.0594 65.3817 81.9041 64.6768C82.8909 64.575 82.8987 63.0165 81.9041 63.1262C75.0594 63.831 68.2225 64.5437 61.3778 65.2485C60.391 65.3503 60.3832 66.9088 61.3778 66.7992V66.7992Z" fill="#606060"/>
<path d="M62.3484 85.5556L62.3875 82.9555C62.3875 82.5326 62.3954 82.1019 62.4032 81.679C62.4032 81.4206 62.4658 81.3031 62.6695 81.1543C62.8104 81.0447 62.9749 80.9428 63.1393 80.8645C63.758 80.5748 64.5647 80.6296 65.0267 81.17C65.4653 81.679 65.34 82.4778 64.7291 82.7832C64.4159 82.9399 64.04 82.9712 63.6954 82.9947C63.202 83.026 62.7164 83.0417 62.2231 83.0652C61.9098 83.0808 61.9098 83.5664 62.2231 83.5507C62.7478 83.5272 63.2803 83.5116 63.805 83.4724C64.1966 83.4411 64.5803 83.3863 64.9406 83.214C65.6689 82.8694 65.9509 82.0079 65.6454 81.2718C65.34 80.5356 64.4707 80.1284 63.6797 80.2145C63.2412 80.2615 62.8183 80.4416 62.458 80.7001C62.3092 80.8097 62.1447 80.9272 62.0429 81.0838C61.902 81.2953 61.9176 81.538 61.9098 81.7808L61.855 85.5556C61.855 85.8689 62.3327 85.8689 62.3405 85.5556H62.3484Z" fill="#606060"/>
<path d="M60.3907 81.9061C62.4269 81.7887 64.4631 81.6555 66.4993 81.4989C66.8047 81.4754 66.8125 80.9898 66.4993 81.0133C64.4631 81.17 62.4269 81.3109 60.3907 81.4206C60.0853 81.4362 60.0774 81.9218 60.3907 81.9061V81.9061Z" fill="#606060"/>
<path d="M60.8214 83.026L67.204 82.3682C67.5095 82.3368 67.5173 81.8513 67.204 81.8826L60.8214 82.5405C60.5159 82.5718 60.5081 83.0573 60.8214 83.026V83.026Z" fill="#606060"/>
<path d="M68.4965 83.7465C70.7598 83.6917 73.0231 83.6369 75.2864 83.5821C75.7876 83.5664 75.7876 82.7911 75.2864 82.8068C73.0231 82.8616 70.7598 82.9164 68.4965 82.9712C67.9953 82.9869 67.9953 83.7622 68.4965 83.7465Z" fill="#606060"/>
<path d="M75.5449 83.582C76.0461 83.582 76.0461 82.8067 75.5449 82.8067C75.0436 82.8067 75.0436 83.582 75.5449 83.582Z" fill="#606060"/>
<path d="M75.4428 83.5507L76.6646 83.7152C76.7742 83.7308 76.8682 83.7308 76.9622 83.676C77.0405 83.629 77.1188 83.535 77.1423 83.4411C77.1658 83.3392 77.1579 83.2296 77.1031 83.1435C77.0561 83.0651 76.97 82.979 76.8682 82.9633L75.6465 82.7989C75.5368 82.7832 75.4428 82.7832 75.3489 82.838C75.2705 82.885 75.1922 82.979 75.1687 83.073C75.1452 83.1748 75.1531 83.2844 75.2079 83.3706C75.2549 83.4489 75.341 83.535 75.4428 83.5507Z" fill="#606060"/>
</svg>
