<svg width="141" height="141" viewBox="0 0 141 141" fill="none" xmlns="http://www.w3.org/2000/svg">
<circle cx="70.5" cy="70.5" r="70.5" fill="#008AFF"/>
<mask id="mask0_1007_1041" style="mask-type:alpha" maskUnits="userSpaceOnUse" x="0" y="0" width="141" height="141">
<circle cx="70.5" cy="70.5" r="70.5" fill="#FF7EB2"/>
</mask>
<g mask="url(#mask0_1007_1041)">
<path d="M69.6345 77.0802C64.7943 77.0802 60.2435 75.1987 56.821 71.7818C53.3986 68.3655 51.5132 63.8227 51.5132 58.9912C51.5132 54.1596 53.398 49.6169 56.821 46.2006C60.2435 42.7843 64.7943 40.9022 69.6345 40.9022C74.4747 40.9022 79.0256 42.7837 82.448 46.2006C85.8705 49.6169 87.7553 54.1596 87.7553 58.9912C87.7553 63.8227 85.8705 68.3655 82.448 71.7818C79.0256 75.1981 74.4747 77.0802 69.6345 77.0802Z" fill="#A1E7FF"/>
<path d="M69.6348 41.9928C79.0394 41.9928 86.6637 49.6035 86.6637 58.9913C86.6637 68.3791 79.0394 75.9898 69.6348 75.9898C60.2301 75.9898 52.6058 68.3791 52.6058 58.9913C52.6058 49.6035 60.2301 41.9928 69.6348 41.9928M69.6348 39.8119C67.0419 39.8119 64.5253 40.3194 62.1551 41.3202C59.867 42.2863 57.8121 43.6691 56.0483 45.4297C54.2845 47.1904 52.8993 49.2416 51.9315 51.5256C50.9288 53.8916 50.4204 56.4037 50.4204 58.9919C50.4204 61.5801 50.9288 64.0922 51.9315 66.4582C52.8993 68.7422 54.2845 70.7934 56.0483 72.554C57.8121 74.3147 59.867 75.6975 62.1551 76.6635C64.5253 77.6644 67.0419 78.1719 69.6348 78.1719C72.2276 78.1719 74.7442 77.6644 77.1144 76.6635C79.4025 75.6975 81.4574 74.3147 83.2212 72.554C84.985 70.7934 86.3702 68.7422 87.338 66.4582C88.3407 64.0922 88.8491 61.5801 88.8491 58.9919C88.8491 56.4037 88.3407 53.8916 87.338 51.5256C86.3702 49.2416 84.985 47.1904 83.2212 45.4297C81.4574 43.6691 79.4025 42.2863 77.1144 41.3202C74.7442 40.3194 72.2276 39.8119 69.6348 39.8119V39.8119Z" fill="#3B5C91"/>
<path d="M69.6344 84.3025C66.2125 84.3025 62.8917 83.6329 59.7633 82.312C56.7435 81.0371 54.032 79.2122 51.7043 76.8893C49.3767 74.5658 47.5491 71.8591 46.2719 68.8448C44.9486 65.722 44.2778 62.4064 44.2778 58.9913C44.2778 55.5761 44.9486 52.2606 46.2719 49.1378C47.5491 46.1235 49.3772 43.4168 51.7043 41.0933C54.032 38.7698 56.7435 36.9455 59.7633 35.6706C62.8917 34.3496 66.2131 33.6801 69.6344 33.6801C73.0556 33.6801 76.3771 34.3496 79.5055 35.6706C82.5252 36.9455 85.2367 38.7704 87.5644 41.0933C89.8921 43.4168 91.7197 46.1235 92.9969 49.1378C94.3201 52.2606 94.9909 55.5761 94.9909 58.9913C94.9909 62.4064 94.3201 65.722 92.9969 68.8448C91.7197 71.8591 89.8915 74.5658 87.5644 76.8893C85.2367 79.2128 82.5252 81.0371 79.5055 82.312C76.3771 83.6329 73.0556 84.3025 69.6344 84.3025V84.3025ZM69.6344 40.8616C59.6198 40.8616 51.4729 48.9946 51.4729 58.9907C51.4729 68.9868 59.6204 77.1198 69.6344 77.1198C79.6484 77.1198 87.7959 68.9868 87.7959 58.9907C87.7959 48.9946 79.6484 40.8616 69.6344 40.8616V40.8616Z" fill="#FFD385"/>
<path d="M94.0032 48.7128C92.671 45.5682 90.7644 42.7455 88.3369 40.3223C85.9094 37.8992 83.081 35.9959 79.9314 34.6662C76.6678 33.2881 73.2034 32.5896 69.6345 32.5896C66.0656 32.5896 62.6018 33.2881 59.3376 34.6662C56.1874 35.9959 53.3596 37.8992 50.9321 40.3223C48.5046 42.7455 46.598 45.5688 45.2658 48.7128C43.8853 51.9706 43.1855 55.4288 43.1855 58.9913C43.1855 62.5538 43.8853 66.0114 45.2658 69.2697C46.598 72.4143 48.5046 75.2371 50.9321 77.6602C53.3596 80.0834 56.188 81.9866 59.3376 83.3164C62.6012 84.6945 66.0656 85.393 69.6345 85.393C73.2034 85.393 76.6672 84.6945 79.9314 83.3164C83.0816 81.9866 85.9094 80.0834 88.3369 77.6602C90.7644 75.2371 92.671 72.4137 94.0032 69.2697C95.3837 66.012 96.0834 62.5538 96.0834 58.9913C96.0834 55.4288 95.3837 51.9712 94.0032 48.7128V48.7128ZM91.9908 68.4198C90.7685 71.3044 89.0195 73.8944 86.7916 76.1177C84.5643 78.341 81.9691 80.0875 79.0799 81.3076C76.0867 82.5714 72.9087 83.2121 69.6345 83.2121C66.3603 83.2121 63.1823 82.5714 60.1891 81.3076C57.2993 80.0875 54.7047 78.3416 52.4774 76.1177C50.2501 73.8944 48.5005 71.3038 47.2782 68.4198C46.0122 65.432 45.3703 62.2597 45.3703 58.9913C45.3703 55.7229 46.0122 52.55 47.2782 49.5628C48.5005 46.6781 50.2495 44.0882 52.4774 41.8648C54.7053 39.6415 57.2999 37.895 60.1891 36.6749C63.1823 35.4112 66.3603 34.7705 69.6345 34.7705C72.9087 34.7705 76.0867 35.4112 79.0799 36.6749C81.9697 37.895 84.5643 39.6409 86.7916 41.8648C89.0189 44.0888 90.7685 46.6787 91.9908 49.5628C93.2568 52.5506 93.8987 55.7229 93.8987 58.9913C93.8987 62.2597 93.2568 65.432 91.9908 68.4198Z" fill="#3B5C91"/>
<path d="M69.6348 90.9389C65.3154 90.9389 61.1236 90.0937 57.1762 88.4268C53.3646 86.8176 49.9422 84.5141 47.0039 81.5817C44.0657 78.6487 41.7586 75.2324 40.146 71.4276C38.4761 67.4867 37.6294 63.3024 37.6294 58.9913C37.6294 54.6802 38.4761 50.4953 40.146 46.5549C41.7581 42.7502 44.0657 39.3339 47.0039 36.4009C49.9422 33.4679 53.3646 31.165 57.1762 29.5552C61.1242 27.8883 65.316 27.0431 69.6348 27.0431C73.9536 27.0431 78.1454 27.8883 82.0934 29.5552C85.905 31.1644 89.3274 33.4679 92.2657 36.4009C95.2039 39.3339 97.5109 42.7502 99.1236 46.5549C100.793 50.4959 101.64 54.6802 101.64 58.9913C101.64 63.3024 100.793 67.4873 99.1236 71.4276C97.5115 75.2324 95.2039 78.6487 92.2657 81.5817C89.3274 84.5147 85.905 86.8176 82.0934 88.4268C78.1454 90.0937 73.9536 90.9389 69.6348 90.9389ZM69.6348 33.6524C55.638 33.6524 44.2511 45.0189 44.2511 58.9907C44.2511 72.9625 55.6386 84.329 69.6348 84.329C83.631 84.329 95.0185 72.9625 95.0185 58.9907C95.0185 45.0189 83.6316 33.6524 69.6348 33.6524V33.6524Z" fill="#FF9494"/>
<path d="M100.129 46.13C98.4616 42.1949 96.0761 38.6625 93.038 35.6299C90 32.5973 86.4606 30.2154 82.5192 28.5514C78.436 26.8274 74.1012 25.9532 69.6348 25.9532C65.1684 25.9532 60.8336 26.8274 56.7504 28.5514C52.809 30.2154 49.2696 32.5973 46.2316 35.6299C43.1935 38.6625 40.8074 42.1955 39.1405 46.13C37.4133 50.2059 36.5376 54.5334 36.5376 58.9913C36.5376 63.4491 37.4133 67.7767 39.1405 71.8526C40.808 75.7876 43.1935 79.3201 46.2316 82.3527C49.2696 85.3853 52.809 87.7672 56.7504 89.4312C60.8336 91.1552 65.1684 92.0294 69.6348 92.0294C74.1012 92.0294 78.436 91.1552 82.5192 89.4312C86.4606 87.7666 90 85.3853 93.038 82.3527C96.0761 79.3201 98.4622 75.7871 100.129 71.8526C101.856 67.7767 102.732 63.4497 102.732 58.9913C102.732 54.5329 101.856 50.2059 100.129 46.13V46.13ZM98.1168 71.0033C96.5597 74.6778 94.3312 77.978 91.4927 80.8108C88.6543 83.6441 85.3488 85.8686 81.6677 87.423C77.8549 89.0327 73.8066 89.8491 69.6342 89.8491C65.4619 89.8491 61.4135 89.0327 57.6007 87.423C53.9197 85.8686 50.6135 83.6441 47.7757 80.8108C44.9372 77.9774 42.7087 74.6778 41.1516 71.0033C39.539 67.1973 38.7212 63.1562 38.7212 58.9913C38.7212 54.8264 39.539 50.7853 41.1516 46.9793C42.7087 43.3048 44.9372 40.0046 47.7757 37.1718C50.6141 34.339 53.9197 32.114 57.6007 30.5596C61.4135 28.9499 65.4619 28.1335 69.6342 28.1335C73.8066 28.1335 77.8549 28.9499 81.6677 30.5596C85.3488 32.114 88.6549 34.3385 91.4927 37.1718C94.3312 40.0052 96.5597 43.3048 98.1168 46.9793C99.7294 50.7853 100.547 54.8264 100.547 58.9913C100.547 63.1562 99.7294 67.1973 98.1168 71.0033V71.0033Z" fill="#3B5C91"/>
<path d="M69.6349 97.2675C64.4599 97.2675 59.4378 96.2549 54.708 94.2585C52.4353 93.2989 50.2434 92.1112 48.1932 90.729C46.1631 89.3598 44.2547 87.7884 42.5205 86.0566C40.7862 84.3255 39.2114 82.4204 37.8403 80.394C36.455 78.3475 35.2658 76.1595 34.3045 73.8908C32.3039 69.1701 31.29 64.157 31.29 58.9907C31.29 53.8243 32.3045 48.8118 34.3045 44.0905C35.2658 41.8218 36.4556 39.6338 37.8403 37.5873C39.2114 35.5609 40.7862 33.6558 42.5205 31.9247C44.2547 30.1935 46.1637 28.6215 48.1932 27.2529C50.2434 25.8701 52.4353 24.683 54.708 23.7234C59.4372 21.7264 64.4593 20.7144 69.6349 20.7144C74.8105 20.7144 79.8319 21.727 84.5617 23.7234C86.8345 24.683 89.0264 25.8707 91.0765 27.2529C93.106 28.6215 95.0151 30.1935 96.7493 31.9247C98.4836 33.6558 100.058 35.5609 101.429 37.5873C102.815 39.6338 104.004 41.8218 104.965 44.0905C106.966 48.8112 107.98 53.8243 107.98 58.9907C107.98 64.157 106.965 69.1695 104.965 73.8908C104.004 76.1595 102.814 78.3475 101.429 80.394C100.058 82.4204 98.4836 84.3255 96.7493 86.0566C95.0151 87.7878 93.106 89.3598 91.0765 90.7284C89.0264 92.1112 86.8345 93.2983 84.5617 94.2579C79.8325 96.2549 74.8105 97.267 69.6349 97.267V97.2675ZM69.6349 26.9611C51.9422 26.9611 37.548 41.3296 37.548 58.9907C37.548 76.6517 51.9422 91.0202 69.6349 91.0202C87.3275 91.0202 101.722 76.6517 101.722 58.9907C101.722 41.3296 87.3275 26.9617 69.6349 26.9617V26.9611Z" fill="white"/>
<g style="mix-blend-mode:multiply">
<path d="M92.6895 35.2113C86.7505 29.6412 78.7618 26.2249 69.989 26.2249C51.694 26.2249 36.8097 41.082 36.8097 59.3449C36.8097 68.102 40.2321 76.0764 45.8122 82.0049C39.3659 75.9591 35.3335 67.3764 35.3335 57.8713C35.3335 39.6085 50.2178 24.7513 68.5128 24.7513C78.0349 24.7513 86.6335 28.776 92.6895 35.2113V35.2113Z" fill="#C1D9E0"/>
</g>
<path d="M105.972 43.6667C104.983 41.3331 103.759 39.0827 102.335 36.9779C100.925 34.8942 99.305 32.935 97.5218 31.1543C95.7379 29.3742 93.7751 27.7574 91.6878 26.3499C89.5792 24.9282 87.3247 23.7063 84.987 22.7196C80.1226 20.6654 74.957 19.6239 69.635 19.6239C64.313 19.6239 59.1474 20.6654 54.283 22.7196C51.9453 23.7063 49.6908 24.9282 47.5822 26.3499C45.4948 27.7574 43.5321 29.3742 41.7482 31.1543C39.9649 32.935 38.3452 34.8942 36.9352 36.9779C35.5109 39.0827 34.2874 41.3326 33.2984 43.6667C31.2405 48.5224 30.1978 53.6787 30.1978 58.9912C30.1978 64.3037 31.2405 69.4595 33.2984 74.3158C34.2874 76.6493 35.5109 78.8998 36.9352 81.0046C38.3452 83.0882 39.9649 85.0475 41.7482 86.8276C43.5321 88.6082 45.4948 90.2245 47.5822 91.6326C49.6908 93.0543 51.9453 94.2756 54.283 95.2629C59.1474 97.3165 64.313 98.358 69.635 98.358C73.3119 98.358 76.9145 97.8605 80.3948 96.8762C81.9513 96.4359 83.4836 95.8977 84.987 95.2629C87.3247 94.2756 89.5792 93.0543 91.6878 91.6326C93.7751 90.2245 95.7379 88.6082 97.5218 86.8276C99.305 85.0475 100.925 83.0882 102.335 81.0046C103.759 78.8998 104.983 76.6493 105.972 74.3158C106.608 72.8139 107.148 71.2832 107.589 69.7277C108.575 66.2553 109.073 62.6604 109.073 58.9912C109.073 53.6787 108.029 48.5224 105.972 43.6667V43.6667ZM105.803 67.9452C105.337 69.8237 104.722 71.6669 103.959 73.4664C103.026 75.6703 101.87 77.7958 100.524 79.7839C99.1922 81.7526 97.6617 83.6034 95.9765 85.2856C94.2912 86.9679 92.4371 88.4951 90.4649 89.8254C88.4732 91.1681 86.3439 92.3222 84.1361 93.2541C82.3345 94.0145 80.4893 94.6281 78.6086 95.0931C75.6928 95.814 72.6913 96.1771 69.635 96.1771C64.607 96.1771 59.7278 95.1939 55.1339 93.2541C52.9261 92.3222 50.7968 91.1681 48.8051 89.8254C46.8329 88.4951 44.9787 86.9679 43.2935 85.2856C41.6083 83.6034 40.0783 81.7526 38.7456 79.7839C37.3999 77.7958 36.2443 75.6703 35.3108 73.4664C33.3675 68.8807 32.3825 64.0102 32.3825 58.9912C32.3825 53.9722 33.3675 49.1018 35.3108 44.5161C36.2443 42.3122 37.3999 40.1867 38.7456 38.1986C40.0783 36.2299 41.6083 34.3791 43.2935 32.6962C44.9787 31.014 46.8329 29.4868 48.8051 28.1571C50.7968 26.8137 52.9261 25.6602 55.1339 24.7278C59.7278 22.7885 64.607 21.8048 69.635 21.8048C74.663 21.8048 79.5421 22.7885 84.1361 24.7278C86.3439 25.6602 88.4732 26.8137 90.4649 28.1571C92.4371 29.4868 94.2912 31.014 95.9765 32.6962C97.6617 34.3791 99.1922 36.2299 100.524 38.1986C101.87 40.1867 103.026 42.3122 103.959 44.5161C105.902 49.1018 106.888 53.9717 106.888 58.9912C106.888 62.0409 106.524 65.0358 105.803 67.9452V67.9452Z" fill="#3B5C91"/>
<path d="M92.3354 34.8576C86.3963 29.2875 78.4077 25.8712 69.6349 25.8712C51.3399 25.8712 36.4556 40.7283 36.4556 58.9912C36.4556 67.7483 39.878 75.7227 45.4581 81.6512C51.5147 88.086 60.1127 92.1112 69.6349 92.1112C71.5173 92.1112 73.3632 91.9538 75.1606 91.6514C89.0387 89.3196 100.02 78.3569 102.355 64.5029C102.657 62.7099 102.814 60.8685 102.814 58.9912C102.814 49.4861 98.7817 40.9028 92.3354 34.8576V34.8576ZM100.629 58.9912C100.629 60.2031 100.559 61.3984 100.423 62.5743C98.7746 76.7754 87.4551 88.0765 73.2291 89.7234C72.0499 89.8602 70.8501 89.9303 69.6349 89.9303C60.715 89.9303 52.6632 86.1497 47.0028 80.1092C41.8183 74.5763 38.6404 67.1471 38.6404 58.9912C38.6404 41.9314 52.5445 28.0521 69.6349 28.0521C77.8054 28.0521 85.2478 31.2244 90.7907 36.3996C96.842 42.0498 100.629 50.0873 100.629 58.9912Z" fill="#3B5C91"/>
<g style="mix-blend-mode:color-burn">
<path d="M82.839 45.0442C79.4284 41.9868 74.9224 40.1248 69.9889 40.1248C59.372 40.1248 50.735 48.747 50.735 59.3449C50.735 64.2702 52.6003 68.7681 55.6632 72.172C55.6006 72.1166 55.5386 72.06 55.4772 72.0035C55.088 71.6457 54.7137 71.272 54.3553 70.8835C51.1926 67.4584 49.2588 62.8862 49.2588 57.8713C49.2588 47.2734 57.8958 38.6512 68.5127 38.6512C73.5684 38.6512 78.1754 40.6064 81.6143 43.7999C81.958 44.1182 82.2899 44.45 82.6093 44.7931C82.6867 44.8762 82.7634 44.9599 82.839 45.0442Z" fill="#B3B3B3"/>
</g>
<path d="M83.7314 45.913C83.4119 45.5699 83.0801 45.2381 82.7364 44.9198C79.2974 41.7263 74.6905 39.7711 69.6348 39.7711C59.0179 39.7711 50.3809 48.3933 50.3809 58.9912C50.3809 64.0061 52.3147 68.5783 55.4773 72.0034C55.8357 72.3919 56.2101 72.7655 56.5992 73.1233C60.0305 76.2803 64.6109 78.2107 69.6348 78.2107C80.2517 78.2107 88.8887 69.5891 88.8887 58.9912C88.8887 53.9445 86.93 49.3458 83.7314 45.913V45.913ZM69.6348 76.0298C60.2225 76.0298 52.5656 68.3861 52.5656 58.9912C52.5656 49.5963 60.2225 41.952 69.6348 41.952C79.0471 41.952 86.7039 49.5957 86.7039 58.9912C86.7039 68.3867 79.0471 76.0298 69.6348 76.0298Z" fill="#3B5C91"/>
<g style="mix-blend-mode:color-burn">
<path d="M87.9479 39.942C83.2246 35.5826 76.913 32.9155 69.9889 32.9155C55.3898 32.9155 43.5128 44.7718 43.5128 59.3448C43.5128 66.2577 46.1854 72.5592 50.5538 77.2735C45.3191 72.4425 42.0366 65.5327 42.0366 57.8713C42.0366 43.2982 53.9136 31.4419 68.5127 31.4419C76.1867 31.4419 83.1083 34.7173 87.9479 39.942V39.942Z" fill="#B3B3B3"/>
</g>
<path d="M87.5938 39.5885C82.8705 35.2291 76.5588 32.5619 69.6348 32.5619C55.0357 32.5619 43.1587 44.4182 43.1587 58.9913C43.1587 65.9041 45.8312 72.2057 50.1996 76.9199C55.0392 82.1446 61.9609 85.4201 69.6348 85.4201C84.2339 85.4201 96.1109 73.5643 96.1109 58.9913C96.1109 51.3299 92.8284 44.42 87.5938 39.5885V39.5885ZM93.9261 58.9913C93.9261 72.3619 83.0293 83.2392 69.6348 83.2392C62.5638 83.2392 56.1883 80.2077 51.7461 75.3786C47.7716 71.0592 45.3435 65.3035 45.3435 58.9913C45.3435 45.6207 56.2403 34.7428 69.6348 34.7428C75.9571 34.7428 81.7238 37.1665 86.0491 41.1322C90.8887 45.5676 93.9261 51.9317 93.9261 58.9913V58.9913Z" fill="#3B5C91"/>
<g style="mix-blend-mode:multiply">
<path d="M107.589 69.7276C107.148 71.2831 106.608 72.8139 105.971 74.3157C104.983 76.6493 103.759 78.8997 102.335 81.0046C100.924 83.0882 99.3048 85.0475 97.5215 86.8275C95.7377 88.6082 93.7749 90.2244 91.6876 91.6326C89.5789 93.0543 87.3245 94.2756 84.9868 95.2629C83.4834 95.8977 81.9511 96.4358 80.3946 96.8761L55.4773 72.0034C55.4206 71.9421 55.3645 71.8808 55.309 71.8183C52.2462 68.4144 50.3809 63.9165 50.3809 58.9912C50.3809 48.3933 59.0179 39.7711 69.6348 39.7711C74.5683 39.7711 79.0742 41.6331 82.4849 44.6905C82.5693 44.7659 82.6532 44.8426 82.7364 44.9198L107.589 69.7276V69.7276Z" fill="#C1D9E0"/>
</g>
<path d="M52.7993 23.1451C50.5761 22.9123 48.4509 24.0399 46.8466 25.484C46.0494 26.2019 45.3716 27.0412 44.7143 27.8853C44.5289 28.1234 44.3447 28.3627 44.1605 28.602C44.0772 28.7099 43.9945 28.8178 43.9113 28.9256C44.0808 28.7064 43.8062 29.06 43.7991 29.0689C43.4637 29.4968 43.1212 29.9188 42.7587 30.3243C41.338 31.9117 39.6143 33.1825 38.1009 34.6749C36.5964 36.1591 35.3617 37.9032 34.4063 39.7847C32.4565 43.6224 31.3287 47.937 30.6473 52.1691C29.9345 56.5946 29.768 61.0884 30.3615 65.5374C31.4054 73.3656 34.7989 80.9274 40.5367 86.4538C41.9355 87.8013 43.4731 89.0196 45.107 90.0706C46.9198 91.237 48.8548 92.1943 50.791 93.1356C52.7302 94.0781 54.6605 95.0247 56.5246 96.1104C58.4171 97.2127 60.335 98.2436 62.5263 98.5878C64.6957 98.9285 66.9059 98.8914 69.0948 98.823C71.0942 98.7605 73.0924 98.6179 75.0776 98.3691C79.1 97.8658 83.0734 96.9875 86.8235 95.4232C90.7178 93.7987 94.2235 91.5135 97.2361 88.554C100.249 85.5945 102.775 82.2465 104.878 78.664C109.065 71.5277 111.394 63.1384 109.88 54.8835C109.084 50.5441 107.257 46.4558 105.261 42.5485C103.274 38.6606 101.213 34.748 98.4236 31.3635C93.3802 25.2441 85.7896 21.5489 78.1239 19.948C70.2776 18.3094 61.8407 18.7114 54.3953 21.8101C52.5595 22.5739 50.7904 23.4663 49.114 24.5373C48.4905 24.9358 48.1793 25.8129 48.6056 26.473C49.0078 27.096 49.8764 27.4073 50.5448 26.9805C51.3573 26.4618 52.1911 25.9779 53.0467 25.5346C53.4547 25.323 53.8674 25.1203 54.2843 24.9269C54.5117 24.8214 54.7396 24.7183 54.9693 24.6181C55.046 24.5845 55.1228 24.5515 55.199 24.5185C55.3501 24.4542 55.3525 24.453 55.2067 24.5149C55.284 24.4831 55.3608 24.4513 55.4381 24.42C57.219 23.6962 59.0625 23.1274 60.9385 22.7066C61.839 22.5044 62.7465 22.3364 63.6594 22.2014C63.784 22.1832 63.9086 22.1655 64.0338 22.1478C63.6972 22.1949 64.1141 22.1384 64.1572 22.1325C64.3656 22.1065 64.5747 22.0824 64.7837 22.0594C65.2856 22.0052 65.7893 21.9604 66.293 21.9256C68.2292 21.7912 70.1748 21.7977 72.1104 21.938C72.574 21.9716 73.0363 22.0128 73.4987 22.0611C73.7089 22.0835 73.9185 22.1071 74.1281 22.1325C74.2539 22.1478 74.3797 22.1637 74.5048 22.1796C74.1677 22.1372 74.6979 22.2067 74.7552 22.215C75.6734 22.3482 76.5869 22.5109 77.4939 22.703C79.3598 23.0985 81.2009 23.6172 82.9966 24.2615C83.4247 24.4153 83.8498 24.5762 84.2726 24.7442C84.3878 24.7902 84.5029 24.8368 84.6175 24.8833C84.6092 24.8798 84.9842 25.0354 84.7917 24.9547C84.5992 24.8739 84.9729 25.0325 84.9647 25.0289C85.1164 25.0943 85.2676 25.161 85.4182 25.2287C86.2838 25.6166 87.1347 26.0368 87.9673 26.4919C88.7786 26.9357 89.5728 27.4114 90.3446 27.9207C90.7042 28.1576 91.0585 28.4022 91.408 28.6539C91.6076 28.7977 91.8042 28.9451 92.0009 29.0918C92.328 29.3359 91.7842 28.9168 92.103 29.1708C92.1993 29.2475 92.2961 29.3229 92.3918 29.4001C93.881 30.5978 95.2509 31.9411 96.4626 33.4183C96.6084 33.5957 96.7519 33.7749 96.893 33.9564C96.7259 33.7424 97.0017 34.1008 97.0064 34.1073C97.0891 34.2175 97.1712 34.3277 97.2526 34.4391C97.5786 34.8836 97.8927 35.3363 98.198 35.7948C98.7708 36.6572 99.3105 37.5413 99.8283 38.4372C100.878 40.2527 101.859 42.1106 102.813 43.9779C103.297 44.9257 103.768 45.8799 104.216 46.8454C104.429 47.3064 104.637 47.7702 104.839 48.2371C104.843 48.2465 105.02 48.6656 104.912 48.4086C104.948 48.4935 104.983 48.5789 105.019 48.6638C105.141 48.9621 105.262 49.2615 105.378 49.5621C106.125 51.4884 106.738 53.47 107.121 55.5012C107.173 55.7723 107.22 56.0446 107.263 56.3175C107.279 56.4231 107.293 56.5297 107.31 56.6352C107.351 56.8828 107.27 56.2951 107.32 56.7036C107.382 57.2111 107.434 57.7192 107.469 58.2291C107.536 59.2016 107.55 60.1777 107.513 61.1514C107.496 61.6165 107.467 62.0816 107.428 62.5449C107.41 62.7559 107.389 62.9663 107.367 63.1767C107.353 63.3029 107.339 63.429 107.324 63.5551C107.314 63.6394 107.303 63.7231 107.293 63.8074C107.316 63.6412 107.316 63.6418 107.293 63.8092C107.155 64.7552 106.981 65.6948 106.764 66.6255C106.321 68.5228 105.713 70.3801 104.973 72.182C104.962 72.2085 104.796 72.6023 104.916 72.3211C104.865 72.4402 104.814 72.5587 104.762 72.6771C104.676 72.8746 104.588 73.0715 104.498 73.2677C104.284 73.7393 104.059 74.2067 103.826 74.6706C103.38 75.56 102.903 76.4341 102.398 77.2924C101.412 78.9669 100.317 80.5731 99.141 82.1204C98.8824 82.4605 99.3164 81.8999 99.0448 82.2453C98.9621 82.3502 98.8794 82.4557 98.7962 82.5607C98.6574 82.7357 98.5175 82.9096 98.3769 83.0823C98.0386 83.4978 97.6937 83.9075 97.3412 84.3113C96.6663 85.0846 95.9648 85.8343 95.2326 86.554C94.5016 87.272 93.7398 87.9592 92.9445 88.6064C92.7715 88.7473 92.5979 88.8864 92.4213 89.0226C92.6457 88.8487 92.2961 89.1163 92.2825 89.1257C92.1774 89.2047 92.0717 89.2825 91.9654 89.3597C91.5574 89.6562 91.1417 89.9421 90.7183 90.2167C89.9466 90.7178 89.1512 91.1822 88.3375 91.6113C87.9313 91.8253 87.5203 92.0298 87.1052 92.2267C86.879 92.334 86.6511 92.4383 86.422 92.5403C86.3263 92.5827 86.2313 92.6246 86.135 92.6664C86.0777 92.6912 86.0199 92.7165 85.9626 92.7407C86.109 92.68 86.1061 92.6806 85.9543 92.7442C84.1669 93.4781 82.3288 94.0728 80.4534 94.5378C79.5092 94.7719 78.5567 94.9746 77.5996 95.1485C77.1608 95.2281 76.7215 95.3023 76.281 95.3707C76.0501 95.4067 75.8187 95.4409 75.5872 95.4739C75.547 95.4798 75.126 95.5363 75.4579 95.4927C75.3315 95.5092 75.2046 95.5257 75.0782 95.5416C73.1349 95.7845 71.1798 95.9265 69.223 95.9914C68.2363 96.0238 67.249 96.0379 66.2617 96.0315C65.7462 96.0285 65.2307 96.0185 64.7158 95.9914C64.482 95.979 64.2487 95.9637 64.0155 95.9436C63.8761 95.9318 63.7362 95.9183 63.5968 95.903C63.5041 95.8929 63.4114 95.8817 63.3187 95.87C63.4646 95.8894 63.4516 95.8865 63.2803 95.8617C62.7749 95.7727 62.2747 95.6754 61.7817 95.531C61.5614 95.4662 61.3441 95.3943 61.1286 95.3153C61.0011 95.2687 60.8747 95.2192 60.7489 95.1679C60.9946 95.2687 60.6379 95.1173 60.5895 95.0949C59.6388 94.6604 58.7395 94.1252 57.8373 93.6007C54.2318 91.5029 50.3015 90.0034 46.7698 87.7771C46.3807 87.5319 45.9975 87.2779 45.6213 87.0138C45.4277 86.8776 45.2357 86.7397 45.0456 86.5982C44.9505 86.5281 44.8567 86.4562 44.7622 86.3855C44.5213 86.2039 44.9322 86.524 44.6754 86.3171C43.9697 85.7489 43.2818 85.163 42.6264 84.537C41.971 83.911 41.3468 83.2562 40.7516 82.5742C40.467 82.2477 40.1889 81.9152 39.9178 81.5769C39.8564 81.5003 39.7962 81.4219 39.7342 81.3453C39.5866 81.1625 39.9326 81.6087 39.7023 81.3046C39.5358 81.0841 39.3699 80.8637 39.2081 80.6397C38.1647 79.198 37.2418 77.6708 36.4434 76.0811C36.248 75.6921 36.0596 75.2989 35.8795 74.9022C35.7809 74.6859 35.6858 74.4684 35.5908 74.2503C35.4833 74.0039 35.5742 74.212 35.5943 74.2603C35.5335 74.1142 35.4727 73.9674 35.4136 73.8206C35.0735 72.976 34.7665 72.1178 34.4937 71.2489C33.889 69.3256 33.4851 67.3634 33.1745 65.3741C33.1332 65.1077 33.2153 65.7089 33.1586 65.2598C33.1409 65.1195 33.1232 64.9792 33.1066 64.8389C33.0789 64.6049 33.0535 64.3703 33.0299 64.1357C32.9738 63.5728 32.9289 63.0087 32.8958 62.4435C32.8326 61.3595 32.812 60.2738 32.8309 59.1881C32.8498 58.1006 32.9094 57.0137 33.0062 55.9309C33.0529 55.4122 33.1078 54.8941 33.171 54.3771C33.1881 54.2363 33.2058 54.0948 33.2247 53.9539C33.2164 54.0164 33.1905 54.1968 33.2318 53.9074C33.2784 53.5791 33.3275 53.2507 33.38 52.9236C33.7189 50.8188 34.1925 48.7363 34.786 46.6892C35.0635 45.7314 35.3676 44.7813 35.713 43.8452C35.8028 43.6018 35.8955 43.3595 35.9911 43.1185C36.023 43.0383 36.0549 42.9582 36.088 42.878C36.0986 42.8521 36.2645 42.4565 36.1447 42.7377C36.3472 42.262 36.5645 41.7929 36.796 41.3307C37.2376 40.4495 37.7348 39.5949 38.2999 38.7868C38.4227 38.6111 38.5491 38.439 38.6772 38.2675C38.9288 37.9291 38.5013 38.4726 38.7717 38.1484C38.8538 38.0494 38.9341 37.9486 39.0174 37.8502C39.3468 37.46 39.6958 37.0863 40.0584 36.7267C41.5192 35.2773 43.182 34.0425 44.5815 32.5294C45.3403 31.7089 46.011 30.8112 46.6913 29.9265C46.9635 29.5722 46.5265 30.1345 46.8029 29.7827C46.859 29.7113 46.9145 29.64 46.9706 29.5687C47.1389 29.3559 47.3095 29.1443 47.4837 28.9356C47.8291 28.5225 48.1893 28.1199 48.5767 27.745C48.7273 27.5994 48.8814 27.458 49.0408 27.3224C49.1371 27.2405 49.2339 27.1597 49.3337 27.0819C49.094 27.2699 49.427 27.0182 49.4524 27.0006C49.8321 26.7341 50.2324 26.5137 50.6458 26.305C50.6954 26.2803 50.8961 26.2054 50.6493 26.2997C50.765 26.2555 50.8802 26.2113 50.9977 26.1724C51.2321 26.0946 51.4707 26.0451 51.7098 25.9861C51.7694 25.9714 51.9879 25.9467 51.6956 25.9808C51.8173 25.9667 51.9389 25.9567 52.0611 25.9514C52.3086 25.9408 52.5542 25.9531 52.8004 25.9791C53.5403 26.0563 54.2495 25.2729 54.2176 24.5644C54.1804 23.7316 53.5929 23.2329 52.8004 23.1498L52.7993 23.1451Z" fill="black"/>
<path d="M116.058 94.3205H114.934C111.421 94.3205 108.485 96.908 107.942 100.267C107.883 100.633 107.852 101.008 107.852 101.389V91.3792C107.852 87.4913 104.666 84.3102 100.771 84.3102H99.6465C95.7516 84.3102 92.5648 87.4913 92.5648 91.3792V85.5173C92.5648 81.6295 89.3779 78.4483 85.4831 78.4483H84.3588C80.464 78.4483 77.2772 81.6295 77.2772 85.5173V59.5978C77.2772 55.71 74.0903 52.5288 70.1955 52.5288H69.0712C65.1764 52.5288 61.9895 55.71 61.9895 59.5978V117.645L58.0888 110.81C56.1609 107.432 51.8143 106.243 48.4303 108.167L47.4536 108.723C44.0695 110.647 42.8779 114.986 44.8059 118.364L63.5012 151.122C63.7403 151.541 64.0161 151.926 64.3231 152.276C67.8637 159.189 75.0688 163.922 83.3804 163.922H101.749C113.562 163.922 123.139 154.362 123.139 142.57V101.391C123.139 97.5028 119.952 94.3216 116.057 94.3216L116.058 94.3205Z" fill="#FFD385"/>
<path d="M61.9213 119.019C62.6623 119.019 63.3727 118.368 63.3384 117.604C63.3042 116.84 62.7155 116.189 61.9213 116.189C61.1802 116.189 60.4699 116.84 60.5041 117.604C60.5384 118.368 61.1271 119.019 61.9213 119.019Z" fill="black"/>
<path d="M63.0042 117.136C62.944 108.895 63.0273 100.654 63.2575 92.416C63.4884 84.141 63.8669 75.8707 64.3913 67.6093C64.5229 65.5345 64.6641 63.4609 64.8141 61.3873C64.8849 60.413 64.9528 59.438 65.0325 58.4637C65.0969 57.681 65.1341 57.3267 65.2841 56.5752C65.3538 56.2257 65.437 55.8785 65.5374 55.536C65.5799 55.3916 65.6254 55.2484 65.6744 55.1063C65.7045 55.0191 65.8675 54.6112 65.8019 54.758C65.9277 54.4745 66.0753 54.1998 66.243 53.9393C66.2773 53.8862 66.5223 53.5632 66.3918 53.7194C66.5093 53.5785 66.6363 53.4447 66.7703 53.3204C66.817 53.2773 67.078 53.0799 66.912 53.196C67.0461 53.1017 67.1872 53.0215 67.3307 52.9431C67.5675 52.8135 67.3915 52.8836 67.6366 52.8193C67.8332 52.7681 68.008 52.7174 68.207 52.6985C68.9923 52.6237 69.7712 52.8347 70.501 53.1052C70.5234 53.1135 70.814 53.229 70.6852 53.1748C70.5748 53.1282 70.7986 53.2266 70.7909 53.2231C70.9468 53.295 71.1003 53.3722 71.2509 53.4536C71.545 53.6121 71.8272 53.7895 72.1006 53.9811C72.1248 53.9982 72.3551 54.1733 72.2376 54.0807C72.1337 53.9988 72.3102 54.1432 72.312 54.1444C72.4354 54.2487 72.5565 54.3554 72.674 54.4668C72.9078 54.6878 73.1239 54.9242 73.3341 55.1676C73.379 55.2195 73.4227 55.2731 73.4652 55.3268C73.3312 55.1576 73.4741 55.3409 73.4942 55.3692C73.5733 55.4824 73.6542 55.5944 73.7304 55.7099C73.9223 56.0005 74.0982 56.3023 74.2594 56.6111C74.5866 57.2395 74.6999 57.5277 74.9332 58.2598C75.7929 60.9541 75.8419 63.5458 75.7829 66.4375C75.6553 72.7096 75.4735 78.9947 75.7002 85.2668C75.725 85.9476 75.7563 86.6278 75.7971 87.308C75.8378 87.9882 76.3037 88.6118 77.0259 88.6973C77.6736 88.7745 78.4489 88.3855 78.5806 87.684C78.9107 85.9287 79.0707 84.1139 79.6311 82.4098C79.6907 82.2283 79.761 82.0509 79.8265 81.8711C79.6801 82.2707 79.9015 81.7167 79.9535 81.6165C80.0373 81.4544 80.1277 81.2958 80.2263 81.142C80.2753 81.0659 80.3314 80.994 80.3786 80.9174C80.5008 80.7176 80.172 81.1325 80.4371 80.8484C80.5623 80.7146 80.6839 80.5797 80.8197 80.4559C80.8888 80.3928 80.9614 80.3356 81.0317 80.2737C80.7453 80.5243 80.9762 80.3144 81.05 80.2678C81.2183 80.1618 81.383 80.0551 81.5596 79.9625C81.6517 79.9142 81.7468 79.8729 81.8389 79.8264C81.9818 79.7633 81.9682 79.7692 81.797 79.8441C81.866 79.8169 81.9351 79.7916 82.0048 79.7668C82.4725 79.6112 82.9437 79.501 83.4291 79.4179C83.8607 79.3442 83.1468 79.4338 83.5997 79.3973C83.745 79.3855 83.8902 79.3696 84.0355 79.3595C84.4034 79.3336 84.7718 79.3236 85.1409 79.3248C85.8678 79.3265 86.5899 79.389 87.315 79.4309C87.9935 79.4698 88.6838 79.465 89.2878 79.7998C90.2202 80.3168 90.914 81.6725 91.2382 82.6875C91.3161 82.9315 91.3687 83.1802 91.4136 83.4325C91.3581 83.1195 91.4254 83.5551 91.4283 83.5887C91.4402 83.7272 91.4484 83.8657 91.4531 84.0048C91.4768 84.6497 91.4342 85.2957 91.3646 85.937C91.2305 87.1718 90.891 88.7715 90.6448 90.1803C90.3985 91.589 90.1547 92.9801 90.2639 94.3811C90.3903 96.0038 92.4764 96.2626 93.0474 94.7572C93.201 94.3528 93.3557 93.9491 93.5157 93.5471C93.6043 93.3249 93.6946 93.1038 93.7861 92.8828C93.9426 92.5038 93.6692 93.1433 93.8375 92.7626C93.9066 92.6069 93.9739 92.4507 94.0436 92.2957C94.4994 91.2843 95.0079 90.2923 95.6119 89.361C95.7572 89.1376 95.9078 88.9171 96.0648 88.702C96.0772 88.6849 96.3453 88.343 96.1628 88.5694C96.2443 88.468 96.327 88.3672 96.412 88.2682C96.7439 87.8815 97.1053 87.5326 97.4908 87.1995C97.7914 86.9402 97.2647 87.338 97.5936 87.1223C97.6951 87.0557 97.7932 86.985 97.8959 86.9207C98.0996 86.7934 98.3116 86.6838 98.5277 86.5789C98.2313 86.7221 98.5803 86.5612 98.6305 86.5435C98.7433 86.504 98.8572 86.4692 98.9724 86.4386C99.0875 86.4079 99.2068 86.3861 99.3237 86.359C99.4879 86.3319 99.4825 86.3313 99.3078 86.3566C99.3898 86.3478 99.4713 86.3413 99.5534 86.3372C100.564 86.283 101.883 86.6354 102.85 87.0946C104.029 87.6546 104.904 88.2988 105.758 89.2749C106.087 89.6521 106.438 90.1732 106.724 90.7113C107.008 91.2483 107.097 91.4847 107.281 92.1631C107.428 92.7066 107.528 93.2589 107.618 93.8135C107.697 94.2939 107.59 93.5441 107.65 94.0363C107.662 94.1383 107.674 94.2408 107.685 94.3428C107.725 94.71 107.758 95.0784 107.784 95.4474C107.981 98.2637 107.878 101.127 107.531 103.929C107.36 105.314 109.59 105.867 110.172 104.642C110.63 103.678 110.959 102.656 111.306 101.649C111.513 101.048 111.721 100.448 111.942 99.851C112.05 99.5616 112.16 99.2734 112.275 98.9869C112.301 98.9227 112.422 98.6285 112.389 98.7052C112.365 98.7635 112.499 98.4576 112.536 98.3769C112.763 97.88 113.01 97.3872 113.316 96.9339C113.346 96.8891 113.543 96.6304 113.418 96.7836C113.293 96.9369 113.511 96.684 113.556 96.6386C113.614 96.5791 113.693 96.5272 113.746 96.463C113.68 96.5426 113.591 96.5426 113.62 96.5661C113.622 96.5673 113.965 96.3746 113.954 96.3793C114.388 96.1895 115.038 96.1748 115.526 96.2773C116.277 96.4353 116.916 96.7159 117.567 97.1226C118.625 97.7833 119.889 98.9303 120.309 100.062C120.922 101.714 120.974 103.536 120.962 105.276C120.949 107.139 120.881 108.994 120.932 110.857C120.985 112.823 121.026 114.79 121.056 116.758C121.118 120.729 121.142 124.701 121.157 128.673C121.172 132.645 121.218 136.513 121.103 140.431C120.996 144.065 120.84 147.781 120.06 151.295C119.726 152.803 119.26 154.226 118.434 155.525C117.659 156.742 116.612 157.633 115.372 158.328C112.627 159.867 109.232 160.35 106.104 160.849C102.306 161.455 98.4734 161.843 94.6317 162.035C90.79 162.227 87.266 162.314 83.6216 161.934C81.9853 161.764 80.358 161.443 78.7926 160.934C77.2272 160.425 75.7067 159.601 74.2789 158.691C68.377 154.927 64.0854 149.208 60.1203 143.554C56.0684 137.777 52.3726 131.634 49.6823 125.099C48.4689 122.151 47.292 119.032 46.8031 115.869C46.7653 115.626 46.747 115.474 46.7134 115.098C46.6797 114.722 46.6579 114.359 46.6496 113.989C46.6425 113.671 46.6449 113.354 46.659 113.037C46.6673 112.854 46.6797 112.671 46.6962 112.489C46.7033 112.412 46.711 112.335 46.7199 112.257C46.7027 112.409 46.7222 112.232 46.7311 112.178C46.7836 111.862 46.8492 111.548 46.9383 111.239C46.9779 111.102 47.0222 110.967 47.07 110.833C47.0812 110.801 47.1934 110.537 47.1285 110.68C47.0753 110.797 47.1911 110.563 47.2023 110.541C47.2667 110.425 47.3322 110.311 47.4025 110.198C47.4367 110.143 47.4739 110.088 47.5123 110.036C47.4881 110.068 47.3735 110.187 47.5017 110.058C47.5584 110.002 47.6245 109.946 47.677 109.886C47.8093 109.733 47.442 110.026 47.6995 109.873C47.8754 109.769 48.0496 109.673 48.2345 109.584C48.0177 109.689 48.1211 109.628 48.2711 109.578C48.4057 109.534 48.5397 109.49 48.6767 109.452C48.9123 109.387 49.1509 109.341 49.3906 109.295C49.4479 109.285 49.5058 109.277 49.5636 109.267C49.5477 109.269 49.3133 109.297 49.481 109.278C49.6487 109.26 49.8028 109.245 49.9646 109.233C50.5108 109.195 51.0605 109.199 51.6061 109.239C51.7561 109.251 51.9049 109.267 52.0549 109.281C52.3336 109.307 51.9132 109.251 52.1883 109.299C52.4818 109.351 52.7735 109.402 53.0634 109.472C53.3055 109.53 53.5459 109.597 53.7826 109.673C53.9173 109.717 54.0501 109.765 54.1836 109.814C54.4865 109.925 54.1298 109.773 54.3353 109.877C54.555 109.987 54.7741 110.094 54.9831 110.223C55.0752 110.28 55.1632 110.343 55.2547 110.402C55.4236 110.508 55.0717 110.243 55.2193 110.372C55.2707 110.417 55.3244 110.46 55.3752 110.506C55.4496 110.574 55.5216 110.644 55.5901 110.718C55.6675 110.801 55.8204 111.068 55.6462 110.772C55.808 111.047 55.971 111.322 56.1381 111.594C56.5886 112.328 57.0929 113.028 57.6054 113.72C58.5921 115.052 59.6048 116.367 60.3606 117.85C60.7072 118.531 61.6668 118.727 62.2998 118.357C62.993 117.952 63.1566 117.105 62.8082 116.422C61.9945 114.824 60.8808 113.424 59.8262 111.983C59.2983 111.262 58.7876 110.528 58.3412 109.753C58.0424 109.236 57.6869 108.755 57.2246 108.371C55.3043 106.777 52.5314 106.255 50.0892 106.395C48.8716 106.466 47.6328 106.687 46.5463 107.265C45.3706 107.892 44.6703 109.044 44.2688 110.279C43.3323 113.161 43.8897 116.453 44.678 119.299C46.6933 126.58 50.2356 133.437 54.2391 139.813C56.2184 142.965 58.3506 146.023 60.5933 148.994C62.8359 151.965 65.2575 154.994 68.0682 157.515C70.8807 160.037 74.1673 162.339 77.7669 163.569C81.2874 164.774 85.093 164.986 88.7859 164.999C92.9057 165.014 97.0267 164.795 101.122 164.347C104.981 163.925 108.942 163.448 112.69 162.406C116.011 161.483 119.13 159.814 120.975 156.802C122.903 153.653 123.289 149.769 123.611 146.174C123.979 142.056 124.014 137.917 124.008 133.786C124.001 129.594 123.986 125.403 123.946 121.212C123.907 117.084 123.71 112.948 123.73 108.82C123.739 106.849 123.885 104.874 123.724 102.906C123.568 101.016 123.231 99.0394 122.064 97.4904C119.997 94.7454 115.979 92.2344 112.524 93.9379C111.422 94.4813 110.744 95.5847 110.228 96.654C109.628 97.8982 109.16 99.205 108.708 100.508C108.516 101.063 108.328 101.62 108.131 102.173C108.044 102.416 107.956 102.658 107.862 102.898C107.827 102.988 107.79 103.078 107.753 103.168C107.861 102.901 107.794 103.069 107.725 103.216C108.605 103.454 109.485 103.692 110.365 103.93C110.696 101.26 110.798 98.5378 110.643 95.8523C110.489 93.1669 110.047 90.2239 108.291 87.9322C106.363 85.4165 103.361 83.7596 100.187 83.5156C97.5233 83.3111 95.3432 85.0104 93.8151 87.0097C92.2869 89.0091 91.2358 91.5737 90.3135 94.0045C91.2412 94.13 92.1694 94.255 93.0971 94.3805C92.9908 93.0172 93.1827 92.0252 93.4047 90.7744C93.6716 89.2672 93.9745 87.7677 94.1617 86.2476C94.3294 84.8854 94.392 83.4519 94.0229 82.1151C93.6214 80.6598 92.7593 79.0318 91.6173 78.0257C90.9176 77.4085 90.0992 76.9623 89.1756 76.7914C88.2521 76.6205 87.3705 76.6063 86.4683 76.545C85.0139 76.4466 83.5312 76.4808 82.1034 76.7979C80.0539 77.2529 78.2759 78.5125 77.3837 80.4376C76.436 82.4829 76.2582 84.7428 75.8467 86.9313C76.7743 87.0569 77.7025 87.1818 78.6302 87.3074C78.2405 80.8137 78.4548 74.2775 78.5883 67.7779C78.7052 62.0692 78.6692 54.9861 73.3566 51.4165C71.9418 50.4664 70.1154 49.8139 68.3989 49.8598C66.533 49.9093 64.9682 50.83 63.9112 52.336C63.0479 53.5662 62.6381 55.1146 62.4173 56.5817C62.1279 58.5014 62.0435 60.4519 61.9065 62.3864C61.2989 70.9401 60.849 79.5045 60.5561 88.0742C60.262 96.6811 60.1274 105.294 60.1516 113.906C60.1545 114.982 60.1605 116.059 60.1681 117.135C60.1811 118.955 63.0154 118.959 63.0025 117.135L63.0042 117.136Z" fill="black"/>
</g>
</svg>
