<svg width="141" height="141" viewBox="0 0 141 141" fill="none" xmlns="http://www.w3.org/2000/svg">
<circle cx="70.5" cy="70.5" r="70.5" fill="#FFE200"/>
<mask id="mask0_894_114" style="mask-type:alpha" maskUnits="userSpaceOnUse" x="0" y="0" width="141" height="141">
<circle cx="70.5" cy="70.5" r="70.5" fill="#020000"/>
</mask>
<g mask="url(#mask0_894_114)">
<path d="M122.894 58.2923C122.894 58.2923 145.523 66.8914 148.754 95.1301C147.275 110.621 140.737 114.132 140.737 114.132L139.226 141.409L83.4801 143.548L88.8258 109.241C88.8258 109.241 77.5112 110.548 80.6754 91.6127C83.8396 72.6775 104.667 57.7791 104.667 57.7791L122.894 58.2923Z" fill="white"/>
<path d="M131.353 47.5024C133.243 36.5946 128.054 26.5875 119.764 25.151C111.473 23.7145 103.22 31.3926 101.33 42.3004C99.4403 53.2082 104.629 63.2152 112.92 64.6517C121.21 66.0882 129.463 58.4102 131.353 47.5024Z" fill="white"/>
<path d="M22.4948 31.2399C22.4948 31.2399 20.5979 28.4892 17.895 36.3508C15.192 44.2124 9.14622 55.6995 3.97093 59.2708C-1.20435 62.8422 -0.817921 73.0993 6.39964 70.7412C7.81241 72.5384 11.5936 70.2364 11.7058 67.7163C13.8956 70.1824 15.9524 71.6824 16.5861 70.2405C17.2198 68.7987 22.4636 56.7777 22.4636 56.7777C22.4636 56.7777 13.505 46.5913 22.4948 31.2399Z" fill="white"/>
<path d="M32.7291 62.3145C40.6475 62.3145 47.0666 54.2062 47.0666 44.2041C47.0666 34.202 40.6475 26.0937 32.7291 26.0937C24.8107 26.0937 18.3916 34.202 18.3916 44.2041C18.3916 54.2062 24.8107 62.3145 32.7291 62.3145Z" fill="white"/>
<path d="M41.1372 55.9176C41.1372 55.9176 46.9254 69.8437 64.6909 66.9662C70.7471 64.2674 74.4784 58.2466 75.2534 60.3532C77.9002 58.3359 80.6385 56.4121 79.4002 63.7127C76.7035 68.2772 74.7901 71.8984 61.8633 74.4331C59.0481 88.1868 52.2606 98.9259 52.2606 98.9259C52.2606 98.9259 55.1048 107.164 61.6472 118.383C68.1895 129.602 70.423 142.067 70.423 142.067L27.4998 143.204C27.4998 143.204 15.6659 122.617 13.8376 86.6951C13.8376 86.6951 11.8265 75.3701 13.3223 70.2384C14.7746 69.5985 21.6867 55.8282 21.6867 55.8282L41.1351 55.9155L41.1372 55.9176Z" fill="white"/>
<path d="M155.675 109.027C155.513 109.075 155.348 109.085 155.186 109.021C154.422 108.988 153.657 109.042 152.893 108.986C152.552 108.961 152.209 108.938 151.873 108.992C151.251 109.092 150.63 109.06 150.007 109.062C149.741 109.062 149.544 108.961 149.629 108.632C149.66 108.583 149.687 108.529 149.704 108.47C149.733 108.219 149.88 107.968 149.691 107.72L149.697 107.729C149.691 107.093 149.812 106.465 149.814 105.83C149.82 105.772 149.824 105.711 149.83 105.651C149.934 105.319 149.847 104.978 149.882 104.643C149.907 104.413 149.891 104.139 150.281 104.346C150.483 104.454 150.738 104.388 150.971 104.39C151.301 104.417 151.53 104.107 151.856 104.124C152.656 103.744 153.464 103.37 154.187 102.857C154.771 102.441 155.292 101.949 155.448 101.197L155.444 101.207C155.573 100.646 155.544 100.083 155.469 99.518C155.371 98.795 154.881 98.3296 154.382 97.8705C154.32 97.8019 154.245 97.7624 154.15 97.7728C154.116 97.7313 154.081 97.6918 154.048 97.6502C153.971 97.563 153.909 97.4591 153.786 97.4279C153.718 97.403 153.792 97.4549 153.734 97.4155C152.791 96.7402 151.731 96.6821 150.632 96.8171C150.398 96.8462 150.418 96.6883 150.418 96.545C150.423 96.2229 150.408 95.9009 150.418 95.5768C150.416 95.3192 150.425 95.0595 150.377 94.8039C150.306 94.5713 150.269 94.3282 150.161 94.1079C150.136 94.0622 150.107 94.0186 150.071 93.9771C149.855 93.7298 149.544 93.7174 149.259 93.6363C148.908 93.6363 148.555 93.6363 148.204 93.6363C148.158 93.5927 148.104 93.574 148.042 93.5761C147.765 93.5865 147.491 93.5761 147.217 93.5968C146.502 93.6903 145.783 93.7651 145.083 93.9521C142.75 94.5775 140.436 95.2922 137.982 95.3233C137.39 95.3316 137.016 95.7202 137.003 96.2832C136.97 97.617 136.937 98.9529 137.026 100.287C137.161 102.339 137.402 104.382 137.645 106.422C137.745 107.267 137.766 108.128 138.04 108.95C137.683 108.934 137.323 108.942 136.962 108.936C131.82 108.875 126.68 109.123 121.538 109.046C121.014 109.038 120.491 109.031 119.967 109.046C118.976 109.075 117.983 109.013 116.992 109.092C116.801 109.148 116.606 109.168 116.406 109.171C114.821 109.185 113.234 109.187 111.648 109.202C110.074 109.216 108.499 109.252 106.924 109.266C107.435 109.26 107.944 109.247 108.455 109.216C109.11 109.216 109.764 109.216 110.416 109.216C112.342 109.141 114.27 109.146 116.198 109.077C118.775 108.986 121.355 108.936 123.931 108.878C125.842 108.834 127.752 108.707 129.665 108.734C130.619 108.749 131.028 108.371 131.122 107.423C131.257 106.077 131.367 104.729 131.477 103.38C131.664 101.062 131.878 98.7431 132.073 96.4245C132.264 94.1412 132.474 91.86 132.667 89.5767C132.867 87.2041 133.068 84.8315 133.282 82.4589C133.395 81.2227 133.043 80.7781 131.809 80.7677C127.045 80.7282 122.281 80.8342 117.518 80.6659C115.714 80.6036 113.907 80.6742 112.101 80.6514C108.131 80.6036 104.163 80.7095 100.19 80.5703C97.0179 80.4581 93.8372 80.5371 90.6605 80.5516C89.5677 80.5558 89.2 80.9526 89.2561 81.9873C89.3371 83.2297 89.4617 84.47 89.4493 85.7186C89.5635 87.229 89.6072 88.7415 89.6944 90.254C89.7339 90.9375 89.736 91.6231 89.7983 92.3046C89.952 94.0103 89.9957 95.7222 90.085 97.4321C90.1764 99.1586 90.2637 100.887 90.353 102.616C90.4008 103.549 90.4029 104.488 90.5109 105.423C90.6003 106.202 90.6273 107.012 90.2512 107.76C89.9645 108.331 89.7609 108.456 89.1397 108.364C88.8883 108.327 88.6369 108.319 88.3855 108.298C87.1556 108.204 85.9132 108.101 84.8806 107.344C83.6569 106.449 82.6846 105.294 81.9782 103.966C81.1742 102.454 80.7234 100.833 80.8605 99.0713C80.9436 97.9951 80.8771 96.9065 80.875 95.824C80.875 95.5539 80.8833 95.2839 80.9332 95.0159C81.276 93.1876 81.704 91.3801 82.1465 89.5746C82.7927 86.9402 83.8024 84.4222 84.6874 81.8647C85.2754 80.1694 86.1002 78.5862 87.112 77.1028C88.6058 74.911 90.0601 72.6921 91.4313 70.4213C92.2374 69.0854 93.2097 67.8762 94.369 66.8291C95.306 65.9835 96.2762 65.1712 97.1405 64.2488C98.9273 62.3374 100.961 60.7335 103.168 59.3373C103.828 58.9197 104.003 58.9135 104.622 59.3643C104.753 59.4599 104.875 59.5679 105 59.6718C107.824 61.9966 111.085 62.809 114.669 62.3997C117.21 62.1109 119.508 61.1344 121.646 59.7549C123.302 58.712 124.627 57.2909 126.013 55.9384C126.048 55.901 126.081 55.8636 126.111 55.8241C126.264 55.5769 126.462 55.367 126.665 55.1593C126.696 55.1219 126.725 55.0845 126.75 55.0429C126.819 54.9203 126.919 54.8186 126.983 54.6918C127.004 54.6503 127.02 54.6066 127.033 54.5609C127.091 54.4217 127.216 54.3449 127.328 54.2597C127.361 54.2223 127.388 54.1828 127.409 54.1392C127.623 53.6987 128.001 53.3559 128.157 52.8822C128.442 52.5519 128.705 52.2091 128.909 51.8206C129.229 51.0062 129.626 50.2312 130.075 49.4812C130.093 49.4334 130.106 49.3815 130.11 49.3295C130.089 48.9618 130.523 48.7291 130.407 48.3323C130.422 48.2991 130.436 48.2679 130.449 48.2347C130.667 47.9791 130.685 47.655 130.758 47.3475C130.766 47.281 130.775 47.2166 130.783 47.1501C130.931 47.0567 131.001 46.9112 131.049 46.7492C131.088 46.6224 131.101 46.4874 131.149 46.3627C131.172 46.3004 131.192 46.2381 131.182 46.1695C131.223 46.0843 131.028 46.0428 131.14 45.9431C131.34 45.8496 131.221 45.6543 131.275 45.5151C131.282 45.3239 131.298 45.137 131.429 44.9811C131.494 44.655 131.687 44.3496 131.595 43.9964C131.61 43.9278 131.627 43.8592 131.641 43.7886C131.741 43.6162 131.62 43.4084 131.73 43.236V43.2443C131.791 43.1923 131.811 43.1175 131.84 43.0469C131.855 42.8433 131.892 42.6397 131.84 42.4382C131.836 42.4132 131.832 42.3883 131.828 42.3634C131.838 42.2616 131.847 42.1618 131.857 42.06C131.969 41.6175 131.953 41.1688 131.938 40.72L131.917 40.6847L131.94 40.6494C132.021 40.5808 132.017 40.5081 131.946 40.4354C131.946 40.2899 131.951 40.1466 131.951 40.0011C132.067 39.8619 132.082 39.7124 132 39.5524C131.749 39.1099 132.027 38.6133 131.855 38.1625C131.849 38.0981 131.843 38.0337 131.834 37.9693C131.799 37.7719 131.836 37.587 131.924 37.4083C131.951 37.1798 132.046 36.9782 132.15 36.7788C132.169 36.731 132.185 36.6832 132.2 36.6334C132.343 36.2843 132.35 35.902 132.451 35.5405C132.618 34.9505 132.362 34.641 131.741 34.5662C131.566 34.5454 131.329 34.6721 131.234 34.3979C131.219 34.348 131.203 34.3002 131.182 34.2524C131.115 34.0551 131.036 33.8639 130.879 33.7185C130.779 33.6354 130.746 33.5274 130.76 33.4006C130.677 33.2427 130.71 33.0495 130.602 32.8999C130.596 32.8563 130.588 32.8106 130.575 32.769C130.471 32.6278 130.407 32.4616 130.301 32.3224L130.309 32.3327C130.133 31.6679 129.732 31.1277 129.341 30.5813C129.21 30.5169 129.179 30.384 129.133 30.2635C128.894 29.7628 128.604 29.3036 128.149 28.967C127.694 28.2233 127.075 27.6498 126.316 27.2239C126.229 27.039 126.025 27.0099 125.88 26.8998C125.562 26.5072 125.109 26.3326 124.662 26.1457C124.581 26.1457 124.5 26.1457 124.467 26.0501C124.336 25.7634 124.054 25.78 123.809 25.7198C123.676 25.5369 123.451 25.5702 123.275 25.4933C123.119 25.2565 122.861 25.3063 122.633 25.2668C122.518 25.2544 122.385 25.3188 122.302 25.1837C122.221 25.0653 122.09 25.1006 121.978 25.0778C121.945 25.0674 121.912 25.057 121.876 25.0466C121.777 24.9718 121.664 24.9427 121.542 24.9718C121.509 24.9614 121.477 24.951 121.444 24.9407C121.074 24.7184 120.649 24.8077 120.252 24.7308C120.179 24.7246 120.108 24.7184 120.036 24.7121C119.205 24.6228 118.374 24.6373 117.545 24.7329L117.513 24.7558L117.478 24.7371C116.994 24.7911 116.495 24.762 116.03 24.9427C116.011 24.9739 115.988 24.9781 115.959 24.9573C115.808 25.0071 115.623 24.9074 115.494 25.057C115.214 25.1567 114.883 25.0819 114.636 25.298L114.646 25.2897C114.578 25.3125 114.509 25.3209 114.437 25.3146C114.256 25.3001 114.081 25.3022 113.99 25.5016C114.056 25.5286 113.927 25.5432 113.984 25.4975C114.092 25.0923 114.187 24.683 114.281 24.2738L114.274 24.2841C114.488 23.7876 114.518 23.2516 114.559 22.7259C114.576 22.5223 114.638 22.3208 114.545 22.0944C114.229 21.3215 113.273 20.9787 112.465 21.4004C111.827 21.7329 111.499 22.3187 111.264 22.969C111.227 23.05 111.187 23.1311 111.15 23.2121C110.701 24.1075 110.385 25.0425 110.304 26.0459L110.312 26.0335C110.121 26.2953 110.263 26.609 110.177 26.8998C110.005 27.4878 109.448 27.6872 109.112 28.1007C108.617 28.1942 108.43 28.7801 107.873 28.859C107.618 26.6796 107.707 24.5397 108.32 22.4351C108.414 22.3146 108.555 22.2896 108.688 22.2481C108.999 22.1546 109.11 21.9281 109.083 21.629C109.056 21.336 108.908 21.1283 108.603 21.0514C107.898 20.8707 107.211 21.174 106.982 21.845C106.716 22.6221 106.527 23.4219 106.423 24.2426C106.261 25.4954 106.373 26.7523 106.336 28.0051C106.321 28.5287 106.39 29.046 106.55 29.5425C106.662 29.8916 106.658 30.1991 106.409 30.4837C105.935 30.9491 105.432 31.3874 105.085 31.965C105.048 32.0066 105.008 32.0502 104.971 32.0917C104.826 32.2102 104.736 32.3681 104.661 32.5363L104.666 32.5322C104.229 32.9851 103.857 33.4858 103.573 34.0488C103.531 34.1195 103.492 34.188 103.45 34.2587C103.355 34.348 103.292 34.4581 103.247 34.5786C103.205 34.6534 103.163 34.7282 103.122 34.803C102.887 35.0939 102.688 35.4055 102.596 35.7753C102.322 36.2656 102.042 36.7518 101.836 37.2774C101.803 37.3543 101.769 37.4312 101.736 37.508C101.564 37.8612 101.364 38.2061 101.306 38.605C100.98 38.952 100.92 39.3903 100.878 39.8349L100.884 39.8703L100.857 39.8931C100.639 40.4998 100.427 41.1085 100.342 41.7526C100.178 41.9001 100.348 42.1286 100.222 42.2844V42.2803C100.076 42.8911 99.8892 43.4957 99.91 44.1356L99.9183 44.1231C99.7375 44.4804 99.8643 44.8689 99.7957 45.2388C99.7895 45.3343 99.7832 45.4278 99.777 45.5234C99.7043 46.4978 99.6877 47.4722 99.7832 48.4466C99.7853 48.4819 99.7895 48.5172 99.7915 48.5525C99.8684 48.8372 99.7687 49.1384 99.8809 49.4189C99.8913 49.4895 99.8996 49.5602 99.91 49.6287C99.9868 49.8386 99.885 50.0754 100.006 50.279C100.06 50.7963 100.168 51.3033 100.319 51.8019C100.334 51.9473 100.315 52.1031 100.444 52.2153C100.768 53.5554 101.275 54.8227 101.948 56.0256C102.177 56.4557 102.536 56.8027 102.746 57.2452C102.962 57.455 102.868 57.6316 102.667 57.7646C102.432 57.9183 102.214 58.0949 101.958 58.2154C101.925 58.2466 101.892 58.2777 101.859 58.3089C101.794 58.3484 101.713 58.3463 101.647 58.3837C101.339 58.5935 101.009 58.7722 100.789 59.088C100.274 59.1919 100.022 59.7113 99.5422 59.8713C99.1828 60.1725 98.7797 60.4239 98.5055 60.8166C97.7659 61.257 97.1717 61.8533 96.6668 62.541C96.0186 62.9544 95.5532 63.5777 94.957 64.0493C94.8988 64.0971 94.8448 64.149 94.797 64.2093C94.2734 64.8263 93.646 65.3457 93.0518 65.8817C92.3953 66.4759 91.8447 67.1262 91.3378 67.8347C90.9971 67.978 90.8766 68.325 90.6563 68.5785C90.6293 68.6179 90.6023 68.6574 90.5774 68.699C90.4694 68.8257 90.4777 69.0106 90.3655 69.1373C90.2948 69.2454 90.2263 69.3555 90.1556 69.4635C89.9001 69.8063 89.6716 70.1637 89.5158 70.5646C89.3495 70.7101 89.2166 70.8742 89.1937 71.1048C88.7242 71.4642 88.5746 72.048 88.2173 72.4885C87.8142 72.983 87.6293 73.627 87.1681 74.0882C87.1078 74.2171 87.0351 74.3376 86.9582 74.456C86.3287 75.4324 85.5704 76.3258 85.0718 77.3854H85.0759C84.8536 77.6846 84.5815 77.9588 84.5274 78.3556L84.5316 78.3494C83.9707 79.1451 83.5905 80.0239 83.3432 80.9609L83.3515 80.9505C83.1542 81.2102 83.0939 81.5219 83.0212 81.8273C82.8674 81.8792 82.9672 82.0454 82.8924 82.1327C82.776 82.3342 82.7054 82.5524 82.6722 82.7809C82.5246 83.1798 82.3335 83.5642 82.2504 83.9859L82.2546 83.9797C82.0406 84.3578 81.9699 84.7858 81.8307 85.1888H81.8328C81.5689 85.3384 81.6604 85.6064 81.6147 85.8287C81.4692 85.9014 81.5482 86.0469 81.5066 86.1549C81.2116 86.4188 81.2054 86.7803 81.1721 87.1335L81.1784 87.1231C80.954 87.6092 80.8231 88.1224 80.7358 88.6501L80.7421 88.6397C80.6382 88.8869 80.5177 89.13 80.5302 89.4105V89.4063C80.3286 89.8593 80.2995 90.3537 80.1874 90.8295C80.2061 90.8607 80.2019 90.8877 80.1707 90.9084C80.1229 91.2035 79.9443 91.4715 79.9837 91.7873C79.8092 91.9223 79.9941 92.1529 79.8508 92.2963C79.697 92.4189 79.7739 92.5975 79.7448 92.7492C79.6306 93.0193 79.4934 93.2852 79.5225 93.5927C79.321 93.7506 79.5163 93.9812 79.4207 94.1578C79.2898 94.378 79.4311 94.6377 79.3231 94.8621C79.3189 94.9161 79.3148 94.9701 79.3106 95.0242C79.2337 95.1488 79.2005 95.2818 79.2088 95.4314C79.2878 96.948 79.2545 98.4667 79.24 99.9855C79.2358 100.416 79.1506 100.871 79.3251 101.296C79.3355 101.481 79.3501 101.668 79.3729 101.853C79.4934 102.383 79.5994 102.919 79.9464 103.364C79.9837 103.476 79.9464 103.615 80.0689 103.694C80.2518 104.265 80.3536 104.876 80.848 105.296H80.8439C81.2552 106.114 81.9284 106.744 82.4872 107.45C82.9609 108.051 83.5011 108.661 84.3135 108.871C84.434 108.994 84.6209 109.116 84.7664 109.187C84.3841 109.162 84.0143 109.262 83.6424 109.324C82.9921 109.374 82.3418 109.382 81.6915 109.335C81.5108 109.168 81.3321 109.175 81.1514 109.335C80.9872 109.382 80.8252 109.393 80.6631 109.328C80.526 109.395 80.3806 109.382 80.2372 109.374C79.3625 109.314 78.4879 109.432 77.607 109.274C76.9629 109.158 76.2898 109.291 75.625 109.353C74.5425 109.455 73.4497 109.295 72.3569 109.301C71.9622 109.303 71.5736 109.366 71.1851 109.389C69.9157 109.463 68.6525 109.285 67.379 109.351C65.9496 109.426 64.5036 109.468 63.0721 109.262C62.8935 109.237 62.7148 109.268 62.5361 109.299C61.917 109.403 61.2916 109.426 60.6725 109.312C59.7958 109.15 58.9398 109.326 58.0797 109.436C57.5021 109.49 56.9245 109.501 56.347 109.447C55.6011 109.416 54.8573 109.353 54.1094 109.451C53.4279 109.538 52.7382 109.511 52.0567 109.47C50.7499 109.389 49.4452 109.453 48.1384 109.461C47.3302 109.466 46.5137 109.513 45.7138 109.457C44.6958 109.387 43.6757 109.426 42.6618 109.422C41.6687 109.42 40.6673 109.395 39.6701 109.43C38.9222 109.457 38.1763 109.48 37.4242 109.432C36.6098 109.382 35.7892 109.478 34.9685 109.47C34.4865 109.466 33.9671 109.289 33.4893 109.547C32.7496 109.59 32.01 109.625 31.2704 109.547C31.1333 109.609 30.9795 109.621 30.8445 109.59C29.7745 109.333 28.7004 109.574 27.6304 109.578C27.1588 109.578 26.7059 109.457 26.2426 109.486C25.1352 109.557 24.0237 109.549 22.9164 109.601C22.0313 109.642 21.165 109.416 20.2799 109.466C19.6088 109.503 19.6068 109.482 19.7252 108.763C19.7314 108.618 19.6899 108.466 19.7834 108.331C19.8685 108.315 19.8789 108.246 19.9018 108.177C20.176 107.348 20.1116 106.472 20.2654 105.626V105.63C20.5292 104.6 20.5936 103.542 20.6809 102.487C20.6788 102.474 20.6705 102.462 20.6726 102.452C20.6788 102.431 20.6892 102.41 20.6975 102.389C20.8575 102.073 20.6684 101.718 20.8055 101.4L20.8014 101.409C21.2626 100.43 20.7536 99.5284 19.7148 99.4785L19.7252 99.4848C19.2598 99.1523 18.6989 99.2645 18.1878 99.1503C18.1587 99.1731 18.1317 99.169 18.1088 99.1378C18.034 99.0505 17.9343 99.0048 17.8263 98.9986C17.3817 98.9674 17.2944 98.7119 17.3983 98.3317C17.5312 97.6066 17.6746 96.8836 17.7764 96.1523C17.8076 95.9923 17.8055 95.8303 17.8242 95.6703C17.8408 95.529 17.8013 95.3732 17.8741 95.2943C18.9357 96.6488 20.4025 97.2119 22.0292 97.4799C22.0625 97.4861 22.0978 97.484 22.131 97.4944C22.343 97.7188 22.6317 97.6731 22.8956 97.7084L22.8873 97.7043C23.2301 97.8684 23.5667 98.0554 23.9676 98.0367C24.0009 98.0471 24.0362 98.0595 24.0694 98.0699C24.4746 98.3172 24.9358 98.3836 25.3908 98.4688L25.3783 98.4605C25.7918 98.6475 26.1969 98.8719 26.6768 98.7991C26.8596 99.0402 27.1256 98.8075 27.3333 98.9093L27.3271 98.9051C27.6055 99.0859 27.9338 98.8864 28.2163 99.0235L28.2537 99.0048L28.289 99.0298C28.8936 99.0422 29.4629 99.3019 30.0924 99.223C30.5661 99.1627 31.0585 99.2271 31.5425 99.2375C31.7212 99.1939 31.902 99.196 32.0806 99.2417C32.8223 99.3539 33.5869 99.464 34.3182 99.3913C35.3612 99.2874 36.3937 99.3414 37.4305 99.3227C37.7753 99.3165 38.1451 99.3165 38.4651 99.1233L38.4547 99.1295C38.6043 99.063 38.7684 99.0796 38.9242 99.0381C39.6057 98.8636 39.8779 99.0838 39.8176 99.7902C39.7387 100.715 39.8509 101.635 39.8363 102.56C39.8301 102.925 40.0378 103.156 40.4201 103.208C40.8377 103.264 41.2408 103.289 41.5649 102.934C41.7269 102.757 41.9575 102.713 42.184 102.643C42.8135 102.443 43.5095 102.524 44.0954 102.165L44.0912 102.169C44.2595 102.053 44.4818 102.206 44.6439 102.057L44.6355 102.061C44.7685 101.959 44.9576 102.1 45.0802 101.957H45.076C45.1903 101.832 45.4022 102.021 45.4978 101.83C45.6058 101.789 45.7512 101.874 45.8322 101.733C46.0857 101.672 46.3766 101.733 46.5802 101.51C46.8066 101.461 47.058 101.498 47.2492 101.321C47.3697 101.215 47.5068 101.172 47.6668 101.197C48.5061 101.112 49.3185 100.889 50.0913 100.578C50.9057 100.249 51.7388 99.9958 52.5886 99.8047C53.9162 99.5076 54.9799 98.7057 56.1205 98.0491H56.1163C56.3677 98.0076 56.5506 97.8331 56.7645 97.7188L56.7583 97.725C57.4772 97.5817 58.1732 97.3989 58.4973 96.6281C58.4973 96.547 58.4931 96.4639 58.5949 96.4328C58.7964 96.2977 58.7715 96.0754 58.8131 95.8781C58.9855 95.689 58.811 95.4314 58.9315 95.2319L58.9252 95.2423C59.0395 94.7374 59.2223 94.2451 59.2556 93.7215C59.4758 93.4327 59.4966 93.0795 59.5776 92.745C59.5548 92.4874 59.5111 92.2298 59.5838 91.9743C59.561 91.9431 59.5651 91.914 59.5942 91.8891C59.7459 91.5712 59.5984 91.2242 59.6919 90.9001L59.6877 90.9084C59.8602 90.5864 59.6649 90.2249 59.7999 89.9008L59.7833 89.8634L59.8082 89.8302C59.9204 89.6473 59.775 89.398 59.8747 89.2651C60.3567 88.6252 60.2196 87.925 60.1302 87.2249C60.2383 87.0462 60.2341 86.8696 60.1136 86.6972L60.1199 86.7076C60.1116 86.4001 60.0368 86.0926 60.124 85.7872C60.1012 85.7602 60.1053 85.7352 60.1344 85.7145C60.2778 85.4672 60.1053 85.1805 60.2362 84.9333C60.2134 84.9021 60.2175 84.8751 60.2466 84.8481C60.4066 84.5697 60.2487 84.256 60.3442 83.9693L60.3401 83.9776C60.4315 83.7304 60.4647 83.4748 60.4336 83.213C60.4149 83.1756 60.4211 83.1424 60.4523 83.1154C60.6039 82.8723 60.4357 82.5856 60.5562 82.3384L60.5499 82.3488C60.7307 82.0683 60.5333 81.7379 60.6663 81.4533C60.6413 81.4263 60.6455 81.4014 60.6767 81.3806C60.8325 81.1811 60.6476 80.9277 60.7785 80.7241C60.9696 80.1236 61.0215 79.5004 61.1026 78.8813C61.2335 78.7192 61.1774 78.5218 61.2044 78.339C61.3456 78.1312 61.2293 77.8799 61.3124 77.6617C61.2896 77.6326 61.2958 77.6077 61.327 77.589C61.4474 77.4103 61.3228 77.1922 61.4246 77.0093C61.4017 76.9803 61.4059 76.9574 61.4371 76.9387C61.57 76.7725 61.4433 76.5606 61.5305 76.3861C61.7425 76.2012 61.5056 75.9352 61.6448 75.7379C61.865 75.3244 61.7695 74.857 61.863 74.4227C61.8401 74.3916 61.8443 74.3625 61.8754 74.3376C61.9772 74.1568 61.9045 73.9511 61.9648 73.7641C61.944 73.733 61.9502 73.708 61.9814 73.6873C62.0915 73.2946 62.1455 72.8915 62.1788 72.4864C62.3678 72.2953 62.1975 72.0418 62.2889 71.832C62.453 71.593 62.2702 71.3022 62.4011 71.0591C62.3803 71.0279 62.3844 71.0009 62.4156 70.9781C62.5278 70.8056 62.4031 70.5958 62.507 70.4213L62.5008 70.4317C62.7002 70.0723 62.4717 69.6692 62.6171 69.3035C62.6192 69.2495 62.6234 69.1934 62.6254 69.1394C62.7459 68.7197 62.6628 68.2918 62.6732 67.8679C62.6774 67.656 62.7397 67.4462 62.694 67.2322C62.586 66.7377 62.2016 66.5175 61.4204 66.5133C61.3602 66.5196 61.3041 66.5299 61.2459 66.5486C61.0943 66.6047 60.9384 66.6234 60.7785 66.6338C60.7016 66.6421 60.6268 66.6546 60.5541 66.6754C60.3588 66.7107 60.1843 66.8229 59.9807 66.8167C59.9308 66.8187 59.8809 66.8229 59.8311 66.827C59.1933 67.0223 58.6344 67.3693 58.0776 67.7246C58.0402 67.764 58.0028 67.8014 57.9633 67.8409C57.552 68.03 57.1094 68.1629 56.7832 68.5037L56.7874 68.4995C56.6274 68.5701 56.4591 68.6179 56.295 68.6865C55.5221 69.0127 54.8989 69.5549 54.2423 70.0473C53.1724 70.8971 52.0297 71.6325 50.7873 72.2039C50.1578 72.5674 49.4722 72.8251 48.8697 73.2406C48.8032 73.2842 48.7367 73.3278 48.6702 73.3715C48.4978 73.4109 48.342 73.4857 48.1778 73.5543C47.3219 73.92 46.5636 74.4664 45.718 74.8569C45.0926 75.1457 44.407 75.3577 43.9063 75.8771C43.4492 76.0017 43.1875 76.2946 43.067 76.7559C42.8841 77.4622 42.799 78.1853 42.6556 78.8979C42.4728 79.8016 42.2588 80.7178 42.3107 81.6444C42.3336 82.0454 42.1196 82.3737 42.13 82.7373C42.1528 83.72 41.9077 84.6674 41.7477 85.621C41.6854 85.9929 41.7145 86.5164 41.1805 86.6785C41.1182 86.6847 41.0559 86.6909 40.9915 86.6972C40.8024 86.7346 40.5905 86.6286 40.4201 86.7907C40.3993 86.8218 40.3765 86.826 40.3474 86.8031C39.5122 86.8696 38.677 86.9174 37.8377 86.9008C37.2829 86.8904 36.7511 87.1833 36.1922 87.0607C35.2137 86.8467 34.2226 86.9527 33.2399 86.9548C32.706 86.9548 32.1741 86.7678 31.6402 86.9319C31.5696 86.9174 31.4989 86.9008 31.4283 86.8862C30.431 86.6307 29.5834 86.0219 28.609 85.7124C27.9296 85.2221 27.3832 84.6216 27.0259 83.8571C26.9344 83.6618 26.8347 83.4707 26.6685 83.3232V83.319C26.5646 83.1112 26.5148 82.9118 26.5439 82.6583C26.6207 81.9935 25.9393 81.5572 25.3409 81.8543C24.8111 82.1181 24.6034 82.623 24.8423 83.1652C25.0459 83.6244 25.2641 84.0794 25.4801 84.5344C26.145 85.9243 27.163 86.9153 28.6298 87.4264C28.9684 87.7277 29.3673 87.9001 29.8098 87.977C29.9386 88.1432 30.1339 88.1868 30.3147 88.2616C30.8881 88.5005 31.4948 88.4839 32.0952 88.5088L32.0848 88.5026C32.4525 88.6626 32.8369 88.7083 33.2358 88.702C35.0599 88.675 36.8799 88.6646 38.704 88.5005C39.4997 88.4299 40.3058 88.5192 41.0683 88.2013C41.1036 88.1972 41.139 88.193 41.1743 88.1868C41.5753 88.2429 41.9679 88.5795 42.3647 88.3738C42.9818 88.0518 43.5697 88.2741 44.1743 88.3343C45.3419 88.4964 45.4687 88.6397 45.4687 89.8011C45.4687 89.9985 45.4832 90.1979 45.4666 90.3953C45.3544 91.6356 44.9139 92.7658 44.274 93.8233C43.3267 95.2589 42.024 96.2354 40.416 96.8254C40.1853 96.9106 39.9277 96.9626 39.774 97.189C38.0787 97.7043 36.3459 97.7832 34.58 97.752C33.0987 97.725 31.6132 97.7749 30.1277 97.7396C30.0571 97.7354 29.9844 97.7313 29.9137 97.7271C29.7621 97.5754 29.5626 97.5796 29.3673 97.5568C28.8251 97.4944 28.2786 97.5921 27.7364 97.5173C27.5224 97.3905 27.2752 97.4903 27.0529 97.4175L27.0155 97.43L26.9885 97.4009C26.629 97.1205 26.1761 97.2119 25.7772 97.0934C25.6671 96.9189 25.4635 97.0851 25.3368 96.9771C25.2329 96.9563 25.129 96.9376 25.0251 96.9168C24.6969 96.6945 24.3125 96.6364 23.9386 96.547H23.9427C23.6269 96.2541 23.201 96.3351 22.8291 96.225L22.7917 96.2354L22.7647 96.2063C22.5133 96.0214 22.2308 95.9175 21.9316 95.8344C21.4309 95.6931 20.9281 95.556 20.4565 95.3254C19.5278 94.8704 18.9897 94.0165 18.3561 93.2624C18.1753 93.0463 18.2231 92.7866 18.273 92.5373C18.4038 91.8828 18.5347 91.2242 18.4682 90.5553C18.4267 90.146 18.6158 89.9299 18.9793 89.8759C19.4052 89.8136 19.5527 89.5331 19.6005 89.1757C19.6483 88.8038 19.4219 88.5483 19.1227 88.3966C18.7238 88.1951 18.2979 88.0601 17.8429 88.0123C16.8207 87.9063 15.7985 87.9437 14.7743 87.9271C14.259 87.9188 13.7085 87.175 13.8331 86.6764C13.8664 86.5434 13.9557 86.5019 14.07 86.5039C14.8054 86.5226 15.5555 86.4208 16.2681 86.6743C17.0492 86.9506 17.8387 86.9236 18.6407 86.8384C19.0084 86.799 19.2557 86.6182 19.3076 86.2484C19.3595 85.8869 19.2224 85.6168 18.8443 85.515H18.8381C18.7321 85.3488 18.5617 85.2989 18.3851 85.2615C17.7432 85.1265 17.0866 85.1597 16.4384 85.114C15.9086 85.0766 15.3747 85.0995 14.8532 84.952C14.7992 84.952 14.7452 84.952 14.6912 84.9499C14.7805 84.9457 14.874 84.9333 14.9696 84.9021C15.5742 84.2207 15.4973 83.693 14.7514 83.3522C14.6372 83.3003 14.5187 83.2754 14.4045 83.2297C14.2009 83.078 13.9453 83.2297 13.7355 83.1154L13.7002 83.1362L13.6669 83.1133C13.4945 82.9928 13.0977 83.1486 13.1808 82.7144C13.2846 82.1618 13.2306 81.6112 13.1891 81.0544C13.1413 80.4291 13.2369 79.8016 13.268 79.1742C13.3262 78.0191 13.0249 76.8494 13.3823 75.7005C13.4093 75.6153 13.3948 75.5176 13.3615 75.4345C13.2431 75.1353 13.2784 74.8341 13.3345 74.5308C13.3407 74.1672 13.455 73.8285 13.5402 73.4816C13.6939 72.8625 13.2971 72.4656 12.6676 72.5778C12.4224 72.6215 12.25 72.769 12.1066 72.9601C12.0734 73.0162 12.0526 73.0785 12.0402 73.1429C12.0693 73.3777 11.9716 73.5855 11.8947 73.7953C11.6309 74.6575 11.7763 75.5529 11.7701 76.4214C11.7535 78.3806 11.7576 80.3418 11.7451 82.301C11.7431 82.6313 11.6579 82.9762 11.2008 82.9471C10.3365 82.8931 9.48265 83.1092 8.61837 83.0551C7.61489 82.9928 6.61141 82.8952 5.60378 82.999C4.95972 83.0655 4.31359 83.1008 3.66746 83.0094C3.5615 83.0115 3.47216 83.051 3.39322 83.1175C1.81632 83.1673 0.239428 83.1943 -1.33747 83.2795C-2.14565 83.1756 -2.92683 83.4291 -3.72462 83.4831C-4.29804 83.5226 -4.89846 83.6826 -5.4698 83.6784C-6.81608 83.668 -8.12497 83.961 -9.45671 84.0358C-9.8743 84.0586 -10.1672 84.3993 -10.188 84.7754C-10.2109 85.1888 -9.99688 85.407 -9.60629 85.4797H-9.61253C-9.26972 85.6625 -8.98717 85.3717 -8.67138 85.353C-7.46429 85.1847 -6.24474 85.1452 -5.02935 85.0704C-5.11038 85.085 -5.1914 85.0995 -5.27451 85.1161C-5.6651 85.2657 -6.091 85.2304 -6.48159 85.3675C-6.89711 85.5129 -7.12564 85.8537 -7.04254 86.2235C-6.9262 86.7512 -6.48782 86.8883 -6.05153 87.015C-5.68379 87.1231 -5.34099 87.1293 -5.11661 86.7304C-4.98988 86.506 -4.75719 86.4354 -4.5245 86.4084C-4.22324 86.371 -3.91784 86.3398 -3.61451 86.3481C-1.93789 86.2318 -0.252963 86.2796 1.42573 86.1882C2.17367 86.1487 2.91537 86.2526 3.67161 86.2193C5.74298 86.1258 7.81849 86.2588 9.89401 86.2297C10.108 86.1881 10.3199 86.1944 10.5318 86.2442C10.7167 86.3502 10.9183 86.2941 11.1115 86.2941C12.0859 86.3003 12.0859 86.2983 12.2479 87.2477C12.3539 87.8689 12.2666 87.9957 11.635 88.0289C11.0658 88.058 10.4965 87.9624 9.92725 88.0331C9.47226 88.1702 8.98195 88.2367 8.54357 88.1224C7.45907 87.8398 6.42235 88.3156 5.33992 88.2283C4.55875 88.1639 3.74225 88.3738 2.93199 88.3634C1.83086 88.3489 0.733896 88.4382 -0.358919 88.5483C-1.51614 88.6646 -2.67544 88.5878 -3.84305 88.7457C-5.19556 88.9285 -6.5917 88.7997 -7.96707 88.7436C-8.31195 88.8807 -8.58204 89.0781 -8.50101 89.504C-8.41791 89.9361 -8.1312 90.1688 -7.70322 90.173C-6.3694 90.1875 -5.03143 90.2561 -3.69969 90.1813C-1.09023 90.0359 1.51715 89.88 4.12661 89.7533C5.35031 89.6931 6.57817 89.718 7.79979 89.5892C8.53111 89.5123 9.27904 89.5144 10.0104 89.666C9.49511 89.7845 8.98195 89.8634 8.45839 89.8655C6.97707 89.8676 5.50613 90.0234 4.04143 90.2332C3.86899 90.2831 3.69447 90.3226 3.51164 90.3143C2.00123 90.2519 0.499126 90.4597 -1.01128 90.4368C-1.88595 90.4223 -2.76477 90.5033 -3.63529 90.5843C-4.63045 90.6758 -5.61108 90.8669 -6.61871 90.8607C-7.69698 90.8523 -8.77318 90.8607 -9.84729 90.7526C-10.4498 90.7485 -10.7801 91.11 -11.0066 91.6127C-11.1853 91.8725 -10.9588 92.2381 -11.231 92.4729L-11.1998 92.4791L-11.1957 92.5103C-11.2684 92.8468 -11.3619 93.1647 -11.6735 93.3766C-11.8085 93.468 -11.8272 93.655 -11.8958 93.7984C-12.0433 94.11 -11.9415 94.4341 -11.9768 94.7499C-12.1181 95.9965 -12.33 97.2306 -12.5336 98.4688C-12.625 99.0235 -12.7746 99.6447 -12.4007 100.191L-12.4048 100.187C-12.3342 100.546 -12.0579 100.713 -11.7483 100.731C-11.3452 100.756 -10.938 100.804 -10.5267 100.698C-9.80159 100.511 -9.6894 100.632 -9.66239 101.386C-9.6333 102.231 -9.7081 103.071 -9.7725 103.91C-9.79743 104.236 -9.62499 104.537 -9.7081 104.868C-9.96364 105.902 -9.90339 106.962 -9.9117 108.013C-9.92001 109.029 -9.78704 109.173 -8.81473 109.416C-8.75656 109.436 -8.69631 109.453 -8.63606 109.463C-8.37843 109.526 -8.12289 109.59 -7.86319 109.623C-8.68592 109.574 -9.50449 109.65 -10.3251 109.667C-11.4803 109.692 -12.6417 109.636 -13.801 109.613C-14.0648 109.609 -14.3017 109.655 -14.4866 109.854H-14.4845C-14.9125 110.085 -15.0392 110.427 -14.8647 110.88C-14.8294 110.936 -14.7878 110.988 -14.738 111.032C-14.418 111.273 -14.0482 111.306 -13.6638 111.306C-11.5239 111.306 -9.38607 111.31 -7.24615 111.302C-6.47328 111.3 -5.70041 111.356 -4.92963 111.277C-4.70317 111.207 -4.47048 111.196 -4.23571 111.196C1.02684 111.194 6.29146 111.207 11.554 111.155C14.3567 111.128 17.1594 111.157 19.962 111.142C19.9413 111.142 19.9226 111.142 19.9018 111.142C17.8263 111.184 15.7508 111.15 13.6732 111.15C9.83168 111.15 5.99229 111.211 2.15082 111.292C-0.786903 111.354 -3.7267 111.495 -6.6665 111.431C-6.88672 111.418 -7.09033 111.531 -7.3064 111.526C-9.16169 111.491 -11.0066 111.674 -12.8577 111.749C-13.454 111.774 -14.0357 111.853 -14.6195 111.967C-14.8501 112.006 -15.087 112.006 -15.3114 112.083C-15.6459 112.198 -15.9804 112.337 -15.9991 112.746C-16.0198 113.164 -15.6957 113.326 -15.3633 113.448C-15.2116 113.504 -15.0496 113.529 -14.8958 113.577C-14.4076 113.727 -13.8882 113.617 -13.4041 113.783C-10.4913 114.013 -7.56817 114.013 -4.65123 114.138C-2.74192 114.219 -0.828455 114.192 1.08293 114.223C4.50888 114.279 7.93484 114.437 11.3629 114.367C13.0229 114.333 14.6829 114.396 16.3449 114.335C16.5423 114.304 16.7418 114.242 16.748 114.566C16.7501 114.73 16.8706 114.859 16.9807 114.977C17.1053 115.115 17.1718 115.366 17.4211 115.293C17.6372 115.229 17.7432 115.023 17.8387 114.83C17.8865 114.732 17.8803 114.622 17.8637 114.514C17.8159 114.196 18.0444 114.35 18.1711 114.331C18.3311 114.346 18.4932 114.346 18.6552 114.348C27.8943 114.412 37.1334 114.246 46.3745 114.443C50.3801 114.529 54.3878 114.456 58.3955 114.458C59.1455 114.458 59.1621 114.462 59.4197 115.156C60.0014 116.731 60.4959 118.337 61.0319 119.926C61.6905 121.877 62.3824 123.813 63.2674 125.675C64.8422 128.989 66.2051 132.379 67.219 135.915C67.8007 137.943 68.4489 139.958 69.3402 141.88C69.6477 142.545 70.1713 142.819 70.6574 142.595C71.1685 142.358 71.3285 141.735 71.0439 141.091C71.0065 141.008 70.9691 140.924 70.913 140.854C70.5826 140.436 70.3915 139.948 70.2191 139.454C69.7038 137.97 69.1886 136.487 68.7377 134.983C68.1768 133.115 67.5909 131.257 66.843 129.454C65.9787 127.37 64.9357 125.365 64.0881 123.273C63.0285 120.662 62.1891 117.973 61.2916 115.306C61.007 114.46 61.0091 114.464 61.9253 114.458C69.6311 114.396 77.3348 114.647 85.0406 114.568C85.4914 114.564 85.9423 114.566 86.3952 114.568C87.0954 114.572 87.112 114.601 86.9728 115.272C86.3079 118.472 85.7138 121.684 85.1154 124.894C84.569 127.823 84.2594 130.784 83.9831 133.748C83.6798 137 83.4741 140.255 83.4886 143.521C83.4886 143.756 83.4783 143.995 83.6528 144.188H84.9534C85.0531 144.076 85.1071 143.943 85.1113 143.794C85.1341 143.181 85.2546 142.576 85.238 141.959C85.184 140.027 85.3232 138.099 85.4811 136.177C85.8239 131.968 86.2228 127.765 87.0767 123.62C87.6148 121.004 88.0407 118.366 88.6037 115.754C88.8592 114.57 88.8779 114.574 90.0538 114.574C105.991 114.574 121.93 114.574 137.868 114.574C138.013 114.574 138.156 114.585 138.3 114.574C138.697 114.541 138.84 114.711 138.838 115.11C138.834 115.709 138.711 116.295 138.717 116.893C138.736 118.302 138.586 119.704 138.443 121.102C138.185 123.633 137.853 126.159 137.768 128.7C137.654 132.074 137.735 135.448 138.113 138.807C138.179 139.399 138.229 139.994 138.352 140.577C138.458 141.084 138.819 141.392 139.235 141.384C139.646 141.375 140.003 141.051 140.111 140.561C140.215 140.098 140.251 139.634 140.03 139.183C139.918 138.955 139.868 138.706 139.843 138.452C139.696 137.035 139.563 135.612 139.526 134.191C139.436 130.836 139.488 127.482 139.879 124.14C140.192 121.453 140.498 118.763 140.479 116.049C140.479 115.777 140.506 115.509 140.579 115.245C140.737 114.67 140.843 114.578 141.445 114.578C146.149 114.578 150.853 114.576 155.556 114.576M127.879 32.3411C127.912 32.0045 127.935 31.6679 127.97 31.2171C129.185 33.0765 129.89 35.0108 130.193 37.0759C130.33 38.0067 129.827 38.8252 129.364 39.5877C129.167 39.9118 128.838 39.6563 128.649 39.436C128.028 38.7172 127.714 37.8612 127.638 36.9242C127.511 35.3868 127.725 33.8639 127.881 32.3411H127.879ZM118.324 30.9532C118.324 30.7704 118.332 30.5917 118.475 30.4525C119.556 29.4179 119.83 28.1069 119.716 26.6879C119.68 26.2495 119.855 26.2225 120.202 26.2682C123.146 26.6692 125.512 28.0716 127.361 30.3756C127.405 30.4297 127.434 30.4941 127.475 30.5626C126.676 30.6021 126.497 30.8057 126.424 31.618C126.304 32.9789 126.264 34.3542 125.884 35.6797C125.801 35.9727 125.703 36.2656 125.568 36.5378C125.321 37.0323 125.068 37.08 124.631 36.7372C124.182 36.3841 124.066 35.8813 124.029 35.3453C123.937 34.0592 124.122 32.794 124.295 31.5246C124.334 31.2399 124.349 30.9491 124.288 30.6624C124.212 30.2988 123.979 30.0869 123.622 30.0557C123.26 30.0245 122.998 30.2094 122.863 30.546C122.755 30.8161 122.739 31.107 122.732 31.3957C122.691 33.2116 122.182 34.9069 121.374 36.5191C120.939 37.3855 120.291 37.4561 119.643 36.7144C118.878 35.8397 118.608 34.7594 118.419 33.6499C118.266 32.7545 118.317 31.8528 118.322 30.9511L118.324 30.9532ZM114.395 26.8936C115.328 26.6194 116.261 26.3576 117.229 26.2371C117.549 26.1976 117.609 26.2973 117.534 26.5799C117.26 27.6104 117.081 28.6575 116.998 29.7191C116.982 29.9269 116.878 30.0515 116.722 30.1533C116.003 30.6229 115.255 31.0052 114.355 30.9574C113.367 31.0613 112.687 30.5294 112.091 29.8313C111.879 29.582 111.84 29.3285 112.066 29.0522C112.178 28.9151 112.286 28.7572 112.34 28.5889C112.664 27.5792 113.456 27.1741 114.395 26.8957V26.8936ZM113.028 22.8007C113.2 23.5694 112.378 26.0065 111.74 26.4989C111.754 25.458 112.43 23.5445 113.028 22.8007ZM110.254 29.0688C110.223 29.956 109.118 30.8576 108.457 30.5502C109.002 29.9913 109.61 29.5405 110.254 29.0688ZM101.283 48.484C100.886 42.1307 102.962 36.6396 107.109 31.8736C107.356 31.591 107.535 31.4664 107.938 31.6804C108.767 32.1187 109.708 31.9172 110.373 31.2565C110.576 31.055 110.767 30.841 110.977 30.6187C112.652 32.5945 114.655 32.6008 116.882 31.6367C116.867 32.7379 116.938 33.8058 117.212 34.8487C117.478 35.8522 117.865 36.7933 118.561 37.5849C118.964 38.0441 119.439 38.391 120.052 38.5011C121.172 38.7047 121.864 38.3889 122.471 37.4104C122.601 37.2005 122.712 36.9803 122.867 36.704C123.445 37.7366 124.197 38.3328 125.34 38.2913C125.498 38.2851 125.687 38.2705 125.805 38.1832C126.304 37.8114 126.414 38.0898 126.543 38.5364C126.717 39.1452 127.043 39.6874 127.446 40.1819C128.255 41.1729 129.335 41.3599 130.432 40.6556C130.424 42.3052 130.189 43.9029 129.769 45.4652C128.331 50.8192 125.498 55.2341 120.863 58.3775C118.228 60.1621 115.311 61.1344 112.101 60.8976C108.397 60.6254 105.576 58.8013 103.575 55.7078C102.156 53.5159 101.445 51.0768 101.283 48.484ZM11.0305 84.8024C9.89609 84.819 8.75964 84.8024 7.6232 84.8107C4.11206 84.8294 0.596775 84.7214 -2.91228 84.9333C-3.15744 84.9478 -3.40259 84.9561 -3.64983 84.9665C-3.63113 84.9624 -3.61035 84.9561 -3.59166 84.9499C-3.16367 84.8294 -2.71907 84.9561 -2.29108 84.8481C-0.953113 84.684 0.395248 84.6403 1.7353 84.6154C4.84753 84.5572 7.95977 84.5946 11.072 84.6009C11.2424 84.6009 11.4439 84.5469 11.5872 84.738C11.3878 84.8273 11.2029 84.7629 11.0284 84.8024H11.0305ZM13.7417 84.9021C13.6358 84.8938 13.4945 84.8419 13.5236 84.7214C13.5672 84.5282 13.7334 84.6175 13.8227 84.6757C14.045 84.8169 14.2715 84.9291 14.5167 84.9603C14.259 84.9478 14.0014 84.9208 13.7438 84.9021H13.7417ZM14.579 84.9644C14.579 84.9644 14.5686 84.9644 14.5624 84.9644C14.5686 84.9644 14.5728 84.9644 14.579 84.9644ZM144.798 110.527C145.409 110.527 146.022 110.527 146.633 110.527C145.819 110.527 145.004 110.531 144.188 110.546C144.389 110.513 144.595 110.527 144.796 110.527H144.798ZM94.7326 110.743C95.2645 110.743 95.7963 110.743 96.3282 110.743C95.5802 110.752 94.8344 110.762 94.0865 110.772C94.3005 110.725 94.5165 110.743 94.7326 110.743ZM84.97 109.202C84.9409 109.135 85.0489 109.204 84.9783 109.227C84.9783 109.227 84.9783 109.227 84.9762 109.227C84.9762 109.22 84.9741 109.212 84.97 109.204V109.202ZM69.6913 110.851C70.379 110.851 71.0646 110.851 71.7523 110.851C70.8652 110.855 69.9781 110.864 69.0909 110.876C69.2904 110.839 69.4919 110.851 69.6913 110.851ZM32.2676 111.067C32.1056 111.067 31.9435 111.072 31.7794 111.074C31.8687 111.072 31.9581 111.069 32.0474 111.067C32.1201 111.067 32.1949 111.067 32.2676 111.067ZM20.6289 111.157C20.8263 111.115 21.0278 111.117 21.2294 111.115C24.5494 111.094 27.8673 111.153 31.1873 111.086C31.0003 111.132 30.8092 111.128 30.6201 111.128C27.2897 111.153 23.9593 111.105 20.6289 111.157ZM35.1243 111.067C34.5987 111.072 34.071 111.067 33.5453 111.067C35.4796 111.067 37.4138 111.067 39.3481 111.067C39.9921 111.065 40.6383 111.067 41.2823 111.067C39.2296 111.078 37.177 111.084 35.1222 111.067H35.1243ZM51.5602 110.959C49.7547 110.982 47.9493 111.005 46.1439 111.026C46.9188 110.961 47.6979 110.98 48.4749 110.97C50.9951 110.939 53.5152 110.959 56.0374 110.959C56.0499 110.959 56.0602 110.959 56.0727 110.959C55.5886 110.959 55.1046 110.959 54.6205 110.959C53.6004 110.959 52.5824 110.959 51.5623 110.959H51.5602ZM62.8228 110.959C61.9295 110.959 61.034 110.959 60.1406 110.959C61.2418 110.953 62.3429 110.943 63.444 110.93C63.2383 110.974 63.0306 110.957 62.8228 110.959ZM64.7591 110.918C65.5715 110.909 66.3838 110.903 67.1962 110.899C66.3838 110.909 65.5715 110.916 64.7591 110.918ZM82.7532 110.849C82.454 110.849 82.1548 110.849 81.8557 110.849C82.3647 110.835 82.8737 110.826 83.3827 110.82C83.1749 110.866 82.963 110.849 82.7511 110.849H82.7532ZM90.3593 110.797C88.7824 110.801 87.2075 110.795 85.6306 110.797C87.2034 110.791 88.7782 110.797 90.3509 110.795C90.9077 110.791 91.4645 110.795 92.0213 110.795C91.4666 110.799 90.9119 110.801 90.3572 110.795L90.3593 110.797ZM111.291 110.741C113.988 110.741 116.682 110.741 119.379 110.741C119.196 110.741 119.011 110.745 118.829 110.745C116.317 110.741 113.805 110.741 111.291 110.741ZM123.966 110.691C123.183 110.679 122.402 110.691 121.619 110.706C122.554 110.641 123.493 110.66 124.428 110.654C124.276 110.693 124.12 110.693 123.964 110.691H123.966ZM126.117 110.633C126.034 110.633 125.948 110.633 125.865 110.633C127.646 110.608 129.428 110.633 131.211 110.633C131.23 110.633 131.248 110.633 131.267 110.633C130.731 110.633 130.195 110.633 129.661 110.633C128.481 110.633 127.299 110.633 126.119 110.633H126.117ZM137.668 110.633C136.852 110.633 136.033 110.633 135.217 110.633C136.245 110.625 137.273 110.614 138.304 110.602C138.094 110.648 137.882 110.631 137.67 110.631L137.668 110.633ZM141.03 110.581C141.568 110.579 142.104 110.577 142.642 110.579C142.706 110.579 142.771 110.579 142.835 110.579C142.783 110.579 142.733 110.579 142.681 110.583C142.131 110.585 141.58 110.583 141.03 110.583V110.581Z" fill="#2E2E2E"/>
<path d="M71.9314 61.4606C72.0478 61.3277 72.1662 61.1947 72.2825 61.0617C72.3553 60.8976 72.5734 60.8498 72.6108 60.6566C72.6461 60.5984 72.6918 60.5486 72.7458 60.505C72.8663 60.4073 73.0055 60.3263 73.0554 60.1621C73.0783 60.1206 73.1053 60.0811 73.1364 60.0458C73.3816 59.8318 73.5021 59.5306 73.6995 59.2812C73.7285 59.2355 73.7597 59.194 73.795 59.1545C74.4038 58.5624 75.0811 58.4024 75.6005 58.7141C75.7168 58.7826 75.7854 58.874 75.829 58.9925L75.8248 58.9883C76.097 59.2044 76.2071 59.4703 76.0949 59.8214C76.5395 59.221 77.2002 58.872 77.7757 58.419C77.8152 58.3879 77.8567 58.363 77.9004 58.338C78.0063 58.2674 78.1372 58.2695 78.2515 58.2238L78.3429 58.1199C78.4488 57.9994 78.559 57.8893 78.7252 57.8602C78.8664 57.8332 79.0077 57.8394 79.1511 57.8103C79.7536 57.6836 80.2127 57.9931 80.3021 58.6081C80.408 59.3311 80.5368 60.0562 80.3457 60.7854C80.3228 60.8706 80.3706 60.962 80.3768 61.0514C80.327 61.5936 80.0964 62.0715 79.8512 62.5451C79.8221 62.7778 79.7556 62.996 79.6081 63.183L79.6144 63.1726C79.5583 63.3637 79.577 63.5839 79.3921 63.7231L79.3983 63.7148C79.3484 64.0556 79.176 64.336 78.9558 64.5937C78.8644 64.6248 78.8602 64.7017 78.8602 64.7806C78.7605 64.9822 78.7106 65.2128 78.5049 65.3478C78.4135 65.433 78.3013 65.5057 78.3221 65.6574C78.2432 65.9254 78.104 66.1519 77.8754 66.3201L77.8817 66.3139C77.8172 66.4926 77.7612 66.6754 77.57 66.7689C77.5056 67.0722 77.2895 67.2841 77.115 67.521C77.0195 67.5522 77.0174 67.6311 77.0195 67.71C76.9343 67.9116 76.9239 68.1567 76.6995 68.2814C76.5748 68.6699 76.3255 68.9753 76.0305 69.2495L76.0388 69.2412C75.4509 70.091 74.6635 70.708 73.7701 71.2025H73.7742C73.4377 71.4601 73.0783 71.6741 72.6482 71.7406C72.2285 71.9857 71.7237 71.9816 71.2936 72.1935C71.036 72.3888 70.7202 72.4241 70.421 72.5093H70.4231C70.2465 72.6028 70.0533 72.6506 69.8663 72.7171L69.8725 72.7129C69.806 72.8646 69.6481 72.7648 69.5505 72.8313H69.5547C69.3594 72.983 69.1329 73.0391 68.8898 73.0287L68.8961 73.0245C68.7797 73.1637 68.6197 73.1409 68.466 73.1346C68.3206 73.1617 68.1731 73.1887 68.0276 73.2157C67.905 73.4567 67.6495 73.2468 67.4916 73.3736H67.4958C67.2153 73.492 66.914 73.5273 66.6169 73.5834L66.6294 73.5772C66.4757 73.7434 66.2471 73.5709 66.0871 73.6998H66.0892C65.975 73.8701 65.7901 73.7434 65.6488 73.8016H65.6529C65.4431 73.9657 65.2291 73.9823 65.013 73.8099H65.0151C64.6224 73.7621 64.4812 73.4837 64.4687 73.145C64.4521 72.7669 64.6806 72.5259 65.013 72.3763C65.1273 72.3244 65.2623 72.3763 65.3745 72.3119C65.4036 72.3306 65.4285 72.3244 65.4452 72.2932C65.5636 72.1312 65.7485 72.2641 65.8898 72.1956C65.9272 72.2101 65.9583 72.206 65.9874 72.179C66.2492 71.9733 66.5837 72.0896 66.8683 71.9795C68.3247 71.7884 69.6544 71.1609 71.0505 70.7683C73.3255 70.1263 74.9439 68.7592 75.9952 66.6629C76.2362 66.183 76.552 65.7384 76.8678 65.3021C77.7778 64.0473 78.3803 62.6511 78.8083 61.1719C78.962 60.6441 78.9205 60.1061 78.8955 59.5056C78.0977 59.9523 77.4287 60.4779 76.9073 61.176C76.5956 61.5936 76.3172 62.0382 76.0284 62.4724C75.8228 62.7841 75.5589 62.9856 75.1683 62.8693C74.7757 62.7529 74.6759 62.4226 74.6697 62.059C74.6614 61.5978 74.6676 61.1345 74.6676 60.4925C73.8989 61.5791 73.0616 62.3748 72.1766 63.131C70.2943 64.7391 68.2811 66.0999 65.8461 66.7232C65.4639 66.8208 65.0754 66.8915 64.6889 66.9746C64.3316 67.012 64.0449 66.8894 63.8143 66.611C63.621 66.3783 63.54 66.1539 63.7602 65.8984C63.9493 65.5764 64.2526 65.4683 64.6037 65.4496C64.7533 65.4455 64.905 65.4559 65.0504 65.406C65.0961 65.3894 65.1439 65.3769 65.1938 65.3665C65.5137 65.3624 65.7901 65.1401 66.1162 65.1712L66.1058 65.1775C66.2887 65.0071 66.5401 65.0237 66.7561 64.9406L66.7499 64.9448C67.1426 64.7204 67.502 64.4254 67.984 64.4088C68.0089 64.3693 68.0359 64.3319 68.0609 64.2924C68.0879 64.2488 68.1253 64.2155 68.171 64.1927C68.6987 64.0078 69.0893 63.5964 69.5734 63.3326C69.7541 63.2328 69.9307 63.1019 70.1135 62.9939H70.1115C70.1842 62.8422 70.3254 62.7488 70.4335 62.6262C70.4667 62.5909 70.502 62.5597 70.5394 62.5285C71.0007 62.1712 71.4328 61.7785 71.9293 61.469L71.9314 61.4606Z" fill="#2E2E2E"/>
<path d="M147.448 92.7492C146.926 92.6037 146.679 92.2485 146.534 91.7291C146.232 90.6508 146.037 89.5538 145.867 88.4506C145.584 86.6348 144.93 84.9436 144.171 83.2816C143.095 80.9214 142.229 78.474 141.153 76.1118C139.536 72.5653 137.074 69.6713 134.394 66.9267C133.678 66.1934 132.753 65.7508 131.816 65.3769C129.601 64.4939 127.696 63.1746 126.038 61.471C125.461 60.8768 124.823 60.3408 124.129 59.8795C123.952 59.7611 123.784 59.6115 123.551 59.6053C123.146 59.5409 122.953 59.2854 122.982 58.8948C123.005 58.5997 123.493 58.2715 123.838 58.2943C124.389 58.3297 124.796 58.6662 125.203 58.9862C125.326 59.0838 125.442 59.2002 125.546 59.3248L125.538 59.3165C126.298 59.7736 126.961 60.3387 127.499 61.0472H127.497C128.135 61.4066 128.579 61.9904 129.121 62.4578H129.117C129.77 62.6822 130.256 63.1995 130.881 63.4759C131.637 63.8083 132.398 64.1303 133.154 64.4606C133.2 64.4793 133.243 64.5022 133.287 64.5271C133.412 64.6019 133.545 64.6622 133.675 64.7287C133.719 64.7494 133.761 64.7764 133.802 64.8034C134.322 65.1608 134.937 65.3893 135.298 65.9524C135.333 65.9856 135.369 66.0168 135.406 66.05C135.487 66.0292 135.554 66.0583 135.616 66.104C135.776 66.2287 135.909 66.3741 135.948 66.5819C136.013 66.719 136.115 66.8187 136.241 66.8956C136.551 67.0119 136.69 67.3007 136.881 67.5334C137.278 68.0196 137.71 68.4704 138.18 68.888C138.506 69.3825 139.015 69.717 139.337 70.2135C139.37 70.2509 139.397 70.2904 139.422 70.3319C139.58 70.6269 139.779 70.8908 140.012 71.1297C140.062 71.1796 140.106 71.2378 140.143 71.298C140.183 71.4393 140.288 71.5349 140.378 71.6429C140.544 71.8797 140.669 72.1394 140.833 72.3763C141.371 73.3091 141.857 74.269 142.389 75.2039C142.414 75.2454 142.437 75.2911 142.457 75.3348C142.615 75.69 142.79 76.037 142.971 76.3798C143.018 76.4671 143.064 76.5564 143.106 76.6457C143.278 77.1485 143.486 77.6409 143.644 78.1478V78.1437C143.808 78.2642 143.87 78.4491 143.939 78.6298C143.976 78.7171 144.014 78.8044 144.045 78.8937C144.103 79.0038 144.005 79.1264 144.076 79.2365C144.115 79.3404 144.155 79.4443 144.194 79.5481C144.483 79.8411 144.552 80.242 144.712 80.5994C144.762 80.9588 145.017 81.2538 145.046 81.6195L145.042 81.6133C145.391 81.8709 145.343 82.3342 145.58 82.6521C145.771 83.0447 145.9 83.4665 146.112 83.8488C146.237 84.1001 146.307 84.3785 146.449 84.6237C146.538 84.8148 146.615 85.0122 146.673 85.2158C146.829 85.8516 147.095 86.4561 147.192 87.1085C147.201 87.1958 147.178 87.2747 147.126 87.3453C147.088 87.4721 147.126 87.578 147.217 87.6694C147.35 87.8357 147.203 88.058 147.325 88.2262C147.307 88.2616 147.311 88.2927 147.34 88.3218C147.502 88.5483 147.535 88.8121 147.558 89.0801C147.614 89.7408 147.776 90.3849 147.87 91.0393C147.876 91.1536 147.828 91.2782 147.936 91.3717C148.148 91.5442 148.171 91.7976 148.19 92.0366C148.225 92.5082 148.023 92.691 147.444 92.7492H147.448Z" fill="#2E2E2E"/>
<path d="M52.8819 66.2329L52.9131 66.2599L52.9505 66.2433C53.4616 66.1124 53.9685 66.2807 54.4775 66.2723C54.5378 66.2557 54.598 66.2557 54.6583 66.2703C54.7268 66.291 54.7954 66.316 54.8577 66.3513C55.2608 66.5881 55.4208 66.9351 55.2878 67.2821C55.1652 67.6041 54.7684 67.735 54.2989 67.6103L54.3072 67.6207C53.9935 67.548 53.6797 67.5563 53.3702 67.6207C53.1894 67.6602 53.0211 67.6726 52.8819 67.5231L52.8445 67.4981L52.803 67.5127C52.3148 67.469 51.8369 67.3818 51.3653 67.2509C51.2386 67.2156 51.1326 67.1719 51.0599 67.0639C50.9851 67.0348 50.8729 67.0764 50.8438 66.9538L50.823 66.9787L50.8459 66.9559C50.6215 66.9185 50.4325 66.8229 50.3016 66.6297L50.3078 66.6359C49.5578 66.2079 48.9948 65.5597 48.3507 65.005L48.332 65.0299L48.3528 65.0071C46.7842 64.2197 45.5127 63.0604 44.3306 61.7868C43.4413 60.7397 42.8222 59.5139 42.0681 58.3796C41.9766 58.2404 41.9247 58.0949 41.8894 57.9329C41.8146 57.5776 41.7813 57.2431 42.1844 57.0541C42.5833 56.8692 43.0985 56.9938 43.3333 57.3719C43.6553 57.8913 43.9649 58.4211 44.1914 58.9945H44.1872C44.4698 59.1483 44.5799 59.4474 44.7398 59.6968C45.1782 60.3741 45.6727 60.9994 46.271 61.5396C46.3084 61.5728 46.3437 61.6081 46.377 61.6455C46.7821 62.1088 47.26 62.4932 47.7482 62.8609C47.7898 62.8879 47.8271 62.9212 47.8604 62.9565C47.9373 63.1144 48.0952 63.1996 48.2053 63.3284L48.1949 63.3201C49.1672 63.9205 50.2039 64.4316 50.902 65.3894L50.8978 65.3852C51.305 65.4559 51.5003 65.9025 51.9179 65.9607C52.0738 65.9607 52.2213 65.9981 52.3708 66.0313C52.5412 66.0937 52.7448 66.0729 52.8757 66.235L52.8819 66.2329Z" fill="#2E2E2E"/>
<path d="M101.733 82.2739C106.075 82.2532 110.417 82.2823 114.759 82.3487C116.039 82.3674 117.319 82.355 118.599 82.3633C122.328 82.3841 126.059 82.4069 129.788 82.4318C129.894 82.4318 130.002 82.4547 130.108 82.4651C130.356 82.6438 130.678 82.6334 130.931 82.7996C131.182 82.9637 131.436 83.1237 131.507 83.4457C131.388 85.0039 131.278 86.5621 131.149 88.1203C130.989 90.0545 130.811 91.9867 130.64 93.9209C130.437 96.2479 130.229 98.5748 130.029 100.902C129.938 101.959 129.861 103.017 129.776 104.074C129.761 104.251 129.813 104.438 129.691 104.596C129.649 104.558 129.641 104.492 129.61 104.467C129.552 104.421 129.574 104.5 129.572 104.517C129.429 105.516 128.775 106.046 127.885 106.368C125.86 107.103 123.859 107.068 121.887 106.177C121.696 106.089 121.518 106.029 121.324 106.154C120.346 106.787 119.226 106.896 118.112 106.991C115.918 107.18 113.72 107.178 111.52 107.033C110.999 106.999 110.477 107.095 109.958 107.141C108.019 107.311 106.071 107.359 104.149 107.702C103.754 107.772 103.328 107.589 102.954 107.839C102.869 107.862 102.784 107.903 102.697 107.905C99.5948 107.982 96.495 108.055 93.3931 108.128C93.4908 107.81 93.7671 107.907 93.9749 107.901C94.301 107.889 94.3488 107.764 94.2076 107.496C94.031 107.161 93.8751 106.817 93.7339 106.463C93.5282 105.95 92.9963 106.008 92.5995 105.838C92.4582 105.778 92.4561 105.942 92.4354 106.046C92.4063 106.193 92.4499 106.391 92.211 106.411C92.1985 105.73 92.186 105.049 92.1715 104.365C92.7283 103.956 92.5787 103.482 92.3398 102.961C92.1528 102.555 91.9928 102.13 91.9721 101.668C91.9658 101.548 91.9575 101.55 91.8578 101.558C91.6999 100.615 91.7414 99.6572 91.6895 98.7056C91.5088 95.4521 91.3696 92.1965 91.2158 88.941C91.1119 86.7491 91.0101 84.5551 90.9062 82.3612C92.1196 82.2365 93.3038 82.2386 94.3966 82.9263C94.997 83.3044 95.7055 83.3107 96.389 83.2712C97.9493 83.1819 99.5075 83.0801 101.059 82.8765C101.595 82.8058 102.04 82.4755 102.522 82.4464C102.289 82.4028 101.936 82.704 101.728 82.2677L101.733 82.2739Z" fill="#E1E7E6"/>
<path d="M44.0732 96.4307C45.4901 95.1218 46.3751 93.5075 46.8634 91.6522C47.121 90.6737 47.0794 89.6764 47.0067 88.6937C46.9485 87.9125 46.4188 87.3911 45.6854 87.1334C45.1971 86.961 44.686 86.8571 44.1833 86.7221C44.2497 86.1383 43.7262 86.184 43.3875 85.9762C43.3044 86.2214 43.3003 86.3938 43.5953 86.4603C43.722 86.4894 43.9028 86.4748 43.8903 86.6909C42.9242 86.7346 42.9159 86.7325 43.1341 85.8287C43.4104 84.6757 43.5621 83.5039 43.6763 82.3238C43.693 82.1472 43.7407 81.9748 43.7719 81.8003C44.0586 82.3321 43.7885 82.8245 43.7096 83.3315C43.99 81.9769 44.1043 80.6015 44.1002 79.2157C44.2061 78.5779 44.2643 77.9256 44.4367 77.3064C44.5718 76.8182 45.1099 76.7829 45.5088 76.6104C45.7581 76.652 45.9949 76.5606 46.1715 76.4255C46.6348 76.0703 47.1833 75.9227 47.7214 75.8251C48.3717 75.7067 48.7332 75.3389 48.9763 74.7801C49.6764 74.3417 50.4223 73.9885 51.1702 73.6457C52.851 72.8791 54.3759 71.8694 55.8116 70.7163C56.2728 70.3444 56.7652 70.0182 57.3241 69.8022C57.6772 69.9393 58.0471 70.0245 58.4127 70.1179C59.036 70.2758 59.5782 70.5792 60.0602 71.003C60.3573 71.2648 60.5547 71.5702 60.5942 71.9732C60.5713 72.0376 60.6981 71.9878 60.6254 71.9774C60.6025 71.9732 60.6046 71.9587 60.6087 71.9255C60.6233 71.8091 60.6482 71.7115 60.8019 71.753C60.5236 73.4753 60.2742 75.2018 59.9584 76.9179C59.3123 80.4436 58.7784 83.988 58.4771 87.5552C58.3442 89.1279 58.2964 90.7131 58.0699 92.2776C57.9079 93.3974 57.6336 94.5006 57.3988 95.61C57.3303 95.9362 57.108 96.119 56.7943 96.2375C55.5996 96.6945 54.4736 97.2929 53.3745 97.9473C53.2208 98.0387 53.0629 98.1385 52.8925 98.1842C50.0483 98.9508 47.2872 100.002 44.4222 100.698C43.5683 100.906 42.6978 101.047 41.8356 101.22C41.8127 101.028 41.6631 100.908 41.5198 100.97C41.3473 101.045 41.5426 101.205 41.5385 101.332C41.3702 101.444 41.1728 101.627 41.1853 101.213C41.2019 100.677 41.1375 100.137 41.2684 99.6073C41.3619 99.2292 41.2642 98.8615 41.2019 98.4896C41.1832 98.3753 41.0274 98.2091 41.2809 98.1489C41.4429 98.2444 41.6112 98.2964 41.7878 98.2008C42.3134 97.9141 42.8972 97.8081 43.4644 97.6461C43.9194 97.5173 44.2581 96.815 44.0732 96.4265V96.4307Z" fill="#E1E7E6"/>
<path d="M0.983691 100.904C3.41863 100.787 5.83695 100.472 8.26358 100.266C9.11955 100.33 9.9776 100.276 10.8356 100.293C11.3841 100.185 11.9389 100.274 12.4894 100.239C12.9818 100.459 13.468 100.145 13.9624 100.222C14.2221 100.264 14.4964 100.193 14.7436 100.326C14.3343 100.661 13.9043 100.362 13.5614 100.424C14.3717 100.474 15.2256 100.694 16.013 101.139C16.0608 101.166 16.1148 101.18 16.1564 101.213C16.817 101.764 17.5338 102.225 18.2672 102.674C18.8531 103.033 18.8988 103.519 18.5518 104.12C18.4313 104.328 18.4002 104.479 18.6038 104.629C18.7637 104.745 18.7866 104.932 18.8572 105.094C18.824 105.537 18.8053 105.981 18.6786 106.411C17.1474 107.396 15.4001 107.317 13.6903 107.427C13.3495 107.448 13.013 107.483 12.6743 107.523C11.8682 107.386 11.1078 107.685 10.3246 107.764C9.16318 107.878 8.00596 108.051 6.85497 108.246C5.65828 108.379 4.45743 108.435 3.2545 108.45C2.54812 107.897 1.73578 108.024 0.940062 108.115C-0.437384 108.273 -1.81898 108.337 -3.20474 108.304C-4.00254 108.285 -4.77748 108.14 -5.5171 107.833C-5.71655 107.749 -5.916 107.664 -6.05728 107.49C-6.18401 107.317 -6.21102 107.091 -6.37307 106.929C-6.63277 106.669 -6.68471 106.357 -6.50188 106.04C-6.30036 105.688 -6.47487 105.499 -6.76782 105.358C-7.02751 105.231 -7.28721 105.111 -7.51575 104.93C-7.80661 104.7 -7.98113 104.429 -7.87725 104.041C-7.84816 103.964 -7.80246 103.9 -7.7339 103.854C-6.75327 103.44 -5.82043 102.958 -5.19923 102.04C-5.08081 101.924 -4.93538 101.851 -4.78163 101.801C-3.30239 101.323 -1.78159 101.078 -0.231701 100.995C0.175508 100.999 0.57856 100.956 0.983691 100.904Z" fill="#7093BE"/>
<path d="M16.2853 95.4023C16.2999 95.4272 16.2957 95.4501 16.2728 95.4688C16.1295 95.8095 15.982 96.144 15.9903 96.5284C16.0028 97.1018 15.795 97.6419 15.6994 98.1987C15.6641 98.4086 15.5374 98.5935 15.3275 98.6953C13.8337 98.8511 12.3545 98.554 10.8669 98.5623C9.20072 98.5727 7.53656 98.5873 5.87033 98.4917C4.60923 98.421 3.35852 98.2569 2.11819 98.0408C0.0468321 97.6814 -2.00791 97.7874 -4.06888 98.1156C-5.88262 98.4044 -7.70052 98.6558 -9.51841 98.9238C-9.86537 98.8927 -10.177 98.7742 -10.229 98.394C-10.2809 98.0055 -9.97133 97.831 -9.67216 97.6939C-9.1486 97.457 -8.61258 97.2597 -8.08487 97.2244C-8.65413 96.8358 -9.35221 96.9293 -10.0337 96.9169C-10.2975 96.9127 -10.578 96.9688 -10.8044 96.7652C-10.8377 96.5242 -10.7774 96.4681 -10.5073 96.5159C-9.89446 96.6218 -9.56412 96.2416 -9.69085 95.6225C-9.74487 95.3545 -9.76357 95.0886 -9.73241 94.8185C-9.32104 94.3988 -8.76632 94.2762 -8.23446 94.1308C-7.10633 93.8233 -5.97196 93.547 -4.81889 93.3476C-4.43038 93.2811 -4.11251 93.198 -4.34936 92.6931C-4.37013 92.6495 -4.33689 92.5892 -4.30988 92.5415C-3.49339 92.4085 -2.68313 92.1883 -1.85417 92.2215C0.82593 92.3316 3.46655 91.9306 6.11549 91.6439C7.21869 91.5255 8.3115 91.7187 9.41055 91.7125C10.4743 91.7083 11.538 91.752 12.6017 91.779C12.9217 91.7873 13.2603 91.7208 13.5429 91.9389C13.7423 92.0927 13.7506 91.806 13.8815 91.8081C14.0519 92.2257 13.8088 92.5809 13.6488 92.9154C13.5034 93.2167 13.4182 93.3829 13.8234 93.4681C13.894 93.4826 13.9189 93.5678 13.8878 93.6467C13.8026 93.6862 13.7153 93.6841 13.68 93.6758C14.1038 93.9667 14.6814 93.7361 15.2008 93.9895C15.8324 94.2991 16.277 94.6523 16.2812 95.3961L16.2853 95.4023Z" fill="#A9C4E1"/>
<path d="M18.656 116.818C18.415 117.288 18.5853 117.734 18.7474 118.173C19.8194 121.065 21.0203 123.905 22.406 126.66C24.3756 130.572 25.7406 134.712 27.0972 138.857C27.4961 140.075 27.9532 141.267 28.6284 142.364C28.7115 142.499 28.7967 142.645 28.911 142.751C29.1873 143.004 29.2891 143.289 29.073 143.613C28.8528 143.943 28.5183 143.991 28.1589 143.881C27.8202 143.777 27.6686 143.488 27.4982 143.206C26.5654 141.65 25.9608 139.956 25.4268 138.234C24.0141 133.682 22.2502 129.273 20.1311 125C19.1234 122.966 18.3007 120.844 17.505 118.715C17.2889 118.135 17.1269 117.547 17.239 116.92C17.3242 116.517 17.4883 116.133 17.0978 115.752C16.9129 115.574 16.9025 115.235 16.7924 114.975C16.7238 114.728 16.6532 114.479 16.5825 114.232C16.7882 114.022 16.9045 114.19 16.8692 114.354C16.8152 114.612 16.9025 114.772 17.0811 114.907C17.2037 115 17.1913 115.358 17.4136 115.189C17.5881 115.058 17.8914 114.873 17.7231 114.533C17.5528 114.186 17.6629 114.096 18.0077 114.217C18.0098 114.383 18.0119 114.549 18.0161 114.716C18.0555 114.946 18.149 115.177 18.1407 115.401C18.1324 115.667 18.2446 115.727 18.4607 115.8C19.0632 116.002 19.1255 116.371 18.6518 116.82L18.656 116.818Z" fill="#2E2E2E"/>
<path d="M-4.98936 111.165C-4.14586 111.053 -3.2982 111.111 -2.45262 111.109C5.12852 111.076 12.7076 111.055 20.2887 111.03C20.3781 111.03 20.4674 111.045 20.5567 111.053C20.75 110.991 20.9515 111.02 21.1468 111.02C24.7535 111.02 28.3623 111.02 31.969 111.02C32.2952 110.999 32.6255 111.063 32.9475 110.98C35.077 110.978 37.2087 110.976 39.3382 110.972C39.2717 111.256 39.0453 111.117 38.8977 111.117C37.8153 111.13 36.7308 111.121 35.6484 111.126C35.4718 111.126 35.2869 111.082 35.1165 111.173C33.8284 111.18 32.5424 111.188 31.2543 111.194C31.0424 111.263 30.8242 111.229 30.6102 111.229C25.1586 111.232 19.7091 111.229 14.2575 111.234C14.0622 111.234 13.8607 111.192 13.6695 111.277C10.4991 111.321 7.33077 111.35 4.16036 111.408C0.719867 111.473 -2.71855 111.568 -6.15905 111.647C-6.33772 111.651 -6.5164 111.635 -6.69507 111.626C-6.5434 111.435 -6.32733 111.512 -6.14035 111.51C-3.4561 111.464 -0.76769 111.487 1.91448 111.362C3.55163 111.286 5.18877 111.352 6.82384 111.186C6.63893 111.186 6.45195 111.186 6.26705 111.186" fill="#DCDCDC"/>
<path d="M94.0205 110.733C94.1431 110.712 94.2657 110.673 94.3882 110.673C97.8869 110.656 101.388 110.644 104.886 110.633C104.957 110.633 105.03 110.648 105.1 110.654C105.977 110.743 106.856 110.668 107.735 110.693C111.834 110.693 115.931 110.693 120.03 110.693C121.316 110.698 122.602 110.596 123.888 110.641C124.096 110.648 124.322 110.577 124.495 110.764C124.353 110.785 124.212 110.822 124.073 110.822C115.883 110.837 107.691 110.849 99.5012 110.86C99.4119 110.86 99.3225 110.847 99.2311 110.839C97.6875 110.752 96.1397 110.826 94.596 110.797C94.4049 110.793 94.1992 110.862 94.0205 110.735V110.733Z" fill="#9A9A9A"/>
<path d="M139.229 106.206C139.222 106.31 139.214 106.416 139.208 106.519C138.934 106.32 138.848 106.052 138.882 105.722C138.975 104.826 138.707 103.954 138.603 103.083C138.518 102.377 138.472 101.675 138.462 100.97C138.45 99.9896 138.109 99.0402 138.229 98.045C138.356 96.9896 138.556 96.4785 139.702 96.547C140.517 96.5948 141.3 96.3767 142.077 96.1419C142.353 96.0588 142.738 96.2583 142.858 95.7763C142.885 95.6703 143.064 95.9383 143.218 95.9051C143.286 95.9861 143.282 96.0692 143.228 96.1544C142.682 96.5096 142.027 96.5096 141.429 96.6966C140.777 96.8317 140.118 96.9272 139.455 96.975C138.915 97.0145 138.73 97.3428 138.73 97.7977C138.73 98.7327 138.701 99.6655 138.784 100.603C138.896 101.837 139.011 103.071 139.141 104.303C139.189 104.749 139.245 105.194 139.312 105.639C139.343 105.842 139.355 106.033 139.227 106.206H139.229Z" fill="#392C26"/>
<path d="M-9.94446 90.9209C-9.85304 90.8087 -9.72423 90.8108 -9.5975 90.817C-8.10371 90.8814 -6.61615 90.7464 -5.12651 90.6923C-4.49492 90.6695 -3.84671 90.682 -3.22759 90.4867C-1.88754 90.3101 -0.541263 90.3807 0.802941 90.3662C1.87914 90.3537 2.95325 90.3765 4.02945 90.3849C3.93803 90.4991 3.80922 90.4887 3.68249 90.4908C2.15546 90.5261 0.628425 90.5677 -0.898607 90.5968C-1.78574 90.6134 -2.6978 90.6134 -3.54962 90.7526C-5.18261 91.0227 -6.80937 91.0164 -8.44651 91.0351C-8.95137 91.0414 -9.4396 90.8544 -9.94653 90.9209H-9.94446Z" fill="#373737"/>
<path d="M35.1184 111.173C35.2805 111.007 35.4882 111.074 35.6773 111.074C36.7119 111.067 37.7466 111.074 38.7812 111.067C38.9703 111.067 39.178 111.134 39.3401 110.972C41.4945 110.963 43.6469 110.953 45.8014 110.945C47.7003 110.872 49.5992 110.926 51.5002 110.918C51.5854 110.934 51.6145 110.984 51.5833 111.065C48.6332 111.098 45.6809 111.14 42.7307 111.161C40.194 111.18 37.6572 111.173 35.1205 111.177L35.1184 111.173Z" fill="#D7D7D7"/>
<path d="M68.9978 110.837C69.0664 110.818 69.1349 110.783 69.2035 110.783C72.6481 110.774 76.0907 110.768 79.5354 110.762C80.2978 110.851 81.0624 110.777 81.827 110.801C82.3671 110.841 82.9156 110.718 83.4516 110.872C83.3831 110.889 83.3124 110.922 83.2439 110.922C80.3789 110.93 77.5118 110.936 74.6468 110.943C74.09 110.862 73.529 110.926 72.9681 110.905C71.8171 110.905 70.6682 110.907 69.5193 110.901C69.3468 110.901 69.1599 110.961 68.9999 110.835L68.9978 110.837Z" fill="#9D9D9D"/>
<path d="M51.5772 110.98C49.6513 110.968 47.7254 110.955 45.8015 110.941C45.8535 110.928 45.9054 110.903 45.9573 110.903C49.3147 110.891 52.67 110.88 56.0274 110.868C56.6694 110.953 57.3155 110.901 57.9617 110.903C59.6487 110.912 61.3378 110.903 63.0248 110.909C63.1972 110.909 63.3842 110.845 63.5421 110.98C62.3973 111.084 61.2484 111.032 60.1016 111.042C58.2712 111.061 56.4409 111.051 54.6105 111.053C53.7961 110.959 52.9775 111.038 52.161 111.009C51.9657 111.003 51.7704 111.04 51.5793 110.976L51.5772 110.98Z" fill="#BCBCBC"/>
<path d="M13.6697 111.277C13.7839 111.157 13.9335 111.184 14.0748 111.184C19.7113 111.18 25.3478 111.175 30.9864 111.171C31.0758 111.171 31.1651 111.188 31.2544 111.196C31.0945 111.213 30.9345 111.244 30.7745 111.244C25.1796 111.265 19.5867 111.283 13.9917 111.3C13.8837 111.3 13.7756 111.285 13.6697 111.277Z" fill="#C8C8C8"/>
<path d="M63.5399 110.984C61.2421 110.978 58.9443 110.972 56.6485 110.959C56.4408 110.959 56.2143 111.032 56.0273 110.87C59.4325 110.858 62.8377 110.843 66.2429 110.83C67.1612 110.828 68.0795 110.835 68.9998 110.837C70.3378 110.847 71.6758 110.858 73.0138 110.868C73.0574 110.878 73.074 110.893 73.0636 110.912C73.0512 110.932 73.0408 110.945 73.0283 110.945C69.8662 110.957 66.7041 110.97 63.5441 110.982L63.5399 110.984Z" fill="#BDBDBD"/>
<path d="M110.417 109.206C112.417 109.206 114.418 109.206 116.419 109.21C116.616 109.21 116.814 109.231 117.009 109.241C116.903 109.333 116.774 109.318 116.649 109.318C112.76 109.324 108.873 109.328 104.984 109.333C104.878 109.333 104.774 109.32 104.668 109.274C105.935 109.235 107.203 109.233 108.466 109.137C109.114 109.245 109.768 109.112 110.417 109.206Z" fill="#767676"/>
<path d="M131.303 110.637C131.268 110.606 131.232 110.577 131.197 110.546C135.024 110.54 138.849 110.535 142.676 110.529C142.713 110.552 142.724 110.573 142.711 110.596C142.699 110.616 142.686 110.627 142.674 110.627C141.248 110.652 139.823 110.714 138.398 110.646C137.972 110.741 137.54 110.685 137.11 110.687C135.35 110.695 133.588 110.691 131.829 110.687C131.652 110.687 131.469 110.733 131.301 110.637H131.303Z" fill="#BBBBBB"/>
<path d="M32.0811 111.067C28.437 111.072 24.7949 111.076 21.1508 111.078C20.9535 111.078 20.7561 111.061 20.5566 111.053C21.3254 110.951 22.0982 111.003 22.869 110.999C25.9418 110.984 29.0145 110.984 32.0873 110.978C32.1226 111.001 32.133 111.02 32.1205 111.04C32.1081 111.059 32.0956 111.067 32.0831 111.067H32.0811Z" fill="#C8C8C8"/>
<path d="M14.7209 109.576C14.8975 109.517 15.018 109.657 15.2507 109.686C14.6669 109.798 6.37105 109.815 5.66675 109.692C6.54349 109.746 7.39946 109.472 8.27828 109.567C8.67303 109.655 9.07193 109.588 9.46875 109.609C9.84479 109.617 10.2146 109.52 10.5927 109.553C10.6862 109.553 10.7797 109.553 10.8753 109.553C11.2472 109.509 11.6232 109.505 11.9972 109.507C12.0595 109.507 12.1218 109.507 12.1842 109.507C12.554 109.513 12.9238 109.509 13.2936 109.509C13.3538 109.509 13.4162 109.513 13.4764 109.522C13.8919 109.538 14.3054 109.671 14.7271 109.576H14.7209Z" fill="#616161"/>
<path d="M44.1001 79.2178C44.3536 79.7663 44.2227 80.348 44.1999 80.9048C44.1645 81.7691 43.9734 82.6188 43.7075 83.4499C43.7012 82.8972 43.8508 82.3529 43.7719 81.8003C43.7802 81.1853 43.8446 80.5786 43.9838 79.9782C44.1562 79.7434 43.9672 79.4547 44.1022 79.2157L44.1001 79.2178Z" fill="#E9EBEB"/>
<path d="M98.5028 60.8322L98.4854 60.8103L98.5006 60.8344H98.5028V60.8322Z" fill="#2E2E2E"/>
<path d="M61.6475 75.7462C61.6475 75.7462 61.6475 75.7486 61.6475 75.751V75.7559L61.6523 75.7462H61.6475Z" fill="#2E2E2E"/>
<path d="M18.8406 85.5318C18.8406 85.5318 18.8449 85.5318 18.8471 85.5318L18.869 85.5275H18.8406V85.5318Z" fill="#2E2E2E"/>
<path d="M13.8961 93.628C14.8414 93.6405 15.6683 93.9563 16.3664 94.5982C16.3955 94.8725 16.3664 95.1405 16.2854 95.4043C16.2563 95.2755 16.0776 95.3275 16.0444 95.1592C15.9218 94.538 15.1905 93.9791 14.5256 93.9563C14.1849 93.9438 13.8068 94.0581 13.572 93.6716C13.6593 93.5844 13.786 93.6571 13.8961 93.6301V93.628Z" fill="#AFC2D6"/>
<path d="M94.0203 110.733C95.5681 110.739 97.1139 110.743 98.6617 110.754C98.8528 110.754 99.0606 110.689 99.233 110.837C96.2745 110.837 93.316 110.841 90.3575 110.843C90.3222 110.822 90.3118 110.801 90.3222 110.781C90.3347 110.76 90.345 110.749 90.3575 110.749C91.5791 110.743 92.7987 110.737 94.0203 110.731V110.733Z" fill="#AFAFAF"/>
<path d="M15.7305 98.7243C15.6495 98.6059 15.5227 98.6246 15.4043 98.6121C15.6453 97.8455 15.8801 97.0851 15.8614 96.2562C15.8551 95.9985 15.9362 95.6266 16.2727 95.4708C16.1502 96.5657 15.9819 97.6523 15.7284 98.7243H15.7305Z" fill="#AFC2D6"/>
<path d="M121.314 110.619C122.907 110.633 124.501 110.646 126.094 110.66C126.136 110.673 126.152 110.689 126.142 110.71C126.13 110.731 126.117 110.741 126.105 110.741C125.569 110.747 125.033 110.756 124.497 110.762C123.013 110.745 121.528 110.729 120.044 110.712C120.044 110.687 120.042 110.66 120.038 110.635C120.464 110.629 120.888 110.625 121.314 110.619Z" fill="#DEDEDE"/>
<path d="M13.3392 72.6381C13.7361 73.0266 13.8669 73.413 13.4286 73.8826C13.3018 74.0197 13.306 74.2773 13.252 74.4809C13.1772 74.1921 13.2437 73.9179 13.3434 73.6478C13.4556 73.3403 13.5906 72.9975 13.2187 72.8002C12.9071 72.6339 12.5643 72.6568 12.3004 72.9622C12.2672 73.0017 12.2153 73.0225 12.1716 73.0536C12.4293 72.5197 12.6432 72.4449 13.3413 72.6381H13.3392Z" fill="#555555"/>
<path d="M126.103 110.741C126.103 110.714 126.099 110.687 126.092 110.66C127.185 110.654 128.28 110.648 129.373 110.641C129.481 110.641 129.589 110.643 129.67 110.733C128.479 110.735 127.291 110.739 126.101 110.741H126.103Z" fill="#CFCFCF"/>
<path d="M41.5383 101.336C41.2516 101.301 41.2931 101.082 41.2952 100.891C41.2952 100.781 41.3513 100.721 41.4614 100.769C41.6443 100.848 41.8229 100.941 42.0037 101.026C41.9476 101.093 41.8915 101.157 41.8354 101.224C41.7606 101.321 41.6484 101.328 41.5383 101.336Z" fill="#EDEEEF"/>
<path d="M10.8546 100.237C10.8546 100.272 10.8587 100.307 10.8649 100.341C9.99858 100.303 9.12807 100.447 8.26587 100.266C9.12807 100.256 9.99235 100.247 10.8546 100.237Z" fill="#8DA1BC"/>
<path d="M81.8044 110.762C81.8044 110.785 81.8085 110.808 81.8148 110.828C81.0544 110.82 80.2919 110.941 79.5356 110.762C80.2919 110.762 81.0481 110.762 81.8044 110.762Z" fill="#B0B0B0"/>
<path d="M110.417 109.206C109.766 109.198 109.11 109.326 108.466 109.137C109.112 109.137 109.76 109.137 110.406 109.137C110.408 109.16 110.413 109.183 110.417 109.206Z" fill="#B0B0B0"/>
<path d="M73.0244 110.945C73.0244 110.918 73.0203 110.893 73.012 110.868C73.5563 110.891 74.1089 110.754 74.6449 110.943C74.1048 110.943 73.5646 110.943 73.0244 110.943V110.945Z" fill="#A6A6A6"/>
<path d="M11.9492 107.6C12.2172 107.486 12.5268 107.253 12.5725 107.808C12.4437 107.5 12.1694 107.631 11.9492 107.6Z" fill="#7093BE"/>
<path d="M32.0809 111.067C32.083 111.038 32.0851 111.007 32.0851 110.978C32.3718 110.978 32.6606 110.978 32.9473 110.978C32.6731 111.163 32.3676 111.032 32.0789 111.067H32.0809Z" fill="#D7D7D7"/>
<path d="M12.049 73.6997C12.0262 73.5044 12.0095 73.3091 12.1425 73.1408C12.1591 73.3361 12.2131 73.5356 12.049 73.6997Z" fill="#555555"/>
<path d="M18.6556 116.818C19.0088 116.236 18.9319 116.033 18.2567 115.84C18.1258 115.802 17.9783 115.781 18.0323 115.617C18.132 115.31 17.9201 115.015 18.0199 114.716C18.0718 114.863 18.1404 115.009 18.1736 115.162C18.2422 115.482 18.2712 115.786 18.7429 115.767C18.9693 115.759 19.1688 115.973 19.1708 116.238C19.175 116.571 18.9693 116.752 18.6577 116.82L18.6556 116.818Z" fill="#3D3D3D"/>
<path d="M16.7944 114.975C17.1061 115.266 17.0022 115.875 17.5673 115.979C17.6483 115.993 17.6296 116.099 17.5735 116.153C17.3533 116.363 17.4426 116.706 17.2411 116.92C17.3741 116.207 16.8007 115.657 16.7944 114.975Z" fill="#3D3D3D"/>
<path d="M42.999 54.8353L43.023 54.8549L43.0012 54.8331L42.999 54.8353Z" fill="#2E2E2E"/>
<path d="M10.7234 69.7772C10.7234 69.7772 10.7234 69.7794 10.7234 69.7816L10.7365 69.8056L10.7256 69.7794L10.7234 69.7772Z" fill="#2E2E2E"/>
<path d="M47.767 35.6548L47.7587 35.6673C47.9726 35.2622 48.0869 34.8778 47.5654 34.6077C47.3992 34.4477 47.2206 34.3646 46.9858 34.4706C46.6326 34.6306 46.4789 34.481 46.3687 34.132C46.2503 33.7621 46.1132 33.384 45.841 33.0828C45.7558 32.9436 45.7517 32.7628 45.6125 32.6527C45.4858 32.5405 45.413 32.4013 45.4027 32.231C45.1201 31.4145 44.715 30.6811 43.9982 30.1575C43.8071 29.8812 43.6575 29.5716 43.3396 29.4075C43.1069 29.0626 42.8306 28.7593 42.4587 28.5578C42.3507 28.3272 42.1242 28.2378 41.9289 28.1111C41.8583 27.9054 41.6755 27.8472 41.4968 27.7849H41.4989C41.1976 27.5169 40.9067 27.2302 40.4891 27.1429C40.4123 27.1408 40.3375 27.1346 40.3042 27.0474C40.1276 26.8334 39.6934 26.7773 39.8742 26.3451C39.8513 26.314 39.8555 26.2828 39.8825 26.2579C39.9781 25.7676 39.9552 25.2689 39.9303 24.7765C39.9137 24.4504 39.8555 24.0889 39.4275 24.0016L39.4379 24.0099C38.8021 23.8167 38.5009 24.0307 38.3825 24.7578C38.2495 24.8659 38.3305 25.0425 38.2557 25.1692C38.1103 25.2876 38.1789 25.4601 38.1456 25.6076C38.0937 25.9421 37.9399 26.1041 37.5888 25.9379C37.4455 25.9151 37.2834 25.994 37.1608 25.8569C36.7827 25.6782 36.4004 25.5245 35.9704 25.6346C35.8644 25.62 35.7585 25.6076 35.6525 25.593C35.3783 25.5827 35.2495 25.4414 35.2765 25.1692C35.2993 24.9303 35.2162 24.7267 35.0978 24.5293L35.1019 24.5376C34.9357 24.1657 34.622 24.0826 34.2564 24.1263C33.8865 24.1699 33.7058 24.4234 33.6082 24.7558C33.5063 24.789 33.5417 24.9033 33.4877 24.9635C33.3588 25.0383 33.4232 25.1775 33.3838 25.2835C33.1552 25.6512 32.7356 25.5806 32.4031 25.7115C32.3678 25.7177 32.3346 25.7239 32.2993 25.7302C31.9523 25.6907 31.6199 25.7302 31.327 25.9421C30.847 26.0813 30.3359 26.0709 29.9183 26.476C29.6836 26.7025 29.2494 26.8001 28.8733 26.5716C28.3601 26.2558 28.1378 26.2973 27.7431 26.7731C27.633 26.823 27.6787 26.9352 27.6475 27.0183C27.5769 27.4566 27.2798 27.7205 26.9121 27.9012C26.5755 28.0675 26.2971 28.3001 26.0249 28.5474C25.6385 28.7219 25.2749 28.9255 25.0464 29.3036C24.66 29.4574 24.3732 29.7628 24.0387 30.0225C24.0221 29.9124 24.0678 29.8563 24.0948 29.7939C24.2361 29.5716 24.5415 29.4865 24.5976 29.1914C24.5602 28.8216 24.6475 28.429 24.3878 28.1028C24.3317 27.7911 24.1676 27.5938 23.8351 27.5792C23.6627 27.4442 23.4923 27.413 23.3241 27.5813C23.1911 27.6228 23.0436 27.6353 22.9605 27.7766C22.5948 28.3957 22.5761 29.0938 22.4494 29.7254C21.9404 29.366 21.3628 29.1644 20.7063 29.5072C20.6751 29.5218 20.644 29.5363 20.6107 29.5509C19.8566 29.8334 19.439 30.5003 18.9237 31.053C18.6682 31.3272 18.4833 31.6409 18.0158 31.5557C17.6273 31.4851 17.3842 31.7074 17.2492 32.0751C17.0746 32.5509 17.083 33.0599 16.9479 33.5419C16.9355 33.5918 16.9251 33.6437 16.9188 33.6957C17.0352 34.0343 16.7817 34.3085 16.7589 34.6243C16.7422 34.67 16.7277 34.7178 16.7152 34.7635L16.709 35.0357C16.5303 35.4263 16.3683 35.821 16.281 36.2449V36.2386C15.8489 37.0967 15.585 38.0129 15.4147 38.9561C15.1259 39.2304 15.2921 39.6854 15.0199 39.9679C14.8869 40.0406 14.8454 40.1653 14.8225 40.3045C14.8122 40.4832 14.7893 40.6452 14.6854 40.8114C13.8357 42.1847 13.04 43.5871 12.2484 44.9957C12.1279 45.2118 12.105 45.4819 11.8931 45.6481C11.8682 45.6938 11.8453 45.7395 11.8308 45.7893C11.7664 46.0906 11.5773 46.3191 11.3987 46.5539C11.3363 46.6328 11.2927 46.7201 11.2761 46.8198C11.2241 47.0525 11.166 47.2852 11.0725 47.5054C10.7754 47.7111 10.7006 48.0477 10.578 48.3552C10.4679 48.6294 10.4409 48.939 10.2061 49.155C10.2872 49.3212 10.1002 49.4127 10.0939 49.5539C10.0254 49.61 9.94019 49.6599 9.91526 49.7472C9.65348 50.707 8.99904 51.4612 8.56898 52.3338C8.53989 52.3732 8.51289 52.4148 8.48795 52.4584C8.45056 52.5207 8.41316 52.581 8.37992 52.6454C8.34044 52.7306 8.28019 52.8054 8.25111 52.8947C8.20748 53.0256 8.15346 53.1503 8.0849 53.2708C8.06205 53.3102 8.03919 53.3518 8.0205 53.3933C7.95193 53.5429 7.86883 53.6821 7.76703 53.8109C7.73794 53.8504 7.71093 53.8899 7.68808 53.9314C7.31619 54.5007 6.97546 55.097 6.44776 55.5478C6.13612 55.8137 5.88473 56.1545 5.49206 56.3227C5.21782 56.5222 4.92903 56.7071 4.66726 56.9211C4.31199 57.212 3.87985 57.4343 3.69702 57.8976C3.03634 58.4024 2.68523 59.1774 2.09935 59.7466C1.98924 59.8526 1.91237 59.9835 1.83965 60.1164C1.54255 60.6628 1.1582 61.1552 0.850715 61.6954C0.825784 61.737 0.80293 61.7806 0.784232 61.8263C0.713594 61.978 0.709439 62.1462 0.653344 62.3021C0.615947 62.3498 0.57855 62.3956 0.541154 62.4433C0.426886 62.5264 0.316773 62.6158 0.271066 62.7591C0.227436 62.8734 0.214971 62.9877 0.258601 63.104C0.244058 63.1726 0.229515 63.2411 0.214971 63.3097C0.18173 63.3512 0.152642 63.3949 0.127711 63.4427C0.115246 63.6899 0.0633061 63.9184 -0.152764 64.0763C-0.312739 64.4337 -0.364678 64.8118 -0.364678 65.1982C-0.385454 65.7155 -0.316894 66.2308 -0.339748 66.7481C-0.379222 67.6477 -0.366755 68.5328 0.169264 69.3181C0.275221 69.4718 0.275221 69.6547 0.30223 69.8313C0.453894 70.2032 0.696972 70.5065 0.996146 70.7683C1.49685 71.6388 2.25725 72.1021 3.24618 72.2101C3.28566 72.2018 3.32305 72.1935 3.36253 72.1852C3.53704 72.4657 3.78012 72.3098 4.00243 72.287C4.33069 72.1956 4.68803 72.1436 4.93319 71.8902C5.18458 71.6263 5.52738 71.4933 5.77877 71.2336C5.96575 71.0404 6.12365 71.0882 6.21091 71.3458C6.47892 71.7136 6.68045 72.1499 7.17699 72.2849L7.16868 72.2766C7.56342 72.5363 7.9831 72.6568 8.45263 72.5031H8.44432C8.90763 72.4553 9.29614 72.287 9.51013 71.8424C9.6431 71.7198 9.80307 71.6242 9.92149 71.485C9.97343 71.404 10.0191 71.323 9.99005 71.2212C9.98382 71.2046 9.96928 71.1859 9.97551 71.1734C9.99005 71.1443 10.0129 71.1214 10.0316 71.0965C10.3121 70.9178 10.4035 70.6062 10.5614 70.3403C10.5842 70.2966 10.605 70.2551 10.6237 70.2094C10.6944 70.0785 10.659 69.9248 10.711 69.7897C11.1681 69.1353 11.4278 68.3936 11.6937 67.7267C11.6875 67.8638 11.6563 68.0736 11.6791 68.2835C11.6854 68.3624 11.6978 68.4414 11.7186 68.5182C11.7934 69.0792 11.9368 69.6194 12.1944 70.1263C12.1944 70.1803 12.2006 70.2343 12.211 70.2883C12.2567 70.4545 12.3564 70.5875 12.4645 70.7142C13.443 71.7094 14.6044 71.7281 15.7367 70.816C15.6224 71.1215 15.6411 71.4954 15.7284 71.8548C15.8115 72.2018 15.9195 72.5654 16.3724 72.6194H16.3683C16.5823 72.7129 16.7983 72.7087 17.0144 72.6194H17.0123C17.3842 72.5155 17.6128 72.2475 17.7873 71.9213C18.3731 70.8264 18.1405 69.6588 18.0927 68.5058C18.0283 68.2419 18.0719 67.9864 18.155 67.7329C18.3191 67.6747 18.3337 67.5127 18.3711 67.3839C18.6432 66.4739 18.7866 65.5348 18.9611 64.602C19.0775 64.5105 18.9881 64.363 19.0546 64.2592L19.0484 64.2675C19.2083 64.0784 19.1751 63.8208 19.2769 63.6109L19.2707 63.6172C19.6966 62.9523 19.8981 62.1961 20.1557 61.4627C20.324 60.8935 20.5733 60.3637 20.8891 59.8609C21.1862 59.3893 21.1322 58.9592 20.7561 58.7328C20.378 58.5042 19.9355 58.6413 19.6779 59.1109C19.4286 59.5659 19.2146 60.0396 19.0006 60.5132C18.8323 60.8831 18.7243 61.2757 18.3004 61.4773C18.0844 61.5811 18.0553 61.8595 17.9909 62.0839C17.8434 62.5992 17.6959 63.1144 17.5463 63.6296C17.5151 63.6691 17.4943 63.7252 17.4528 63.7439C17.4528 63.7709 17.4528 63.7938 17.4507 63.8C17.4445 63.8062 17.4424 63.7834 17.4424 63.746C17.4195 63.7522 17.3946 63.7501 17.3572 63.7314C17.1557 62.8568 16.9895 61.9696 16.6674 61.1261C16.4202 60.4779 16.0795 59.8775 15.4978 59.4724C14.6979 58.9135 13.8648 58.9821 13.0628 59.4641C12.6494 59.7113 12.2754 60.0229 11.8142 60.3533C11.9721 59.2625 12.1175 58.2404 12.2671 57.2203C12.9195 52.8137 13.738 48.4424 15.1757 44.2124C15.7429 42.5421 16.2623 40.855 16.9645 39.2324C17.3655 38.3058 17.6003 37.3231 17.8808 36.3529C18.4625 34.3314 19.3101 32.447 20.8455 30.9449C20.9888 30.8036 21.1093 30.6457 21.3441 30.7122C21.3836 30.7434 21.4147 30.7829 21.4355 30.8286C21.4334 30.8556 21.4334 30.8805 21.4314 30.9054C21.6246 31.0072 21.7742 31.2296 22.0173 31.1402C22.385 31.0072 22.3621 31.2524 22.3829 31.4685C22.3954 31.5952 22.4016 31.7261 22.3455 31.8404C22.3788 31.8487 22.4141 31.8591 22.4473 31.8674C22.4722 31.9172 22.4639 31.9609 22.4224 31.9983C22.331 32.1084 22.2292 32.2123 22.1481 32.3286C21.9591 32.5987 21.8136 32.8459 21.3981 32.5717C21.1447 32.4055 20.7956 32.4636 20.6647 32.8625C20.4611 33.4754 20.2513 34.0862 20.0415 34.6991C19.9542 34.9484 19.9355 35.2165 19.815 35.4554C19.8067 35.5613 19.7921 35.6673 19.7734 35.7712C19.7672 35.8709 19.7464 35.9644 19.7111 36.0537C19.6571 36.2615 19.5844 36.463 19.4909 36.6604C19.1855 37.7013 18.5892 38.6362 18.3025 39.6729C16.7817 45.1993 16.8607 50.5886 19.8711 55.6745C20.6003 56.9065 21.5124 57.9973 22.6198 58.9156C22.7112 58.9925 22.84 59.0465 22.8545 59.1919C22.894 59.2272 22.9335 59.2625 22.9729 59.2958C23.7562 59.944 24.5997 60.4904 25.5699 60.8166C25.8379 61.1781 26.2909 61.0784 26.6378 61.2487C26.7209 61.3879 26.8664 61.3214 26.9806 61.3505C27.2466 61.604 27.5977 61.6352 27.928 61.6829C28.4017 61.7515 28.8858 61.7328 29.3615 61.7889C29.4343 61.793 29.5049 61.7951 29.5776 61.7993C29.748 61.9198 29.9495 61.9426 30.1448 61.9447C31.5513 61.9655 32.9309 61.8201 34.2314 61.2321L34.2231 61.2363C34.7529 61.122 35.3035 61.0617 35.7543 60.7106C35.8166 60.6691 35.879 60.6275 35.9413 60.586C36.5916 60.3761 37.1671 60.0271 37.7633 59.6968C39.4379 58.766 40.78 57.4633 42.0889 56.1067C42.3507 55.6558 42.8285 55.3608 42.9885 54.8393C43.3251 54.5381 43.6139 54.2015 43.7593 53.7631C43.8964 53.6967 43.913 53.5554 43.9712 53.437C44.3597 53.1773 44.4449 52.7368 44.6256 52.3504L44.6194 52.3587C44.9581 51.8061 45.3466 51.2763 45.5045 50.6301C45.8327 50.0463 46.2088 49.4791 46.2565 48.779L46.2503 48.7873C46.3978 48.5962 46.4186 48.3614 46.4768 48.1391C46.6118 48.056 46.5183 47.9023 46.5807 47.7984C46.5786 47.5304 46.6679 47.2873 46.778 47.0504C46.9505 46.7887 46.9235 46.4729 47.019 46.1903C47.1478 45.8662 47.2268 45.5317 47.2247 45.1827C47.206 45.1536 47.2102 45.1307 47.2413 45.1141C47.4096 44.9541 47.339 44.7547 47.3286 44.5656C47.3411 44.495 47.3514 44.4244 47.3639 44.3558C47.4304 44.1439 47.4325 43.9237 47.4574 43.7076C47.4616 43.6349 47.4678 43.5622 47.4719 43.4894C47.6257 43.1986 47.4179 42.8745 47.553 42.5815C47.5613 42.3052 47.5696 42.031 47.5779 41.7546C47.6423 41.3952 47.6402 41.0358 47.5779 40.6743C47.5696 40.4001 47.5613 40.1258 47.5509 39.8516C47.4325 39.5192 47.5862 39.1618 47.4595 38.8315C47.4325 38.8024 47.4304 38.7712 47.4491 38.7359C47.3244 38.5281 47.4678 38.283 47.3535 38.0731C47.3265 38.0441 47.3224 38.0108 47.3411 37.9755C47.233 37.8051 47.3701 37.5891 47.2413 37.4229C47.2122 37.4 47.206 37.373 47.2247 37.3398C47.1645 37.1922 47.2891 37.0073 47.1312 36.8806C47.1208 36.8474 47.1125 36.8141 47.1021 36.783C47.0647 36.5794 47.0627 36.382 47.2351 36.2282C47.5363 36.1576 47.688 35.9498 47.7545 35.6631L47.767 35.6548ZM5.25314 69.4365C4.90203 68.2253 5.37987 66.9289 6.37919 66.3825C6.50385 67.6602 6.08418 68.7945 5.25314 69.4365ZM8.28851 71.0217C8.15346 71.1256 8.02257 71.0882 7.88961 71.0072C7.54057 70.7911 7.45954 70.2177 7.75041 69.9351C7.92908 69.7627 8.13061 69.611 8.38615 69.395C8.48172 69.8645 8.40277 70.2655 8.52743 70.6457C8.59183 70.841 8.41316 70.9262 8.28851 71.0217ZM13.1999 67.0016C13.0628 66.3825 13.1999 65.7716 12.9943 65.0985C13.8004 65.5099 13.8648 66.3617 13.1999 67.0016ZM16.2893 67.0348C15.8759 67.9427 15.5352 68.8963 14.7748 69.6007C14.5795 69.6069 14.567 69.5092 14.6439 69.3638C14.9908 68.7177 15.1612 68.0258 15.1051 67.2945C15.0739 66.8873 15.2713 66.6525 15.5975 66.4863C15.7678 66.3991 15.9714 66.2453 16.1439 66.3991C16.3184 66.5528 16.4015 66.7917 16.2893 67.0348ZM11.9492 62.2917C12.4333 61.8346 12.8758 61.336 13.4056 60.9267C14.272 60.2598 14.7997 60.3741 15.2568 61.3713C15.6099 62.1442 15.7595 62.9794 15.9361 63.8062C15.9465 63.8582 15.9465 63.9143 15.9569 63.9662C16.1439 64.9822 16.1418 64.9759 15.1404 65.246C14.9659 65.2938 14.9119 65.2647 14.8205 65.1068C14.0268 63.7418 12.8177 63.4094 11.4111 64.1532C11.3156 64.2031 11.2221 64.2529 11.0621 64.3402C11.1909 63.5237 11.3717 62.8402 11.9513 62.2917H11.9492ZM12.6016 48.0456C12.3045 49.4293 11.9929 50.8088 11.7145 52.1966C11.0912 55.2902 10.7318 58.4253 10.2124 61.5354C10.1251 62.0548 9.96305 62.5036 9.5683 62.8568C9.08007 63.2972 8.75181 63.9101 8.10568 64.174C7.77949 64.3069 7.63198 64.255 7.59874 63.8582C7.54472 63.2141 7.41176 62.5742 7.16245 61.9738C6.57241 60.5486 5.1825 60.3117 4.17279 61.4814C3.47887 62.2854 3.03011 63.2204 2.92 64.2945C2.90546 64.4358 2.90961 64.5833 2.93039 64.7245C2.99064 65.1442 3.20255 65.4579 3.65755 65.4475C4.12293 65.4371 4.32861 65.0943 4.33069 64.6809C4.33069 63.881 4.66933 63.2224 5.10147 62.5908C5.2199 62.4184 5.3217 62.1753 5.58348 62.221C5.83902 62.2667 5.87434 62.5306 5.92005 62.728C6.05717 63.3222 6.15689 63.9267 6.28363 64.5251C6.33972 64.7869 6.1652 64.8596 5.99068 64.9676C5.35702 65.3624 4.80646 65.8444 4.39094 66.4759C3.58067 67.7038 3.48303 68.9961 4.06891 70.3278C4.20603 70.6374 4.05229 70.6872 3.84868 70.7184C3.36253 70.7932 2.91792 70.6914 2.55642 70.3299C1.71915 69.4905 1.27247 68.46 1.19144 67.2945C1.0377 65.1151 1.62358 63.1373 2.88052 61.3422C4.01074 59.7258 5.19496 58.1967 6.90898 57.1143C8.24072 56.2729 8.92633 54.8414 9.65972 53.4972C10.6757 51.6398 11.5981 49.7347 12.4645 47.8025C12.6722 47.7942 12.6494 47.9147 12.6016 48.0498V48.0456ZM39.6456 28.3708C40.9711 29.1063 42.0141 30.0495 42.9095 31.1693C42.9947 31.2773 43.0363 31.3812 42.9968 31.5163C42.5003 33.1555 42.305 34.8612 41.8894 36.517C41.877 36.5669 41.8354 36.6105 41.7773 36.7082C39.4607 34.3418 39.4171 31.4352 39.6477 28.3729L39.6456 28.3708ZM35.1435 29.8168C35.1892 29.0252 35.2495 28.2357 35.2328 27.4442C35.2266 27.1575 35.2598 27.0287 35.613 27.091C36.0722 27.172 36.5313 27.2468 36.9926 27.3195C37.4662 27.3964 37.5992 27.5294 37.3956 28.0238C36.87 29.3015 36.309 30.5647 35.7107 31.8092C35.5902 32.0585 35.4925 32.3348 35.131 32.5717C35.131 31.5973 35.0916 30.7039 35.1435 29.8168ZM30.2632 27.6644C30.9966 27.5169 31.73 27.28 32.4904 27.2323C32.9142 27.2053 32.6919 27.4546 32.6441 27.6062C32.1829 29.0647 31.649 30.4962 31.0444 31.9027C30.9239 32.1832 30.8034 32.4657 30.658 32.7337C30.3505 33.3009 30.0222 33.3092 29.6711 32.7587C29.3221 32.2102 29.2452 31.5786 29.1704 30.9532C29.1226 30.5606 29.1143 30.1637 29.079 29.6194C29.079 29.6256 29.079 29.6256 29.079 29.6153C29.079 29.6153 29.079 29.6173 29.079 29.6194C29.079 29.6007 29.079 29.5197 29.079 29.4407C29.0582 28.242 29.1559 27.8867 30.2632 27.6644ZM24.0533 32.1624C24.8989 31.2483 25.8005 30.4006 26.7999 29.6568C26.9079 29.5779 27.0243 29.4262 27.1759 29.5301C27.3047 29.6194 27.2195 29.7669 27.1801 29.877C26.7375 31.1153 26.2452 32.3286 25.4079 33.3653C25.2479 33.5627 25.0942 33.7705 24.8075 33.7331C24.3338 33.7663 24.1842 33.4152 24.0284 33.0932C23.8809 32.7877 23.7417 32.4969 24.0533 32.1603V32.1624ZM46.0259 42.8994C45.3985 49.2423 42.708 54.4737 37.3644 58.151C35.3658 59.5264 33.1158 60.3034 30.685 60.3533C26.9141 60.4301 23.9266 58.8325 21.689 55.8324C19.948 53.4993 19.1086 50.8233 18.8635 47.95C18.4396 42.9659 19.7153 38.4201 22.4369 34.2525C22.5429 34.0883 22.6634 33.9346 22.8026 33.7393C23.2576 34.5018 23.7894 35.0648 24.7264 35.0627C25.3663 35.0627 25.8837 34.8674 26.3054 34.3833C26.9266 33.6707 27.3858 32.8563 27.8241 31.9754C28.0444 32.2413 28.0381 32.5592 28.1524 32.8251C28.4142 33.436 28.7403 33.9886 29.347 34.3085C30.2965 34.8092 31.2875 34.4748 31.8567 33.4422C32.264 32.7005 32.5756 31.911 32.8727 31.1194C33.1262 30.4463 33.3734 29.7711 33.6227 29.0959C33.9198 29.2226 33.7162 29.4449 33.7224 29.6256C33.7183 30.4733 33.7037 31.323 33.7141 32.1707C33.7162 32.42 33.7598 32.6776 33.8367 32.9124C34.2252 34.0883 35.5382 34.3335 36.3568 33.384C36.9427 32.7046 37.2232 31.8528 37.6138 31.0654C37.7717 30.7476 37.9088 30.4193 38.0958 30.1014C38.1415 31.1402 38.1269 32.1728 38.3679 33.1887C38.7398 34.7594 39.3756 36.1888 40.485 37.3834C40.7696 37.6909 41.0688 37.9713 41.4698 38.123C42.305 38.4388 42.8888 38.1646 43.1402 37.3107C43.4809 36.1514 43.6637 34.9568 43.9026 33.7746C43.9276 33.652 43.9712 33.5336 44.0065 33.4131C44.073 33.3487 44.1374 33.3487 44.2018 33.4173C45.9719 36.355 46.3584 39.5898 46.0301 42.9056L46.0259 42.8994Z" fill="#2E2E2E"/>
<path d="M21.365 30.8015C21.3588 30.7704 21.3567 30.7392 21.3567 30.708C21.6787 30.8639 21.9592 31.2316 22.3747 30.9096C22.4163 31.0197 22.4682 31.1256 22.4931 31.2399C22.5534 31.4954 22.6427 31.7572 22.435 31.9941C22.4267 31.9629 22.4246 31.9297 22.4267 31.8964C22.3809 31.8029 22.3539 31.7032 22.221 31.6741C21.471 31.5038 21.471 31.5017 21.365 30.7995V30.8015Z" fill="#414141"/>
<path d="M24.496 29.287C24.4627 29.6028 24.2467 29.7046 23.9724 29.7378C24.0597 29.4864 24.336 29.4553 24.496 29.287Z" fill="#777777"/>
<path d="M17.4382 40.641C17.5109 40.3273 17.5795 40.0115 17.6605 39.6999C17.7228 39.4589 17.8662 39.3031 18.1695 39.2574C18.049 39.8308 17.7872 40.292 17.5733 40.774C17.4631 40.7969 17.4091 40.7595 17.4382 40.641Z" fill="#595959"/>
<path d="M63.829 65.9046C63.8331 65.8381 63.8394 65.7717 63.8435 65.7052L63.8414 65.701C64.0201 65.4102 64.2715 65.3478 64.579 65.4662C64.6102 65.4891 64.6434 65.4953 64.6787 65.487C64.7057 65.4995 64.7182 65.514 64.7161 65.5348C64.712 65.5577 64.7078 65.568 64.6995 65.568C64.3671 65.5743 64.0866 65.7114 63.8269 65.9067L63.829 65.9046Z" fill="#757575"/>
<path d="M53.2269 104.446C53.1978 103.96 53.1272 103.484 52.8862 103.05C52.8779 102.817 52.853 102.582 52.8675 102.352C52.8904 101.984 53.096 101.739 53.4617 101.695C53.8211 101.654 54.1016 101.822 54.193 102.184C54.3758 102.909 54.5317 103.642 54.6979 104.371C54.781 105.067 54.8288 105.769 55.0739 106.436C55.211 106.812 55.1071 107.114 54.7394 107.294C54.3738 107.473 54.0683 107.355 53.8315 107.053C53.6237 106.79 53.5905 106.457 53.5323 106.139C53.4305 105.574 53.3287 105.009 53.2269 104.444V104.446Z" fill="#2F2F2F"/>
<path d="M119.71 82.6147C120.861 82.4256 122.016 82.4983 123.24 82.4734C122.037 83.0904 120.857 82.4983 119.71 82.6147Z" fill="#E9EAEB"/>
<path d="M118.339 44.3641C118.358 43.986 118.349 43.6411 118.397 43.3024C118.459 42.8475 118.823 42.5587 119.222 42.6397C119.687 42.7332 119.785 43.0531 119.756 43.4915C119.714 44.1023 119.725 44.7152 119.723 45.3281C119.723 45.7395 119.583 46.0553 119.139 46.0927C118.669 46.1321 118.447 45.8288 118.393 45.4091C118.347 45.0539 118.353 44.6903 118.339 44.3662V44.3641Z" fill="#313131"/>
<path d="M106.39 43.371C106.467 42.8204 106.555 42.2699 106.619 41.7172C106.665 41.3162 106.858 41.0711 107.271 41.0794C107.685 41.0856 107.899 41.337 107.897 41.7401C107.893 42.407 107.791 43.0635 107.591 43.7034C107.39 43.9693 107.182 44.2394 106.791 44.0836C106.478 43.9589 106.295 43.7387 106.393 43.3731L106.39 43.371Z" fill="#353535"/>
<path d="M106.391 43.371C106.632 44.0982 106.939 44.1813 107.589 43.6993C107.481 44.1875 107.134 44.3454 106.71 44.2083C106.326 44.0836 106.15 43.7824 106.391 43.371Z" fill="#787878"/>
<path d="M49.2564 86.1881C49.2751 85.1888 49.5265 84.1188 50.1394 83.1424C50.5383 82.5066 51.0867 82.2386 51.8305 82.3529C52.1255 82.3986 52.4954 82.4692 52.5743 82.7206C52.7883 83.3917 53.7772 83.4498 53.6879 84.3993C53.5425 85.9471 53.0605 87.3578 52.2564 88.648C51.6394 89.6369 50.2578 89.4749 49.6304 88.4132C49.246 87.765 49.1774 87.0566 49.2585 86.1881H49.2564Z" fill="#2E2E2F"/>
<path d="M148.202 105.655C148.2 105.799 148.198 105.942 148.196 106.085C148 106.422 147.574 106.468 147.342 106.756C146.38 107.228 145.349 107.27 144.306 107.226C144.02 107.213 143.735 107.184 143.45 107.161C143.27 107.064 143.031 107.17 142.871 106.999C142.11 106.644 141.365 106.326 140.471 106.387C139.653 106.441 139.316 105.917 139.189 105.09C139.058 104.24 139.009 103.384 138.888 102.535C138.78 101.77 138.743 100.987 138.732 100.208C138.72 99.4037 138.676 98.5997 138.726 97.7936C138.772 97.0914 138.903 96.9439 139.588 96.8878C139.979 96.8566 140.365 96.8878 140.752 96.7382C140.961 96.6572 141.246 96.6156 141.483 96.7714C142.264 96.9563 142.892 96.4598 143.577 96.2562C144.084 96.1066 144.62 96.1482 145.106 95.9092C145.869 95.5332 146.762 95.8698 147.537 95.4896C147.68 95.4189 147.963 95.4148 148.056 95.5062C148.295 95.743 148.443 95.4854 148.63 95.4709C148.752 96.279 148.657 97.0914 148.68 97.9016C148.493 98.421 148.536 98.9654 148.53 99.4972C148.503 101.431 148.258 103.357 148.304 105.296C148.306 105.425 148.273 105.545 148.2 105.653L148.202 105.655Z" fill="#E28661"/>
<path d="M141.485 96.7714C140.795 96.7257 140.155 97.0955 139.449 97.002C139.09 96.9542 138.886 97.1932 138.886 97.5651C138.886 98.8386 138.82 100.118 138.909 101.386C138.971 102.285 139.031 103.191 139.131 104.087C139.187 104.594 139.349 105.092 139.324 105.618C139.318 105.765 139.426 105.807 139.54 105.88C140.089 106.222 140.669 106.343 141.315 106.316C141.953 106.289 142.476 106.652 142.998 106.974C142.578 107.145 142.266 106.879 141.93 106.713C141.73 106.528 141.491 106.486 141.228 106.513C140.536 106.582 139.865 106.503 139.227 106.21C138.896 103.551 138.533 100.895 138.549 98.207C138.549 98.045 138.533 97.8788 138.56 97.7209C138.645 97.2139 138.801 96.8254 139.453 96.8088C140.131 96.7922 140.806 96.6488 141.483 96.5616C141.483 96.6322 141.483 96.7029 141.483 96.7735L141.485 96.7714Z" fill="#D5876B"/>
<path d="M38.3677 42.2221C38.3885 42.6273 38.5194 43.1861 38.6545 43.745C38.7563 44.1668 38.7646 44.549 38.2846 44.7339C37.9107 44.8773 37.4952 44.6404 37.3601 44.1314C37.1648 43.3856 37.0111 42.6252 36.8989 41.8606C36.8282 41.3807 37.1731 41.0026 37.5845 40.9943C38.0831 40.9839 38.3948 41.4015 38.3677 42.2221Z" fill="#303030"/>
<path d="M29.2786 44.1002C29.2432 44.6279 29.2973 45.0891 29.3907 45.5483C29.4676 45.9202 29.397 46.2484 28.9815 46.3627C28.541 46.4853 28.2273 46.2754 28.0985 45.8662C27.8346 45.031 27.818 44.1667 27.926 43.3066C27.978 42.8869 28.2834 42.6854 28.701 42.7394C29.104 42.7892 29.2806 43.0614 29.2786 43.4562C29.2786 43.6888 29.2786 43.9236 29.2786 44.1002Z" fill="#303030"/>
<path d="M116.836 48.459C116.543 48.245 116.19 48.2492 115.847 48.3074C114.782 48.484 113.714 48.6398 112.625 48.5816C112.049 48.5504 111.474 48.5587 110.899 48.4943C110.169 48.4133 109.789 48.9244 110.097 49.556C110.182 49.7305 110.167 49.7741 110.022 49.8843C109.602 50.2 109.615 50.6073 109.93 50.9625C110.678 51.7998 111.536 52.5124 112.515 53.0692C112.804 53.2333 113.128 53.2666 113.344 53.277C114.183 53.277 114.867 53.1211 115.342 52.5269C116.065 51.6253 116.587 50.5948 117.098 49.5643C117.3 49.1571 117.227 48.7416 116.836 48.4569V48.459ZM110.988 49.8884C110.988 49.8884 115.164 49.6038 115.363 49.8593C115.563 50.1169 114.094 54.6232 110.988 49.8884Z" fill="#2E2E2E"/>
<path d="M34.0193 49.1717C33.7368 49.2153 33.4584 49.3005 33.1862 49.3857C32.5671 49.5789 31.9417 49.7243 31.2914 49.7929C30.4812 49.878 29.6709 49.8261 28.8606 49.8573C28.416 49.8739 28.0005 50.0629 28.0317 50.5221C28.0628 50.9812 28.0628 51.5422 28.3994 51.8892C29.3032 52.8178 30.344 53.5346 31.3226 53.5969C33.4064 53.5782 35.1495 51.6959 35.0352 50.0006C34.9958 49.4127 34.6052 49.0823 34.0172 49.1717H34.0193ZM29.7727 50.9106C31.0296 51.3739 33.8115 50.3143 33.8115 50.3143C31.628 54.6835 29.7727 50.9106 29.7727 50.9106Z" fill="#2E2E2E"/>
</g>
</svg>
