<svg width="141" height="141" viewBox="0 0 141 141" fill="none" xmlns="http://www.w3.org/2000/svg">
<circle cx="70.5" cy="70.5" r="70.5" fill="#FF7EB2"/>
<g clip-path="url(#clip0_1007_1068)">
<path fill-rule="evenodd" clip-rule="evenodd" d="M37.6001 67.21C37.6801 66.27 37.7901 65.26 37.8301 64.24C38.0301 58.87 38.1401 53.5 38.4101 48.14C38.5001 46.32 38.7801 44.46 39.2801 42.71C40.7801 37.54 43.6101 35.39 49.2401 34.36C51.0401 34.03 52.9001 34 54.7401 34C69.5301 34.02 84.3201 34.07 99.1201 34.12C103.53 34.14 107.96 33.99 112.35 34.31C119.47 34.83 122.74 38.77 123.66 44.87C124.08 47.7 124.36 50.58 124.4 53.44C124.51 60.28 124.53 67.13 124.41 73.97C124.34 78.08 123.99 82.19 123.69 86.29C123.61 87.37 123.3 88.46 122.94 89.5C121.32 94.2 117.8 96.74 113.04 97.03C106.07 97.45 99.0701 97.45 92.0801 97.47C79.2001 97.51 66.3201 97.44 53.4401 97.38C52.3201 97.38 51.6001 97.67 50.8301 98.57C42.5901 108.27 29.5301 108.83 20.1101 100.29C17.4401 97.87 16.0901 94.69 15.4301 91.23C14.7201 87.56 14.8601 83.9 15.9401 80.31C17.1601 76.26 19.6001 73.18 23.1601 70.89C26.9201 68.47 30.9201 67.06 35.4401 67.4C35.9501 67.44 36.4701 67.41 36.9801 67.4C37.1201 67.4 37.2601 67.32 37.5801 67.23L37.6001 67.21ZM52.8501 95.47C53.8501 95.53 54.5101 95.61 55.1601 95.62C69.3701 95.64 83.5701 95.69 97.7801 95.66C102.78 95.65 107.81 95.7 112.78 95.23C117.69 94.77 120.18 92.49 121.33 88.47C121.83 86.72 122.18 84.87 122.24 83.05C122.49 76.07 122.6 69.08 122.75 62.09C122.77 61.3 122.66 60.51 122.6 59.63H39.8301V67.91C45.3901 69.91 50.4201 72.57 52.8101 78.4C55.0901 83.95 54.8101 89.58 52.8501 95.47ZM122.11 46.77C119 46.3 42.0701 46.44 40.3301 46.92C40.0801 50.57 39.6101 54.26 39.9901 58.11H122.46C122.84 54.27 122.37 50.58 122.11 46.77ZM16.9701 86.58C17.0501 87.86 17.1001 88.96 17.2001 90.06C17.5901 94.14 19.3001 97.58 22.6001 100.03C27.1201 103.39 32.1401 105.22 37.8801 104.16C40.8101 103.62 43.4701 102.38 45.9401 100.74C48.8701 98.8 50.8801 96.12 51.7601 92.71C52.7901 88.73 52.8701 84.69 51.7101 80.74C49.8901 74.55 43.2301 69.65 36.4301 69.19C31.3401 68.84 26.8801 70.44 22.8301 73.37C19.8201 75.54 18.1101 78.58 17.3901 82.15C17.0901 83.65 17.1001 85.22 16.9801 86.58H16.9701ZM121.74 45.26C121.26 39.65 117.83 36.37 112.56 36.15C102.79 35.73 93.0001 35.66 83.2201 35.65C72.4801 35.65 61.7501 35.9 51.0101 35.98C48.7901 36 46.8101 36.66 44.9401 37.73C42.0901 39.37 41.1001 42.08 40.5901 45.26H121.74V45.26Z" fill="black"/>
<path fill-rule="evenodd" clip-rule="evenodd" d="M52.8501 95.47C54.8101 89.58 55.1001 83.96 52.8101 78.4C50.4201 72.57 45.3801 69.91 39.8301 67.91V59.63H122.6C122.66 60.51 122.77 61.3 122.75 62.09C122.61 69.08 122.49 76.07 122.24 83.05C122.18 84.87 121.83 86.72 121.33 88.47C120.18 92.49 117.69 94.77 112.78 95.23C107.81 95.7 102.78 95.65 97.7801 95.66C83.5701 95.69 69.3701 95.64 55.1601 95.62C54.5001 95.62 53.8501 95.54 52.8501 95.47ZM95.0801 84.45C100.89 87.62 105.88 85.86 107.93 83.24C109.97 80.63 110.64 74.98 107.99 71.7C105.38 68.47 100.63 67.42 95.1201 70.36C94.8201 70.19 94.5001 70.02 94.1801 69.84C90.8601 67.95 87.4901 68.27 84.3101 70.02C81.2601 71.69 80.0601 74.48 80.1901 77.96C80.3401 81.85 83.4801 85.41 87.4001 85.99C90.1801 86.4 92.8101 86.1 95.0801 84.46V84.45Z" fill="#C5C5C5"/>
<path fill-rule="evenodd" clip-rule="evenodd" d="M122.11 46.77C122.37 50.58 122.84 54.27 122.46 58.11H39.9804C39.6004 54.27 40.0704 50.57 40.3204 46.92C42.0604 46.45 119 46.31 122.1 46.77H122.11Z" fill="#595959"/>
<path fill-rule="evenodd" clip-rule="evenodd" d="M16.97 86.58C17.09 85.21 17.07 83.65 17.38 82.15C18.1 78.57 19.82 75.54 22.82 73.37C26.87 70.45 31.33 68.85 36.42 69.19C43.22 69.65 49.88 74.55 51.7 80.74C52.86 84.69 52.79 88.73 51.75 92.71C50.87 96.12 48.86 98.79 45.93 100.74C43.46 102.38 40.8 103.61 37.87 104.16C32.13 105.22 27.11 103.39 22.59 100.03C19.29 97.58 17.59 94.14 17.19 90.06C17.08 88.96 17.04 87.86 16.96 86.58H16.97ZM46.93 77.33C44.87 76.03 42.68 75.3 40.34 74.56C37.26 79.48 36.01 85.22 33.02 90.2C30.88 87.33 29.7 84.11 27.39 81.46C25.51 82.53 23.66 83.35 22.22 84.97C22.71 85.74 23.14 86.42 23.57 87.1C25.06 89.46 26.75 91.72 27.99 94.19C30.26 98.71 29.58 97.86 34.24 98.28C34.53 98.31 34.83 98.28 35.12 98.3C35.95 98.35 36.47 97.97 36.84 97.21C38.8 93.19 40.77 89.16 42.8 85.17C43.93 82.95 45.19 80.79 46.38 78.6C46.58 78.23 46.72 77.82 46.94 77.31L46.93 77.33Z" fill="#67CF61"/>
<path fill-rule="evenodd" clip-rule="evenodd" d="M121.74 45.2599H40.5903C41.1003 42.0799 42.0903 39.3699 44.9403 37.7299C46.8003 36.6599 48.7903 35.9999 51.0103 35.9799C61.7503 35.8999 72.4803 35.6399 83.2203 35.6499C93.0003 35.6499 102.79 35.7299 112.56 36.1499C117.83 36.3699 121.26 39.6499 121.74 45.2599V45.2599Z" fill="#C5C5C5"/>
<path fill-rule="evenodd" clip-rule="evenodd" d="M95.08 84.4501C92.81 86.0901 90.18 86.3901 87.4 85.9801C83.48 85.4001 80.35 81.8501 80.19 77.9501C80.05 74.4701 81.26 71.6701 84.31 70.0101C87.49 68.2701 90.86 67.9401 94.18 69.8301C94.5 70.0101 94.82 70.1901 95.12 70.3501C100.63 67.4101 105.38 68.4601 107.99 71.6901C110.64 74.9701 109.97 80.6201 107.93 83.2301C105.88 85.8501 100.89 87.6001 95.08 84.4401V84.4501ZM96.27 83.5001C99.68 85.9101 105.09 85.1901 107.03 82.4301C108.96 79.6901 109.44 74.6201 106.39 71.6301C103.98 69.2601 98.88 69.2601 96.24 71.5801C98.95 75.4701 98.43 79.4301 96.26 83.4901L96.27 83.5001ZM94.01 71.3901C91.03 68.9601 85.86 69.4801 83.2 72.4201C80.49 75.4101 80.74 80.0101 83.77 82.9501C86.41 85.5101 91.42 85.7101 94.07 83.2701C91.1 79.3601 91.01 75.3501 94.01 71.3901V71.3901ZM95.14 72.4601C92.24 75.1001 92.26 79.3301 95.19 82.3101C97.49 79.4801 97.47 75.3301 95.14 72.4601Z" fill="black"/>
<path fill-rule="evenodd" clip-rule="evenodd" d="M46.93 77.34C46.71 77.85 46.57 78.25 46.37 78.63C45.18 80.82 43.92 82.98 42.79 85.2C40.76 89.19 38.79 93.22 36.83 97.24C36.46 98 35.94 98.37 35.11 98.33C34.82 98.31 34.52 98.33 34.23 98.31C29.57 97.88 30.25 98.73 27.98 94.22C26.74 91.74 25.05 89.48 23.56 87.13C23.13 86.45 22.7 85.77 22.21 85C23.65 83.38 25.5 82.55 27.38 81.49C29.69 84.14 30.87 87.37 33.01 90.23C36 85.25 37.25 79.51 40.33 74.59C42.67 75.33 44.86 76.06 46.92 77.36L46.93 77.34ZM35.41 96.98C38.69 90.55 41.94 84.18 45.26 77.68C43.75 77.11 42.34 76.58 40.85 76.01C37.91 81.59 36.22 87.44 33.12 93.03C31 89.44 29.12 86.25 27.17 82.94C25.92 83.68 24.86 84.3 23.69 85C24.06 85.59 24.32 86.02 24.59 86.45C26.08 88.81 27.74 91.08 29.02 93.54C30.99 97.33 29.99 96.87 34.61 97.05C34.9 97.06 35.19 96.99 35.42 96.97L35.41 96.98Z" fill="black"/>
<path fill-rule="evenodd" clip-rule="evenodd" d="M96.27 83.5C98.44 79.43 98.95 75.47 96.25 71.59C98.88 69.27 103.99 69.27 106.4 71.64C109.44 74.63 108.97 79.69 107.04 82.44C105.1 85.2 99.69 85.92 96.28 83.51L96.27 83.5Z" fill="#FBA93D"/>
<path fill-rule="evenodd" clip-rule="evenodd" d="M94.0103 71.39C91.0103 75.35 91.1003 79.36 94.0703 83.27C91.4203 85.71 86.4103 85.51 83.7703 82.95C80.7403 80.01 80.4903 75.41 83.2003 72.42C85.8603 69.48 91.0203 68.96 94.0103 71.39V71.39Z" fill="#E7031A"/>
<path fill-rule="evenodd" clip-rule="evenodd" d="M95.1403 72.46C97.4703 75.33 97.4903 79.48 95.1903 82.31C92.2603 79.33 92.2403 75.1 95.1403 72.46Z" fill="#FB643D"/>
<path fill-rule="evenodd" clip-rule="evenodd" d="M35.4199 96.97C35.1799 96.99 34.8899 97.06 34.6099 97.05C29.9899 96.87 30.9899 97.32 29.0199 93.54C27.7399 91.07 26.0799 88.8 24.5899 86.45C24.3199 86.03 24.0599 85.6 23.6899 85C24.8699 84.3 25.9199 83.68 27.1699 82.94C29.1199 86.25 31.0099 89.44 33.1199 93.03C36.2199 87.44 37.9099 81.59 40.8499 76.01C42.3499 76.58 43.7499 77.11 45.2599 77.68C41.9399 84.18 38.6999 90.54 35.4099 96.98L35.4199 96.97Z" fill="white"/>
</g>
<defs>
<clipPath id="clip0_1007_1068">
<rect width="109.49" height="72.29" fill="white" transform="translate(15 34)"/>
</clipPath>
</defs>
</svg>
