<svg width="141" height="141" viewBox="0 0 141 141" fill="none" xmlns="http://www.w3.org/2000/svg">
<circle cx="70.5" cy="70.5" r="70.5" fill="#008AFF"/>
<path fill-rule="evenodd" clip-rule="evenodd" d="M126.711 61.5769C126.711 61.5769 121.281 28.9469 111.901 16.8569L75.3908 20.7669L41.0608 23.6969C41.0608 23.6969 56.5808 54.9769 58.6508 60.5969L126.701 61.5769H126.711Z" fill="#D2715E"/>
<path fill-rule="evenodd" clip-rule="evenodd" d="M55.2308 90.1069L119.741 88.6969L122.251 62.6069L59.2008 61.2069L24.0808 71.4069L55.2308 90.1069Z" fill="url(#paint0_radial_894_111)"/>
<path fill-rule="evenodd" clip-rule="evenodd" d="M93.2306 118.627C93.2306 118.627 41.1806 115.817 20.2906 111.417L17.3606 71.9569L45.8306 73.2969C45.8306 73.2969 49.8606 83.4369 55.3006 82.9469C60.7406 82.4569 63.3006 73.9069 63.3006 73.9069L95.5606 75.3769C95.5606 75.3769 95.3206 108.857 93.2406 118.627H93.2306Z" fill="url(#paint1_radial_894_111)"/>
<path fill-rule="evenodd" clip-rule="evenodd" d="M95.5507 75.3769L126.711 61.5669C126.711 61.5669 125.981 90.8869 122.681 103.717C122.681 103.717 104.231 115.687 93.2307 118.627C93.2307 118.627 95.5507 96.3869 95.5507 75.3769Z" fill="url(#paint2_radial_894_111)"/>
<path fill-rule="evenodd" clip-rule="evenodd" d="M95.5506 75.3769L126.711 61.5769L58.6506 60.5969L17.3606 71.9569L45.8306 73.3069L48.1506 72.8769L24.0806 71.4069L59.2006 61.2069L122.251 62.6069L95.1306 74.3369L64.7006 73.3069L63.3006 73.9169L95.5506 75.3769Z" fill="url(#paint3_radial_894_111)"/>
<path fill-rule="evenodd" clip-rule="evenodd" d="M48.1508 72.8769C48.1508 72.8769 48.5508 81.8269 55.3008 82.9569C55.3008 82.9569 48.8708 84.5269 45.8308 73.3069L48.1508 72.8769Z" fill="#D2715E"/>
<path fill-rule="evenodd" clip-rule="evenodd" d="M18.5207 72.0169C18.5207 72.0169 13.9907 63.1069 14.1207 62.4969C14.2407 61.8869 45.2807 53.4569 46.9307 53.5769C48.5807 53.6969 58.6607 60.6069 58.6607 60.6069L18.5207 72.0169Z" fill="#D2715E"/>
<path fill-rule="evenodd" clip-rule="evenodd" d="M17.3607 71.9569L13.2307 63.4669L14.1207 62.4869L18.5207 72.0169L17.3607 71.9569Z" fill="url(#paint4_radial_894_111)"/>
<path opacity="0.53" fill-rule="evenodd" clip-rule="evenodd" d="M48.1706 38.1769H119.461C119.461 38.1769 114.441 23.8269 111.901 19.4269L43.1406 27.5469L48.1706 38.1769Z" fill="#791B40"/>
<path fill-rule="evenodd" clip-rule="evenodd" d="M111.901 16.8569C111.901 16.8569 103.011 25.4069 99.1007 27.1169C99.1007 27.1169 53.6508 33.8369 37.5208 32.0069L39.7208 22.7169L74.7108 20.8169L111.901 16.8569Z" fill="url(#paint5_radial_894_111)"/>
<path fill-rule="evenodd" clip-rule="evenodd" d="M99.1006 27.1169L100.811 28.4569C100.811 28.4569 109.561 23.0769 111.901 19.4169C111.901 19.4169 124.411 45.4369 124.641 62.4869L126.711 61.5669C126.711 61.5669 122.871 31.0169 111.901 16.8469C111.901 16.8469 102.881 25.1569 99.1006 27.1069V27.1169Z" fill="#A23B58"/>
<path fill-rule="evenodd" clip-rule="evenodd" d="M37.5208 32.0069L39.8408 33.2269C39.8408 33.2269 78.6908 33.1069 100.811 28.4669L99.1007 27.1269C99.1007 27.1269 57.3108 33.1169 37.5208 32.0169V32.0069Z" fill="#D2715E"/>
<path fill-rule="evenodd" clip-rule="evenodd" d="M95.5508 75.3769C95.5508 75.3769 99.0308 65.4169 99.8608 64.5969C100.681 63.7769 127.721 52.1369 128.181 52.1369C128.641 52.1369 126.711 61.5769 126.711 61.5769L95.5508 75.3869V75.3769Z" fill="#A23B58"/>
<path fill-rule="evenodd" clip-rule="evenodd" d="M128.181 52.1369H125.681C125.681 52.1369 107.661 58.6769 97.9507 64.2369L99.8707 64.6069C99.8707 64.6069 116.001 56.5469 128.191 52.1469L128.181 52.1369Z" fill="url(#paint6_radial_894_111)"/>
<path fill-rule="evenodd" clip-rule="evenodd" d="M97.9406 64.2269L94.9106 75.3769H95.5506L99.8606 64.5969L97.9406 64.2269Z" fill="url(#paint7_radial_894_111)"/>
<path style="mix-blend-mode:multiply" opacity="0.5" fill-rule="evenodd" clip-rule="evenodd" d="M20.2908 111.427C20.2908 111.427 49.8608 106.967 93.2308 118.637C93.2308 118.637 44.9108 116.927 20.2908 111.427Z" fill="url(#paint8_linear_894_111)"/>
<path style="mix-blend-mode:multiply" opacity="0.5" fill-rule="evenodd" clip-rule="evenodd" d="M39.7208 22.7169L74.7108 20.8169C74.7108 20.8169 54.5007 29.2769 51.2008 30.1669C47.9008 31.0569 37.5208 31.4169 37.5208 31.4169L39.7208 22.7069V22.7169Z" fill="url(#paint9_linear_894_111)"/>
<path fill-rule="evenodd" clip-rule="evenodd" d="M69.1606 110.587V101.897H90.2406L89.7506 112.157L69.1606 110.587Z" fill="#FFE5E1"/>
<path d="M79.9207 105.447L73.6807 105.157L73.6907 104.347L79.9207 104.647V105.447Z" fill="#5A4153"/>
<path d="M73.7308 109.317L73.5508 109.307L73.5808 105.687L73.7508 105.697L73.7308 109.317Z" fill="#5A4153"/>
<path d="M74.6409 109.357L74.1609 109.337L74.1909 105.717L74.6609 105.747L74.6409 109.357Z" fill="#5A4153"/>
<path d="M74.9408 109.377L74.7708 109.367L74.8008 105.747L74.9708 105.757L74.9408 109.377Z" fill="#5A4153"/>
<path d="M75.5509 109.397H75.3809L75.4009 105.777L75.5809 105.787L75.5509 109.397Z" fill="#5A4153"/>
<path d="M76.1607 109.427H75.9907L76.0107 105.807L76.1907 105.817L76.1607 109.427Z" fill="#5A4153"/>
<path d="M76.7707 109.457L76.2307 109.437L76.2607 105.817L76.8007 105.847L76.7707 109.457Z" fill="#5A4153"/>
<path d="M77.7407 109.507L77.2107 109.477L77.2307 105.867L77.7607 105.887L77.7407 109.507Z" fill="#5A4153"/>
<path d="M77.9908 109.517L77.8108 109.507L77.8408 105.897L78.0108 105.907L77.9908 109.517Z" fill="#5A4153"/>
<path d="M77.0307 109.467H76.9507L76.9707 105.857H77.0507L77.0307 109.467Z" fill="#5A4153"/>
<path d="M87.4907 105.807L81.2607 105.517V104.707L87.5007 105.007L87.4907 105.807Z" fill="#5A4153"/>
<path d="M81.3009 109.677L81.1309 109.667L81.1509 106.047L81.3309 106.057L81.3009 109.677Z" fill="#5A4153"/>
<path d="M82.211 109.717L81.741 109.697L81.761 106.077L82.241 106.107L82.211 109.717Z" fill="#5A4153"/>
<path d="M82.5208 109.737L82.3508 109.727L82.3708 106.107L82.5508 106.117L82.5208 109.737Z" fill="#5A4153"/>
<path d="M83.1309 109.757H82.9509L82.9809 106.137L83.1509 106.147L83.1309 109.757Z" fill="#5A4153"/>
<path d="M83.7408 109.787H83.5608L83.5908 106.167L83.7608 106.177L83.7408 109.787Z" fill="#5A4153"/>
<path d="M84.3508 109.817L83.8108 109.797L83.8308 106.177L84.3708 106.207L84.3508 109.817Z" fill="#5A4153"/>
<path d="M85.3108 109.867L84.7808 109.837L84.8108 106.227L85.3408 106.247L85.3108 109.867Z" fill="#5A4153"/>
<path d="M85.5609 109.877L85.3909 109.867L85.4209 106.257L85.5909 106.267L85.5609 109.877Z" fill="#5A4153"/>
<path d="M84.6007 109.827H84.5208L84.5508 106.217H84.6308L84.6007 109.827Z" fill="#5A4153"/>
<path opacity="0.5" fill-rule="evenodd" clip-rule="evenodd" d="M22.5508 88.0269L22.6108 94.5569L36.9108 95.2969L37.2708 88.7669L22.5508 88.0269Z" fill="#FFFFCE"/>
<g style="mix-blend-mode:multiply" opacity="0.5">
<path d="M36.2507 94.7769L22.9707 94.2869V88.7269L36.2507 89.1869V94.7669V94.7769ZM23.9707 93.3269L35.2507 93.7369V90.1569L23.9707 89.7669V93.3269Z" fill="#C1748D"/>
</g>
<g style="mix-blend-mode:multiply" opacity="0.5">
<path fill-rule="evenodd" clip-rule="evenodd" d="M28.2508 89.3669C28.3908 90.1269 28.7808 90.5369 29.6708 90.3569C30.2408 90.2369 30.5808 89.7469 30.4708 89.1469C30.3708 88.5369 29.7408 88.0269 29.1208 88.1069C28.4808 88.1869 28.1508 89.0169 28.2508 89.3669Z" fill="#E3D9D2"/>
<path fill-rule="evenodd" clip-rule="evenodd" d="M49.7407 97.9469C49.8207 97.0969 50.7007 96.6369 51.4507 96.5569C52.0807 96.4869 52.6607 96.667 53.2007 97.007C53.7307 97.347 54.1607 97.9369 53.8907 98.5869C53.8007 98.7969 53.5407 99.257 53.3607 99.407C53.0807 99.627 52.5307 99.477 52.2107 99.427C51.6407 99.327 51.4307 99.1369 51.0307 98.7669C50.6707 98.4369 49.7207 98.697 49.7507 97.957L49.7407 97.9469Z" fill="#E3D9D2"/>
<path fill-rule="evenodd" clip-rule="evenodd" d="M28.8107 86.0869C28.3107 86.2869 27.6107 87.0569 28.3307 87.3769C28.7207 87.5469 29.9307 87.3269 30.2607 87.0769C31.6007 86.0469 29.4807 85.1669 28.6107 86.2469L28.8207 86.0869H28.8107Z" fill="#E3D9D2"/>
<path fill-rule="evenodd" clip-rule="evenodd" d="M29.4606 92.6569C29.9506 91.7969 30.8406 92.7769 30.2606 93.2669C29.8706 93.5969 29.4206 93.2669 29.3606 92.8469L29.4606 92.6569Z" fill="#E3D9D2"/>
<path fill-rule="evenodd" clip-rule="evenodd" d="M30.7807 89.3969C31.1107 88.8269 31.7007 89.4769 31.3107 89.8069C31.0507 90.0269 30.7507 89.8069 30.7107 89.5269L30.7807 89.3969Z" fill="#E3D9D2"/>
<path fill-rule="evenodd" clip-rule="evenodd" d="M85.7306 83.1569C84.9606 84.1969 86.3706 85.4169 86.9406 84.1569C87.2406 83.4869 86.6606 82.6569 86.0006 83.1569H85.7306Z" fill="#E3D9D2"/>
<path fill-rule="evenodd" clip-rule="evenodd" d="M88.0707 86.1669C87.9707 85.9669 87.8707 86.0169 87.7607 86.1469C87.5807 86.3569 87.7007 86.4069 87.8307 86.5669C88.1207 86.9269 88.3707 86.9169 88.7707 86.6669C89.0907 86.4669 89.6207 85.9069 89.0507 85.6269C88.8107 85.5069 88.2907 85.6869 88.1507 85.8669L88.0807 86.1669H88.0707Z" fill="#E3D9D2"/>
<path fill-rule="evenodd" clip-rule="evenodd" d="M86.8007 86.5669C86.7407 86.0569 87.5107 86.7169 87.1707 86.9969C86.8907 87.2369 86.7107 86.7369 86.8007 86.5369V86.5669Z" fill="#E3D9D2"/>
<path fill-rule="evenodd" clip-rule="evenodd" d="M88.3408 84.7969C88.5508 85.1369 88.9908 84.6569 88.8408 84.4369C88.6608 84.1669 88.3808 84.6069 88.3108 84.7269L88.3408 84.7969Z" fill="#E3D9D2"/>
<path fill-rule="evenodd" clip-rule="evenodd" d="M80.1706 90.8869C80.3006 90.4669 80.8206 90.8569 80.8806 91.1269C80.9706 91.5069 80.6406 92.0069 80.2406 92.0369C79.6206 92.0969 79.4606 91.1369 80.0006 90.9169L80.1706 90.8869Z" fill="#E3D9D2"/>
<path fill-rule="evenodd" clip-rule="evenodd" d="M85.9606 91.6569C85.5906 92.1969 86.8406 92.3069 86.8306 91.6969C86.8306 91.2169 86.1006 91.2169 85.9606 91.6169V91.6469V91.6569Z" fill="#E3D9D2"/>
<path fill-rule="evenodd" clip-rule="evenodd" d="M80.7807 81.1469C80.5307 80.8169 80.8607 80.3269 81.2607 80.3769C81.7707 80.4469 81.7807 81.1469 81.6107 81.4969C81.2307 82.2569 80.1907 81.7369 80.6207 81.0069L80.7907 81.1369L80.7807 81.1469Z" fill="#E3D9D2"/>
<path fill-rule="evenodd" clip-rule="evenodd" d="M88.2108 79.5069C87.7608 80.5669 89.4908 80.1869 89.5808 79.3369C89.6908 78.3169 88.3308 78.5769 88.2108 79.5069Z" fill="#E3D9D2"/>
<path fill-rule="evenodd" clip-rule="evenodd" d="M53.7508 95.8969C53.0408 96.8569 54.8908 97.3269 55.0408 96.1169C54.6708 95.6469 53.9908 95.5369 53.5508 95.9969L53.7508 95.8969Z" fill="#E3D9D2"/>
<path fill-rule="evenodd" clip-rule="evenodd" d="M44.1106 107.547C45.6606 105.567 48.6606 104.787 50.7906 106.247C51.3506 106.627 52.1506 107.317 51.4806 107.947C50.9006 108.487 48.1206 107.947 47.3506 107.947C46.2306 107.947 45.0806 107.987 44.1106 107.547Z" fill="#E3D9D2"/>
<path fill-rule="evenodd" clip-rule="evenodd" d="M38.6907 106.537C38.8207 107.427 40.3807 107.117 40.1507 106.387C40.0007 105.897 39.1407 105.777 38.9907 106.237L38.6907 106.537Z" fill="#E3D9D2"/>
<path fill-rule="evenodd" clip-rule="evenodd" d="M58.6707 106.837C58.9307 105.417 60.4707 107.597 58.9907 107.417C58.9607 107.307 58.9207 107.237 58.8707 107.137L58.6707 106.837Z" fill="#E3D9D2"/>
<path fill-rule="evenodd" clip-rule="evenodd" d="M66.0008 87.4169C65.8008 88.3669 67.0108 88.1769 67.0108 87.4169C67.0108 86.7769 66.1808 86.5569 66.0008 87.2169V87.4169Z" fill="#E3D9D2"/>
<path fill-rule="evenodd" clip-rule="evenodd" d="M86.9307 95.5669C87.0307 95.4069 87.1607 95.3069 87.3307 95.2669C87.9607 96.0969 86.5607 96.6569 86.9307 95.6669V95.5669Z" fill="#E3D9D2"/>
<path fill-rule="evenodd" clip-rule="evenodd" d="M43.3707 28.9769C41.8407 32.4369 48.2707 30.0269 49.2007 28.4269C50.1707 26.7669 47.7107 26.4969 46.3307 26.7169C44.6907 26.9769 43.4207 28.0169 43.3707 28.9769Z" fill="#E3D9D2"/>
<path fill-rule="evenodd" clip-rule="evenodd" d="M49.4006 29.8069C49.5506 29.0369 51.1806 28.3769 50.9806 29.5369C50.8706 30.1869 49.8206 30.6169 49.5306 29.9269L49.4006 29.8069Z" fill="#E3D9D2"/>
<path fill-rule="evenodd" clip-rule="evenodd" d="M81.9307 24.4669C80.3807 26.3869 86.8707 26.4069 87.1707 24.4969C87.4807 22.5369 82.5107 23.2069 81.8007 24.3469L81.9307 24.4669Z" fill="#E3D9D2"/>
<path fill-rule="evenodd" clip-rule="evenodd" d="M86.4807 22.2169C86.6107 21.0269 88.4707 21.5469 88.0807 22.2669C87.7607 22.8569 86.8207 22.4269 86.4807 22.0969V22.2169Z" fill="#E3D9D2"/>
<path fill-rule="evenodd" clip-rule="evenodd" d="M91.4306 23.6369C92.0406 23.6269 92.6206 23.5069 93.1606 23.2769C93.0106 22.2069 91.5106 22.4569 91.1506 23.2769C91.2006 23.4469 91.3306 23.4169 91.4306 23.5169V23.6369Z" fill="#E3D9D2"/>
<path fill-rule="evenodd" clip-rule="evenodd" d="M74.4307 25.8869C74.4207 25.4369 74.5607 25.2169 75.0707 25.1969C75.7007 25.6569 75.5407 26.5469 74.7007 26.3669L74.4307 25.8969V25.8869Z" fill="#E3D9D2"/>
<path fill-rule="evenodd" clip-rule="evenodd" d="M41.4306 96.3269C39.2306 98.1769 43.9706 97.6269 41.8306 96.5969L41.4306 96.3269Z" fill="#E3D9D2"/>
<path fill-rule="evenodd" clip-rule="evenodd" d="M32.0607 101.317C31.5207 101.867 31.7207 103.017 32.6907 102.607C33.4307 102.287 33.2607 100.997 32.3607 101.417L32.0607 101.317Z" fill="#E3D9D2"/>
<path fill-rule="evenodd" clip-rule="evenodd" d="M36.4807 104.327C36.6607 103.717 37.4307 103.707 37.3907 104.327C37.3607 104.847 36.8407 104.787 36.6807 104.427L36.4807 104.327Z" fill="#E3D9D2"/>
<path fill-rule="evenodd" clip-rule="evenodd" d="M66.5007 77.8269C66.7307 77.6969 66.9107 77.5169 67.0407 77.2969C66.6807 76.9869 66.6607 77.2269 66.5007 77.5269V77.8269Z" fill="#E3D9D2"/>
</g>
<path fill-rule="evenodd" clip-rule="evenodd" d="M93.2307 118.627L95.5507 75.3769C95.5507 75.3769 96.4207 106.877 93.2307 118.627Z" fill="#DF7668"/>
<path fill-rule="evenodd" clip-rule="evenodd" d="M97.9407 64.2269L99.5507 65.3869L100.811 64.2269H97.9407Z" fill="#FFDB92"/>
<path fill-rule="evenodd" clip-rule="evenodd" d="M99.1006 27.1169L100.811 28.4669L102.021 25.1969L99.1006 27.1169Z" fill="#DF7668"/>
<path d="M39.1407 24.0769C40.4207 24.0769 40.4207 22.0969 39.1407 22.0969C37.8607 22.0969 37.8607 24.0769 39.1407 24.0769Z" fill="black"/>
<path d="M38.3405 23.1069C37.9305 26.3869 37.0905 29.5869 35.9005 32.6669C35.6705 33.2569 36.2605 33.9569 36.8605 33.9269C47.9105 33.3669 58.9505 32.6669 69.9905 31.9169C75.4305 31.5469 80.8605 31.1569 86.3005 30.7669C89.0105 30.5769 91.7205 30.3869 94.4305 30.1769C96.8005 29.9969 99.1305 29.7269 101.271 28.6469C103.681 27.4269 105.83 25.5469 107.85 23.7669C109.99 21.8869 111.99 19.8469 113.86 17.6969C114.36 17.1269 114.09 15.8969 113.16 16.0069C93.9805 18.1369 74.7305 19.6569 55.4505 20.5469C50.0105 20.7969 44.5705 20.9969 39.1305 21.1469C37.8605 21.1869 37.8505 23.1669 39.1305 23.1269C58.4205 22.5869 77.6905 21.4269 96.9105 19.6369C102.33 19.1369 107.751 18.5769 113.16 17.9769L112.46 16.2869C109.33 19.8969 105.771 23.4269 101.76 26.0569C99.5505 27.5069 97.2605 27.9769 94.6605 28.1769C92.0605 28.3769 89.2505 28.5669 86.5505 28.7569C76.0105 29.5169 65.4605 30.2569 54.9105 30.9069C48.8905 31.2769 42.8805 31.6269 36.8605 31.9369L37.8205 33.1969C39.0805 29.9369 39.8905 26.5769 40.3305 23.1069C40.4905 21.8469 38.5005 21.8569 38.3505 23.1069H38.3405Z" fill="black"/>
<path d="M112.701 17.2969C111.661 20.0669 113.861 22.6769 115.161 24.9369C116.751 27.7069 118.161 30.5969 119.331 33.5669C121.631 39.3969 123.121 45.5269 123.731 51.7669C123.851 53.0269 125.841 53.0369 125.711 51.7669C125.131 45.7869 123.811 39.8969 121.711 34.2669C120.691 31.5169 119.491 28.8369 118.131 26.2369C117.451 24.9469 116.731 23.6769 115.971 22.4269C115.131 21.0469 113.981 19.4969 114.601 17.8169C115.051 16.6169 113.131 16.1069 112.691 17.2869L112.701 17.2969Z" fill="black"/>
<path d="M44.9807 34.3469C46.1107 38.8469 49.3907 42.2369 51.5307 46.2369C53.9807 50.8069 55.7907 55.7669 57.8307 60.5269C58.3307 61.6969 60.0407 60.6869 59.5407 59.5269C57.5607 54.8969 55.7807 50.1169 53.4607 45.6469C51.3907 41.6569 48.0107 38.2669 46.8907 33.8269C46.5807 32.5869 44.6707 33.1169 44.9807 34.3569V34.3469Z" fill="black"/>
<path d="M58.3606 61.9669C59.6406 61.9669 59.6406 59.9869 58.3606 59.9869C57.0806 59.9869 57.0806 61.9669 58.3606 61.9669Z" fill="black"/>
<path d="M59.0806 60.1369C56.5206 57.5569 52.8806 56.7269 50.1106 54.4669C48.8406 53.4269 47.8906 52.4369 46.1106 52.7769C43.8806 53.2069 41.6806 53.9169 39.4806 54.4769C34.9906 55.6369 30.5006 56.7969 26.0106 57.9569C21.7506 59.0569 17.2406 59.8869 13.1906 61.6169C10.9506 62.5769 12.4106 64.6569 13.2206 66.1869C14.3506 68.3369 15.6306 70.3969 17.0206 72.3969C17.7506 73.4369 19.4706 72.4469 18.7306 71.3969C17.8206 70.0869 16.9506 68.7569 16.1506 67.3769C15.7706 66.7269 15.4006 66.0569 15.0406 65.3869C14.7206 64.7869 13.9006 63.6469 13.9306 62.9669L13.6406 63.6669C14.2206 63.0169 15.9706 62.7169 16.7706 62.4669C17.6606 62.1969 18.5506 61.9469 19.4506 61.7069C21.4906 61.1669 23.5306 60.6469 25.5806 60.1269C29.7506 59.0469 33.9206 57.9769 38.0906 56.8969C40.1806 56.3569 42.2606 55.8169 44.3506 55.2869C45.1706 55.0769 46.3606 54.4969 47.2006 54.7069C47.9006 54.8869 48.6406 55.8369 49.2106 56.2669C51.8806 58.2869 55.2906 59.1369 57.6806 61.5469C58.5806 62.4569 59.9806 61.0469 59.0806 60.1469V60.1369Z" fill="black"/>
<path d="M127.281 51.2169C120.601 53.5169 114.021 56.0869 107.551 58.9469C104.601 60.2469 101.261 61.4169 98.6707 63.3869C96.3907 65.1269 95.4807 67.6569 94.8507 70.3569C94.7007 70.9969 94.5607 71.6469 94.4007 72.2969C94.2507 72.8969 94.1707 73.9869 93.4607 74.2269C93.1407 74.3369 92.4807 74.1469 92.1507 74.1269C91.6507 74.0869 91.1607 74.0469 90.6607 74.0069C89.6707 73.9269 88.6707 73.8569 87.6807 73.7769C84.0407 73.5169 80.3907 73.2969 76.7507 73.1269C73.1107 72.9569 69.4507 72.8369 65.8007 72.7669C64.5307 72.7369 63.1907 72.6169 62.1107 73.4169C61.0307 74.2169 60.5907 75.5369 59.9907 76.6269C58.6407 79.0869 56.6207 82.4169 53.3007 81.5769C49.6107 80.6469 48.5307 76.5369 48.3807 73.2269C48.3507 72.6669 47.9507 72.2769 47.3907 72.2369C37.5207 71.5369 27.6407 71.1869 17.7507 71.2069L18.0107 73.1569C23.6207 72.0669 29.1507 70.6169 34.5607 68.7869C39.9707 66.9569 44.6707 64.7969 49.8807 63.2569C52.4807 62.4869 55.1407 61.9169 57.8507 61.7469C60.5607 61.5769 63.5207 61.7469 66.3507 61.8769C72.1907 62.1569 78.0307 62.4469 83.8707 62.7269C90.5307 63.0469 97.2007 63.3769 103.861 63.6969C105.141 63.7569 105.131 61.7769 103.861 61.7169C92.0107 61.1469 80.1707 60.5669 68.3207 59.9969C62.7407 59.7269 57.2407 59.3969 51.7507 60.7069C46.2607 62.0169 41.4107 64.2469 36.2707 66.0969C30.1507 68.2969 23.8607 70.0069 17.4807 71.2469C16.3707 71.4669 16.6507 73.1969 17.7407 73.1969C27.6307 73.1869 37.5207 73.5269 47.3807 74.2269L46.3907 73.2369C46.5307 76.2469 47.2007 79.4869 49.4907 81.6469C51.4007 83.4469 54.1607 84.2669 56.6407 83.2069C59.1207 82.1469 60.6307 79.6169 61.8707 77.3169C62.1507 76.8069 62.4007 76.2769 62.7007 75.7769C63.2407 74.8769 63.8007 74.7269 64.8007 74.7269C66.7907 74.7269 68.7807 74.8069 70.7707 74.8769C74.7507 75.0069 78.7307 75.1869 82.7107 75.4269C84.5307 75.5369 86.3507 75.6569 88.1707 75.7869C89.9907 75.9169 91.9607 76.3269 93.7607 76.1969C95.0907 76.0969 95.6307 75.1069 95.9907 73.9569C96.5007 72.3169 96.7407 70.6169 97.2407 68.9769C97.6907 67.5169 98.3707 66.1869 99.5507 65.1869C100.821 64.1069 102.441 63.4469 103.931 62.7469C111.701 59.1169 119.671 55.9169 127.781 53.1269C128.981 52.7169 128.461 50.7969 127.251 51.2169H127.281Z" fill="black"/>
<path d="M126.491 52.1769C126.521 54.6669 125.401 56.9269 124.971 59.3369C124.481 62.0269 125.281 64.5469 125.511 67.2169C126.011 72.8869 125.081 78.6169 124.231 84.2169C123.391 89.7169 122.451 95.1969 121.541 100.687C121.431 101.327 121.351 101.977 121.221 102.617C121.071 103.387 120.991 103.547 120.311 103.897C119.061 104.557 117.801 105.207 116.541 105.857C114.161 107.087 111.781 108.297 109.381 109.477C103.821 112.217 98.1607 114.757 92.3207 116.837L93.5807 117.797C93.1407 112.597 95.4007 107.607 95.9007 102.467C96.4207 97.0769 95.9907 91.6069 95.7207 86.2169C95.5907 83.5469 95.4607 80.8769 95.4407 78.2069C95.4407 77.6969 95.3307 77.0069 95.4407 76.5069C95.6007 75.8169 96.2407 75.7769 96.8207 75.5669C97.9907 75.1469 99.1607 74.7569 100.331 74.3669C104.641 72.9369 109.001 71.6169 113.231 69.9269C117.951 68.0469 122.441 65.7269 126.371 62.4869C127.361 61.6769 125.951 60.2769 124.971 61.0869C117.531 67.2269 107.991 69.6969 99.0207 72.7169C97.9807 73.0669 96.9407 73.4269 95.9007 73.7969C94.9507 74.1369 93.9307 74.4269 93.5807 75.4769C93.2307 76.5269 93.4407 77.8569 93.4607 78.9369C93.4807 80.3969 93.5307 81.8469 93.5907 83.3069C93.8207 88.7969 94.3007 94.3069 94.0907 99.8069C93.9707 102.917 93.4207 105.887 92.7007 108.907C91.9807 111.927 91.3507 114.767 91.6007 117.787C91.6507 118.377 92.2007 118.977 92.8607 118.747C98.1907 116.847 103.391 114.567 108.491 112.107C111.041 110.877 113.571 109.607 116.091 108.307C117.281 107.697 118.471 107.077 119.651 106.467C120.611 105.967 122.001 105.547 122.661 104.637C123.321 103.727 123.281 102.247 123.461 101.187C123.731 99.5769 123.991 97.9669 124.261 96.3469C124.741 93.4369 125.231 90.5369 125.691 87.6269C126.601 81.9269 127.631 76.1269 127.631 70.3469C127.631 68.7969 127.541 67.2569 127.331 65.7169C127.111 64.0969 126.661 62.4669 126.761 60.8169C126.941 57.8469 128.511 55.1569 128.481 52.1369C128.471 50.8569 126.481 50.8569 126.501 52.1369L126.491 52.1769Z" fill="black"/>
<path d="M16.9806 72.2169C16.3606 79.6669 16.6206 87.1569 17.7506 94.5469C18.3406 98.4169 19.4206 102.247 19.7006 106.157C19.7606 106.947 19.7806 107.747 19.7506 108.537C19.7206 109.327 19.4506 110.287 19.5606 111.107C19.7706 112.647 21.3206 112.777 22.5606 113.047C29.9306 114.637 37.4806 115.147 44.9706 115.777C52.4606 116.407 60.5406 117.087 68.3206 117.737C72.6306 118.097 76.9306 118.457 81.2406 118.827C85.2406 119.167 89.1706 118.827 93.1706 118.807C94.4506 118.807 94.4506 116.817 93.1706 116.827C89.8307 116.847 86.4906 117.217 83.1506 117.007C79.5306 116.777 75.9206 116.407 72.3006 116.097C64.8506 115.467 57.4006 114.847 49.9406 114.217C42.4806 113.587 35.1506 113.167 27.8406 112.017C26.2506 111.767 24.6706 111.477 23.0906 111.137C22.8306 111.077 21.8506 111.007 21.6806 110.817C21.4706 110.587 21.5906 110.377 21.6306 109.967C21.7306 109.017 21.7706 108.067 21.7406 107.107C21.6306 103.637 20.7806 100.257 20.1506 96.8569C18.6506 88.7369 18.2906 80.4369 18.9706 72.2069C19.0806 70.9369 17.0906 70.9369 16.9906 72.2069L16.9806 72.2169Z" fill="black"/>
<defs>
<radialGradient id="paint0_radial_894_111" cx="0" cy="0" r="1" gradientUnits="userSpaceOnUse" gradientTransform="translate(35.3508 77.7869) scale(45.72 45.72)">
<stop offset="0.02" stop-color="#AC484D"/>
<stop offset="1" stop-color="#9F3E54"/>
</radialGradient>
<radialGradient id="paint1_radial_894_111" cx="0" cy="0" r="1" gradientUnits="userSpaceOnUse" gradientTransform="translate(56.6806 74.6069) scale(32.36 32.36)">
<stop offset="0.02" stop-color="#FFA874"/>
<stop offset="1" stop-color="#F49372"/>
</radialGradient>
<radialGradient id="paint2_radial_894_111" cx="0" cy="0" r="1" gradientUnits="userSpaceOnUse" gradientTransform="translate(110.071 64.8169) scale(31.04 31.04)">
<stop offset="0.02" stop-color="#BD4D4D"/>
<stop offset="1" stop-color="#9F3E54"/>
</radialGradient>
<radialGradient id="paint3_radial_894_111" cx="0" cy="0" r="1" gradientUnits="userSpaceOnUse" gradientTransform="translate(72.3506 61.4369) scale(30.92 30.92)">
<stop stop-color="#FFCF84"/>
<stop offset="0.98" stop-color="#FFB88B"/>
</radialGradient>
<radialGradient id="paint4_radial_894_111" cx="0" cy="0" r="1" gradientUnits="userSpaceOnUse" gradientTransform="translate(15.8907 63.0269) scale(5.16)">
<stop offset="0.02" stop-color="#FFA874"/>
<stop offset="1" stop-color="#F49372"/>
</radialGradient>
<radialGradient id="paint5_radial_894_111" cx="0" cy="0" r="1" gradientUnits="userSpaceOnUse" gradientTransform="translate(74.9208 17.7369) scale(21.9)">
<stop offset="0.02" stop-color="#FFA874"/>
<stop offset="1" stop-color="#F49372"/>
</radialGradient>
<radialGradient id="paint6_radial_894_111" cx="0" cy="0" r="1" gradientUnits="userSpaceOnUse" gradientTransform="translate(113.141 52.8469) scale(10.51 10.51)">
<stop stop-color="#FFCF84"/>
<stop offset="0.98" stop-color="#FFB88B"/>
</radialGradient>
<radialGradient id="paint7_radial_894_111" cx="0" cy="0" r="1" gradientUnits="userSpaceOnUse" gradientTransform="translate(97.4006 64.8669) scale(5.95 5.95)">
<stop offset="0.02" stop-color="#FFA874"/>
<stop offset="1" stop-color="#F49372"/>
</radialGradient>
<linearGradient id="paint8_linear_894_111" x1="20.2908" y1="114.607" x2="93.2308" y2="114.607" gradientUnits="userSpaceOnUse">
<stop stop-color="#D3B8D6"/>
<stop offset="1" stop-color="white"/>
</linearGradient>
<linearGradient id="paint9_linear_894_111" x1="37.5208" y1="26.1269" x2="74.7108" y2="26.1269" gradientUnits="userSpaceOnUse">
<stop stop-color="#D3B8D6"/>
<stop offset="1" stop-color="white"/>
</linearGradient>
</defs>
</svg>
